<?xml version="1.0" encoding="UTF-8"?>
<svg width="25px" height="26px" viewBox="0 0 25 26" version="1.1" xmlns="http://www.w3.org/2000/svg" xmlns:xlink="http://www.w3.org/1999/xlink">
    <!-- Generator: Sketch 55.2 (78181) - https://sketchapp.com -->
    <title>Housing-icon</title>
    <desc>Created with Sketch.</desc>
    <g id="How-do-I-make-a-return" stroke="none" stroke-width="1" fill="none" fill-rule="evenodd">
        <g id="How-do-I-make-return_tab2" transform="translate(-619.000000, -1107.000000)" fill="#208389">
            <g id="Group-5" transform="translate(560.000000, 1085.000000)">
                <g id="Group-15" transform="translate(59.000000, 22.000000)">
                    <g id="Housing-icon">
                        <path d="M24.609375,14.8828125 C24.8046875,14.8828125 25,15.0390625 25,15.2734375 L25,23.59375 C25,23.828125 24.84375,23.984375 24.609375,23.984375 L22.34375,23.984375 C22.109375,23.984375 21.953125,23.828125 21.953125,23.59375 L21.953125,22.2265625 C21.796875,22.2265625 21.6796875,22.2265625 21.6015625,22.265625 L21.6796875,22.34375 C21.71875,22.421875 21.7578125,22.5 21.7578125,22.6171875 C21.71875,23.7890625 21.015625,24.1796875 20.15625,23.90625 C20,24.6484375 19.375,24.9609375 18.515625,24.53125 C18.28125,25.0390625 17.734375,25.3125 16.9921875,25 C16.71875,25.625 16.0546875,25.6640625 15.46875,25.390625 C14.765625,25.1171875 12.34375,23.1640625 11.875,22.7734375 C11.875,22.7734375 11.8359375,22.734375 11.8359375,22.734375 C11.71875,22.578125 11.5234375,22.5 11.328125,22.421875 L11.328125,23.59375 C11.328125,23.828125 11.171875,23.984375 10.9375,23.984375 L8.671875,23.984375 C8.4375,23.984375 8.28125,23.828125 8.28125,23.59375 L8.28125,21.640625 L0.625,21.640625 C0.390625,21.640625 0.234375,21.484375 0.234375,21.25 L0.234375,19.6875 C0.234375,19.453125 0.390625,19.296875 0.625,19.296875 L1.5625,19.296875 L1.5625,9.6484375 C1.4453125,9.6875 1.3671875,9.6875 1.25,9.6875 C0.859375,9.6875 0.46875,9.4921875 0.234375,9.1796875 C-0.15625,8.6328125 -0.0390625,7.8515625 0.5078125,7.421875 L10.0390625,0.4296875 C10.5078125,0.1171875 11.1328125,0.1171875 11.5625,0.4296875 L14.3359375,2.5390625 L14.3359375,1.8359375 C14.3359375,1.6015625 14.4921875,1.4453125 14.7265625,1.4453125 L18.1640625,1.4453125 C18.3984375,1.4453125 18.5546875,1.6015625 18.5546875,1.8359375 L18.5546875,5.7421875 L20.78125,7.421875 C21.328125,7.8515625 21.4453125,8.6328125 21.015625,9.1796875 C20.703125,9.5703125 20.1953125,9.765625 19.6875,9.6484375 L19.6875,14.921875 C20.3125,15.1953125 21.25,15.46875 21.9921875,15.6640625 L21.9921875,15.2734375 C21.9921875,15.0390625 22.1484375,14.8828125 22.3828125,14.8828125 L24.609375,14.8828125 Z M15.0390625,2.2265625 L15.0390625,3.1640625 L17.6953125,5.15625 L17.6953125,2.2265625 L15.0390625,2.2265625 Z M0.8984375,8.7109375 C1.0546875,8.90625 1.3671875,8.984375 1.5625,8.828125 L1.7578125,8.671875 L10.46875,2.2265625 C10.5078125,2.2265625 10.546875,2.1875 10.5859375,2.1875 C10.703125,2.1484375 10.78125,2.1484375 10.859375,2.1875 C10.8984375,2.1875 10.9375,2.1875 10.9765625,2.2265625 L19.4921875,8.7109375 L19.6484375,8.828125 C19.84375,8.984375 20.15625,8.9453125 20.3125,8.75 C20.46875,8.5546875 20.4296875,8.2421875 20.234375,8.0859375 L17.9296875,6.328125 C17.890625,6.328125 17.890625,6.2890625 17.8515625,6.2890625 L14.4140625,3.671875 C14.375,3.671875 14.375,3.6328125 14.375,3.6328125 L10.9765625,1.0546875 C10.8984375,1.015625 10.8203125,0.9765625 10.703125,0.9765625 C10.625,0.9765625 10.5078125,0.9765625 10.4296875,1.0546875 L0.9765625,8.046875 C0.78125,8.203125 0.7421875,8.515625 0.8984375,8.7109375 Z M2.3828125,9.1796875 L2.3828125,19.296875 L8.3203125,19.296875 L8.3203125,15.2734375 C8.3203125,15.0390625 8.4765625,14.8828125 8.7109375,14.8828125 L10.9375,14.8828125 C11.171875,14.8828125 11.328125,15.0390625 11.328125,15.2734375 L11.328125,16.171875 L11.953125,16.40625 L14.6875,14.1796875 C16.015625,13.1640625 18.5546875,14.3359375 18.828125,14.4921875 L18.828125,9.1796875 L10.703125,3.0078125 L2.3828125,9.1796875 Z M1.015625,20.859375 L8.28125,20.859375 L8.28125,20.078125 L1.953125,20.078125 L1.015625,20.078125 L1.015625,20.859375 Z M10.546875,23.2421875 C10.546875,21.6015625 10.546875,17.34375 10.546875,15.6640625 L9.1015625,15.6640625 C9.1015625,15.7421875 9.1015625,23.3203125 9.1015625,23.2421875 L10.546875,23.2421875 Z M20.6640625,23.2421875 C20.7421875,23.2421875 20.9375,23.2421875 20.9765625,22.7734375 L16.5625,17.65625 C16.328125,17.65625 15.1171875,19.1015625 13.3984375,19.1015625 C12.34375,19.0625 11.5234375,18.4765625 11.2890625,17.6953125 L11.2890625,21.640625 C11.6015625,21.7578125 12.03125,21.9140625 12.34375,22.2265625 C13.4375,23.0859375 15.3125,24.53125 15.7421875,24.6875 C16.171875,24.84375 16.25,24.8828125 16.2890625,24.53125 L15.546875,23.4765625 C15.4296875,23.28125 15.46875,23.046875 15.6640625,22.9296875 C15.859375,22.8125 16.09375,22.8515625 16.2109375,23.046875 L16.953125,24.1015625 C17.109375,24.1796875 17.3828125,24.3359375 17.578125,24.3359375 C17.6171875,24.3359375 17.734375,24.3359375 17.8125,24.0234375 L17.0703125,22.96875 C16.953125,22.7734375 16.9921875,22.5390625 17.1875,22.421875 C17.3828125,22.3046875 17.6171875,22.34375 17.734375,22.5390625 L18.4765625,23.6328125 C18.59375,23.75 18.9453125,23.984375 19.1796875,23.984375 C19.3359375,23.984375 19.4140625,23.671875 19.4140625,23.4765625 L18.671875,22.421875 C18.5546875,22.2265625 18.59375,21.9921875 18.7890625,21.875 C18.984375,21.7578125 19.21875,21.796875 19.3359375,21.9921875 L20.078125,23.046875 C20.15625,23.0859375 20.4296875,23.2421875 20.6640625,23.2421875 Z M21.09375,21.6796875 C21.3671875,21.484375 21.6796875,21.4453125 21.953125,21.484375 L21.953125,16.4453125 C21.171875,16.25 19.140625,15.703125 18.4765625,15.1953125 C17.7734375,14.8828125 15.9765625,14.21875 15.1953125,14.8046875 C11.8359375,17.5390625 12.0703125,17.34375 12.0703125,17.421875 C12.0703125,17.65625 12.5,18.3203125 13.4375,18.3203125 C14.6484375,18.3203125 15.8203125,17.1875 15.8203125,17.1875 C16.2109375,16.7578125 16.875,16.796875 17.0703125,17.03125 L21.09375,21.6796875 Z M24.21875,23.2421875 L24.21875,15.6640625 L22.7734375,15.6640625 C22.7734375,18.3203125 22.7734375,20.625 22.7734375,23.2421875 L24.21875,23.2421875 Z M10.625,9.0234375 C9.4140625,9.0234375 8.4765625,8.046875 8.4765625,6.875 C8.4765625,5.703125 9.453125,4.7265625 10.625,4.7265625 C11.796875,4.7265625 12.7734375,5.703125 12.7734375,6.875 C12.7734375,8.046875 11.796875,9.0234375 10.625,9.0234375 Z M10.625,5.5078125 C9.84375,5.5078125 9.2578125,6.1328125 9.2578125,6.875 C9.2578125,7.6171875 9.8828125,8.2421875 10.625,8.2421875 C11.3671875,8.2421875 11.9921875,7.6171875 11.9921875,6.875 C11.9921875,6.1328125 11.3671875,5.5078125 10.625,5.5078125 Z M7.734375,9.375 C7.96875,9.375 8.125,9.5703125 8.125,9.765625 L8.125,12.6953125 C8.125,12.9296875 7.96875,13.0859375 7.734375,13.0859375 L4.8046875,13.0859375 C4.5703125,13.0859375 4.4140625,12.9296875 4.4140625,12.6953125 L4.4140625,9.765625 C4.4140625,9.53125 4.5703125,9.375 4.8046875,9.375 L7.734375,9.375 Z M7.34375,12.3046875 L7.34375,10.15625 L5.1953125,10.15625 L5.1953125,12.3046875 L7.34375,12.3046875 Z M13.4765625,13.0859375 C13.2421875,13.0859375 13.0859375,12.9296875 13.0859375,12.6953125 L13.0859375,9.765625 C13.0859375,9.53125 13.2421875,9.375 13.4765625,9.375 L16.40625,9.375 C16.640625,9.375 16.796875,9.53125 16.796875,9.765625 L16.796875,12.6953125 C16.796875,12.9296875 16.640625,13.0859375 16.40625,13.0859375 L13.4765625,13.0859375 Z M13.8671875,10.15625 L13.8671875,12.3046875 L16.015625,12.3046875 L16.015625,10.15625 L13.8671875,10.15625 Z" id="Combined-Shape"></path>
                    </g>
                </g>
            </g>
        </g>
    </g>
</svg>