<?xml version="1.0" encoding="UTF-8"?>
<svg width="24px" height="24px" viewBox="0 0 24 24" version="1.1" xmlns="http://www.w3.org/2000/svg" xmlns:xlink="http://www.w3.org/1999/xlink">
    <!-- Generator: Sketch 55.2 (78181) - https://sketchapp.com -->
    <title>Land-icon</title>
    <desc>Created with Sketch.</desc>
    <g id="How-do-I-make-a-return" stroke="none" stroke-width="1" fill="none" fill-rule="evenodd">
        <g id="How-do-I-make-return_tab2" transform="translate(-966.000000, -1104.000000)" fill="#208389">
            <g id="Group-4" transform="translate(888.000000, 1085.000000)">
                <g id="Group-14" transform="translate(78.000000, 19.000000)">
                    <g id="Land-icon">
                        <path d="M22.6828,8.1172 L23.8828,9.3172 C23.958,9.392 24,9.494 24,9.6 L24,23.6 C24,23.8208 23.8212,24 23.6,24 L21.2,24 C20.9788,24 20.8,23.8208 20.8,23.6 L20.8,22 L18.8,22 L18.8,23.6 C18.8,23.8208 18.6212,24 18.4,24 L16,24 C15.7788,24 15.6,23.8208 15.6,23.6 L15.6,22 L13.6,22 L13.6,23.6 C13.6,23.8208 13.4212,24 13.2,24 L10.8,24 C10.5788,24 10.4,23.8208 10.4,23.6 L10.4,22 L8.4,22 L8.4,23.6 C8.4,23.8208 8.2212,24 8,24 L5.6,24 C5.3788,24 5.2,23.8208 5.2,23.6 L5.2,22 L3.2,22 L3.2,23.6 C3.2,23.8208 3.0212,24 2.8,24 L0.4,24 C0.1788,24 0,23.8208 0,23.6 L0,9.6 C0,9.494 0.042,9.392 0.1172,9.3172 L1.3172,8.1172 C1.4736,7.9608 1.7264,7.9608 1.8828,8.1172 L3.0828,9.3172 C3.158,9.392 3.2,9.494 3.2,9.6 L3.2,11.6 L5.2,11.6 L5.2,9.6 C5.2,9.494 5.242,9.392 5.3172,9.3172 L6.5172,8.1172 C6.6736,7.9608 6.9264,7.9608 7.0828,8.1172 L8.2828,9.3172 C8.358,9.392 8.4,9.494 8.4,9.6 L8.4,11.6 L10.4,11.6 L10.4,9.6 C10.4,9.494 10.442,9.392 10.5172,9.3172 L11.7172,8.1172 C11.8736,7.9608 12.1264,7.9608 12.2828,8.1172 L13.4828,9.3172 C13.558,9.392 13.6,9.494 13.6,9.6 L13.6,11.6 L15.6,11.6 L15.6,9.6 C15.6,9.494 15.642,9.392 15.7172,9.3172 L16.9172,8.1172 C17.0736,7.9608 17.3264,7.9608 17.4828,8.1172 L18.6828,9.3172 C18.758,9.392 18.8,9.494 18.8,9.6 L18.8,11.6 L20.8,11.6 L20.8,9.6 C20.8,9.494 20.842,9.392 20.9172,9.3172 L22.1172,8.1172 C22.2736,7.9608 22.5264,7.9608 22.6828,8.1172 Z M2.4,23.2 L2.4,9.7656 L1.6,8.9656 L0.8,9.7656 L0.8,23.2 L2.4,23.2 Z M5.2,12.4 L3.2,12.4 L3.2,13.2 L5.2,13.2 L5.2,12.4 Z M5.2,14 L3.2,14 L3.2,19.6 L5.2,19.6 L5.2,14 Z M3.2,21.2 L5.2,21.2 L5.2,20.4 L3.2,20.4 L3.2,21.2 Z M7.6,23.2 L7.6,9.7656 L6.8,8.9656 L6,9.7656 L6,23.2 L7.6,23.2 Z M10.4,12.4 L8.4,12.4 L8.4,13.2 L10.4,13.2 L10.4,12.4 Z M10.4,14 L8.4,14 L8.4,19.6 L10.4,19.6 L10.4,14 Z M8.4,21.2 L10.4,21.2 L10.4,20.4 L8.4,20.4 L8.4,21.2 Z M12.8,23.2 L12.8,9.7656 L12,8.9656 L11.2,9.7656 L11.2,23.2 L12.8,23.2 Z M15.6,12.4 L13.6,12.4 L13.6,13.2 L15.6,13.2 L15.6,12.4 Z M15.6,14 L13.6,14 L13.6,19.6 L15.6,19.6 L15.6,14 Z M13.6,21.2 L15.6,21.2 L15.6,20.4 L13.6,20.4 L13.6,21.2 Z M18,23.2 L18,9.7656 L17.2,8.9656 L16.4,9.7656 L16.4,23.2 L18,23.2 Z M20.8,12.4 L18.8,12.4 L18.8,13.2 L20.8,13.2 L20.8,12.4 Z M20.8,14 L18.8,14 L18.8,19.6 L20.8,19.6 L20.8,14 Z M18.8,21.2 L20.8,21.2 L20.8,20.4 L18.8,20.4 L18.8,21.2 Z M23.2,23.2 L23.2,9.7656 L22.4,8.9656 L21.6,9.7656 L21.6,23.2 L23.2,23.2 Z M0.4,4.4 C0.1788,4.4 0,4.2208 0,4 C0,2.63 1.1708,1.522 2.5396,1.6044 C2.8712,0.6556 3.768,2.66453526e-15 4.8,2.66453526e-15 C5.5612,2.66453526e-15 6.2732,0.3692 6.7208,0.97 C7.2756,0.6 7.928,0.4 8.6,0.4 C10.4748,0.4 12,1.9252 12,3.8 C12,3.8628 11.996,3.9244 11.992,3.986 C11.9784,4.1964 11.8008,4.4 11.59,4.4 L0.4,4.4 Z M2.4,2.4 C1.656,2.4 1.0284,2.9108 0.8508,3.6 L11.1924,3.6 C11.09,2.2592 9.9664,1.2 8.6,1.2 C7.9652,1.2 7.3528,1.434 6.8752,1.8588 C6.7808,1.9432 6.6528,1.978 6.528,1.9516 C6.4044,1.926 6.3,1.8436 6.2468,1.7288 C5.9844,1.1644 5.4164,0.8 4.8,0.8 C4.0252,0.8 3.3644,1.3552 3.2288,2.1204 C3.21,2.228 3.148,2.3232 3.0568,2.3836 C2.9664,2.444 2.854,2.4648 2.7484,2.4412 C2.6244,2.4136 2.51,2.4 2.4,2.4 Z M20.6,3.2 C22.4748,3.2 24,4.7252 24,6.6 C24,6.6628 23.996,6.7244 23.992,6.786 C23.9784,6.9964 23.8008,7.2 23.59,7.2 L12.4,7.2 C12.1788,7.2 12,7.0208 12,6.8 C12,5.43 13.172,4.3192 14.5396,4.4044 C14.8712,3.4556 15.768,2.8 16.8,2.8 C17.5612,2.8 18.2732,3.1692 18.7208,3.77 C19.2756,3.4 19.928,3.2 20.6,3.2 Z M12.8508,6.4 L23.1924,6.4 C23.09,5.0592 21.9664,4 20.6,4 C19.9652,4 19.3528,4.234 18.8752,4.6588 C18.7808,4.7432 18.6528,4.778 18.528,4.7516 C18.4044,4.726 18.3,4.6436 18.2468,4.5288 C17.9844,3.9644 17.4164,3.6 16.8,3.6 C16.0252,3.6 15.3644,4.1552 15.2288,4.9204 C15.21,5.028 15.148,5.1232 15.0568,5.1836 C14.9664,5.244 14.854,5.2648 14.7484,5.2412 C14.6244,5.2136 14.51,5.2 14.4,5.2 C13.656,5.2 13.0284,5.7108 12.8508,6.4 Z" id="Combined-Shape"></path>
                    </g>
                </g>
            </g>
        </g>
    </g>
</svg>