<?xml version="1.0" encoding="UTF-8"?>
<svg width="62px" height="51px" viewBox="0 0 62 51" version="1.1" xmlns="http://www.w3.org/2000/svg" xmlns:xlink="http://www.w3.org/1999/xlink">
    <!-- Generator: Sketch 55.2 (78181) - https://sketchapp.com -->
    <title>noun_bill_210226</title>
    <desc>Created with Sketch.</desc>
    <g id="How-do-I-make-a-return" stroke="none" stroke-width="1" fill="none" fill-rule="evenodd">
        <g id="How-do-I-make-return_tab1" transform="translate(-613.000000, -1434.000000)" fill="#FFFFFF" fill-rule="nonzero">
            <g id="Group-4" transform="translate(208.000000, 1336.000000)">
                <g id="Group-6" transform="translate(170.000000, 94.000000)">
                    <g id="noun_bill_210226" transform="translate(235.000000, 4.000000)">
                        <path d="M40.212746,23 C40.6480975,23 41,23.447 41,24 C41,24.553 40.6480975,25 40.212746,25 L20.787254,25 C20.3519025,25 20,24.553 20,24 C20,23.447 20.3519025,23 20.787254,23 L40.212746,23 Z M40.212746,29 C40.6480975,29 41,29.447 41,30 C41,30.553 40.6480975,31 40.212746,31 L20.787254,31 C20.3519025,31 20,30.553 20,30 C20,29.447 20.3519025,29 20.787254,29 L40.212746,29 Z M40.212746,35 C40.6480975,35 41,35.447 41,36 C41,36.553 40.6480975,37 40.212746,37 L20.787254,37 C20.3519025,37 20,36.553 20,36 C20,35.447 20.3519025,35 20.787254,35 L40.212746,35 Z M30.5697538,17.0301894 C31.8133859,17.0301894 32.4154322,16.5991893 32.4139401,15.7057293 C32.4139401,13.6010648 27.422999,14.5676689 27.422999,11.0929276 C27.422999,9.81093835 28.1891719,8.70197834 29.9393584,8.49984875 L29.9393584,7.67874645 C29.9393584,7.30358763 30.227326,7 30.5682617,7 C30.9233721,7 31.2105936,7.30280114 31.2105936,7.67874645 L31.2105936,8.51400569 C32.3027816,8.65714804 33.2069701,9.11960796 33.6702547,9.81093835 C33.7538101,9.94149676 33.8082703,10.0987961 33.8082703,10.2718253 C33.8082703,10.6910279 33.479271,11.0370863 33.0704466,11.0370863 C32.8787168,11.0370863 32.6869871,10.9206849 32.4825749,10.7185553 C32.0588298,10.2867687 31.3486092,9.9548672 30.5690078,9.9548672 C29.432804,9.9548672 29.010551,10.5179987 29.010551,11.0929276 C29.010551,12.9813056 34,12.1035755 34,15.7057293 C34,17.2905197 33.0420974,18.3279085 31.2113397,18.5158812 L31.2113397,19.3228265 C31.2113397,19.6964124 30.9248641,20 30.5690078,20 C30.228072,20 29.9401044,19.6971989 29.9401044,19.3228265 L29.9401044,18.5158812 C28.613663,18.3436385 27.5744431,17.5933208 27.1096664,16.8013189 C27.0417777,16.6841309 27,16.5417751 27,16.3970597 C27,15.9637002 27.3297453,15.6192147 27.7258872,15.6192147 C28.0265374,15.6192147 28.190664,15.7914574 28.3271875,15.9361728 C28.9016306,16.5417751 29.6252798,17.0301894 30.5697538,17.0301894 Z M14.7863696,28 C14.3515072,28 14,27.6412109 14,27.1973398 L14,10.1464282 C14,4.55188625 18.4587156,0 23.9397117,0 L24.0773263,0 L37.2136304,0 C37.6484928,0 38,0.35878913 38,0.802660245 C38,1.24653136 37.6484928,1.60532049 37.2136304,1.60532049 L24.0773263,1.60532049 L23.9397117,1.60532049 C19.3252949,1.60532049 15.5727392,5.4372205 15.5727392,10.1464282 L15.5727392,27.1973398 C15.5727392,27.6412109 15.221232,28 14.7863696,28 Z M53.5703923,0.147660934 C58.3437942,0.943745968 62,5.11757486 62,10.1436641 C62,10.5874495 61.6435498,10.9461692 61.2025723,10.9461692 L50.7530804,10.9461692 C50.3121029,10.9461692 49.9556527,10.5874495 49.9556527,10.1436641 C49.9556527,9.69987884 50.3121029,9.34115907 50.7530804,9.34115907 L60.3676656,9.34115907 C60.0136077,5.53568001 57.166791,2.44924549 53.4922444,1.75347359 C49.974791,2.99494894 47.1399357,6.71616497 47.1399357,10.1436641 L47.1399357,40.8555334 C47.1399357,46.4449812 42.6241029,50.99358 37.0708167,50.9991975 C37.0700193,50.9991975 37.0692219,51 37.0684244,51 C37.0668296,51 37.0660322,51 37.0644373,51 C37.0628424,51 37.062045,51 37.0604502,51 C37.0596527,51 37.0588553,50.9991975 37.0580579,50.9991975 C36.9432283,50.9991975 36.8323859,50.9863574 36.7183537,50.9823449 C36.6888489,50.9847524 36.6641286,50.9991975 36.6346238,50.9991975 L19.4237428,50.9991975 C18.9827653,50.9991975 18.6263151,50.6404777 18.6263151,50.1966924 C18.6263151,49.7529071 18.9827653,49.3941873 19.4237428,49.3941873 L31.6363473,49.3941873 C29.055074,47.7249768 27.274418,44.9041715 27.020836,41.6572359 L1.63233441,41.6572359 C2.0358328,45.9915658 5.67050804,49.3941873 10.080283,49.3941873 L15.2468167,49.3941873 C15.6877942,49.3941873 16.0442444,49.7529071 16.0442444,50.1966924 C16.0442444,50.6404777 15.6877942,50.9991975 15.2468167,50.9991975 L10.080283,50.9991975 C4.52221222,50.9991975 0,46.4481912 0,40.8547308 C0,40.4109455 0.356450161,40.0522258 0.797427653,40.0522258 L13.5203859,40.0522258 L13.5203859,31.7462982 C13.5203859,31.3025129 13.876836,30.9437932 14.3178135,30.9437932 C14.758791,30.9437932 15.1152412,31.3025129 15.1152412,31.7462982 L15.1152412,40.0522258 L27.7863666,40.0522258 C28.2273441,40.0522258 28.5837942,40.4109455 28.5837942,40.8547308 C28.5837942,45.5622256 32.3875241,49.3917798 37.0644373,49.3941873 C41.7413505,49.3917798 45.5450804,45.5614231 45.5450804,40.8547308 L45.5450804,10.1444666 C45.5450804,6.98580667 47.5522058,3.62732294 50.3766945,1.60501015 L41.4694277,1.60501015 C41.0284502,1.60501015 40.672,1.24629038 40.672,0.802505075 C40.672,0.358719768 41.0284502,0 41.4694277,0 L51.9205145,0 C52.4412347,0 52.9499936,0.0521628299 53.4499807,0.129203317 C53.4914469,0.130808327 53.5297235,0.139635883 53.5703923,0.147660934 Z" id="Combined-Shape"></path>
                    </g>
                </g>
            </g>
        </g>
    </g>
</svg>