<?xml version="1.0" encoding="UTF-8"?>
<svg width="52px" height="52px" viewBox="0 0 52 52" version="1.1" xmlns="http://www.w3.org/2000/svg" xmlns:xlink="http://www.w3.org/1999/xlink">
    <!-- Generator: Sketch 55.2 (78181) - https://sketchapp.com -->
    <title>noun_Income_1449792</title>
    <desc>Created with Sketch.</desc>
    <g id="How-do-I-make-a-return" stroke="none" stroke-width="1" fill="none" fill-rule="evenodd">
        <g id="How-do-I-make-return_tab1" transform="translate(-869.000000, -1430.000000)" fill="#FFFFFF" fill-rule="nonzero">
            <g id="Group-4" transform="translate(208.000000, 1336.000000)">
                <g id="Group-6" transform="translate(170.000000, 94.000000)">
                    <g id="noun_Income_1449792" transform="translate(491.000000, 0.000000)">
                        <g id="Group">
                            <path d="M51.147541,42.6229508 C51.3180328,43.304918 51.0622951,44.0721311 50.4655738,44.4131148 L45.8622951,46.9704918 C45.1803279,47.3967213 44.4131148,47.652459 43.5606557,47.8229508 L36.9114754,49.1016393 C36.2295082,49.357377 35.4622951,49.442623 34.7803279,49.442623 L27.2786885,49.442623 C26.7672131,49.442623 26.1704918,49.442623 25.6590164,49.357377 L10.2295082,47.0557377 L10.2295082,52 L3.55271368e-15,52 L3.55271368e-15,31.5409836 L10.2295082,31.5409836 L10.2295082,34.0131148 C11.9344262,32.6491803 14.9180328,30.6885246 17.5606557,30.6885246 C17.5606557,30.6885246 17.5606557,30.6885246 17.6459016,30.6885246 C16.3672131,23.7836066 20.9704918,20.3737705 27.6196721,15.2590164 C28.0459016,14.9180328 28.4721311,14.4918033 28.8131148,14.0655738 L29.3245902,13.2983607 C28.642623,12.7868852 28.1311475,12.0196721 28.1311475,11.0819672 C28.1311475,10.0590164 28.642623,9.29180328 29.495082,8.86557377 C28.8983607,7.75737705 27.6196721,6.56393443 25.6590164,5.1147541 C25.147541,4.68852459 24.8918033,4.09180328 24.9770492,3.40983607 C25.0622951,2.72786885 25.5737705,2.21639344 26.1704918,2.04590164 L29.0688525,1.19344262 C29.9213115,1.02295082 30.7737705,1.19344262 31.3704918,1.70491803 L35.0360656,0.937704918 C35.6327869,0.852459016 36.1442623,0.937704918 36.6557377,1.19344262 L39.042623,2.38688525 L39.2131148,2.13114754 C39.5540984,1.44918033 40.2360656,1.02295082 40.9180328,0.852459016 C41.6852459,0.681967213 42.452459,0.937704918 42.9639344,1.36393443 L44.5836066,2.64262295 C45.0098361,2.98360656 45.2655738,3.49508197 45.1803279,4.09180328 C45.1803279,4.68852459 44.8393443,5.1147541 44.3278689,5.4557377 C43.2196721,6.22295082 42.452459,7.41639344 41.8557377,9.29180328 C42.3672131,9.71803279 42.6229508,10.4 42.6229508,11.0819672 C42.6229508,12.4459016 41.6852459,13.4688525 40.4065574,13.6393443 L40.4918033,13.895082 C40.747541,14.5770492 41.0885246,15.1737705 41.6,15.7704918 C48.7606557,23.6131148 51.4885246,28.642623 51.147541,33.1606557 C50.9770492,35.7180328 49.7836066,37.6786885 47.2262295,40.0655738 L47.5672131,39.9803279 C48.2491803,39.7245902 49.0163934,39.8098361 49.6131148,40.0655738 C50.295082,40.4065574 50.7213115,41.0032787 50.8918033,41.6852459 L51.147541,42.6229508 Z M40.0655738,11.9344262 C40.5770492,11.9344262 40.9180328,11.5934426 40.9180328,11.0819672 C40.9180328,10.5704918 40.5770492,10.2295082 40.0655738,10.2295082 L30.6885246,10.2295082 C30.1770492,10.2295082 29.8360656,10.5704918 29.8360656,11.0819672 C29.8360656,11.5934426 30.1770492,11.9344262 30.6885246,11.9344262 L39.8098361,11.9344262 L40.0655738,11.9344262 Z M26.5967213,3.75081967 C29.0688525,5.54098361 30.5180328,7.07540984 31.2,8.52459016 L40.0655738,8.52459016 C40.0655738,8.52459016 40.1508197,8.52459016 40.2360656,8.52459016 C41.0032787,6.39344262 42.0262295,4.85901639 43.4754098,4.00655738 L41.8557377,2.72786885 C41.7704918,2.64262295 41.5147541,2.55737705 41.2590164,2.55737705 C41.0032787,2.64262295 40.8327869,2.72786885 40.6622951,2.98360656 L38.2754098,7.24590164 L36.8262295,6.39344262 L38.2754098,3.83606557 L35.9737705,2.72786885 C35.8032787,2.64262295 35.6327869,2.64262295 35.4622951,2.64262295 L32.3934426,3.23934426 L34.0131148,6.39344262 L32.4786885,7.16065574 L30.5180328,3.32459016 C30.347541,2.98360656 29.9213115,2.81311475 29.495082,2.89836066 L26.5967213,3.75081967 Z M28.7278689,16.6229508 C21.3967213,22.1639344 18.157377,25.0622951 19.5213115,30.8590164 C20.8,31.1147541 21.9934426,31.5409836 23.1016393,32.1377049 C23.6131148,32.4786885 24.2098361,32.6491803 24.7213115,32.6491803 L33.2459016,33.0754098 L33.2459016,29.8360656 C30.8590164,29.8360656 28.9836066,27.9606557 28.9836066,25.5737705 L28.9836066,24.7213115 C28.9836066,22.3344262 30.8590164,20.4590164 33.2459016,20.4590164 L33.2459016,17.9016393 L34.9508197,17.9016393 L34.9508197,20.4590164 C37.3377049,20.4590164 39.2131148,22.3344262 39.2131148,24.7213115 L37.5081967,24.7213115 C37.5081967,23.2721311 36.4,22.1639344 34.9508197,22.1639344 L34.9508197,28.1311475 C37.3377049,28.1311475 39.2131148,30.0065574 39.2131148,32.3934426 L39.2131148,33.2459016 C39.2131148,35.6327869 37.3377049,37.5081967 34.9508197,37.5081967 L34.9508197,40.0655738 L33.2459016,40.0655738 L33.2459016,38.4459016 C33.0754098,38.5311475 32.8196721,38.6163934 32.6491803,38.6163934 L28.4721311,39.7245902 L34.7803279,41.2590164 C36.1442623,41.6 37.5081967,41.6852459 38.8721311,41.5147541 L43.4754098,40.9180328 L44.242623,40.747541 C47.5672131,38.0196721 49.1868852,35.6327869 49.442623,32.904918 C49.7836066,28.9836066 47.0557377,24.2098361 40.3213115,16.7934426 C39.6393443,16.0262295 39.1278689,15.2590164 38.8721311,14.3213115 L38.6163934,13.6393443 L31.2,13.6393443 L30.2622951,15.0032787 C29.8360656,15.6 29.3245902,16.1967213 28.7278689,16.6229508 Z M33.2459016,28.1311475 L33.2459016,22.1639344 C31.7967213,22.1639344 30.6885246,23.2721311 30.6885246,24.7213115 L30.6885246,25.5737705 C30.6885246,27.0229508 31.7967213,28.1311475 33.2459016,28.1311475 Z M35.3770492,33.842623 C35.7180328,34.2688525 35.8032787,34.7803279 35.6327869,35.2918033 L35.547541,35.7180328 C36.6557377,35.4622951 37.5081967,34.5245902 37.5081967,33.2459016 L37.5081967,32.3934426 C37.5081967,30.9442623 36.4,29.8360656 34.9508197,29.8360656 L34.9508197,33.4163934 C35.1213115,33.5868852 35.2065574,33.6721311 35.3770492,33.842623 Z M8.52459016,50.295082 L8.52459016,35.4622951 L8.52459016,33.2459016 L1.70491803,33.2459016 L1.70491803,50.295082 L8.52459016,50.295082 Z M45.0098361,45.6065574 L49.5278689,43.0491803 L49.2721311,42.1114754 C49.1868852,41.8557377 49.0163934,41.6852459 48.8459016,41.6 C48.5901639,41.5147541 48.3344262,41.5147541 48.1639344,41.6 L48.0786885,41.6 L43.8163934,42.6229508 L39.2131148,43.2196721 C37.6786885,43.3901639 36.0590164,43.304918 34.5245902,42.9639344 L21.8229508,39.8098361 L32.3934426,36.9114754 C33.0754098,36.8262295 33.6721311,36.3147541 33.842623,35.6327869 L34.0131148,34.8655738 L24.7213115,34.4393443 C23.8688525,34.3540984 23.0163934,34.0983607 22.2491803,33.6721311 C20.9704918,32.904918 19.2655738,32.4786885 17.5606557,32.4786885 C14.747541,32.4786885 11.1672131,35.3770492 10.2295082,36.2295082 L10.2295082,45.2655738 L25.9147541,47.5672131 C26.3409836,47.7377049 26.852459,47.7377049 27.2786885,47.7377049 L34.7803279,47.7377049 C35.3770492,47.7377049 35.9737705,47.652459 36.5704918,47.5672131 L43.2196721,46.2885246 C43.8163934,46.2032787 44.4131148,45.947541 45.0098361,45.6065574 Z M5.1147541,34.0983607 C6.56393443,34.0983607 7.67213115,35.2065574 7.67213115,36.6557377 C7.67213115,38.104918 6.56393443,39.2131148 5.1147541,39.2131148 C3.66557377,39.2131148 2.55737705,38.104918 2.55737705,36.6557377 C2.55737705,35.2065574 3.66557377,34.0983607 5.1147541,34.0983607 Z M5.1147541,37.5081967 C5.62622951,37.5081967 5.96721311,37.1672131 5.96721311,36.6557377 C5.96721311,36.1442623 5.62622951,35.8032787 5.1147541,35.8032787 C4.60327869,35.8032787 4.26229508,36.1442623 4.26229508,36.6557377 C4.26229508,37.1672131 4.60327869,37.5081967 5.1147541,37.5081967 Z" id="Combined-Shape"></path>
                        </g>
                    </g>
                </g>
            </g>
        </g>
    </g>
</svg>