<?xml version="1.0" encoding="UTF-8"?>
<svg width="12px" height="14px" viewBox="0 0 12 14" version="1.1" xmlns="http://www.w3.org/2000/svg" xmlns:xlink="http://www.w3.org/1999/xlink">
    <!-- Generator: Sketch 55.2 (78181) - https://sketchapp.com -->
    <title>noun_insurance_2051323</title>
    <desc>Created with Sketch.</desc>
    <g id="How-do-I-make-a-return" stroke="none" stroke-width="1" fill="none" fill-rule="evenodd">
        <g id="How-do-I-make-return_tab1" transform="translate(-816.000000, -1057.000000)" fill="#208389">
            <g id="noun_insurance_2051323" transform="translate(816.000000, 1057.000000)">
                <path d="M6.05,13.8312957 C5.9433582,13.8307786 5.83761265,13.8117444 5.7375,13.775 C4.8625,13.4625 1.9125,12.225 0.8125,9.60625 C-0.00625,7.65625 0.08125,4.4625 0.1875,3.18125 C0.1875,2.625 0.73125,2.41875 0.98125,2.325 C2.05,1.90625 4.73125,0.8125 5.625,0.3125 C5.90538669,0.15908561 6.24461331,0.15908561 6.525,0.3125 C7.4375,0.8125 10.08125,1.9 11.14375,2.31875 C11.5596942,2.41498373 11.8759583,2.75348513 11.94375,3.175 L11.94375,3.175 C12.01875,4.45625 12.10625,7.65 11.2875,9.6 C10.1875,12.21875 7.25625,13.45 6.3875,13.76875 C6.28009462,13.811193 6.16548142,13.8324176 6.05,13.8312957 Z M6.05,0.825 C5.99774191,0.825492443 5.94634182,0.838342466 5.9,0.8625 C4.95,1.38125 2.3,2.4625 1.1875,2.925 C0.85625,3.05 0.7875,3.1375 0.78125,3.2375 C0.7125,4.4875 0.625,7.55625 1.40625,9.3875 C2.40625,11.76875 5.15625,12.9125 5.9625,13.20625 C6.02680382,13.2313516 6.09819618,13.2313516 6.1625,13.20625 C6.975,12.9125 9.7,11.76875 10.7,9.3875 C11.4625,7.55625 11.38125,4.475 11.325,3.2375 C11.325,3.1375 11.25,3.05625 10.925,2.925 C9.8,2.48125 7.175,1.4 6.23125,0.88125 C6.17761239,0.845224104 6.11460966,0.825671533 6.05,0.825 Z" id="Shape"></path>
                <path d="M5.425,8.8625 L5.425,8.8625 C5.3357635,8.85431324 5.25409484,8.80894176 5.2,8.7375 L3.95,7.06875 C3.90027191,7.00244588 3.87891976,6.91910299 3.89064078,6.83705583 C3.90236181,6.75500866 3.94619588,6.68097809 4.0125,6.63125 C4.15144927,6.53119438 4.34462428,6.55879081 4.45,6.69375 L5.4875,8.08125 L8.55,5.2 C8.60867706,5.1408398 8.68855077,5.10756302 8.771875,5.10756302 C8.85519923,5.10756302 8.93507294,5.1408398 8.99375,5.2 C9.05254004,5.25760224 9.08566965,5.33644394 9.08566965,5.41875 C9.08566965,5.50105606 9.05254004,5.57989776 8.99375,5.6375 L5.65625,8.7625 C5.59617003,8.82617559 5.51254517,8.86233769 5.425,8.8625 Z" id="Path"></path>
            </g>
        </g>
    </g>
</svg>