<?xml version="1.0" encoding="UTF-8"?>
<svg width="14px" height="14px" viewBox="0 0 14 14" version="1.1" xmlns="http://www.w3.org/2000/svg" xmlns:xlink="http://www.w3.org/1999/xlink">
    <!-- Generator: Sketch 55.2 (78181) - https://sketchapp.com -->
    <title>noun_Money_81476</title>
    <desc>Created with Sketch.</desc>
    <g id="How-do-I-make-a-return" stroke="none" stroke-width="1" fill="none" fill-rule="evenodd">
        <g id="How-do-I-make-return_tab1" transform="translate(-816.000000, -1014.000000)" fill="#208389">
            <g id="noun_Money_81476" transform="translate(816.000000, 1014.000000)">
                <path d="M7,0 C3.13409091,0 0,3.13409091 0,7 C0,10.8659091 3.13409091,14 7,14 C10.8659091,14 14,10.8659091 14,7 C14,3.13409091 10.8659091,0 7,0 Z M7,13.5227273 C3.40454545,13.5227273 0.477272727,10.5954545 0.477272727,7 C0.477272727,3.40454545 3.40454545,0.477272727 7,0.477272727 C10.5954545,0.477272727 13.5227273,3.40454545 13.5227273,7 C13.5227273,10.5954545 10.5954545,13.5227273 7,13.5227273 Z" id="Shape"></path>
                <path d="M9.38636364,4.05681818 C9.51363636,4.05681818 9.625,3.94545455 9.625,3.81818182 C9.625,3.69090909 9.51363636,3.57954545 9.38636364,3.57954545 L7.23863636,3.57954545 L7.23863636,2.22727273 C7.23863636,2.1 7.12727273,1.98863636 7,1.98863636 C6.87272727,1.98863636 6.76136364,2.1 6.76136364,2.22727273 L6.76136364,3.57954545 L6.20454545,3.57954545 C5.20227273,3.57954545 4.375,4.40681818 4.375,5.40909091 C4.375,6.41136364 5.20227273,7.23863636 6.20454545,7.23863636 L6.76136364,7.23863636 L6.76136364,9.94318182 L4.61363636,9.94318182 C4.48636364,9.94318182 4.375,10.0545455 4.375,10.1818182 C4.375,10.3090909 4.48636364,10.4204545 4.61363636,10.4204545 L6.76136364,10.4204545 L6.76136364,11.7727273 C6.76136364,11.9 6.87272727,12.0113636 7,12.0113636 C7.12727273,12.0113636 7.23863636,11.9 7.23863636,11.7727273 L7.23863636,10.4204545 L7.79545455,10.4204545 C8.79772727,10.4204545 9.625,9.59318182 9.625,8.59090909 C9.625,7.58863636 8.79772727,6.76136364 7.79545455,6.76136364 L7.23863636,6.76136364 L7.23863636,4.05681818 L9.38636364,4.05681818 Z M7.79545455,7.23863636 C8.54318182,7.23863636 9.14772727,7.84318182 9.14772727,8.59090909 C9.14772727,9.33863636 8.54318182,9.94318182 7.79545455,9.94318182 L7.23863636,9.94318182 L7.23863636,7.23863636 L7.79545455,7.23863636 Z M6.76136364,6.76136364 L6.20454545,6.76136364 C5.45681818,6.76136364 4.85227273,6.15681818 4.85227273,5.40909091 C4.85227273,4.66136364 5.45681818,4.05681818 6.20454545,4.05681818 L6.76136364,4.05681818 L6.76136364,6.76136364 Z" id="Shape"></path>
            </g>
        </g>
    </g>
</svg>