<?xml version="1.0" encoding="UTF-8"?>
<svg width="49px" height="49px" viewBox="0 0 49 49" version="1.1" xmlns="http://www.w3.org/2000/svg" xmlns:xlink="http://www.w3.org/1999/xlink">
    <!-- Generator: Sketch 55.2 (78181) - https://sketchapp.com -->
    <title>noun_Money Bag_2442233</title>
    <desc>Created with Sketch.</desc>
    <g id="How-do-I-make-a-return" stroke="none" stroke-width="1" fill="none" fill-rule="evenodd">
        <g id="How-do-I-make-return_tab1" transform="translate(-378.000000, -1436.000000)" fill="#FFFFFF" fill-rule="nonzero">
            <g id="Group-4" transform="translate(208.000000, 1336.000000)">
                <g id="Group-6" transform="translate(170.000000, 94.000000)">
                    <g id="noun_Money-Bag_2442233" transform="translate(0.000000, 6.000000)">
                        <path d="M48.2779932,38.5240443 C48.2891473,38.5454963 48.3032485,38.5640762 48.3122714,38.5866501 C49.5428387,40.6731549 48.8219548,43.3895335 47.396782,44.8834587 C46.2733567,46.0614821 44.6640976,46.6564403 42.8430486,46.3080911 C40.717441,45.8743824 38.6426158,46.0039924 36.7415391,46.6757382 C33.335126,47.869873 28.9954042,48.5272576 24.5203835,48.5272576 C20.0450001,48.5272576 15.7056411,47.8698731 12.3006788,46.6760972 C10.4783149,46.0377413 8.38825495,45.9224926 6.05988037,46.3321462 C2.9350379,46.8778723 0.339284513,44.4913977 0.107816343,41.3753735 C-0.0873332884,38.7871237 1.24098993,36.2624225 3.41339007,35.0941378 C4.57848423,34.469784 5.55060508,33.2835478 6.15092602,31.7537196 C8.47599073,25.7710625 12.9828411,18.9837287 16.5168451,14.1464233 C15.9093603,13.5683396 15.5500292,12.7587262 15.5500292,11.8950339 C15.5500292,10.167739 16.969761,8.76249426 18.7148631,8.76249426 L18.7361735,8.76249426 L16.1949661,0.963278382 C16.122057,0.739243456 16.1615947,0.494743824 16.3012465,0.304457721 C16.4412609,0.114530662 16.6643409,0.00215419118 16.9019301,0.00215419118 L32.1326703,0.00215419118 C32.3702597,0.00215419118 32.5933396,0.114530662 32.733354,0.304457721 C32.8730057,0.494743824 32.9125435,0.739243456 32.8396344,0.963278382 L30.298427,8.76249426 L30.3182865,8.76249426 C32.0951729,8.76249426 33.4831204,10.1970449 33.4831204,11.8950339 C33.4831204,12.7572003 33.1253309,13.5652879 32.515851,14.1453911 C36.2751114,19.2821727 41.0221355,26.4694214 43.2315341,32.6724782 C44.3289335,35.7839696 46.6329598,35.8126472 48.2779932,38.5240443 Z M17.9219316,1.47274243 L20.2971439,8.76249426 L28.7374566,8.76249426 L31.1126689,1.47274243 L17.9219316,1.47274243 Z M18.7148631,10.2330825 C17.7891718,10.2330825 17.0357781,10.9787885 17.0357781,11.8950339 C17.0357781,12.7962898 17.7679067,13.5494457 18.7148631,13.5494457 L30.3182866,13.5494457 C31.260074,13.5494457 31.9973715,12.7972771 31.9973715,11.8950339 C31.9973715,10.987495 31.254089,10.2330825 30.3182866,10.2330825 C24.0540466,10.2343391 18.3421563,10.2334415 18.7148631,10.2330825 Z M46.3165671,43.8742245 C47.3870789,42.7513123 47.7766527,40.8279419 47.1761958,39.5906335 L42.7251607,39.5906335 C42.3149112,39.5906335 41.9822863,39.2614026 41.9822863,38.8553393 C41.9822863,38.449276 42.3149112,38.1200452 42.7251607,38.1200452 L46.0696831,38.1200452 C45.0550319,37.1063231 44.5534647,36.9783737 43.6024276,35.9909954 L38.6487825,35.9909954 C38.2385329,35.9909954 37.905908,35.6617646 37.905908,35.2557012 C37.905908,34.8496379 38.2385329,34.5204071 38.6487825,34.5204071 L42.4754202,34.5204071 C42.2162937,34.0860702 41.996433,33.63257 41.8295765,33.1593232 C39.6637057,27.0780674 34.9409392,19.9541876 31.2280178,14.8907829 C31.0544507,14.941855 30.6606147,15.0200338 30.3182867,15.0200338 L18.7148632,15.0200338 C18.3716283,15.0200338 17.992211,14.9456696 17.8051322,14.8911419 C14.3120262,19.662655 9.82358441,26.3991411 7.53656119,32.2840073 C6.80783327,34.1405531 5.59558397,35.5967801 4.12180519,36.3870059 C2.45505318,37.2835046 1.4368652,39.2445283 1.58921248,41.2669462 C1.75838149,43.5373193 3.56655355,45.2775843 5.80052721,44.8841768 C8.14912418,44.4700353 10.5394352,44.4981743 12.7968958,45.2902401 C16.0462461,46.4290843 20.2096803,47.0566693 24.5203835,47.0566693 C28.830724,47.0566693 32.9941582,46.4290843 36.2435085,45.2902401 C38.3970464,44.5283777 40.7642333,44.3826114 43.1343221,44.8658662 C44.4146742,45.1115776 45.5262654,44.702687 46.3165671,43.8742245 Z M24.5171189,21.7026654 C30.1634002,21.7026654 34.7566713,26.2490665 34.7566713,31.8377326 C34.7566713,37.4263987 30.1634001,41.9727999 24.5171189,41.9727999 C18.8708377,41.9727999 14.2775664,37.4263987 14.2775664,31.8377326 C14.2775664,26.2490665 18.8708377,21.7026654 24.5171189,21.7026654 Z M24.5171189,40.5022116 C29.3439893,40.5022116 33.2709224,36.6153493 33.2709224,31.8377326 C33.2709224,27.060116 29.3439893,23.1732537 24.5171189,23.1732537 C19.6902485,23.1732537 15.7633154,27.060116 15.7633154,31.8377326 C15.7633154,36.6153493 19.6902485,40.5022116 24.5171189,40.5022116 Z M25.1773359,30.8723899 C27.0555605,31.3095542 28.4470446,31.9523979 28.4470446,33.8695751 C28.4470446,35.6769787 26.9960726,36.7183461 25.1331734,36.8088218 L25.1331734,37.8535551 L24.1946505,37.8535551 L24.1946505,36.7940566 C22.8551277,36.6588368 21.6528536,36.1314662 20.5872386,35.212528 L21.6576144,33.9498632 C22.479247,34.6562105 23.3246839,35.0766799 24.1946504,35.212528 L24.1946504,32.3966532 C22.2723992,31.9426144 20.9977148,31.3174529 20.9977148,29.4721716 C20.9977148,27.7038574 22.3972243,26.6394671 24.1946504,26.5476451 L24.1946504,25.8218204 L25.1331733,25.8218204 L25.1331733,26.5618268 C26.2083554,26.6397813 27.2250469,27.0024019 28.1832933,27.6508556 L27.2298531,28.9861343 C26.5848708,28.5313775 25.8855695,28.250885 25.1331733,28.1439837 L25.1331733,30.8723899 L25.1773359,30.8723899 Z M24.1946504,30.6113748 L24.1946504,28.1002718 C23.4409847,28.1670514 22.7871155,28.5581251 22.7871155,29.2979521 C22.7871155,30.0968394 23.3675316,30.3482953 24.1946504,30.6113748 Z M25.1331733,35.2556116 C25.9158122,35.1758171 26.6582333,34.7884235 26.6582333,34.0077568 C26.6582333,33.16794 26.0064045,32.9029307 25.1331733,32.6435313 L25.1331733,35.2556116 Z M38.8827442,32.0413029 C38.5318466,32.2511561 38.0745779,32.1394976 37.8631054,31.7917768 L36.5177336,29.5858944 C36.3055356,29.238353 36.4183452,28.7863339 36.7698321,28.5766601 C37.1205937,28.3655504 37.5776356,28.4779268 37.7894709,28.8261862 L39.1348427,31.0320686 C39.3470407,31.37961 39.2342311,31.8316291 38.8827442,32.0413029 Z M36.5275274,41.3290585 C36.8949746,41.1509794 37.3407718,41.3014132 37.5210495,41.666547 C37.7013271,42.0313218 37.5489798,42.4714929 37.1808072,42.649931 C37.0770659,42.7001953 34.7305547,43.8279096 32.9230628,43.8279096 C32.8349189,43.8279096 32.7482261,43.8250373 32.6629841,43.8192928 C32.2534601,43.7923656 31.9436872,43.442311 31.9712549,43.0369657 C31.9984597,42.6316205 32.3593777,42.3149557 32.7616472,42.3522949 C33.9535834,42.4287684 35.8844041,41.6399787 36.5275274,41.3290585 Z" id="Combined-Shape"></path>
                    </g>
                </g>
            </g>
        </g>
    </g>
</svg>