<?xml version="1.0" encoding="UTF-8"?>
<svg width="14px" height="14px" viewBox="0 0 14 14" version="1.1" xmlns="http://www.w3.org/2000/svg" xmlns:xlink="http://www.w3.org/1999/xlink">
    <!-- Generator: Sketch 55.2 (78181) - https://sketchapp.com -->
    <title>noun_service_1235555</title>
    <desc>Created with Sketch.</desc>
    <g id="How-do-I-make-a-return" stroke="none" stroke-width="1" fill="none" fill-rule="evenodd">
        <g id="How-do-I-make-return_tab1" transform="translate(-816.000000, -1141.000000)" fill="#208389">
            <g id="noun_service_1235555" transform="translate(816.000000, 1141.000000)">
                <path d="M13.6748889,8.58108696 L12.334,7.55543478 C12.3795819,7.18648736 12.3795819,6.81351264 12.334,6.44456522 L13.6764444,5.4173913 C13.8977736,5.24316986 13.9570933,4.93754427 13.8164444,4.69608696 L12.4444444,2.38456522 C12.3048324,2.1425111 12.0065888,2.03495278 11.7397778,2.13043478 L10.1577778,2.75586957 C9.85246815,2.53680463 9.52390241,2.35058337 9.17777778,2.20043478 L8.93666667,0.556956522 C8.89834692,0.280204654 8.65592413,0.0743248115 8.37044444,0.0760617256 L5.63266667,0.0760617256 C5.34796686,0.0734485195 5.10554054,0.278028306 5.06644444,0.553913043 L4.82222222,2.20043478 C4.47717685,2.35232256 4.14925659,2.53898347 3.84377778,2.7573913 L2.26177778,2.13043478 C1.99570664,2.02844996 1.69357858,2.13521614 1.55555556,2.38 L0.189777778,4.69456522 C0.0448725345,4.93601321 0.103928222,5.24499533 0.328222222,5.41891304 L1.66911111,6.44456522 C1.62352921,6.81351264 1.62352921,7.18648736 1.66911111,7.55543478 L0.326666667,8.5826087 C0.105337547,8.75683014 0.0460178118,9.06245573 0.186666667,9.30391304 L1.55555556,11.6154348 C1.69495933,11.8595047 1.99562777,11.9674609 2.26333333,11.8695652 L3.84533333,11.2486957 C4.14988203,11.4659754 4.47738672,11.6506559 4.82222222,11.7995652 L5.06333333,13.4430435 C5.10165308,13.7197953 5.34407587,13.9256752 5.62955556,13.9239404 L8.36733333,13.9239404 C8.65151782,13.9266535 8.89375037,13.7228883 8.93355556,13.4476087 L9.17777778,11.7995652 C9.522787,11.6476087 9.85070016,11.4609518 10.1562222,11.2426087 L11.7413333,11.8695652 C12.0065259,11.969772 12.3066378,11.863249 12.4444444,11.62 L13.8164444,9.29782609 C13.9547323,9.05718856 13.8948552,8.75401236 13.6748889,8.58108696 Z M13.412,9.07565217 L12.04,11.3963043 C12.0158789,11.440556 11.9613503,11.4596541 11.914,11.4404348 L10.2028889,10.7708696 C10.1272247,10.740999 10.0411069,10.7519625 9.97577778,10.7997826 C9.63656508,11.0541319 9.26538456,11.2648387 8.87133333,11.4267391 C8.79477265,11.4571162 8.74034069,11.5248346 8.72822222,11.6047826 L8.47466667,13.3913043 C8.46539835,13.4398827 8.42090227,13.4743159 8.37044444,13.4720708 L5.63266667,13.4720708 C5.58069015,13.4740067 5.53560481,13.4371426 5.52844444,13.3867391 L5.26866667,11.6078261 C5.25856495,11.5290132 5.20730855,11.4610043 5.13333333,11.4282609 C4.73628586,11.2697543 4.36273985,11.0599161 4.02266667,10.8043478 C3.98204978,10.7738566 3.9323089,10.7572803 3.88111111,10.7571739 C3.85123895,10.7571722 3.82165193,10.7628575 3.794,10.773913 L2.09688889,11.438913 C2.0460522,11.4572919 1.98905737,11.4374249 1.96155556,11.3917391 L0.594222222,9.08021739 C0.566968689,9.0331842 0.578858622,8.97373454 0.622222222,8.94021739 L2.06577778,7.83543478 C2.13027884,7.78576908 2.16335863,7.70660103 2.15288889,7.62695652 C2.1239362,7.4186223 2.10835014,7.20871866 2.10622222,6.99847826 C2.10835014,6.78823787 2.1239362,6.57833422 2.15288889,6.37 C2.16335863,6.29035549 2.13027884,6.21118744 2.06577778,6.16152174 L0.622222222,5.05978261 C0.579998687,5.02735568 0.569298695,4.96913086 0.597333333,4.92434783 L1.96933333,2.60217391 C1.99345447,2.5579223 2.04798304,2.53882412 2.09533333,2.55804348 L3.80644444,3.2276087 C3.87901601,3.25216037 3.95928997,3.24021033 4.02111111,3.19565217 C4.3628571,2.94171926 4.73668824,2.73201465 5.13333333,2.57173913 C5.20989402,2.54136206 5.26432598,2.47364366 5.27644444,2.39369565 L5.52844444,0.608695652 C5.53771276,0.560117263 5.58220884,0.525684058 5.63266667,0.527929243 L8.37044444,0.527929243 C8.42242096,0.525993294 8.4675063,0.562857362 8.47466667,0.61326087 L8.73444444,2.3876087 C8.74656291,2.4675567 8.80099487,2.53527511 8.87755556,2.56565217 C9.27220261,2.72670994 9.64310757,2.93858089 9.98044444,3.19565217 C10.045719,3.24483563 10.1327771,3.25642278 10.2091111,3.22608696 L11.9062222,2.55956522 C11.9570589,2.54118639 12.0140537,2.56105341 12.0415556,2.60673913 L13.4088889,4.91978261 C13.4375747,4.96538563 13.428365,5.02459122 13.3871111,5.05978261 L11.9435556,6.16456522 C11.8790545,6.21423092 11.8459747,6.29339897 11.8564444,6.37304348 C11.885385,6.58137894 11.900971,6.79128184 11.9031111,7.00152174 C11.900971,7.21176164 11.885385,7.42166454 11.8564444,7.63 C11.8459747,7.70964451 11.8790545,7.78881256 11.9435556,7.83847826 L13.3871111,8.94173913 C13.4267182,8.97501189 13.4370999,9.03087027 13.412,9.07565217 Z" id="Shape"></path>
                <path d="M7,3.2747593 C5.18511478,3.27683828 3.62435297,4.53254474 3.27193891,6.2741835 C2.91952485,8.01582227 3.87357344,9.75850719 5.5507949,10.4367891 C7.22801637,11.115071 9.16145885,10.5401108 10.1690471,9.06342974 C11.1766354,7.58674871 10.9778488,5.61946668 9.69422222,4.36434783 C8.98100787,3.66363338 8.01080528,3.27127563 7,3.2747593 Z M5.06488889,9.66608696 C4.7553921,9.4554754 4.48718756,9.19207045 4.27311111,8.88847826 C4.28866318,8.88102559 4.30327932,8.87183376 4.31666667,8.86108696 L5.71666667,7.49152174 C5.78259906,7.42744656 5.8033751,7.3312046 5.76955556,7.24652174 C5.54829551,6.66590296 5.67301481,6.01321066 6.09373647,5.54998893 C6.51445813,5.0867672 7.16234468,4.88880726 7.77777778,5.03543478 L6.75266667,6.0626087 C6.66271206,6.15154951 6.66271206,6.29475484 6.75266667,6.38369565 L7.64244444,7.25413043 C7.73354324,7.34313798 7.88112343,7.34313798 7.97222222,7.25413043 L8.98333333,6.265 C9.11768242,6.82763642 8.94733924,7.41834676 8.53222222,7.82934783 C8.06619064,8.29564921 7.36224254,8.44795142 6.73866667,8.2173913 C6.65213757,8.18388965 6.55351625,8.20426376 6.48822222,8.26913043 L5.08822222,9.63869565 C5.08034695,9.64626388 5.073067,9.65440295 5.06644444,9.66304348 L5.06488889,9.66608696 Z M9.366,9.31304348 C8.33805036,10.3142127 6.76793726,10.5538256 5.47711111,9.90652174 L6.72155556,8.68913043 C7.48312191,8.91178219 8.30812614,8.70518648 8.86666667,8.15195652 C9.50756899,7.51691983 9.67976849,6.56011381 9.29911111,5.74913043 C9.26735037,5.68133336 9.20373705,5.63298971 9.12873193,5.61964887 C9.0537268,5.60630804 8.97678961,5.62965259 8.92266667,5.68217391 L7.81355556,6.76717391 L7.24888889,6.21934783 L8.36266667,5.10543478 C8.41477817,5.05333204 8.43831812,4.98001492 8.42601827,4.90812098 C8.41371843,4.83622705 8.36705818,4.77440351 8.30044444,4.74173913 C7.5266597,4.38941294 6.61381388,4.51174178 5.96538988,5.05465563 C5.31696587,5.59756947 5.05250049,6.4609823 5.28888889,7.26326087 L4.02888889,8.49434783 C3.24694291,7.00509928 3.74168036,5.17862365 5.17487526,4.26358624 C6.60807016,3.34854883 8.51632534,3.64081012 9.59506715,4.94056645 C10.673809,6.24032278 10.5742461,8.12732187 9.36444444,9.31152174 L9.366,9.31304348 Z" id="Shape"></path>
            </g>
        </g>
    </g>
</svg>