<?xml version="1.0" encoding="UTF-8"?>
<svg width="14px" height="14px" viewBox="0 0 14 14" version="1.1" xmlns="http://www.w3.org/2000/svg" xmlns:xlink="http://www.w3.org/1999/xlink">
    <!-- Generator: Sketch 55.2 (78181) - https://sketchapp.com -->
    <title>noun_management_1133711</title>
    <desc>Created with Sketch.</desc>
    <g id="How-do-I-make-a-return" stroke="none" stroke-width="1" fill="none" fill-rule="evenodd">
        <g id="How-do-I-make-return_tab1" transform="translate(-817.000000, -1097.000000)" fill="#208389">
            <g id="noun_management_1133711" transform="translate(817.000000, 1097.000000)">
                <path d="M7.05201598,7.97902914 C7.73491828,8.26073121 8.34198096,8.71817065 8.79349856,9.29770453 C9.36114853,10.0263694 9.6612069,10.8968838 9.6612069,11.8151422 L9.6612069,13.6999561 C9.6612069,13.8272428 9.55566631,13.930381 9.42548491,13.930381 L1.38441092,13.930381 C1.25422953,13.930381 1.14868894,13.8272428 1.14868894,13.6999561 L1.14868894,11.8151422 C1.14868894,10.9049947 1.44387572,10.0406557 2.0024111,9.31546261 C2.44569415,8.73986131 3.04273078,8.28229898 3.71522989,7.99626492 C2.94130747,7.40109287 2.46118894,6.41026598 2.46118894,5.35003511 C2.46118894,5.30822068 2.46219468,5.26671348 2.46367187,5.22532918 C1.08884698,5.12176088 0.00238864943,3.99593574 0.00238864943,2.6259217 C0.00238864943,1.18788624 1.19922773,0.017973139 2.67032148,0.017973139 C3.96886674,0.017973139 5.05306214,0.929656777 5.28975844,2.13247454 C5.31694504,2.13161429 5.34425736,2.13115344 5.37163254,2.13115344 C6.97649066,2.13115344 8.28213901,3.5751185 8.28213901,5.35003511 C8.28213901,5.96235077 8.12618534,6.55795295 7.83115571,7.07244558 C7.62623473,7.42978845 7.36134608,7.73714449 7.05201598,7.97902914 Z M0.473832615,2.62595242 C0.473832615,3.80990607 1.45918193,4.77311271 2.67032148,4.77311271 C3.88146103,4.77311271 4.86684177,3.80990607 4.86684177,2.62595242 C4.86684177,1.44206022 3.88146103,0.478853581 2.67032148,0.478853581 C1.45918193,0.478853581 0.473832615,1.44206022 0.473832615,2.62595242 Z M9.18982579,13.4695313 L9.18982579,11.8151115 C9.18982579,10.1815836 8.07011494,8.72121225 6.46692259,8.2637421 C6.37549389,8.23765801 6.30911458,8.16038887 6.29864853,8.06785025 C6.2882139,7.97531162 6.33573545,7.88575316 6.41908675,7.84077423 C7.26448006,7.38496313 7.81072647,6.40728581 7.81072647,5.35000439 C7.81072647,3.82923104 6.71656789,2.59197244 5.37166397,2.59197244 C5.3602236,2.59197244 5.34881466,2.59234112 5.33743714,2.59252546 C5.33756286,2.60367802 5.33828574,2.61470769 5.33828574,2.62589098 C5.33828574,3.97642644 4.28262841,5.09036166 2.93561871,5.22093574 C2.93382723,5.26373332 2.9326329,5.30671524 2.9326329,5.35000439 C2.9326329,6.41822331 3.48723958,7.40017117 4.34564476,7.85165028 C4.42946749,7.89573824 4.47793193,7.98480513 4.46850305,8.0774052 C4.45907417,8.17000527 4.39357489,8.24795032 4.30252335,8.27504828 C2.69810524,8.75199702 1.6201329,10.1746401 1.6201329,11.8151422 L1.6201329,13.4695313 L9.18982579,13.4695313 Z M2.90604346,2.64693645 L3.90091595,2.05591204 L4.14575251,2.44972349 L2.79277119,3.25350685 C2.75518139,3.2758427 2.71278287,3.28702598 2.67032148,3.28702598 C2.63050018,3.28702598 2.59071031,3.27719452 2.55475485,3.25743943 C2.48054957,3.21663887 2.4345995,3.13986131 2.4345995,3.05660112 L2.4345995,1.09780548 L2.90604346,1.09780548 L2.90604346,2.64693645 Z M10.4075027,3.04059428 L13.9523527,3.04059428 L13.9523527,3.501444 L10.4075027,3.501444 L10.4075027,3.04059428 Z M10.4075027,4.77292837 L13.9523527,4.77292837 L13.9523527,5.23377809 L10.4075027,5.23377809 L10.4075027,4.77292837 Z M10.4075027,6.50560042 L13.9523527,6.50560042 L13.9523527,6.96645014 L10.4075027,6.96645014 L10.4075027,6.50560042 Z M9.05430136,3.04059428 L9.66563847,3.04059428 L9.66563847,3.501444 L9.05430136,3.501444 L9.05430136,3.04059428 Z M9.05430136,4.77292837 L9.66563847,4.77292837 L9.66563847,5.23377809 L9.05430136,5.23377809 L9.05430136,4.77292837 Z M9.05430136,6.50560042 L9.66563847,6.50560042 L9.66563847,6.96645014 L9.05430136,6.96645014 L9.05430136,6.50560042 Z" id="Combined-Shape"></path>
            </g>
        </g>
    </g>
</svg>