<?xml version="1.0" encoding="UTF-8"?>
<svg width="15px" height="16px" viewBox="0 0 15 16" version="1.1" xmlns="http://www.w3.org/2000/svg" xmlns:xlink="http://www.w3.org/1999/xlink">
    <!-- Generator: Sketch 55.2 (78181) - https://sketchapp.com -->
    <title>noun_management_939453</title>
    <desc>Created with Sketch.</desc>
    <g id="How-do-I-make-a-return" stroke="none" stroke-width="1" fill="none" fill-rule="evenodd">
        <g id="How-do-I-make-return_tab1" transform="translate(-816.000000, -973.000000)" fill="#208389">
            <g id="noun_management_939453" transform="translate(816.000000, 973.000000)">
                <g id="Group" transform="translate(0.000000, 0.355556)">
                    <path d="M1.96883721,9.6832 C2.22122093,10.3946667 2.0052907,11.1971556 1.43162791,11.68 L1.23505814,11.8455111 L1.38226744,12.0576 C1.74,12.5736889 2.15965116,13.0428444 2.62953488,13.4517333 L2.82366279,13.6206222 L3.00331395,13.4359111 C3.52709302,12.8974222 4.33116279,12.7514667 5.00354651,13.0725333 C5.67575581,13.3937778 6.07988372,14.1169778 6.00889535,14.8721778 L5.98447674,15.1310222 L6.23598837,15.1751111 C6.65197674,15.2478222 7.07372093,15.2842667 7.49581395,15.2842667 C7.69238372,15.2842667 7.88895349,15.2762667 8.08517442,15.2604444 L8.33930233,15.2398222 L8.33843023,14.9800889 C8.33546512,14.2216889 8.80255814,13.5393778 9.5005814,13.2819556 C10.1987791,13.024 10.9859302,13.2446222 11.4596512,13.8293333 L11.6220349,14.0298667 L11.8302907,13.8798222 C12.3364535,13.5153778 12.7967442,13.0876444 13.1980814,12.6085333 L13.3637791,12.4108444 L13.1825581,12.2277333 C12.6540698,11.6935111 12.5106977,10.8743111 12.8258721,10.1889778 L12.8258721,10.1889778 C13.1410465,9.50364444 13.8518023,9.09351111 14.5915116,9.16408889 L14.8456395,9.18897778 L14.8887209,8.9328 C14.9931977,8.31182222 15.0214535,7.67751111 14.9726163,7.04782222 L14.9523837,6.78862222 L14.6973837,6.78968889 C14.6949419,6.78968889 14.6926744,6.78968889 14.6900581,6.78968889 C13.9489535,6.78968889 13.2830233,6.31448889 13.0313372,5.60515556 C12.7789535,4.89368889 12.9948837,4.0912 13.5685465,3.60835556 L13.7651163,3.44284444 L13.617907,3.23075556 C13.2605233,2.7152 12.8408721,2.24604444 12.3706395,1.83662222 L12.176686,1.66773333 L11.9970349,1.85244444 C11.472907,2.39093333 10.669186,2.53724444 9.99680233,2.216 C9.32459302,1.89457778 8.92046512,1.17137778 8.99145349,0.416355556 L9.01587209,0.157511111 L8.76436047,0.113422222 C8.15476744,0.00675555556 7.5327907,-0.0215111111 6.915,0.0280888889 L6.66087209,0.0487111111 L6.66174419,0.308444444 C6.6647093,1.06684444 6.19761628,1.74915556 5.49959302,2.00657778 C4.80122093,2.26382222 4.01406977,2.04373333 3.54052326,1.4592 L3.37813953,1.25866667 L3.16988372,1.40871111 C2.66372093,1.77315556 2.20343023,2.20088889 1.80209302,2.68 L1.63639535,2.87768889 L1.81761628,3.0608 C2.34610465,3.59484444 2.48947674,4.41422222 2.17412791,5.09955556 C1.85895349,5.78488889 1.14854651,6.19537778 0.408488372,6.12444444 L0.154360465,6.09955556 L0.11127907,6.35573333 C0.00662790698,6.97671111 -0.0214534884,7.61084444 0.0273837209,8.24053333 L0.0476162791,8.49973333 L0.30244186,8.49866667 C0.304883721,8.49866667 0.306976744,8.49866667 0.309418605,8.49866667 C1.05069767,8.49866667 1.71697674,8.97404444 1.96883721,9.6832 Z M0.616918605,6.69244444 C1.49110465,6.67697778 2.29569767,6.15573333 2.67209302,5.33742222 C3.04866279,4.51893333 2.9269186,3.5552 2.3794186,2.86044444 C2.65813953,2.5504 2.9644186,2.2656 3.29372093,2.01084444 C3.9225,2.62933333 4.85302326,2.84088889 5.68674419,2.53351111 C6.5202907,2.22613333 7.10284884,1.45688889 7.1980814,0.571555556 C7.61127907,0.552711111 8.025,0.571911111 8.43401163,0.628622222 C8.44936047,1.51946667 8.9605814,2.33955556 9.76343023,2.7232 C10.5664535,3.1072 11.5118023,2.98311111 12.1936047,2.42471111 C12.4979651,2.70915556 12.7772093,3.02115556 13.0271512,3.35662222 C12.4201744,3.99751111 12.2129651,4.94577778 12.5143605,5.79573333 C12.8159302,6.64551111 13.5704651,7.23928889 14.4392442,7.33617778 C14.4575581,7.75715556 14.4388953,8.1792 14.3832558,8.59608889 C13.5092442,8.61173333 12.7044767,9.13297778 12.3280814,9.95111111 C11.951686,10.7694222 12.0734302,11.7331556 12.6207558,12.4280889 C12.3418605,12.7381333 12.0357558,13.0229333 11.7064535,13.2776889 C11.0775,12.6588444 10.1471512,12.4476444 9.31343023,12.7550222 C8.4797093,13.0624 7.89715116,13.8316444 7.80209302,14.7169778 C7.38924419,14.7358222 6.97517442,14.7166222 6.56616279,14.6599111 C6.55081395,13.7688889 6.03959302,12.9488 5.23674419,12.5653333 C4.43372093,12.1815111 3.48837209,12.3056 2.80656977,12.8636444 C2.50238372,12.5795556 2.22313953,12.2673778 1.97302326,11.9317333 C2.58,11.2908444 2.7872093,10.3425778 2.48581395,9.49262222 C2.18424419,8.64302222 1.4297093,8.04924444 0.560930233,7.95235556 C0.542616279,7.53137778 0.56127907,7.10933333 0.616918605,6.69244444 Z" id="Shape"></path>
                    <path d="M7.5,8.14933333 C8.66319767,8.14933333 9.60976744,7.18471111 9.60976744,5.99893333 C9.60976744,4.81315556 8.66319767,3.84871111 7.5,3.84871111 C6.33680233,3.84871111 5.39023256,4.81333333 5.39023256,5.99911111 C5.39023256,7.18488889 6.33680233,8.14933333 7.5,8.14933333 Z M7.5,4.40906667 C8.36023256,4.40906667 9.05982558,5.12231111 9.05982558,5.99893333 C9.05982558,6.87555556 8.36023256,7.58897778 7.5,7.58897778 C6.63976744,7.58897778 5.94017442,6.87573333 5.94017442,5.99911111 C5.94017442,5.12248889 6.63976744,4.40906667 7.5,4.40906667 Z" id="Shape"></path>
                    <path d="M4.86087209,11.1596444 C4.86087209,10.1205333 5.69023256,9.2752 6.7097093,9.2752 L8.29046512,9.2752 C9.30994186,9.2752 10.1393023,10.1205333 10.1393023,11.1596444 L10.414186,11.1596444 L10.6890698,11.1596444 C10.6890698,9.81155556 9.6130814,8.71484444 8.29046512,8.71484444 L6.7097093,8.71484444 C5.38709302,8.71484444 4.31110465,9.81155556 4.31110465,11.1596444 L4.58598837,11.1596444 L4.86087209,11.1596444 Z" id="Path"></path>
                </g>
            </g>
        </g>
    </g>
</svg>