<?xml version="1.0" encoding="UTF-8"?>
<svg width="56px" height="56px" viewBox="0 0 56 56" version="1.1" xmlns="http://www.w3.org/2000/svg" xmlns:xlink="http://www.w3.org/1999/xlink">
    <!-- Generator: Sketch 55.2 (78181) - https://sketchapp.com -->
    <title>Asset</title>
    <desc>Created with Sketch.</desc>
    <g id="Homepage" stroke="none" stroke-width="1" fill="none" fill-rule="evenodd">
        <g id="Home-Page-TPC-Copy" transform="translate(-329.000000, -5074.000000)" fill="#208389" fill-rule="nonzero">
            <g id="Group-5-Copy-2" transform="translate(208.000000, 5023.000000)">
                <g id="Group-4" transform="translate(37.331378, 51.000000)">
                    <g id="Group-33">
                        <g id="Asset" transform="translate(83.668622, 0.000000)">
                            <path d="M40.0413086,32.6723242 L34.9619922,32.6723242 C34.5806055,32.6723242 34.2719922,32.363711 34.2719922,31.9823242 L34.2719922,26.9036816 C34.2719922,26.5222949 34.5806055,26.2136816 34.9619922,26.2136816 L40.0413086,26.2136816 C40.4226953,26.2136816 40.7313086,26.5222949 40.7313086,26.9036816 L40.7313086,31.9823242 C40.7313086,32.363711 40.4226953,32.6723242 40.0413086,32.6723242 Z M35.6519922,27.5936816 L35.6519922,31.2923242 L39.3513086,31.2923242 L39.3513086,27.5936816 L35.6519922,27.5936816 Z M43.8983008,32.6723242 C43.516914,32.6723242 43.2083008,32.363711 43.2083008,31.9823242 L43.2083008,26.9036816 C43.2083008,26.5222949 43.516914,26.2136816 43.8983008,26.2136816 L48.9776172,26.2136816 C49.3590039,26.2136816 49.6676172,26.5222949 49.6676172,26.9036816 L49.6676172,31.9823242 C49.6676172,32.363711 49.3590039,32.6723242 48.9776172,32.6723242 L43.8983008,32.6723242 Z M44.5883008,27.5936816 L44.5883008,31.2923242 L48.2876172,31.2923242 L48.2876172,27.5936816 L44.5883008,27.5936816 Z M34.9619922,22.6895605 C34.5806055,22.6895605 34.2719922,22.3809473 34.2719922,21.9995605 L34.2719922,16.9202441 C34.2719922,16.5388574 34.5806055,16.2302441 34.9619922,16.2302441 L40.0413086,16.2302441 C40.4226953,16.2302441 40.7313086,16.5388574 40.7313086,16.9202441 L40.7313086,21.9995605 C40.7313086,22.3809473 40.4226953,22.6895605 40.0413086,22.6895605 L34.9619922,22.6895605 Z M35.6519922,17.6102441 L35.6519922,21.3095605 L39.3513086,21.3095605 L39.3513086,17.6102441 L35.6519922,17.6102441 Z M43.8983008,22.6895605 C43.516914,22.6895605 43.2083008,22.3809473 43.2083008,21.9995605 L43.2083008,16.9202441 C43.2083008,16.5388574 43.516914,16.2302441 43.8983008,16.2302441 L48.9776172,16.2302441 C49.3590039,16.2302441 49.6676172,16.5388574 49.6676172,16.9202441 L49.6676172,21.9995605 C49.6676172,22.3809473 49.3590039,22.6895605 48.9776172,22.6895605 L43.8983008,22.6895605 Z M44.5883008,17.6102441 L44.5883008,21.3095605 L48.2876172,21.3095605 L48.2876172,17.6102441 L44.5883008,17.6102441 Z M54.91,54.22 C55.2913867,54.22 55.6000399,54.5286133 55.6000399,54.91 C55.6000399,55.2913867 55.2913867,55.6 54.91,55.6 L1.09,55.6 C0.708613264,55.6 0.4,55.2913867 0.4,54.91 C0.4,54.5286133 0.708613264,54.22 1.09,54.22 L6.86201174,54.22 L6.86201174,47.34948 C6.26862181,47.6245703 5.62183106,47.7761816 4.95709962,47.7761816 C2.44439451,47.7761816 0.4,45.7317871 0.4,43.219082 C0.4,42.2170996 0.728154271,41.2535254 1.33257819,40.4617773 C1.1910743,40.0568066 1.11897469,39.6349902 1.11897469,39.2023925 C1.11897469,37.5083886 2.2476368,36.0239453 3.82574229,35.5320508 C3.99015632,33.6204004 5.59858406,32.1143945 7.5520118,32.1143945 C9.50543955,32.1143945 11.1138673,33.6204004 11.2782813,35.5320508 C12.8570606,36.0239453 13.9857227,37.5083886 13.9857227,39.2023925 C13.9857227,39.6349902 13.9136231,40.0574804 13.7714453,40.4624511 C14.3758692,41.2541992 14.7040235,42.2170996 14.7040235,43.219082 C14.7040235,45.7317871 12.659629,47.7761816 10.1469239,47.7761816 C9.48219241,47.7761816 8.83540166,47.6245703 8.24201174,47.34948 L8.24201174,54.22 L21.1343653,54.22 L21.1343653,48.3449768 C20.6343848,48.5579065 20.0969227,48.6784375 19.5441309,48.6784375 C17.2901758,48.6784375 15.4560157,46.8442774 15.4560157,44.5896485 C15.4560157,43.7062598 15.741045,42.8565625 16.2659571,42.153086 C16.1473633,41.8006739 16.0873926,41.4354591 16.0873926,41.0608106 C16.0873926,39.5541309 17.0785938,38.2314063 18.4720703,37.7725293 C18.645918,36.0758301 20.0831934,34.7483887 21.8243652,34.7483887 C23.5655371,34.7483887 25.0028125,36.0758301 25.1766601,37.7725293 C26.5701367,38.2314063 27.5613379,39.5541309 27.5613379,41.0608106 C27.5613379,41.4347852 27.5013672,41.8006739 27.3834473,42.153086 C27.9076856,42.8565625 28.1927149,43.7062598 28.1927149,44.5896485 C28.1927149,46.8442774 26.3585547,48.6784375 24.1045996,48.6784375 C23.5518078,48.6784375 23.0143457,48.5578644 22.5143652,48.3449347 L22.5143652,54.22 L30.4096094,54.22 L30.4096094,13.0288868 L29.0296094,13.0288868 C28.7418848,13.0288868 28.4838086,12.8503223 28.3834082,12.5807911 C28.282334,12.310586 28.3598242,12.0066895 28.5767969,11.8180176 L41.5169922,0.569130868 C41.7770899,0.344072257 42.1625196,0.344072257 42.4226172,0.569130868 L55.3628125,11.8180175 C55.5797851,12.0066895 55.6572754,12.3105859 55.5562011,12.580791 C55.4558008,12.8503223 55.1977246,13.0288867 54.91,13.0288867 L53.53,13.0288867 L53.53,54.22 L54.91,54.22 Z M19.5441309,47.2984375 C20.119917,47.2984375 20.6712768,47.104375 21.1343653,46.7646813 L21.1343653,45.236018 C19.739878,44.9212139 18.693086,43.6814965 18.693086,42.1975585 C18.693086,41.8161717 19.0016993,41.5075585 19.383086,41.5075585 C19.7644728,41.5075585 20.073086,41.8161717 20.073086,42.1975585 C20.073086,42.9135851 20.5110743,43.5292955 21.1343653,43.7961315 L21.1343653,39.0561718 C21.1343653,38.6747851 21.4429786,38.3661718 21.8243653,38.3661718 C22.205752,38.3661718 22.5143653,38.6747851 22.5143653,39.0561718 L22.5143653,41.3970086 C22.9122608,41.1617583 23.182129,40.7349304 23.182129,40.2427832 C23.182129,39.8613964 23.4907422,39.5527832 23.872129,39.5527832 C24.2535157,39.5527832 24.562129,39.8613964 24.562129,40.2427832 C24.562129,41.5078955 23.6888477,42.5648791 22.5143653,42.8718499 L22.5143653,45.2180353 C23.1376563,44.9513678 23.5756446,44.3360363 23.5756446,43.6200098 C23.5756446,43.238623 23.8842578,42.9300098 24.2656446,42.9300098 C24.6470313,42.9300098 24.9556446,43.238623 24.9556446,43.6200098 C24.9556446,45.1033582 23.9088526,46.3430334 22.5143653,46.6577954 L22.5143653,46.7646814 C22.9774537,47.1044171 23.5288135,47.2984375 24.1045997,47.2984375 C25.5978028,47.2984375 26.8127149,46.0835255 26.8127149,44.5896485 C26.8127149,43.905713 26.5539649,43.250752 26.0836329,42.7460547 C25.8888966,42.537168 25.8430763,42.2299024 25.9684083,41.9731739 C26.1099123,41.6834278 26.181338,41.3761621 26.181338,41.0608106 C26.181338,40.0325489 25.4138478,39.1471387 24.3963673,39.0015918 C24.0351953,38.9497071 23.7764453,38.6255957 23.8060938,38.2624024 C23.8101368,38.2145605 23.8141798,38.1667187 23.8141798,38.1182031 C23.8141798,37.0212109 22.9213575,36.1283886 21.8243653,36.1283886 C20.7273731,36.1283886 19.8345508,37.0212109 19.8345508,38.1182031 C19.8345508,38.162002 19.8385938,38.205127 19.8412891,38.248252 C19.8675684,38.6094239 19.6115137,38.9497071 19.2523633,39.0015918 C18.2348828,39.1471387 17.4673926,40.0325489 17.4673926,41.0608106 C17.4673926,41.376836 17.5394922,41.6834277 17.6809961,41.9718262 C17.8063281,42.2292286 17.7611816,42.537168 17.5657715,42.7460547 C17.0954395,43.250752 16.8360156,43.905713 16.8360156,44.5896485 C16.8360156,46.0835254 18.0509277,47.2984375 19.5441309,47.2984375 Z M4.95709962,46.3961816 C5.64878418,46.3961816 6.31098878,46.1573517 6.86201174,45.739831 L6.86201174,43.8826765 C5.27918948,43.5629871 4.08381837,42.1669837 4.08381837,40.4968165 C4.08381837,40.1154297 4.39243163,39.8068165 4.77381837,39.8068165 C5.1552051,39.8068165 5.46381837,40.1154297 5.46381837,40.4968165 C5.46381837,41.3994934 6.05038578,42.1616773 6.86201174,42.4465802 L6.86201174,36.9214844 C6.86201174,36.5400976 7.170625,36.2314844 7.55201174,36.2314844 C7.93339847,36.2314844 8.24201174,36.5400976 8.24201174,36.9214844 L8.24201174,39.7446557 C8.8012891,39.4847686 9.19210937,38.9244385 9.19210937,38.2718359 C9.19210937,37.8904492 9.50072264,37.5818359 9.88210937,37.5818359 C10.2634961,37.5818359 10.5721094,37.8904492 10.5721094,38.2718359 C10.5721094,39.6939501 9.57433839,40.8816564 8.24201174,41.194439 L8.24201174,44.0644414 C9.05363769,43.7795385 9.6402051,43.0173546 9.6402051,42.1146777 C9.6402051,41.7332909 9.94881837,41.4246777 10.3302051,41.4246777 C10.7115918,41.4246777 11.0202051,41.7332909 11.0202051,42.1146777 C11.0202051,43.784845 9.82483399,45.1808483 8.24201174,45.5005377 L8.24201174,45.7398309 C8.7930347,46.1573517 9.45523929,46.3961816 10.1469239,46.3961816 C11.898877,46.3961816 13.3240235,44.9710351 13.3240235,43.219082 C13.3240235,42.4158789 13.020127,41.647041 12.4682617,41.0554199 C12.2728516,40.8465332 12.2277051,40.5385937 12.353711,40.2811914 C12.5208203,39.9395605 12.6057227,39.577041 12.6057227,39.2023925 C12.6057227,37.9861327 11.6974024,36.93833 10.4919239,36.7651562 C10.1341211,36.7132714 9.87604496,36.3938769 9.90232424,36.032705 C9.90771486,35.9579101 9.91175785,35.9066992 9.91175785,35.8541406 C9.91175785,34.5529784 8.85317385,33.4943944 7.55201174,33.4943944 C6.25084962,33.4943944 5.19226562,34.5529784 5.19226562,35.8541406 C5.19226562,35.9066991 5.19630861,35.9579101 5.2003516,36.0097948 C5.22663087,36.3709667 4.97057615,36.7132714 4.61209962,36.7651562 C3.4072949,36.9376562 2.49897462,37.9861328 2.49897462,39.2023925 C2.49897462,39.5763672 2.58387698,39.9402343 2.75098635,40.2818652 C2.87631837,40.5392675 2.83049809,40.8465332 2.63576174,41.0554199 C2.08389649,41.647041 1.78,42.4158789 1.78,43.219082 C1.78,44.9710351 3.20514649,46.3961816 4.95709962,46.3961816 Z M41.9698047,2.00438476 L30.8752246,11.6488867 L53.0643848,11.6488867 L41.9698047,2.00438476 Z M31.7896094,13.0288867 L31.7896094,54.22 L38.0097168,54.22 L38.0097168,45.8544239 C38.0097168,45.4730371 38.31833,45.1644239 38.6997168,45.1644239 L45.2392187,45.1644239 C45.6206055,45.1644239 45.9292187,45.4730371 45.9292187,45.8544239 L45.9292187,54.22 L52.15,54.22 L52.15,13.0288867 L31.7896094,13.0288867 Z M44.5492187,54.22 L44.5492187,46.5444239 L39.3897168,46.5444239 L39.3897168,54.22 L44.5492187,54.22 Z" id="Combined-Shape"></path>
                        </g>
                    </g>
                </g>
            </g>
        </g>
    </g>
</svg>