<?xml version="1.0" encoding="UTF-8"?>
<svg width="17px" height="18px" viewBox="0 0 17 18" version="1.1" xmlns="http://www.w3.org/2000/svg" xmlns:xlink="http://www.w3.org/1999/xlink">
    <!-- Generator: Sketch 55.2 (78181) - https://sketchapp.com -->
    <title>Capital Gain</title>
    <desc>Created with Sketch.</desc>
    <g id="Homepage" stroke="none" stroke-width="1" fill="none" fill-rule="evenodd">
        <g id="Home-Page-TPC-Copy" transform="translate(-815.000000, -2335.000000)" fill="#FFFFFF" fill-rule="nonzero">
            <g id="Current-orders-bg" transform="translate(0.000000, 2006.000000)">
                <g id="Group-9" transform="translate(813.000000, 183.000000)">
                    <g id="Group-5" transform="translate(1.000000, 112.000000)">
                        <g id="Group-14">
                            <g id="Capital-Gain" transform="translate(1.000000, 34.000000)">
                                <path d="M5.10201571,12.988936 L5.10201571,12.989212 L7.05003357,12.989212 L7.05003357,12.582664 C5.39805857,11.879692 4.13764214,10.105564 3.94996214,7.970152 C3.94996214,7.969324 3.95024143,7.968772 3.95024143,7.96822 C3.95024143,7.967392 3.94968286,7.966564 3.94968286,7.965736 L3.77261571,5.51458 C2.69904143,4.238632 3.09367214,2.336164 3.20734143,0.33682 C3.21348571,0.228076 3.28386571,0.133132 3.38664286,0.094492 C3.48886143,0.055024 3.60588214,0.08014 3.68352357,0.157144 C5.21680214,1.67266 9.28040929,0.54796 9.59963286,0.546028 C13.4428836,0.6211 13.8503614,4.231732 13.2892764,7.986436 C13.2892764,7.986712 13.2889971,7.987264 13.2889971,7.98754 C13.0954521,10.117432 11.8283329,11.885212 10.1685379,12.584596 L10.1685379,12.98866 L12.1162764,12.98866 C13.5113086,12.98866 14.6463257,14.110324 14.6463257,15.488944 L14.6463257,17.464 C14.6463257,17.616352 14.5212057,17.74 14.36704,17.74 L2.85125214,17.74 C2.69708643,17.74 2.57196643,17.616352 2.57196643,17.464 L2.57196643,15.48922 C2.57196643,14.1106 3.70698357,12.988936 5.10201571,12.988936 Z M14.0877543,15.48922 C14.0877543,14.414752 13.2035357,13.540936 12.1159971,13.54066 L10.1417264,13.54066 C10.0096243,14.258812 9.37313214,14.805568 8.60900643,14.805568 C7.84488071,14.805568 7.20838857,14.258812 7.07628643,13.54066 L5.10201571,13.54066 C4.01503571,13.54066 3.13053786,14.414476 3.13053786,15.488944 L3.13053786,17.188 L14.0877543,17.188 L14.0877543,15.48922 Z M3.72960571,0.899032 C3.5989,2.681992 3.35620071,4.224556 4.25270786,5.219812 C4.29376286,5.265352 4.31834,5.323036 4.32280857,5.383756 L4.38564786,6.252604 L4.59958071,5.440888 C4.61913071,5.367196 4.66856429,5.304544 4.73643071,5.268112 C4.80429714,5.231956 4.88445214,5.22478 4.957625,5.248516 C6.82381214,5.857648 9.141325,5.883592 12.2503336,5.32966 C12.2668114,5.326624 12.2835686,5.325244 12.3000464,5.325244 C12.4212564,5.325244 12.531295,5.403352 12.5673229,5.521756 L12.8901771,6.582976 C13.1203086,3.670624 12.5745843,1.172272 9.6203,1.098304 C6.771865,1.693636 4.87439786,1.63264 3.72960571,0.899032 Z M4.511885,7.964356 C4.74760214,10.431244 6.53866143,12.357724 8.60761,12.357724 C10.6894057,12.357724 12.4907986,10.433728 12.72875,7.9696 L12.1042671,5.915608 C9.17316357,6.415444 6.92128286,6.398056 5.06682571,5.860132 L4.511885,7.964356 Z M8.60761,12.909724 C8.26604357,12.909724 7.93229714,12.859768 7.608605,12.774208 L7.608605,13.26466 C7.608605,13.810036 8.05741714,14.253568 8.60928571,14.253568 C9.16115429,14.253568 9.60996643,13.810036 9.60996643,13.26466 L9.60996643,12.77476 C9.28515714,12.860044 8.95029357,12.909724 8.60761,12.909724 Z M10.0330843,7.538764 C9.87863929,7.538764 9.75379857,7.415116 9.75379857,7.262764 C9.75379857,7.110412 9.87891857,6.986764 10.0330843,6.986764 L10.6782343,6.986764 C10.8324,6.986764 10.95752,7.110412 10.95752,7.262764 C10.95752,7.415116 10.8324,7.538764 10.6782343,7.538764 L10.0330843,7.538764 Z M7.18213571,6.986764 C7.33630143,6.986764 7.46142143,7.110412 7.46142143,7.262764 C7.46142143,7.415116 7.33630143,7.538764 7.18213571,7.538764 L6.53698571,7.538764 C6.38282,7.538764 6.2577,7.415116 6.2577,7.262764 C6.2577,7.110412 6.38282,6.986764 6.53698571,6.986764 L7.18213571,6.986764 Z M15.7232514,11.72458 C15.9801943,11.72458 16.1893793,11.51896 16.1893793,11.265868 C16.1893793,11.012776 15.9801943,10.80688 15.7232514,10.80688 C15.1590943,10.80688 14.7002279,10.353412 14.7002279,9.795892 C14.7002279,9.334972 15.0161,8.9494 15.4439657,8.828236 L15.4439657,8.659324 C15.4439657,8.506972 15.5690857,8.383324 15.7232514,8.383324 C15.8774171,8.383324 16.0025371,8.506972 16.0025371,8.659324 L16.0025371,8.82796 C16.43152,8.948848 16.74823,9.334696 16.74823,9.795892 C16.74823,9.948244 16.62311,10.071892 16.4689443,10.071892 C16.3147786,10.071892 16.1896586,9.948244 16.1896586,9.795892 C16.1896586,9.5428 15.9804736,9.336904 15.7235307,9.336904 C15.4674257,9.336904 15.2590786,9.5428 15.2590786,9.795892 C15.2590786,10.048984 15.4674257,10.25488 15.7235307,10.25488 C16.2885257,10.25488 16.74823,10.708348 16.74823,11.265868 C16.74823,11.727064 16.43152,12.112912 16.0025371,12.2338 L16.0025371,12.40216 C16.0025371,12.554512 15.8774171,12.67816 15.7232514,12.67816 C15.5690857,12.67816 15.4439657,12.554512 15.4439657,12.40216 L15.4439657,12.233248 C15.0161,12.11236 14.7002279,11.726512 14.7002279,11.265592 C14.7002279,11.11324 14.8253479,10.989592 14.9795136,10.989592 C15.1336793,10.989592 15.2587993,11.11324 15.2587993,11.265592 C15.2587993,11.518684 15.4671464,11.72458 15.7232514,11.72458 Z M1.493365,9.33718 C1.23726,9.33718 1.02891286,9.5428 1.02891286,9.795892 C1.02891286,10.048984 1.23726,10.25488 1.493365,10.25488 C2.05836,10.25488 2.51806429,10.708348 2.51806429,11.265868 C2.51806429,11.727064 2.20163357,12.112912 1.77265071,12.2338 L1.77265071,12.402712 C1.77265071,12.555064 1.64753071,12.678712 1.493365,12.678712 C1.33919929,12.678712 1.21407929,12.555064 1.21407929,12.402712 L1.21407929,12.2338 C0.786213571,12.112912 0.470341429,11.72734 0.470341429,11.266144 C0.470341429,11.113792 0.595461429,10.990144 0.749627143,10.990144 C0.903792857,10.990144 1.02891286,11.113792 1.02891286,11.266144 C1.02891286,11.519236 1.23726,11.725132 1.493365,11.725132 C1.75030786,11.725132 1.95949286,11.519236 1.95949286,11.266144 C1.95949286,11.013052 1.75030786,10.807156 1.493365,10.807156 C0.929207857,10.807156 0.470341429,10.353688 0.470341429,9.796168 C0.470341429,9.335248 0.786213571,8.9494 1.21407929,8.828512 L1.21407929,8.6596 C1.21407929,8.507248 1.33919929,8.3836 1.493365,8.3836 C1.64753071,8.3836 1.77265071,8.507248 1.77265071,8.6596 L1.77265071,8.828236 C2.20135429,8.949124 2.51806429,9.334972 2.51806429,9.796168 C2.51806429,9.94852 2.39294429,10.072168 2.23877857,10.072168 C2.08461286,10.072168 1.95949286,9.94852 1.95949286,9.796168 C1.95949286,9.543076 1.75030786,9.33718 1.493365,9.33718 Z" id="Combined-Shape"></path>
                            </g>
                        </g>
                    </g>
                </g>
            </g>
        </g>
    </g>
</svg>