<?xml version="1.0" encoding="UTF-8"?>
<svg width="20px" height="20px" viewBox="0 0 20 20" version="1.1" xmlns="http://www.w3.org/2000/svg" xmlns:xlink="http://www.w3.org/1999/xlink">
    <!-- Generator: Sketch 55.2 (78181) - https://sketchapp.com -->
    <title>check</title>
    <desc>Created with Sketch.</desc>
    <g id="Homepage" stroke="none" stroke-width="1" fill="none" fill-rule="evenodd">
        <g id="Home-Page-TPC-Copy" transform="translate(-419.000000, -3907.000000)" fill="#FFFFFF">
            <g id="Group-44" transform="translate(182.000000, 3877.000000)">
                <g id="Group-42" transform="translate(237.000000, 30.000000)">
                    <g id="Group-48">
                        <g id="check">
                            <path d="M10,0.360294118 C4.68481453,0.360294118 0.360294179,4.68444355 0.360294179,10 C0.360294179,15.3155562 4.68481453,19.6397059 10,19.6397059 C15.3151855,19.6397059 19.6397059,15.3155562 19.6397059,10 C19.6397059,4.68444355 15.3151855,0.360294118 10,0.360294118 Z M10,1.10180998 C14.9062393,1.10180998 18.8981901,5.09376028 18.8981901,9.9999998 C18.8981901,14.9062393 14.9062393,18.8981897 10,18.8981897 C5.09376048,18.8981897 1.10181,14.9062393 1.10181,9.9999998 C1.10181,5.09376028 5.09376048,1.10180998 10,1.10180998 Z M14.7981287,5.92238676 C14.7034,5.92794937 14.6107279,5.96946749 14.5425085,6.04621436 L8.8442778,12.456995 L5.41114668,9.71034531 C5.25172076,9.58243371 5.01803298,9.60885016 4.89049236,9.76827608 C4.76258077,9.92844375 4.78862665,10.1617431 4.94842355,10.2896543 L8.65600258,13.2557177 C8.72422186,13.3102192 8.80615956,13.3368213 8.88772629,13.3368213 C8.99005532,13.3368213 9.09203123,13.2945777 9.16507078,13.2122696 L15.0971972,6.53862718 C15.2332654,6.38587518 15.2191821,6.15149781 15.0660608,6.01580058 C14.9893139,5.94758109 14.8928592,5.91682556 14.7981305,5.92238696 L14.7981287,5.92238676 Z" id="Shape"></path>
                        </g>
                    </g>
                </g>
            </g>
        </g>
    </g>
</svg>