<?xml version="1.0" encoding="UTF-8"?>
<svg width="65px" height="54px" viewBox="0 0 65 54" version="1.1" xmlns="http://www.w3.org/2000/svg" xmlns:xlink="http://www.w3.org/1999/xlink">
    <!-- Generator: Sketch 55.2 (78181) - https://sketchapp.com -->
    <title>Data</title>
    <desc>Created with Sketch.</desc>
    <g id="Homepage" stroke="none" stroke-width="1" fill="none" fill-rule="evenodd">
        <g id="Home-Page-TPC-Copy" transform="translate(-681.000000, -5074.000000)" fill="#208389" fill-rule="nonzero">
            <g id="Group-6" transform="translate(570.000000, 5023.000000)">
                <g id="Group-3" transform="translate(34.000000, 51.000000)">
                    <g id="Group-34">
                        <g id="Data" transform="translate(77.000000, 0.000000)">
                            <path d="M57.8816781,21.5033698 C61.2888828,21.5033698 64.0613104,24.234822 64.0613104,27.5920461 C64.0613104,30.9492701 61.2891818,33.6807223 57.8818774,33.6807223 L46.4158254,33.6807223 L46.4158254,43.3979342 L49.4561571,46.6753434 C49.9857858,46.4069733 50.5772078,46.2408722 51.2127821,46.2408722 C53.3456488,46.2408722 55.0809451,47.9480665 55.0809451,50.0463928 C55.0809451,52.1447192 53.3456488,53.8520116 51.2127821,53.8520116 C49.0799154,53.8520116 47.3446191,52.1447192 47.3446191,50.0463928 C47.3446191,49.2634426 47.5871081,48.5354998 48.0008244,47.9297307 L44.7343491,44.4082685 C44.5718924,44.2326562 44.4816941,44.0040955 44.4816941,43.7667101 L44.4816941,33.6806242 L38.9920541,33.6806242 L38.9920541,42.4515302 C40.6563878,42.8765883 41.8945468,44.3538493 41.8945468,46.1223265 C41.8945468,48.2206528 40.1592504,49.9278472 38.0263838,49.9278472 C35.8935171,49.9278472 34.1582208,48.2206528 34.1582208,46.1223265 C34.1582208,44.3550259 35.3950841,42.8784513 37.0579228,42.4525107 L37.0579228,33.6806242 L28.5907411,33.6806242 L28.5907411,38.8860423 C30.2552741,39.3108063 31.4937321,40.7884595 31.4937321,42.5570348 C31.4937321,44.6553611 29.7584358,46.3625555 27.6255691,46.3625555 C25.4927024,46.3625555 23.7574061,44.6553611 23.7574061,42.5570348 C23.7574061,40.7898322 24.9939704,39.3134537 26.6566098,38.8872189 L26.6566098,33.6807223 L19.8165861,33.6807223 L19.8165861,43.7668082 C19.8165861,44.0041936 19.7263878,44.2327543 19.5639311,44.4083665 L16.2969574,47.9299268 C16.7106738,48.5355979 16.9531628,49.2635406 16.9531628,50.0464909 C16.9531628,52.1448172 15.2178664,53.8520116 13.0849998,53.8520116 C10.9521331,53.8520116 9.21683678,52.1448172 9.21683678,50.0464909 C9.21683678,47.9481646 10.9521331,46.2409702 13.0849998,46.2409702 C13.7205741,46.2409702 14.3119961,46.4070714 14.8416248,46.6754414 L17.8823551,43.3980322 L17.8823551,33.6808203 L6.42577144,33.6808203 C-1.52025322,33.6808203 -2.01988222,21.7148694 6.40314711,21.5033698 C5.37578311,15.2506516 11.4976088,10.0020903 17.6052818,11.7169328 C19.4278861,5.39734263 25.3769894,0.915454895 32.1490404,0.915454895 C38.9055434,0.915454895 44.8550454,5.38567437 46.6914038,11.6881053 C52.7108718,10.064844 58.8489431,15.2256482 57.8085228,21.5033698 L57.8816781,21.5033698 Z M13.0849998,51.9492022 C14.1516324,51.9492022 15.0190314,51.0958502 15.0190314,50.0464909 C15.0190314,48.9971316 14.1516324,48.1437796 13.0849998,48.1437796 C12.0183671,48.1437796 11.1509681,48.9971316 11.1509681,50.0464909 C11.1509681,51.0958502 12.0183671,51.9492022 13.0849998,51.9492022 Z M51.2124831,48.1436815 C50.1458504,48.1436815 49.2784514,48.9970336 49.2784514,50.0463928 C49.2784514,51.0957521 50.1458504,51.9491042 51.2124831,51.9491042 C52.2791158,51.9491042 53.1465148,51.0957521 53.1465148,50.0463928 C53.1465148,48.9970336 52.2791158,48.1436815 51.2124831,48.1436815 Z M29.5595011,42.5571328 C29.5595011,41.5093424 28.6945938,40.6576573 27.6304528,40.6549118 C27.6279611,40.6549118 27.6259678,40.6562845 27.6235758,40.6562845 C27.6215824,40.6562845 27.6199878,40.6551079 27.6179944,40.6551079 C26.5548501,40.6592261 25.6914378,41.5103229 25.6914378,42.5571328 C25.6914378,43.6064921 26.5588368,44.4598442 27.6254694,44.4598442 C28.6921021,44.4598442 29.5595011,43.6064921 29.5595011,42.5571328 Z M39.9603158,46.1225226 C39.9603158,45.0754186 39.0965048,44.2241256 38.0331611,44.2203996 C38.0301711,44.2203996 38.0278788,44.2220665 38.0248888,44.2220665 C38.0222974,44.2220665 38.0202044,44.2206938 38.0176131,44.2206938 C36.9550668,44.2253023 36.0922524,45.0761049 36.0922524,46.1225226 C36.0922524,47.1718819 36.9596514,48.0252339 38.0262841,48.0252339 C39.0929168,48.0252339 39.9603158,47.1718819 39.9603158,46.1225226 Z M57.8816781,31.7780109 C60.2227484,31.7780109 62.1271791,29.900205 62.1271791,27.591948 C62.1271791,25.283691 60.2228481,23.4059831 57.8817778,23.4059831 L56.5861111,23.4059831 C55.9366831,23.4059831 55.4663561,22.7856041 55.6638954,22.1679706 C57.4315834,16.6606484 51.7074278,11.6459427 46.3736664,13.8021201 C46.1073571,13.9089974 45.8075598,13.8946817 45.5535094,13.7622126 C45.2994591,13.6297435 45.1185641,13.3933386 45.0595614,13.1169283 C43.7903064,7.14954316 38.3606658,2.81816621 32.1490404,2.81816621 C25.9203721,2.81816621 20.4907314,7.16395689 19.2385194,13.151835 C19.1804138,13.4301084 18.9986218,13.6683763 18.7426778,13.8012376 C18.4881291,13.9345892 18.1845444,13.9481204 17.9182351,13.8375171 C12.4754384,11.6011326 6.79104978,16.6974182 8.54677778,22.1680686 C8.72557978,22.7248115 8.35591611,23.310774 7.76529144,23.3958837 C7.50635744,23.4343203 7.16121178,23.4028454 6.72178144,23.4028454 C0.491219444,23.4028454 0.978190778,31.7780109 6.42577144,31.7780109 C18.1630164,31.7780109 47.4387044,31.7780109 57.8816781,31.7780109 Z M39.0735814,14.5157471 C40.0391521,14.5157471 40.8245254,15.2883038 40.8245254,16.2382377 L40.8245254,27.1902264 C40.8245254,28.1402583 40.0392518,28.9132072 39.0736811,28.9132072 L25.2244994,28.9132072 C24.2589288,28.9132072 23.4736551,28.1401603 23.4736551,27.1902264 L23.4736551,16.2382377 C23.4736551,15.2883038 24.2589288,14.5157471 25.2244994,14.5157471 L25.2631701,14.5157471 L25.2631701,12.4578185 C25.2631701,8.72250347 28.3522388,5.68346021 32.1490404,5.68346021 C35.9458421,5.68346021 39.0344124,8.72250347 39.0344124,12.4578185 L39.0344124,14.5157471 L39.0735814,14.5157471 Z M27.1972018,12.4579165 L27.1972018,14.5158452 L37.1003808,14.5158452 L37.1003808,12.4579165 C37.1003808,9.77147053 34.8792094,7.58626958 32.1490404,7.58626958 C29.4183731,7.58626958 27.1972018,9.77147053 27.1972018,12.4579165 Z M38.8903941,27.0104959 L38.8903941,16.4185565 L38.0673468,16.4185565 L26.2301361,16.4185565 L25.4075871,16.4185565 L25.4075871,27.0104959 L38.8903941,27.0104959 Z M32.1489408,19.3381716 C32.6830544,19.3381716 33.1160064,19.7641123 33.1160064,20.2895763 L33.1160064,23.1390838 C33.1160064,23.6645479 32.6830544,24.0904885 32.1489408,24.0904885 C31.6148271,24.0904885 31.1818751,23.6644498 31.1818751,23.1390838 L31.1818751,20.2895763 C31.1818751,19.7641123 31.6149268,19.3381716 32.1489408,19.3381716 Z" id="Combined-Shape"></path>
                        </g>
                    </g>
                </g>
            </g>
        </g>
    </g>
</svg>