<?xml version="1.0" encoding="UTF-8"?>
<svg width="64px" height="46px" viewBox="0 0 64 46" version="1.1" xmlns="http://www.w3.org/2000/svg" xmlns:xlink="http://www.w3.org/1999/xlink">
    <!-- Generator: Sketch 55.2 (78181) - https://sketchapp.com -->
    <title>Money</title>
    <desc>Created with Sketch.</desc>
    <g id="Homepage" stroke="none" stroke-width="1" fill="none" fill-rule="evenodd">
        <g id="Home-Page-TPC-Copy" transform="translate(-1046.000000, -5079.000000)" fill="#208389" fill-rule="nonzero">
            <g id="Group-5" transform="translate(933.000000, 5023.000000)">
                <g id="Group-4" transform="translate(32.331378, 56.000000)">
                    <g id="Group-33">
                        <g id="Money" transform="translate(80.668622, 0.000000)">
                            <path d="M9.66125,0.23 C7.89518948,0.23 6.47,1.688246 6.47,3.464375 L6.47,5.06 L4.14125,5.06 C2.38088902,5.06 0.95,6.4908944 0.95,8.25125 L0.95,30.8271875 C0.95,32.5875155 2.38089364,34.04 4.14125,34.04 L38.4471875,34.04 C40.8296216,39.167628 44.4848766,43.2697512 48.9265625,45.68375 C49.1288329,45.7910734 49.3711671,45.7910734 49.5734375,45.68375 C57.5598618,41.343236 63.0500375,31.523432 63.0500375,20.15375 C63.0529473,19.86996 62.8818436,19.6133044 62.61875,19.506875 L57.53,17.39375 L57.53,3.464375 C57.53,1.688246 56.1048105,0.23 54.33875,0.23 L9.66125,0.23 Z M9.66125,1.61 L54.33875,1.61 C55.3527616,1.61 56.15,2.4176726 56.15,3.464375 L56.15,16.833125 L52.7,15.3884375 L52.7,8.25125 C52.7,6.4908944 51.2691111,5.06 49.50875,5.06 L7.85,5.06 L7.85,3.464375 C7.85,2.4176726 8.6472398,1.61 9.66125,1.61 Z M4.14125,6.44 L49.50875,6.44 C50.5284596,6.44 51.32,7.2315404 51.32,8.25125 L51.32,14.8278125 L49.50875,14.073125 C49.3797636,14.0173726 49.2368306,14.0023271 49.0990625,14.03 C49.0619772,14.0413205 49.0259121,14.0557466 48.99125,14.073125 L37.4984375,18.8384375 C37.1303211,13.4626047 32.6378187,9.2 27.17,9.2 C21.4620254,9.2 16.82,13.8420233 16.82,19.55 C16.82,25.2579698 21.4620254,29.9 27.17,29.9 C30.7991778,29.9 33.9943884,28.0145398 35.838125,25.1778125 C36.225649,27.8142784 36.9001909,30.3353451 37.8434375,32.66 L4.14125,32.66 C3.12153564,32.66 2.33,31.8469385 2.33,30.8271875 L2.33,8.25125 C2.33,7.2315404 3.12154026,6.44 4.14125,6.44 Z M27.17,10.58 C32.0817891,10.58 36.0597592,14.5067638 36.14,19.3990625 L35.88125,19.506875 C35.6181564,19.6133044 35.4470527,19.86996 35.45,20.15375 C35.45,21.0198214 35.4954234,21.873339 35.5578125,22.7196875 C35.5192214,22.7795371 35.490127,22.8449997 35.4715625,22.91375 C34.1374144,26.193044 30.9326383,28.52 27.17,28.52 C22.2078326,28.52 18.2,24.5121488 18.2,19.55 C18.2,14.5878305 22.2078326,10.58 27.17,10.58 Z M27.08375,13.3184375 C26.7283201,13.3629738 26.4660635,13.672062 26.48,14.03 L26.48,14.763125 C25.7348207,14.8434396 25.1150606,15.0524696 24.6471875,15.41 C24.0406306,15.8735075 23.72,16.5787289 23.72,17.264375 C23.72,17.8441199 23.9906139,18.3261746 24.32375,18.6875 C24.6568861,19.0488254 25.0606148,19.3326638 25.445,19.55 C26.2137697,19.9846655 26.9759375,20.196875 26.9759375,20.196875 C26.9759375,20.196875 27.5937697,20.3903441 28.205,20.7359375 C28.5106155,20.9087342 28.7968861,21.118163 28.98125,21.318125 C29.1656139,21.518087 29.24,21.6773735 29.24,21.8140625 C29.24,22.1042765 29.1450608,22.344707 28.851875,22.56875 C28.5586892,22.792793 28.024289,23 27.17,23 L24.41,23 C24.1611612,22.9964808 23.9297039,23.127219 23.8042575,23.3421523 C23.6788111,23.5570856 23.6788111,23.8229144 23.8042575,24.0378477 C23.9297039,24.252781 24.1611612,24.3835192 24.41,24.38 L26.48,24.38 L26.48,25.07 C26.4764808,25.3188388 26.607219,25.5502961 26.8221523,25.6757425 C27.0370856,25.8011889 27.3029144,25.8011889 27.5178477,25.6757425 C27.732781,25.5502961 27.8635192,25.3188388 27.86,25.07 L27.86,24.336875 C28.6051793,24.2506947 29.2249387,24.0259417 29.6928125,23.6684375 C30.2993701,23.2048955 30.62,22.4997155 30.62,21.8140625 C30.62,21.2343521 30.3493861,20.752256 30.01625,20.3909375 C29.6831139,20.029619 29.2793845,19.7673362 28.895,19.55 C28.1262303,19.1153345 27.3640625,18.8815625 27.3640625,18.8815625 C27.3640625,18.8815625 26.7462303,18.6880934 26.135,18.3425 C25.8293852,18.1697033 25.5431139,17.9602745 25.35875,17.7603125 C25.1743861,17.5603505 25.1,17.401133 25.1,17.264375 C25.1,16.9742438 25.1949385,16.7337305 25.488125,16.5096875 C25.7813115,16.2856445 26.315711,16.1 27.17,16.1 L29.93,16.1 C30.1788388,16.1035192 30.4102961,15.972781 30.5357425,15.7578477 C30.6611889,15.5429144 30.6611889,15.2770856 30.5357425,15.0621523 C30.4102961,14.847219 30.1788388,14.7164808 29.93,14.72 L27.86,14.72 L27.86,14.03 C27.8679253,13.8273174 27.7862771,13.6314124 27.6367546,13.4943501 C27.487232,13.3572878 27.2849799,13.2929507 27.08375,13.3184375 L27.08375,13.3184375 Z M49.25,15.453125 L61.6484375,20.585 C61.5106507,31.154765 56.4210651,40.1511575 49.25,44.2390625 C42.0789418,40.1511575 36.9893493,31.154765 36.8515625,20.585 L49.25,15.453125 Z M9.92,16.79 C8.40386645,16.79 7.16,18.0338699 7.16,19.55 C7.16,21.0661301 8.40386645,22.31 9.92,22.31 C11.4361335,22.31 12.68,21.0661301 12.68,19.55 C12.68,18.0338699 11.4361335,16.79 9.92,16.79 Z M9.92,18.1484375 C10.6903257,18.1484375 11.3,18.7796771 11.3,19.55 C11.3,20.3203229 10.6903257,20.93 9.92,20.93 C9.14967434,20.93 8.54,20.3203229 8.54,19.55 C8.54,18.7796771 9.14967434,18.1484375 9.92,18.1484375 Z M55.416875,24.3584375 C55.2334676,24.3711521 55.0627161,24.4565278 54.9425,24.595625 L47.8484375,32.3365625 L44.9159375,29.3178125 C44.7545059,29.1091188 44.4882062,29.0107407 44.229869,29.0643606 C43.9715318,29.1179805 43.7663807,29.314212 43.7013377,29.5699123 C43.6362947,29.8256125 43.7227461,30.0960195 43.9240625,30.2665625 L47.3740625,33.824375 C47.5076642,33.9629334 47.6930639,34.039396 47.8854984,34.0353017 C48.077933,34.0312073 48.2599127,33.9469281 48.3875,33.8028125 L55.9775,25.5228125 C56.1763948,25.3149695 56.2254852,25.0055448 56.1006866,24.7463477 C55.975888,24.4871505 55.703386,24.3325666 55.416875,24.3584375 Z" id="Shape"></path>
                        </g>
                    </g>
                </g>
            </g>
        </g>
    </g>
</svg>