<?xml version="1.0" encoding="UTF-8"?>
<svg width="26px" height="32px" viewBox="0 0 26 32" version="1.1" xmlns="http://www.w3.org/2000/svg" xmlns:xlink="http://www.w3.org/1999/xlink">
    <!-- Generator: Sketch 55.2 (78181) - https://sketchapp.com -->
    <title>noun_Money Bag_2218618</title>
    <desc>Created with Sketch.</desc>
    <g id="Homepage" stroke="none" stroke-width="1" fill="none" fill-rule="evenodd">
        <g id="Home-Page-TPC-Copy" transform="translate(-212.000000, -318.000000)">
            <g id="Group-8" transform="translate(207.000000, 313.000000)">
                <g id="noun_Money-Bag_2218618" transform="translate(0.000000, 3.000000)">
                    <rect id="Rectangle" x="0.4" y="0.4" width="35.328" height="35.328"></rect>
                    <path d="M14.220976,9.020032 C12.939784,7.88236 11.658592,6.745792 10.38016,5.605912 C10.143352,5.393392 10.005352,5.075992 10.012528,4.757488 C10.019152,4.47376 10.14004,4.193896 10.343176,3.994624 C10.41328,3.926176 10.488352,3.861592 10.564528,3.798664 C11.26336,3.216856 12.12448,2.840944 13.02148,2.684728 C13.367032,2.625112 13.718104,2.59696 14.069728,2.595856 C14.076352,2.595856 14.082976,2.595856 14.089048,2.595856 C14.871784,2.597512 15.645688,2.73496 16.388128,2.956864 C17.326528,3.23728 18.219664,3.649624 19.073608,4.13428 C19.117216,4.158568 19.160824,4.183408 19.20388,4.2088 L19.207744,4.211008 C20.114128,3.824608 21.034312,3.454768 21.969952,3.130192 C22.316608,3.009304 22.667128,2.894488 23.018752,2.79844 C23.308552,2.718952 23.623192,2.74876 23.883184,2.897248 C24.142072,3.044632 24.335824,3.301312 24.407584,3.59056 C24.458368,3.794248 24.448432,4.012288 24.38164,4.211008 C24.070312,5.1196 23.719792,6.017704 23.30248,6.88324 C23.02096,7.466704 22.71184,8.038024 22.33096,8.561872 C22.928776,8.455888 23.518864,8.30464 24.084664,8.086048 C24.385504,7.969576 24.67972,7.833232 24.956272,7.66708 L25.004296,7.641688 C25.048456,7.62292 25.058944,7.616848 25.105864,7.605256 C25.141192,7.596424 25.177072,7.590904 25.212952,7.589248 C25.248832,7.58704 25.285264,7.590904 25.321144,7.594216 C25.338808,7.59808 25.356472,7.600288 25.374136,7.604704 C25.566232,7.652728 25.726864,7.811152 25.775992,8.006008 C25.828432,8.215216 25.746736,8.452024 25.569544,8.5834 C25.532008,8.611552 25.491712,8.633632 25.451968,8.656264 C24.9226,8.963728 24.35128,9.185632 23.765608,9.358408 C23.519968,9.43072 23.271568,9.494752 23.021512,9.550504 C23.417848,9.772408 23.799832,10.022464 24.165256,10.292944 C25.061704,10.956448 25.865416,11.746912 26.571976,12.603616 C27.282952,13.466392 27.902848,14.403136 28.42504,15.386248 C29.187904,16.822552 29.75536,18.369256 30.032464,19.970056 C30.188128,20.86816 30.246088,21.788896 30.181504,22.696936 C30.078832,24.14152 29.673112,25.563472 29.015128,26.8546 C28.236808,28.381432 27.11956,29.720032 25.782616,30.788152 C24.436288,31.864 22.865848,32.665504 21.1966,33.114832 C19.899952,33.464248 18.547552,33.598384 17.207296,33.501232 C15.8974,33.406288 14.605168,33.093856 13.390216,32.588776 C11.7574,31.909816 10.2808,30.894136 9.072472,29.617912 C7.989448,28.473616 7.125568,27.115696 6.581848,25.637992 C6.145216,24.45064 5.918344,23.187112 5.92053604,21.924688 C5.922208,20.773768 6.114304,19.625056 6.432256,18.517744 C6.766216,17.353576 7.240936,16.2286 7.826056,15.166552 C8.61376,13.735768 9.601288,12.412072 10.78312,11.290408 C11.452696,10.655056 12.184648,10.087048 12.980632,9.625024 C13.378624,9.394288 13.79152,9.190048 14.220976,9.020032 Z M20.752792,9.796696 L15.376312,9.796696 C14.43736,10.051168 13.560232,10.50988 12.766456,11.077336 C11.768992,11.79052 10.897936,12.672616 10.145008,13.641376 C9.190048,14.869576 8.418904,16.2424 7.866904,17.700232 C7.507,18.650224 7.241488,19.637752 7.111216,20.642392 C7.042768,21.170104 7.012408,21.702784 7.028968,22.234912 C7.069264,23.536528 7.3828,24.830968 7.9348,26.018872 C8.640808,27.53908 9.72328,28.876024 11.02876,29.920408 C11.977096,30.679408 13.041904,31.28716 14.183992,31.716064 C15.421024,32.180296 16.74196,32.428696 18.064552,32.428696 C19.400392,32.428696 20.734024,32.175328 21.983752,31.70116 C23.380864,31.170688 24.680272,30.3598 25.768264,29.342464 C26.897104,28.285936 27.812872,26.990392 28.390816,25.566784 C28.863328,24.40372 29.10952,23.15068 29.1046257,21.904816 C29.100136,20.819032 28.909696,19.741528 28.601128,18.699352 C28.180504,17.280712 27.540736,15.928864 26.73316,14.68852 C25.982992,13.535392 25.090408,12.48052 24.0394,11.598976 C23.39356,11.056912 22.686448,10.582744 21.921376,10.226152 C21.546016,10.05172 21.155752,9.905992 20.756656,9.797248 L20.752792,9.796696 Z M17.512552,16.475896 L17.512552,15.868696 C17.515312,15.68212 17.613016,15.49996 17.770888,15.401152 C17.86252,15.343192 17.972368,15.31504 18.080008,15.316627 C18.261064,15.324424 18.435496,15.421024 18.532096,15.57448 C18.586744,15.662248 18.614896,15.765472 18.616552,15.868696 L18.616552,16.477 C18.993568,16.554832 19.355128,16.710496 19.669216,16.93516 C20.143384,17.27464 20.505496,17.767024 20.687104,18.319576 C20.778184,18.597232 20.824,18.892 20.824552,19.180144 L20.821792,19.23424 C20.814616,19.281712 20.814616,19.293856 20.800816,19.340224 C20.753896,19.495888 20.634664,19.627816 20.483968,19.690192 C20.334376,19.752568 20.157184,19.744288 20.01256,19.66756 C19.853584,19.582552 19.740976,19.415848 19.723312,19.234792 C19.716688,19.171864 19.72,19.108384 19.715032,19.044904 C19.677496,18.58012 19.432408,18.13576 19.05484,17.853136 C18.768904,17.639512 18.412864,17.522488 18.053512,17.524696 C17.711824,17.526352 17.370688,17.637304 17.09248,17.839888 C16.708288,18.1192 16.452712,18.56908 16.414072,19.044904 C16.379848,19.464424 16.511224,19.894984 16.780048,20.225632 C17.08972,20.604856 17.573824,20.836144 18.065104,20.836696 L18.065104,20.836696 C18.066208,20.836696 18.067864,20.836696 18.068968,20.836696 C18.632008,20.8378 19.196704,21.016096 19.658728,21.343984 C20.211832,21.735904 20.613136,22.337032 20.759416,22.99888 C20.881408,23.549776 20.830072,24.137104 20.612032,24.659296 C20.352592,25.279744 19.857448,25.799728 19.249696,26.088976 C19.048768,26.185024 18.835144,26.25568 18.616552,26.29984 L18.616552,26.908696 C18.614344,27.069328 18.543136,27.226648 18.420592,27.330424 C18.244504,27.478912 17.972368,27.502648 17.770888,27.375688 C17.617984,27.27964 17.51752,27.10576 17.512552,26.924152 C17.512552,26.918632 17.512552,26.913664 17.512552,26.908696 L17.512552,26.300944 C16.950616,26.18668 16.42732,25.890808 16.038712,25.470184 C15.614224,25.011472 15.352024,24.407584 15.310624,23.781616 C15.30676,23.720344 15.304552,23.65852 15.304552,23.596696 L15.307312,23.5426 C15.30952,23.524936 15.311728,23.50672 15.31504,23.489056 C15.35368,23.2942 15.503824,23.126944 15.69592,23.068432 C15.83392,23.02648 15.989032,23.041384 16.116544,23.10928 C16.259512,23.186008 16.366048,23.328424 16.397512,23.488504 C16.408,23.538736 16.408,23.549776 16.408552,23.607184 C16.411312,24.047128 16.594576,24.479344 16.916944,24.789568 C17.224408,25.08544 17.646688,25.25656 18.08056,25.252144 C18.519952,25.24828 18.95272,25.061152 19.257976,24.743752 C19.476568,24.516328 19.629472,24.224872 19.68964,23.9152 C19.782376,23.441584 19.657624,22.930432 19.348504,22.551208 C19.039936,22.172536 18.56356,21.9418 18.067312,21.940696 C18.062344,21.940696 18.056824,21.940144 18.051304,21.940144 C17.544016,21.937384 17.038936,21.79276 16.608376,21.52504 C15.979648,21.133672 15.518728,20.483416 15.364168,19.752568 C15.243832,19.184008 15.308416,18.58012 15.545224,18.052408 C15.865384,17.339224 16.498528,16.774528 17.252008,16.542136 C17.337568,16.51564 17.424784,16.49356 17.512552,16.475896 L17.512552,16.475896 Z M20.682688,8.692696 C20.84056,8.59444 20.977456,8.463064 21.10552,8.324512 C21.3622,8.045752 21.575824,7.730008 21.771784,7.404328 C22.158736,6.762904 22.473928,6.080632 22.760416,5.38732 C22.959688,4.905424 23.1424,4.417456 23.312416,3.925624 C23.320144,3.90244 23.328424,3.879256 23.336152,3.856072 C22.878544,3.979168 22.429216,4.134832 21.982648,4.29712 C21.109384,4.613416 20.250472,4.95952 19.395976,5.331568 L19.3888,5.334328 C19.345744,5.350888 19.334704,5.35696 19.28944,5.366896 C19.169656,5.393944 19.042144,5.379592 18.93064,5.3266 C18.895312,5.309488 18.862744,5.288512 18.829072,5.26864 C17.742736,4.6228 16.57912,4.076872 15.322216,3.82792 C14.632216,3.691024 13.919584,3.651832 13.224064,3.770512 C12.477208,3.898024 11.759056,4.213768 11.190496,4.715536 C11.165656,4.737616 11.140816,4.760248 11.115976,4.78288 C11.116528,4.78288 11.116528,4.783432 11.116528,4.783432 L15.514312,8.692696 L20.682688,8.692696 L20.682688,8.692696 Z" id="Shape" fill="#FFFFFF"></path>
                </g>
            </g>
        </g>
    </g>
</svg>