<?xml version="1.0" encoding="UTF-8"?>
<svg width="31px" height="30px" viewBox="0 0 31 30" version="1.1" xmlns="http://www.w3.org/2000/svg" xmlns:xlink="http://www.w3.org/1999/xlink">
    <!-- Generator: Sketch 55.2 (78181) - https://sketchapp.com -->
    <title>noun_investment_2563225</title>
    <desc>Created with Sketch.</desc>
    <g id="Homepage" stroke="none" stroke-width="1" fill="none" fill-rule="evenodd">
        <g id="Home-Page-TPC-Copy" transform="translate(-208.000000, -367.000000)" fill="#FFFFFF" fill-rule="nonzero" stroke="#FFFFFF" stroke-width="0.5">
            <g id="Group-8" transform="translate(207.000000, 313.000000)">
                <g id="noun_investment_2563225" transform="translate(2.000000, 54.000000)">
                    <path d="M24.2185768,0.64799221 C24.1455832,0.661013177 24.0772976,0.698289871 24.0274853,0.752313532 L19.2820462,5.75960013 C19.1013695,5.94720556 19.2633721,6.3209474 19.5262187,6.32292058 C20.6400857,6.31607623 21.0361133,6.3215851 21.9042462,6.32292058 L21.9042462,11.997849 C21.9017011,12.1742096 22.0644693,12.3364208 22.2439644,12.3364208 C22.4234596,12.3364208 22.5862209,12.1742096 22.5836826,11.997849 L22.5836826,5.98910303 C22.583665,5.81432158 22.4218355,5.65529884 22.2439644,5.65528215 C21.3830582,5.65528215 20.904013,5.6546144 20.2905848,5.65528215 L24.2822737,1.46167916 L28.2633466,5.65528215 C27.662635,5.65761924 27.1865472,5.66132521 26.3205831,5.65528215 C26.142712,5.65529884 25.9808825,5.81432158 25.9808648,5.98910303 L25.9808648,12.9993083 C25.9783198,13.1756656 26.1410879,13.3378801 26.3205831,13.3378801 C26.5000782,13.3378801 26.6628396,13.1756656 26.6603013,12.9993083 L26.6603013,6.32292058 C27.5392117,6.32806219 27.9429126,6.32819574 29.0383288,6.32292058 C29.3011771,6.32091735 29.463178,5.94720556 29.2825013,5.75960013 L24.5264462,0.752313532 C24.4502013,0.670081113 24.3301956,0.629418968 24.2185768,0.64799221 L24.2185768,0.64799221 Z M14.7064666,6.65674147 C14.6481222,6.66689115 14.5926088,6.69233545 14.5472236,6.72976239 L9.80178489,10.7355963 C9.58045642,10.9091692 9.7416989,11.3392284 10.0247249,11.3302105 C11.138314,11.3249687 11.5252418,11.3292089 12.3921364,11.3302105 C12.3901682,17.2276605 12.3922206,23.1250572 12.3921364,29.0226541 C12.392154,29.1974355 12.5539836,29.3564583 12.7318546,29.3564583 L16.8084729,29.3564583 C16.9863439,29.3564583 17.1481735,29.1974355 17.1481911,29.0226541 L17.1481911,26.6858912 C17.1507362,26.5095405 16.9879684,26.3473126 16.8084729,26.3473126 C16.6289778,26.3473126 16.4662164,26.5095405 16.4687547,26.6858912 L16.4687547,28.6888165 L13.0715728,28.6888165 C13.0717605,22.7914199 13.0696386,16.8939231 13.0715728,10.9963896 C13.0715549,10.8216115 12.9097256,10.6625888 12.7318546,10.6625721 C11.9362179,10.6625721 11.4632134,10.6625921 10.9271014,10.6625721 L14.7701636,7.42869789 L18.6238422,10.6625721 C18.0887547,10.6639076 17.6268206,10.666879 16.8190893,10.6625721 C16.6377118,10.6570298 16.4686848,10.8180792 16.4687547,10.9963896 L16.4687547,14.0007643 C16.4662096,14.1771249 16.6289778,14.3393428 16.8084729,14.3393428 C16.9879684,14.3393428 17.1507298,14.1771249 17.1481911,14.0007643 L17.1481911,11.3302105 C18.0279109,11.3341502 18.4407585,11.3342837 19.5368351,11.3302105 C19.8163007,11.3303474 19.9674419,10.9070758 19.749159,10.7355963 L14.993104,6.72976239 C14.9152923,6.66476105 14.806617,6.63707647 14.7064666,6.65674147 L14.7064666,6.65674147 Z M5.18374045,11.6640314 C5.12909041,11.6758504 5.077524,11.7011846 5.03511377,11.7370523 L0.279058624,15.7428696 C0.0577300161,15.9164491 0.218972496,16.3465083 0.50199871,16.3374938 C1.61621184,16.3321518 2.01203758,16.3374938 2.88002625,16.3374938 C2.87805805,21.9482955 2.88011007,23.1678594 2.88002625,29.0226541 C2.88004389,29.1974355 3.04187344,29.3564583 3.21974447,29.3564583 L7.2963631,29.3564583 C7.47423413,29.3564583 7.63606368,29.1974355 7.63608132,29.0226541 C7.63608132,24.794412 7.63424886,20.5659696 7.63608132,16.3374938 C8.51467653,16.3415002 8.91861328,16.3415002 10.0141089,16.3374938 C10.2971349,16.3465083 10.4583774,15.9164491 10.2370489,15.7428696 L5.47037776,11.7370523 C5.39256612,11.672051 5.28389078,11.6443631 5.18374045,11.6640314 L5.18374045,11.6640314 Z M5.25805379,12.4359878 L9.10111602,15.669852 C8.5693113,15.669852 8.10096396,15.6741923 7.2963631,15.669852 C7.11849208,15.669852 6.95666253,15.8289081 6.95664488,16.0036896 C6.95488029,20.2319985 6.95680268,24.4603073 6.95664488,28.6888165 L3.55946269,28.6888165 C3.55968835,23.0780147 3.55756236,21.8584509 3.55946269,16.0036896 C3.55944504,15.8289081 3.3976155,15.669852 3.21974447,15.669852 C2.42410773,15.669852 1.95110357,15.6698854 1.41499155,15.669852 L5.25805379,12.4359878 Z M22.2439644,14.3346018 C18.8708071,14.3346018 16.1290365,17.0287402 16.1290365,20.3433444 C16.1290365,23.6579152 18.8708071,26.352087 22.2439644,26.352087 C25.6171221,26.352087 28.3588924,23.6579152 28.3588924,20.3433444 C28.3588924,19.6075596 28.2526613,18.8905049 27.9979417,18.2256676 C27.9248046,18.0781968 27.7307658,18.0014065 27.574023,18.0578641 C27.4172806,18.1143217 27.3197605,18.2961812 27.3609702,18.4551705 C27.5806416,19.0284938 27.6794559,19.6712955 27.6794559,20.3433444 C27.6794559,23.2971009 25.2499275,25.6844452 22.2439644,25.6844452 C19.2380014,25.6844452 16.8084729,23.2971009 16.8084729,20.3433444 C16.8084729,17.3895546 19.2380014,15.0022436 22.2439644,15.0022436 C23.5857639,15.0022436 24.8116667,15.4766743 25.7579248,16.2644762 C25.8941111,16.3791609 26.1242303,16.3617662 26.2409617,16.2279841 C26.3576924,16.0941686 26.3399912,15.8680378 26.2038049,15.7533197 C25.137197,14.8653565 23.7469582,14.3346018 22.2439644,14.3346018 L22.2439644,14.3346018 Z M22.2014996,16.9946854 C22.0346206,17.0153854 21.897703,17.1738072 21.9042462,17.3389731 C21.9042289,17.4591333 21.9042462,17.5864717 21.9042462,17.704061 C21.5019115,17.745628 21.1533096,17.8445205 20.8744755,18.0170317 C20.5152236,18.239323 20.2659556,18.5663162 20.2162715,18.9454601 C20.1665874,19.3246373 20.3356833,19.7227117 20.6727679,20.0199236 C21.0098521,20.3172023 21.5069474,20.5389594 22.1802675,20.6666985 C22.7616487,20.7770094 23.146744,20.9707214 23.3586649,21.1570214 C23.570586,21.3433214 23.6195585,21.5014426 23.6028373,21.6473109 C23.5861178,21.7931791 23.4859478,21.9557409 23.2631191,22.0958999 C23.0402904,22.2360255 22.6943981,22.3462697 22.2439644,22.3462697 C21.5660713,22.3462697 21.1668851,22.1608712 20.6303031,22.0228489 C20.4573464,21.9772088 20.2577669,22.091593 20.2130172,22.2619673 C20.1682675,22.4323417 20.2866067,22.6273223 20.4604439,22.6696238 C20.8543344,22.7709536 21.2889662,22.9524459 21.9042462,23.003428 C21.9042286,23.1172446 21.9042462,23.2331646 21.9042462,23.3477157 C21.9017011,23.5240664 22.0644693,23.6862609 22.2439644,23.6862609 C22.4234596,23.6862609 22.5862209,23.5240664 22.5836826,23.3477157 C22.5836864,23.2305604 22.5836826,23.1084304 22.5836826,22.9930446 C22.992695,22.9508767 23.3429637,22.8359917 23.6240697,22.659207 C23.9801864,22.435213 24.2281941,22.0994723 24.2716577,21.7203285 C24.3151213,21.341218 24.1414768,20.9525254 23.8045449,20.6562817 C23.4676134,20.3600714 22.9744484,20.1360439 22.3076617,20.0095068 C21.7189524,19.897827 21.3398519,19.7049164 21.129264,19.5192173 C20.9186761,19.3335183 20.8660862,19.1739614 20.8850916,19.0289278 C20.9040948,18.8838943 21.007621,18.7212657 21.2354262,18.5803388 C21.4632314,18.4393785 21.8145979,18.3404191 22.2651969,18.3404191 C22.9432766,18.3404191 23.3191306,18.5252501 23.8576261,18.6638065 C24.0305828,18.7094467 24.230162,18.5950959 24.2749117,18.4247215 C24.3196613,18.2542804 24.2013225,18.0592997 24.0274853,18.0170317 C23.6305824,17.9149673 23.2065599,17.7318725 22.5836826,17.6831941 C22.5837003,17.5694443 22.5836826,17.4534575 22.5836826,17.3389731 C22.591362,17.1459289 22.3965292,16.970413 22.2014996,16.9946854 L22.2014996,16.9946854 Z M26.2781182,27.3430828 C26.1112392,27.3637828 25.9743216,27.522238 25.9808648,27.6873705 L25.9808648,28.6888165 L22.5836826,28.6888165 C22.5862277,28.5124659 22.4234596,28.350238 22.2439644,28.350238 C22.0644693,28.350238 21.9017079,28.5124659 21.9042169,28.6888165 L21.9042169,29.0226541 C21.9042169,29.1974355 22.0660934,29.3564249 22.2439644,29.3564583 L26.3205831,29.3564583 C26.4984541,29.3564249 26.6602836,29.1974355 26.6603013,29.0226541 L26.6603013,27.6873705 C26.667984,27.4943264 26.4731478,27.3188104 26.2781182,27.3430828 Z" id="Shape"></path>
                </g>
            </g>
        </g>
    </g>
</svg>