<?xml version="1.0" encoding="UTF-8"?>
<svg width="30px" height="26px" viewBox="0 0 30 26" version="1.1" xmlns="http://www.w3.org/2000/svg" xmlns:xlink="http://www.w3.org/1999/xlink">
    <!-- Generator: Sketch 55.2 (78181) - https://sketchapp.com -->
    <title>noun_Home_2594286</title>
    <desc>Created with Sketch.</desc>
    <g id="Homepage" stroke="none" stroke-width="1" fill="none" fill-rule="evenodd">
        <g id="Home-Page-TPC-Copy" transform="translate(-211.000000, -420.000000)" fill="#FFFFFF" fill-rule="nonzero">
            <g id="Group-8" transform="translate(207.000000, 313.000000)">
                <g id="noun_Home_2594286" transform="translate(4.000000, 107.000000)">
                    <path d="M22.8228112,6.0681619 C22.7629682,6.0681619 22.7028673,6.05600476 22.6461196,6.03142762 L19.833886,4.8119019 C19.6673832,4.7396819 19.5592402,4.57309619 19.5592402,4.38863619 L19.5592402,1.82761905 C19.5592402,1.57356762 19.7613393,1.36761905 20.0106421,1.36761905 L22.8228757,1.36761905 C23.0721785,1.36761905 23.2742776,1.57356762 23.2742776,1.82761905 L23.2742776,5.6081619 C23.2742776,5.76259048 23.1982486,5.9067019 23.0718561,5.99186762 C22.9968589,6.04233619 22.9101252,6.0681619 22.8228112,6.0681619 Z M20.4620439,4.08444476 L22.3714738,4.91244476 L22.3714738,2.28761905 L20.4620439,2.28761905 L20.4620439,4.08444476 Z" id="Shape"></path>
                    <path d="M1.73060748,10.8852637 C1.63755421,10.8852637 1.54540374,10.8559076 1.4678271,10.7992619 C1.34943084,10.7129133 1.27920561,10.573599 1.27920561,10.4252162 L1.27920561,7.55935048 C1.27920561,7.37758476 1.38425327,7.21283905 1.54727383,7.1390419 L14.2026477,1.40731048 C14.3193673,1.35441048 14.4525953,1.35441048 14.569315,1.40731048 L27.2246888,7.1390419 C27.3877093,7.21290476 27.492757,7.37758476 27.492757,7.55935048 L27.492757,10.4252162 C27.492757,10.5776733 27.4186626,10.7202076 27.294914,10.8058333 C27.1711654,10.891459 27.0138196,10.9090705 26.8747234,10.8527533 L23.5104252,9.49108762 L14.3903664,6.32727333 L5.25863551,9.68717905 C5.25605607,9.68816476 5.25341215,9.68908476 5.25083271,9.68993905 L1.87608785,10.8607048 C1.82862617,10.8771333 1.77948785,10.8852637 1.73060748,10.8852637 Z M2.18200935,7.85828476 L2.18200935,9.78272762 L4.95593832,8.82040762 L14.2326981,5.40720762 C14.3291047,5.3717219 14.4344748,5.3708019 14.5314617,5.40444762 L23.8120907,8.62398762 C23.8191841,8.62648476 23.8262776,8.62911333 23.8332421,8.63193905 L26.5899533,9.7477019 L26.5899533,7.85841619 L14.3859813,2.33099048 L2.18200935,7.85828476 Z" id="Shape"></path>
                    <path d="M23.6666103,23.9733333 L5.10535234,23.9733333 C4.85604953,23.9733333 4.65395047,23.7673848 4.65395047,23.5133333 L4.65395047,9.25451619 C4.65395047,9.06072476 4.77318505,8.88763333 4.95206916,8.82185333 L14.2326981,5.40720762 C14.3291047,5.37165619 14.4344748,5.37073619 14.5314617,5.40444762 L23.8120907,8.62398762 C23.9950374,8.68746762 24.1180121,8.86253048 24.1180121,9.05941048 L24.1180121,23.5133333 C24.1180121,23.7673848 23.9159131,23.9733333 23.6666103,23.9733333 Z M5.55668972,23.0533333 L23.2151439,23.0533333 L23.2151439,9.38870476 L14.3903019,6.32727333 L5.55668972,9.57743619 L5.55668972,23.0533333 L5.55668972,23.0533333 Z" id="Shape"></path>
                    <path d="M14.8624682,23.9733333 L7.55046729,23.9733333 C7.30116449,23.9733333 7.09906542,23.7673848 7.09906542,23.5133333 L7.09906542,17.3087876 C7.09906542,15.0008362 8.94162336,13.1231819 11.2064355,13.1231819 C13.4712477,13.1231819 15.3138056,15.0008362 15.3138056,17.3087876 L15.3138056,23.5133333 C15.3138056,23.7673848 15.111771,23.9733333 14.8624682,23.9733333 Z M8.00186916,23.0533333 L14.4110664,23.0533333 L14.4110664,17.3087876 C14.4110664,15.5081505 12.9734804,14.0431819 11.2065,14.0431819 C9.43951963,14.0431819 8.00186916,15.5081505 8.00186916,17.3087876 L8.00186916,23.0533333 Z" id="Shape"></path>
                    <path d="M20.4476636,12.0717533 L8.1953271,12.0717533 C7.9460243,12.0717533 7.74392523,11.8658048 7.74392523,11.6117533 C7.74392523,11.3577019 7.9460243,11.1517533 8.1953271,11.1517533 L20.4476636,11.1517533 C20.6969664,11.1517533 20.8990654,11.3577019 20.8990654,11.6117533 C20.8990654,11.8658048 20.6969664,12.0717533 20.4476636,12.0717533 Z" id="Path"></path>
                    <path d="M16.5785047,10.1003248 L12.064486,10.1003248 C11.8151832,10.1003248 11.6130841,9.89437619 11.6130841,9.64032476 C11.6130841,9.38627333 11.8151832,9.18032476 12.064486,9.18032476 L16.5785047,9.18032476 C16.8278075,9.18032476 17.0299065,9.38627333 17.0299065,9.64032476 C17.0299065,9.89437619 16.8278075,10.1003248 16.5785047,10.1003248 Z" id="Path"></path>
                    <path d="M25.6065421,25.9447619 L3.0364486,25.9447619 C2.78714579,25.9447619 2.58504673,25.7388133 2.58504673,25.4847619 L2.58504673,23.5133333 C2.58504673,23.2592819 2.78714579,23.0533333 3.0364486,23.0533333 L25.6065421,23.0533333 C25.8558449,23.0533333 26.0579439,23.2592819 26.0579439,23.5133333 L26.0579439,25.4847619 C26.0579439,25.7388133 25.8558449,25.9447619 25.6065421,25.9447619 Z M3.48785047,25.0247619 L25.1551402,25.0247619 L25.1551402,23.9733333 L3.48785047,23.9733333 L3.48785047,25.0247619 Z" id="Shape"></path>
                    <path d="M28.8308411,25.9447619 L0.457009346,25.9447619 C0.207706542,25.9447619 0.00560747664,25.7388133 0.00560747664,25.4847619 C0.00560747664,25.2307105 0.207706542,25.0247619 0.457009346,25.0247619 L28.8308411,25.0247619 C29.0801439,25.0247619 29.282243,25.2307105 29.282243,25.4847619 C29.282243,25.7388133 29.0801439,25.9447619 28.8308411,25.9447619 Z" id="Path"></path>
                    <path d="M21.0925234,18.7161905 L17.2233645,18.7161905 C16.9740617,18.7161905 16.7719626,18.5102419 16.7719626,18.2561905 L16.7719626,15.627619 C16.7719626,15.3735676 16.9740617,15.167619 17.2233645,15.167619 L21.0925234,15.167619 C21.3418262,15.167619 21.5439252,15.3735676 21.5439252,15.627619 L21.5439252,18.2561905 C21.5439252,18.5102419 21.3418262,18.7161905 21.0925234,18.7161905 Z M17.6747664,17.7961905 L20.6411215,17.7961905 L20.6411215,16.087619 L17.6747664,16.087619 L17.6747664,17.7961905 Z" id="Shape"></path>
                    <path d="M21.0925234,21.3447619 L17.2233645,21.3447619 C16.9740617,21.3447619 16.7719626,21.1388133 16.7719626,20.8847619 L16.7719626,18.2561905 C16.7719626,18.002139 16.9740617,17.7961905 17.2233645,17.7961905 L21.0925234,17.7961905 C21.3418262,17.7961905 21.5439252,18.002139 21.5439252,18.2561905 L21.5439252,20.8847619 C21.5439252,21.1388133 21.3418262,21.3447619 21.0925234,21.3447619 Z M17.6747664,20.4247619 L20.6411215,20.4247619 L20.6411215,18.7161905 L17.6747664,18.7161905 L17.6747664,20.4247619 Z" id="Shape"></path>
                    <path d="M3.0364486,3.60190476 C2.07638131,3.60190476 1.2953271,2.80597333 1.2953271,1.82761905 C1.2953271,0.849264762 2.07638131,0.0533333333 3.0364486,0.0533333333 C3.99651589,0.0533333333 4.77757009,0.849264762 4.77757009,1.82761905 C4.77757009,2.80597333 3.99651589,3.60190476 3.0364486,3.60190476 Z M3.0364486,0.973333333 C2.57421308,0.973333333 2.19813084,1.35657905 2.19813084,1.82761905 C2.19813084,2.29865905 2.57421308,2.68190476 3.0364486,2.68190476 C3.49868411,2.68190476 3.87476636,2.29865905 3.87476636,1.82761905 C3.87476636,1.35657905 3.49868411,0.973333333 3.0364486,0.973333333 Z" id="Shape"></path>
                </g>
            </g>
        </g>
    </g>
</svg>