<?xml version="1.0" encoding="UTF-8"?>
<svg width="74px" height="74px" viewBox="0 0 74 74" version="1.1" xmlns="http://www.w3.org/2000/svg" xmlns:xlink="http://www.w3.org/1999/xlink">
    <!-- Generator: Sketch 55.2 (78181) - https://sketchapp.com -->
    <title>Play</title>
    <desc>Created with Sketch.</desc>
    <g id="Homepage" stroke="none" stroke-width="1" fill="none" fill-rule="evenodd">
        <g id="Home-Page-TPC-Copy" transform="translate(-683.000000, -3662.000000)">
            <g id="Group-43" transform="translate(646.000000, 3662.000000)">
                <g id="Play" transform="translate(37.000000, 0.000000)">
                    <circle id="Oval" fill="#14A1A8" cx="37" cy="37" r="37"></circle>
                    <path d="M40.7178939,27.3816286 L52.6971538,47.4758709 C53.2627647,48.4246375 52.9521556,49.6522831 52.003389,50.2178939 C51.6936831,50.4025263 51.3398245,50.5 50.9792599,50.5 L27.0207401,50.5 C25.9161706,50.5 25.0207401,49.6045695 25.0207401,48.5 C25.0207401,48.1394354 25.1182138,47.7855768 25.3028462,47.4758709 L37.2821061,27.3816286 C37.8477169,26.4328619 39.0753625,26.1222528 40.0241291,26.6878637 C40.3093997,26.8579289 40.5478288,27.0963579 40.7178939,27.3816286 Z" id="Triangle" fill="#FFFFFF" transform="translate(39.000000, 37.500000) rotate(-270.000000) translate(-39.000000, -37.500000) "></path>
                </g>
            </g>
        </g>
    </g>
</svg>