<?xml version="1.0" encoding="UTF-8"?>
<svg width="58px" height="38px" viewBox="0 0 58 38" version="1.1" xmlns="http://www.w3.org/2000/svg" xmlns:xlink="http://www.w3.org/1999/xlink">
    <!-- Generator: Sketch 55.2 (78181) - https://sketchapp.com -->
    <title>quote</title>
    <desc>Created with Sketch.</desc>
    <g id="Homepage" stroke="none" stroke-width="1" fill="none" fill-rule="evenodd">
        <g id="Home-Page-TPC-Copy" transform="translate(-691.000000, -4205.000000)" fill="#FFFFFF">
            <g id="Group-45" transform="translate(565.000000, 4143.000000)">
                <g id="quote" transform="translate(126.000000, 62.000000)">
                    <path d="M9.425,0 C4.22388222,0 0,4.1510415 0,9.26248029 L0,16.0707991 C0,21.1822062 4.22388222,25.3333174 9.425,25.3333174 L13.9562178,25.3333174 C13.3827911,29.1139927 12.76058,32.5235354 11.6402778,36.3770439 C11.41498,37.1327356 12.0876511,38.0070504 12.8888889,38 C14.7073822,38 16.2030733,36.826963 17.62156,35.3082962 C19.0399822,33.7896294 20.3949911,31.789757 21.5888889,29.588485 C23.9766844,25.1859411 25.7777778,20.1164352 25.7777778,16.4666316 C25.7777778,14.0652457 25.7777778,11.6638662 25.7777778,9.26248029 C25.7777778,4.1510415 21.5538956,0 16.3527778,0 L9.425,0 Z M41.6472222,0 C36.4461044,0 32.2222222,4.1510415 32.2222222,9.26248029 L32.2222222,16.0707991 C32.2222222,21.1822062 36.4461044,25.3333174 41.6472222,25.3333174 L46.17844,25.3333174 C45.6050133,29.1139927 44.9828022,32.5235354 43.8625,36.3770439 C43.6372022,37.1327356 44.3098733,38.0070504 45.1111111,38 C46.9296044,38 48.4252956,36.826963 49.8437822,35.3082962 C51.2622044,33.7896294 52.6172133,31.789757 53.8111111,29.588485 C56.1989067,25.1859411 58,20.1164352 58,16.4666316 C58,14.0652457 58,11.6638662 58,9.26248029 C58,4.1510415 53.7761178,0 48.575,0 L41.6472222,0 Z M9.425,2.53332794 L16.3527778,2.53332794 C20.1724644,2.53332794 23.2,5.50865194 23.2,9.26248029 C23.2,11.6638662 23.2,14.0652457 23.2,16.4666316 C23.2,19.2209038 21.5529933,24.271283 19.3132267,28.4009876 C18.1931822,30.4659032 16.9246578,32.3254925 15.72844,33.6062165 C15.3905578,33.968039 15.0959178,34.145752 14.7819444,34.3978815 C15.6273267,30.9921387 16.2229222,27.7705689 16.7354489,24.2447464 C16.8384311,23.5315512 16.1996578,22.8041695 15.4666667,22.7999895 L9.425,22.7999895 C5.60531333,22.7999895 2.57777778,19.8245958 2.57777778,16.0707991 L2.57777778,9.26248029 C2.57777778,5.50865194 5.60531333,2.53332794 9.425,2.53332794 Z M41.6472222,2.53332794 L48.575,2.53332794 C52.3946867,2.53332794 55.4222222,5.50865194 55.4222222,9.26248029 C55.4222222,11.6638662 55.4222222,14.0652457 55.4222222,16.4666316 C55.4222222,19.2209038 53.7752156,24.271283 51.5354489,28.4009876 C50.4154044,30.4659032 49.14688,32.3254925 47.9506622,33.6062165 C47.61278,33.968039 47.31814,34.145752 47.0041667,34.3978815 C47.8495489,30.9921387 48.4451444,27.7705689 48.9576711,24.2447464 C49.0606533,23.5315512 48.42188,22.8041695 47.6888889,22.7999895 L41.6472222,22.7999895 C37.8275356,22.7999895 34.8,19.8245958 34.8,16.0707991 L34.8,9.26248029 C34.8,5.50865194 37.8275356,2.53332794 41.6472222,2.53332794 L41.6472222,2.53332794 Z" id="Shape"></path>
                </g>
            </g>
        </g>
    </g>
</svg>