<?xml version="1.0" encoding="UTF-8"?>
<svg width="17px" height="17px" viewBox="0 0 17 17" version="1.1" xmlns="http://www.w3.org/2000/svg" xmlns:xlink="http://www.w3.org/1999/xlink">
    <!-- Generator: Sketch 55.2 (78181) - https://sketchapp.com -->
    <title>Rental Yield</title>
    <desc>Created with Sketch.</desc>
    <g id="Homepage" stroke="none" stroke-width="1" fill="none" fill-rule="evenodd">
        <g id="Home-Page-TPC-Copy" transform="translate(-814.000000, -2301.000000)" fill="#FFFFFF" fill-rule="nonzero">
            <g id="Current-orders-bg" transform="translate(0.000000, 2006.000000)">
                <g id="Group-9" transform="translate(813.000000, 183.000000)">
                    <g id="Group-5" transform="translate(1.000000, 112.000000)">
                        <g id="Group-14">
                            <g id="Rental-Yield">
                                <path d="M16.4709016,13.3477891 L16.4397437,13.3056344 C16.2521554,13.0469759 15.9652029,12.8782585 15.6479687,12.8401 C15.3160954,12.804484 14.9843028,12.9080033 14.7315625,13.1260187 C14.6197609,13.221325 14.5189562,13.3093 14.4218172,13.3734484 L14.4218172,13.1388484 C14.4219938,12.9226737 14.3267549,12.7174405 14.1615578,12.5780078 C14.3267549,12.4385751 14.4219938,12.233342 14.4218172,12.0171672 L14.4218172,11.6725984 C14.4219938,11.4564237 14.3267549,11.2511905 14.1615578,11.1117578 C14.3267549,10.9723251 14.4219938,10.767092 14.4218172,10.5509172 L14.4218172,10.2063484 C14.4218172,9.79538127 14.0886625,9.46222656 13.6776953,9.46222656 L10.9706312,9.46222656 L10.9706312,7.8695125 L11.6561031,7.50295 C12.0977769,7.72914763 12.5842032,7.85435388 13.0801984,7.8695125 C13.434777,7.87155662 13.7845246,7.78726492 14.0992422,7.62391562 C14.8598594,7.22986094 15.4188672,6.35377656 15.5948172,5.28158125 C15.6088364,5.19704091 15.5624038,5.11407117 15.4830156,5.08180469 C14.4786344,4.66575625 13.4485937,4.68225156 12.7154687,5.12212656 C12.0648203,5.51068281 11.6744312,6.19615469 11.5461344,7.15288281 L10.9706312,7.45529687 L10.9706312,5.38421875 C12.3394116,5.28556086 13.3845034,4.12111648 13.3351425,2.74967325 C13.2857816,1.37823002 12.1596812,0.29193102 10.78735,0.29193102 C9.41501876,0.29193102 8.28891839,1.37823002 8.23955751,2.74967325 C8.19019662,4.12111648 9.2352884,5.28556086 10.6040687,5.38421875 L10.6040687,7.99047812 L9.84528437,7.58359375 C9.72065312,6.61220312 9.32843125,5.91756719 8.67228437,5.52534531 C7.93915937,5.08547031 6.89995469,5.068975 5.89557344,5.48319062 C5.81618527,5.5154571 5.76975266,5.59842685 5.78377187,5.68296719 C5.96705312,6.7551625 6.51689687,7.62941406 7.27751406,8.02530156 C7.59314763,8.18775176 7.94341284,8.2713878 8.29839062,8.26906562 C8.78456903,8.25635406 9.26199797,8.1368404 9.69682656,7.91899844 L10.6040687,8.40835937 L10.6040687,9.46405937 L7.91533281,9.46405937 C7.71797942,9.46405937 7.52870911,9.5424577 7.38915919,9.68200763 C7.24960927,9.82155755 7.17121094,10.0108279 7.17121094,10.2081812 L7.17121094,10.55275 C7.17216672,10.6639134 7.1978349,10.7734727 7.24635625,10.8734922 C7.17578578,10.8649626 7.10482328,10.8600686 7.03375,10.8588297 L4.21305156,10.8588297 L4.21305156,10.31815 C4.21305156,10.2169266 4.13099375,10.1348687 4.02977031,10.1348687 L0.481445312,10.1348687 C0.380221873,10.1348687 0.298164062,10.2169266 0.298164062,10.31815 L0.298164062,16.5185547 C0.298164062,16.6197781 0.380221873,16.7018359 0.481445312,16.7018359 L4.02977031,16.7018359 C4.13099375,16.7018359 4.21305156,16.6197781 4.21305156,16.5185547 L4.21305156,14.9588312 C5.46068273,15.6596258 6.86741351,16.0281905 8.29839062,16.0291937 L13.5695594,16.0291937 C14.7993766,16.0291937 15.5068422,15.7341109 16.3719297,14.8580266 C16.7687096,14.4460704 16.8105246,13.8080046 16.4709016,13.3477891 Z M12.89875,5.4355375 C13.6007172,5.01765625 14.5281203,5.11662812 15.2117594,5.36589062 C15.0633016,6.07885469 14.6619156,6.92011562 13.9287906,7.29584219 C13.4027734,7.56893125 12.7777844,7.56343281 12.0703187,7.28484531 L12.5321875,7.03375 C12.6192022,6.98539313 12.6517081,6.876421 12.6054052,6.78829614 C12.5591023,6.70017127 12.4509225,6.66511874 12.3617359,6.70934219 L11.9401891,6.93294531 C12.0849812,6.23464375 12.4038906,5.73062031 12.89875,5.4355375 Z M7.44613281,7.69722812 C6.71300781,7.33066562 6.32078594,6.48024062 6.16316406,5.76727656 C6.84680312,5.51801406 7.77420625,5.41904219 8.47617344,5.83692344 C8.97103281,6.13383906 9.28994219,6.64702656 9.43106875,7.36365625 L9.00768906,7.1363875 C8.96471407,7.11307629 8.91420666,7.10790118 8.86739723,7.12201284 C8.82058779,7.13612451 8.78135653,7.1683532 8.75842656,7.21153281 C8.71110701,7.30063436 8.74469371,7.4112247 8.83357187,7.4589625 L9.27344687,7.69539531 C8.58430937,7.96481875 7.96848437,7.96665156 7.44613281,7.69722812 Z M8.60446746,2.84943906 C8.60254639,1.64598062 9.57424311,0.667595492 10.7776864,0.661233314 C11.9811298,0.654932893 12.9630669,1.62303998 12.9738055,2.82645205 C12.9845441,4.02986412 12.0200397,5.01534019 10.816675,5.03048594 C10.7978179,5.02312488 10.7768821,5.02312488 10.758025,5.03048594 C9.56463492,5.01445272 8.60536471,4.04293651 8.60446746,2.84943906 Z M14.044266,13.1388484 L14.044266,13.4834172 C14.0445476,13.5277425 14.0371049,13.5717788 14.0222641,13.6135469 L13.9746109,13.6373734 L13.9122953,13.6648656 L13.8334844,13.6978562 L13.7711687,13.7216828 L13.6886922,13.7473422 L13.6227109,13.7656703 L13.5329031,13.7858312 L13.4632562,13.8023266 L13.3642844,13.8169891 L13.2928047,13.8279859 C13.2551347,13.8335532 13.2172088,13.8372235 13.1791703,13.8389828 L13.1058578,13.8389828 L12.9702297,13.8389828 L12.9005828,13.8389828 L12.6751469,13.8389828 L12.6219953,13.8389828 L12.6219953,13.3954422 C12.6247847,13.3447727 12.6247847,13.2939882 12.6219953,13.2433187 C12.6219953,13.2268234 12.6219953,13.2121609 12.6219953,13.1956656 C12.6219953,13.1791703 12.6109984,13.1260187 12.6036672,13.0930281 C12.5963359,13.0600375 12.6036672,13.0582047 12.5908375,13.0417094 C12.5780078,13.0252141 12.5706766,12.9738953 12.5578469,12.9409047 C12.5450172,12.9079141 12.5578469,12.9115797 12.5431844,12.89875 C12.5230234,12.8510969 12.5028625,12.8071094 12.4790359,12.7631219 L13.6831937,12.7631219 C13.884538,12.7719253 14.0434718,12.9373134 14.044266,13.1388484 L14.044266,13.1388484 Z M14.0442578,11.6725984 L14.0442578,12.0171672 C14.0442578,12.2256875 13.8752187,12.3947266 13.6666984,12.3947266 L12.165625,12.3947266 L12.1436312,12.3763984 L12.1033094,12.3489062 L12.0464922,12.3067516 L12.0006719,12.2755937 C11.9805504,12.2623016 11.9597503,12.2500663 11.9383562,12.2389375 L11.8907031,12.2132781 L11.8265547,12.1821203 L11.7770687,12.1619594 L11.7074219,12.1363 L11.6597687,12.1198047 L11.5846234,12.1014766 L11.5369703,12.0904797 L11.4526609,12.07765 L11.4123391,12.07765 C11.3701844,12.07765 11.3261969,12.07765 11.2840422,12.07765 L8.94170781,12.07765 L8.88672344,11.989675 L8.8665625,11.9420219 L8.80241406,11.8503812 C8.80241406,11.8503812 8.79141719,11.8338859 8.78408594,11.8265547 C8.75476094,11.7862328 8.72177031,11.7440781 8.68511406,11.7019234 C8.67757739,11.6907406 8.66898487,11.6803068 8.65945469,11.6707656 C8.62890781,11.6341094 8.59591719,11.5974531 8.56048281,11.5607969 L8.52749219,11.5278062 C8.48350469,11.4819859 8.43585156,11.4361656 8.3827,11.3903453 L8.36070625,11.3720172 L8.26723281,11.2950391 L13.6666984,11.2950391 C13.8752187,11.2950391 14.0442578,11.4640782 14.0442578,11.6725984 Z M7.53777344,10.2063484 C7.53777344,9.99782815 7.70681253,9.82878906 7.91533281,9.82878906 L13.6666984,9.82878906 C13.8752187,9.82878906 14.0442578,9.99782815 14.0442578,10.2063484 L14.0442578,10.5509172 C14.0442578,10.7594375 13.8752187,10.9284766 13.6666984,10.9284766 L7.91533281,10.9284766 C7.70681253,10.9284766 7.53777344,10.7594375 7.53777344,10.5509172 L7.53777344,10.2063484 Z M3.84648906,16.3352734 L0.664726562,16.3352734 L0.664726562,10.5014312 L3.84648906,10.5014312 L3.84648906,16.3352734 Z M16.1116703,14.6014328 C15.3162297,15.4042047 14.6985719,15.6626434 13.5695594,15.6626434 L8.29839062,15.6626434 C6.86120345,15.6651383 5.44991524,15.2801839 4.21305156,14.5482812 L4.21305156,11.2253913 L7.03375,11.2253913 C7.23142096,11.2251767 7.42733548,11.2624938 7.61108594,11.3353609 C8.06271356,11.5415685 8.43513466,11.8889042 8.67228437,12.3250797 C8.70334143,12.3867134 8.76638863,12.4256752 8.83540469,12.4258844 L11.2840422,12.4258844 C11.5415023,12.4253977 11.7885843,12.5273323 11.9708082,12.7092125 C12.1530322,12.8910926 12.2554333,13.1379816 12.2554328,13.3954422 L12.2554328,13.8609766 L8.5,13.8609766 C8.39877656,13.8609766 8.31671875,13.9430344 8.31671875,14.0442578 C8.31671875,14.1454813 8.39877656,14.2275391 8.5,14.2275391 L12.6751469,14.2275391 C13.0979728,14.2443763 13.5204632,14.1866794 13.9232922,14.0570875 C14.0348474,14.0161606 14.1432707,13.9671557 14.2477,13.9104625 L14.2477,13.9104625 C14.5015554,13.7677146 14.739351,13.598124 14.9569984,13.4046062 C15.1335789,13.2514136 15.3661453,13.1789858 15.5984828,13.2048297 C15.8189206,13.2276592 16.0190503,13.3437345 16.1483266,13.5237391 L16.1794844,13.5658937 C16.4114754,13.8817043 16.3828662,14.3185743 16.1116703,14.6014328 L16.1116703,14.6014328 Z" id="Combined-Shape"></path>
                            </g>
                        </g>
                    </g>
                </g>
            </g>
        </g>
    </g>
</svg>