<?xml version="1.0" encoding="UTF-8"?>
<svg width="78px" height="83px" viewBox="0 0 78 83" version="1.1" xmlns="http://www.w3.org/2000/svg" xmlns:xlink="http://www.w3.org/1999/xlink">
    <!-- Generator: Sketch 55.2 (78181) - https://sketchapp.com -->
    <title>noun_replay_1940120</title>
    <desc>Created with Sketch.</desc>
    <g id="Homepage" stroke="none" stroke-width="1" fill="none" fill-rule="evenodd">
        <g id="Video-on-full-screen-Copy" transform="translate(-681.000000, -222.000000)" fill="#FFFFFF" fill-rule="nonzero">
            <g id="Bitmap">
                <g id="Group-43" transform="translate(678.000000, 222.000000)">
                    <g id="noun_replay_1940120" transform="translate(3.000000, 0.000000)">
                        <path d="M33.1118644,31.4574703 C30.9084746,30.1847335 28,31.7120177 28,34.2574914 L28,56.7425086 C28,59.2879823 30.820339,60.8152665 33.1118644,59.5425297 L52.4135593,48.3424456 C54.5288136,47.0697088 54.5288136,44.0999895 52.4135593,42.8272527 L33.1118644,31.4574703 Z" id="Path"></path>
                        <path d="M72.2734071,24.2187697 C70.8637842,22.0359384 67.956437,21.2501191 65.7539013,22.6471312 C63.4632641,24.0441432 62.7584527,26.9254806 64.1680755,29.2829384 C67.339727,34.4344203 68.9255527,40.7209745 68.3088427,47.3567817 C66.8992199,61.4142153 55.2698311,72.5903117 40.9973995,73.5507574 C23.7295193,74.6858297 9.36898623,61.0649623 9.54518909,44.1261913 C9.72139195,28.4098059 22.6723021,15.4874445 38.442458,15.2255047 C39.3234723,15.2255047 40.1163852,15.2255047 40.9973995,15.312818 L40.9973995,18.9799746 C40.9973995,20.4642999 42.6713267,21.3374324 43.9047467,20.5516131 L57.6485697,12.0822276 C58.7938883,11.3837216 58.7938883,9.63745655 57.6485697,8.93895053 L43.8166453,0.29493853 C42.5832252,-0.490880743 40.9092981,0.382251782 40.9092981,1.86657708 L40.9092981,5.70836019 C40.2925881,5.70836019 39.6758781,5.70836019 38.9710666,5.70836019 C16.505202,5.70836019 -1.64369249,24.655336 0.118336104,47.2694684 C1.52795898,66.2164442 16.9457092,81.4962634 35.975618,82.8932755 C58.7938883,84.5522273 78,66.6530105 78,44.3881311 C78,36.9665046 75.8855657,30.0687577 72.2734071,24.2187697 Z" id="Path"></path>
                    </g>
                </g>
            </g>
        </g>
    </g>
</svg>