<?xml version="1.0" encoding="UTF-8"?>
<svg width="18px" height="14px" viewBox="0 0 18 14" version="1.1" xmlns="http://www.w3.org/2000/svg" xmlns:xlink="http://www.w3.org/1999/xlink">
    <!-- Generator: Sketch 55.2 (78181) - https://sketchapp.com -->
    <title>Share Value</title>
    <desc>Created with Sketch.</desc>
    <g id="Homepage" stroke="none" stroke-width="1" fill="none" fill-rule="evenodd">
        <g id="Home-Page-TPC-Copy" transform="translate(-814.000000, -2373.000000)" fill="#FFFFFF" fill-rule="nonzero">
            <g id="Current-orders-bg" transform="translate(0.000000, 2006.000000)">
                <g id="Group-9" transform="translate(813.000000, 183.000000)">
                    <g id="Group-5" transform="translate(1.000000, 112.000000)">
                        <g id="Group-14">
                            <g id="Share-Value" transform="translate(0.000000, 72.000000)">
                                <path d="M17.6573045,4.26568333 C17.65782,4.25764079 17.65782,4.24957588 17.6573045,4.24153333 C17.6734364,4.19628627 17.6734364,4.14724706 17.6573045,4.102 L17.6573045,4.102 L17.6573045,4.0859 L17.6573045,4.06711667 L14.7781227,0.3507 L14.7611864,0.337283333 C14.7528738,0.326544933 14.7434143,0.316653332 14.7329591,0.307766667 L14.7160227,0.307766667 L14.68215,0.291666667 C14.6634235,0.28917 14.644422,0.28917 14.6256955,0.291666667 L14.6059364,0.291666667 L3.25292727,0.291666667 L3.23316818,0.291666667 L3.19647273,0.291666667 C3.15025393,0.302391918 3.10936313,0.327990225 3.08074091,0.364116667 L0.356809091,4.06443333 L0.356809091,4.06443333 L0.339872727,4.0859 C0.33015295,4.1071504 0.324421004,4.1298541 0.322936364,4.15298333 C0.322936364,4.15298333 0.322936364,4.15298333 0.322936364,4.15298333 C0.321362934,4.18535255 0.32814662,4.217596 0.342695455,4.2469 L0.342695455,4.2469 L0.356809091,4.26836667 L0.356809091,4.28446667 L8.71772727,13.6600333 L8.71772727,13.6600333 C8.73186015,13.67381 8.74802461,13.6855607 8.76571364,13.6949167 L8.78547273,13.6949167 C8.80958708,13.704789 8.83544318,13.710251 8.86168636,13.7110167 L8.86168636,13.7110167 C8.88888325,13.7105931 8.91573129,13.7051241 8.94072273,13.6949167 L8.96048182,13.6949167 C8.97817085,13.6855607 8.9943353,13.67381 9.00846818,13.6600333 L9.00846818,13.6600333 L17.6262545,4.31666667 L17.6262545,4.29788333 L17.6431909,4.27373333 L17.6573045,4.26568333 Z M8.88426818,12.8094167 L6.30429545,4.38106667 L11.4642409,4.38106667 L8.88426818,12.8094167 Z M9.30203182,0.670016667 L14.1881727,0.670016667 L11.7465136,3.83903333 L9.30203182,0.670016667 Z M11.32875,3.97588333 L6.43978636,3.97588333 L8.88426818,0.806866667 L11.32875,3.97588333 Z M6.07283182,3.78 L3.68198182,0.670016667 L8.48061818,0.670016667 L6.07283182,3.78 Z M14.6059364,0.828333333 L17.0504182,3.99735 L12.1642773,3.99735 L14.6059364,0.828333333 Z M3.26139545,0.828333333 L5.70587727,3.99735 L0.938290909,3.99735 L3.26139545,0.828333333 Z M5.86395,4.39985 L8.40440455,12.7020833 L0.9891,4.38106667 L5.86395,4.39985 Z M9.35566364,12.7181833 L11.8961182,4.39985 L17.0024318,4.39985 L9.35566364,12.7181833 Z" id="Shape"></path>
                            </g>
                        </g>
                    </g>
                </g>
            </g>
        </g>
    </g>
</svg>