<?xml version="1.0" encoding="UTF-8"?>
<svg width="82px" height="82px" viewBox="0 0 82 82" version="1.1" xmlns="http://www.w3.org/2000/svg" xmlns:xlink="http://www.w3.org/1999/xlink">
    <!-- Generator: Sketch 55.2 (78181) - https://sketchapp.com -->
    <title>TPC symbol</title>
    <desc>Created with Sketch.</desc>
    <g id="Homepage" stroke="none" stroke-width="1" fill="none" fill-rule="evenodd">
        <g id="Home-Page-TPC-Copy" transform="translate(-284.000000, -3896.000000)" fill="#FFFFFF">
            <g id="Group-44" transform="translate(182.000000, 3877.000000)">
                <g id="TPC-symbol" transform="translate(101.315494, 18.522601)">
                    <path d="M14.68399,12.0618297 L37.5050513,12.0618297 C38.4350933,12.0618297 39.1890413,12.8157777 39.1890413,13.7458197 L39.1890413,37.0227351 C39.1890413,37.9527771 38.4350933,38.7067251 37.5050513,38.7067251 L14.68399,38.7067251 C13.753948,38.7067251 13,37.9527771 13,37.0227351 L13,13.7458197 C13,12.8157777 13.753948,12.0618297 14.68399,12.0618297 Z M22.8729359,26.7694735 C25.4041023,26.7694735 27.4560181,24.6818415 27.4560181,22.1066168 C27.4560181,19.5313922 25.4041023,17.4437601 22.8729359,17.4437601 C20.3417695,17.4437601 18.2898537,19.5313922 18.2898537,22.1066168 C18.2898537,24.6818415 20.3417695,26.7694735 22.8729359,26.7694735 Z M36.5701372,21.6414782 C29.8739518,23.6538904 24.6104593,29.0636838 22.7079425,35.9090111 L27.1101143,35.9090111 C28.7209098,31.4211907 32.1901453,27.8433963 36.5701372,26.139807 L36.5701372,21.6414782 Z M14.68399,44.3551045 L37.5050513,44.3551045 C38.4350933,44.3551045 39.1890413,45.1090525 39.1890413,46.0390945 L39.1890413,69.31601 C39.1890413,70.246052 38.4350933,71 37.5050513,71 L14.68399,71 C13.753948,71 13,70.246052 13,69.31601 L13,46.0390945 C13,45.1090525 13.753948,44.3551045 14.68399,44.3551045 Z M22.8729359,65.5377964 C25.4041023,65.5377964 27.4560181,63.4501644 27.4560181,60.8749397 C27.4560181,58.2997151 25.4041023,56.212083 22.8729359,56.212083 C20.3417695,56.212083 18.2898537,58.2997151 18.2898537,60.8749397 C18.2898537,63.4501644 20.3417695,65.5377964 22.8729359,65.5377964 Z M36.5701372,57.0118609 C32.1007187,55.2734894 28.5796264,51.5835999 27.0137834,46.9666427 L22.6332598,46.9666427 C24.4696228,53.9423582 29.7842024,59.470805 36.5701372,61.5101897 L36.5701372,57.0118609 Z M46.4949487,12 L69.31601,12 C70.246052,12 71,12.753948 71,13.68399 L71,36.9609055 C71,37.8909475 70.246052,38.6448955 69.31601,38.6448955 L46.4949487,38.6448955 C45.5649067,38.6448955 44.8109587,37.8909475 44.8109587,36.9609055 L44.8109587,13.68399 C44.8109587,12.753948 45.5649067,12 46.4949487,12 Z M63.7980136,26.7076439 C66.3291801,26.7076439 68.3810959,24.6200118 68.3810959,22.0447871 C68.3810959,19.4695625 66.3291801,17.3819304 63.7980136,17.3819304 C61.2668472,17.3819304 59.2149314,19.4695625 59.2149314,22.0447871 C59.2149314,24.6200118 61.2668472,26.7076439 63.7980136,26.7076439 Z M47.4385893,25.8778565 C52.1593839,27.4556948 55.9248306,31.1763343 57.6235115,35.9090111 L62.0256833,35.9090111 C60.0550276,28.8185173 54.4783372,23.2682266 47.4385893,21.4384175 L47.4385893,25.8778565 Z M46.4949487,44.1600504 L69.31601,44.1600504 C70.246052,44.1600504 71,44.9139984 71,45.8440404 L71,69.1209558 C71,70.0509978 70.246052,70.8049458 69.31601,70.8049458 L46.4949487,70.8049458 C45.5649067,70.8049458 44.8109587,70.0509978 44.8109587,69.1209558 L44.8109587,45.8440404 C44.8109587,44.9139984 45.5649067,44.1600504 46.4949487,44.1600504 Z M63.7980136,65.3427423 C66.3291801,65.3427423 68.3810959,63.2551102 68.3810959,60.6798856 C68.3810959,58.1046609 66.3291801,56.0170289 63.7980136,56.0170289 C61.2668472,56.0170289 59.2149314,58.1046609 59.2149314,60.6798856 C59.2149314,63.2551102 61.2668472,65.3427423 63.7980136,65.3427423 Z M47.4385893,61.7132504 C54.5694289,59.8597642 60.1991033,54.1888902 62.100366,46.9666427 L57.7198424,46.9666427 C56.0702761,51.8304619 52.2507819,55.665425 47.4385893,57.2738114 L47.4385893,61.7132504 Z" id="Combined-Shape" transform="translate(42.000000, 41.500000) rotate(45.000000) translate(-42.000000, -41.500000) "></path>
                </g>
            </g>
        </g>
    </g>
</svg>