<?xml version="1.0" encoding="UTF-8"?>
<svg width="66px" height="66px" viewBox="0 0 66 66" version="1.1" xmlns="http://www.w3.org/2000/svg" xmlns:xlink="http://www.w3.org/1999/xlink">
    <!-- Generator: Sketch 55.2 (78181) - https://sketchapp.com -->
    <title>noun_Search_1960297</title>
    <desc>Created with Sketch.</desc>
    <g id="Property-Shares" stroke="none" stroke-width="1" fill="none" fill-rule="evenodd">
        <g transform="translate(-280.000000, -735.000000)" fill="#208389" id="1">
            <g transform="translate(207.000000, 693.000000)">
                <g id="noun_Search_1960297" transform="translate(73.000000, 42.000000)">
                    <path d="M8.34534734,44.011154 C3.67759045,39.7990718 0.607032655,33.8965836 0.0801663189,27.2919293 C-0.869770184,15.3837815 6.70828608,4.43978007 18.2542099,1.04552089 C29.8001338,-2.34873828 42.1659478,2.73218407 47.9104747,13.2308229 C53.6550017,23.7294618 51.2120056,36.7833803 42.0515689,44.5373316 L48.4848299,50.9188088 C48.8019541,51.2334754 48.8968047,51.7066315 48.7251654,52.1177064 C48.5535261,52.5287813 48.1491866,52.7968486 47.7006376,52.7969436 L46.5914546,52.7969436 L46.5914546,58.2982171 C46.5914546,58.905871 46.0948565,59.3984718 45.4822717,59.3984718 L36.6088084,59.3984718 C35.9962235,59.3984718 35.4996254,58.905871 35.4996254,58.2982171 L35.4996254,52.7969436 L34.3904425,52.7969436 C33.9428658,52.7959647 33.5397387,52.5282448 33.3682995,52.1181305 C33.1968604,51.7080161 33.2907067,51.2358787 33.6062502,50.9210094 L36.3536963,48.1956785 C33.9798005,49.3044843 31.4464491,50.0401838 28.8445279,50.3763833 L28.8445279,57.1979624 L31.0628938,57.1979624 L31.0628938,66 L19.9710646,66 L19.9710646,57.1979624 L22.1894304,57.1979624 L22.1894304,50.3763833 C18.1215246,49.8480673 14.3694879,48.3825424 11.1526795,46.2088432 L15.6862607,50.742374 C15.9925986,51.0488011 16.0842232,51.5095678 15.9184218,51.9098789 C15.7526203,52.3101899 15.3620334,52.571238 14.9287407,52.5713305 L13.8572839,52.5713305 L13.8572839,57.9285551 C13.8572839,58.5202978 13.3775764,59 12.7858271,59 L4.21417286,59 C3.62242362,59 3.14271607,58.5202978 3.14271607,57.9285551 L3.14271607,52.5713305 L2.07125929,52.5713305 C1.63796656,52.571238 1.24737968,52.3101899 1.08157825,51.9098789 C0.915776818,51.5095678 1.00740136,51.0488011 1.31373934,50.742374 L7.74248005,44.3137046 C7.91223433,44.1440034 8.12475845,44.0431532 8.34534734,44.011154 Z M44.3730888,57.1979624 L44.3730888,52.7969436 L37.7179913,52.7969436 L37.7179913,57.1979624 L39.9363571,57.1979624 L39.9363571,56.0977077 C39.9363571,55.4900538 40.4329552,54.997453 41.04554,54.997453 C41.6581249,54.997453 42.154723,55.4900538 42.154723,56.0977077 L42.154723,57.1979624 L44.3730888,57.1979624 Z M37.0680101,50.5964342 L45.02307,50.5964342 L41.04554,46.6509209 L37.0680101,50.5964342 Z M28.8445279,63.7994906 L28.8445279,59.3984718 L22.1894304,59.3984718 L22.1894304,63.7994906 L28.8445279,63.7994906 Z M26.6261621,57.1979624 L26.6261621,50.5689279 C26.2579133,50.5843314 25.8885554,50.5964342 25.5169792,50.5964342 C25.1454029,50.5964342 24.776045,50.5843314 24.4077962,50.5689279 L24.4077962,57.1979624 L26.6261621,57.1979624 Z M25.5169792,2.18522749 C12.6587795,2.19977935 2.23880778,12.5358769 2.22413782,25.2905762 C2.22413782,38.0513079 12.6526981,48.3959248 25.5169792,48.3959248 C38.3812602,48.3959248 48.8098205,38.0513079 48.8098205,25.2905762 C48.8098205,12.5298444 38.3812602,2.18522749 25.5169792,2.18522749 Z M26,46 C14.4073229,45.9872082 5.01279176,36.5926771 5,25 C5,13.4020203 14.4020203,4 26,4 C37.5979797,4 47,13.4020203 47,25 C47,36.5979797 37.5979797,46 26,46 Z M26,6.21052632 C15.6276578,6.22209954 7.22209954,14.6276578 7.21052632,25 C7.21052632,35.3771398 15.6228602,43.7894737 26,43.7894737 C36.3771398,43.7894737 44.7894737,35.3771398 44.7894737,25 C44.7894737,14.6228602 36.3771398,6.21052632 26,6.21052632 Z M11.2666667,25 L9,25 C9.01061766,16.1675866 16.6155607,9.00999309 26,9 L26,11.1333333 C17.8668883,11.1421504 11.2760348,17.3453066 11.2666667,25 Z M25.2015912,12.3365266 C25.4115651,12.1213327 25.6994267,12 26,12 C26.3005733,12 26.5884349,12.1213327 26.7984088,12.3365266 L38.7149576,25.3438623 C39.0054366,25.6606928 39.0813042,26.1193597 38.9083328,26.512937 C38.7353614,26.9065143 38.3462515,27.1605958 37.9165488,27.1605536 L36.8332262,27.1605536 L36.8332262,36.9160554 C36.8332262,37.5147015 36.3482061,38 35.7499036,38 L16.2500964,38 C15.6517939,38 15.1667738,37.5147015 15.1667738,36.9160554 L15.1667738,27.1605536 L14.0834512,27.1605536 C13.6537485,27.1605958 13.2646386,26.9065143 13.0916672,26.512937 C12.9186958,26.1193597 12.9945634,25.6606928 13.2850424,25.3438623 L25.2015912,12.3365266 Z M21.6667095,35.8321107 L23.8333548,35.8321107 L23.8333548,31.4963321 L21.6667095,31.4963321 L21.6667095,35.8321107 Z M34.6665809,35.8321107 L34.6665809,27.1605536 L17.3334191,27.1605536 L17.3334191,35.8321107 L19.5000643,35.8321107 L19.5000643,30.4123875 C19.5000643,29.8137414 19.9850844,29.3284428 20.5833869,29.3284428 L24.9166774,29.3284428 C25.5149799,29.3284428 26,29.8137414 26,30.4123875 L26,35.8321107 L34.6665809,35.8321107 Z M35.4541565,24.9926643 L26,14.6724273 L16.5458435,24.9926643 L35.4541565,24.9926643 Z M65.6862607,28.742374 C65.9925986,29.0488011 66.0842232,29.5095678 65.9184218,29.9098789 C65.7526203,30.3101899 65.3620334,30.571238 64.9287407,30.5713305 L63.8572839,30.5713305 L63.8572839,35.9285551 C63.8572839,36.5202978 63.3775764,37 62.7858271,37 L54.2141729,37 C53.6224236,37 53.1427161,36.5202978 53.1427161,35.9285551 L53.1427161,30.5713305 L52.0712593,30.5713305 C51.6379666,30.571238 51.2473797,30.3101899 51.0815782,29.9098789 C50.9157768,29.5095678 51.0074014,29.0488011 51.3137393,28.742374 L57.7424801,22.3137046 C58.1608838,21.8954318 58.8391162,21.8954318 59.2575199,22.3137046 L65.6862607,28.742374 Z M58.5,24.5862392 L54.657756,28.4284407 L62.342244,28.4284407 L58.5,24.5862392 Z M61.7143704,34.8571102 L61.7143704,30.5713305 L55.2856296,30.5713305 L55.2856296,34.8571102 L57.4285432,34.8571102 L57.4285432,33.7856653 C57.4285432,33.1939226 57.9082508,32.7142203 58.5,32.7142203 C59.0917492,32.7142203 59.5714568,33.1939226 59.5714568,33.7856653 L59.5714568,34.8571102 L61.7143704,34.8571102 Z M65.6862607,6.74237404 C65.9925986,7.04880113 66.0842232,7.50956783 65.9184218,7.90987888 C65.7526203,8.31018992 65.3620334,8.571238 64.9287407,8.57133051 L63.8572839,8.57133051 L63.8572839,13.9285551 C63.8572839,14.5202978 63.3775764,15 62.7858271,15 L54.2141729,15 C53.6224236,15 53.1427161,14.5202978 53.1427161,13.9285551 L53.1427161,8.57133051 L52.0712593,8.57133051 C51.6379666,8.571238 51.2473797,8.31018992 51.0815782,7.90987888 C50.9157768,7.50956783 51.0074014,7.04880113 51.3137393,6.74237404 L57.7424801,0.313704557 C58.1608838,-0.104568186 58.8391162,-0.104568186 59.2575199,0.313704557 L65.6862607,6.74237404 Z M58.5,2.58623922 L54.657756,6.42844068 L62.342244,6.42844068 L58.5,2.58623922 Z M61.7143704,12.8571102 L61.7143704,8.57133051 L55.2856296,8.57133051 L55.2856296,12.8571102 L57.4285432,12.8571102 L57.4285432,11.7856653 C57.4285432,11.1939226 57.9082508,10.7142203 58.5,10.7142203 C59.0917492,10.7142203 59.5714568,11.1939226 59.5714568,11.7856653 L59.5714568,12.8571102 L61.7143704,12.8571102 Z M63.8572839,52.5713305 L63.8572839,57.9285551 C63.8572839,58.5202978 63.3775764,59 62.7858271,59 L54.2141729,59 C53.6224236,59 53.1427161,58.5202978 53.1427161,57.9285551 L53.1427161,52.5713305 L52.0712593,52.5713305 C51.6379666,52.571238 51.2473797,52.3101899 51.0815782,51.9098789 C50.9157768,51.5095678 51.0074014,51.0488011 51.3137393,50.742374 L57.7424801,44.3137046 C58.1608838,43.8954318 58.8391162,43.8954318 59.2575199,44.3137046 L65.6862607,50.742374 C65.9925986,51.0488011 66.0842232,51.5095678 65.9184218,51.9098789 C65.7526203,52.3101899 65.3620334,52.571238 64.9287407,52.5713305 L63.8572839,52.5713305 Z M58.5,46.5862392 L54.657756,50.4284407 L62.342244,50.4284407 L58.5,46.5862392 Z M61.7143704,56.8571102 L61.7143704,52.5713305 L55.2856296,52.5713305 L55.2856296,56.8571102 L57.4285432,56.8571102 L57.4285432,55.7856653 C57.4285432,55.1939226 57.9082508,54.7142203 58.5,54.7142203 C59.0917492,54.7142203 59.5714568,55.1939226 59.5714568,55.7856653 L59.5714568,56.8571102 L61.7143704,56.8571102 Z M11.7143704,56.8571102 L11.7143704,52.5713305 L5.28562964,52.5713305 L5.28562964,56.8571102 L7.42854321,56.8571102 L7.42854321,55.7856653 C7.42854321,55.1939226 7.90825076,54.7142203 8.5,54.7142203 C9.09174924,54.7142203 9.57145679,55.1939226 9.57145679,55.7856653 L9.57145679,56.8571102 L11.7143704,56.8571102 Z M8.5,46.5862392 L4.65775597,50.4284407 L12.342244,50.4284407 L8.5,46.5862392 Z" id="Combined-Shape"></path>
                </g>
            </g>
        </g>
    </g>
</svg>