<?xml version="1.0" encoding="UTF-8"?>
<svg width="73px" height="72px" viewBox="0 0 73 72" version="1.1" xmlns="http://www.w3.org/2000/svg" xmlns:xlink="http://www.w3.org/1999/xlink">
    <!-- Generator: Sketch 55.2 (78181) - https://sketchapp.com -->
    <title>noun_company_2343511</title>
    <desc>Created with Sketch.</desc>
    <defs>
        <filter x="-9.5%" y="-13.3%" width="119.0%" height="126.7%" filterUnits="objectBoundingBox" id="filter-1">
            <feOffset dx="0" dy="1" in="SourceAlpha" result="shadowOffsetOuter1"></feOffset>
            <feGaussianBlur stdDeviation="1.5" in="shadowOffsetOuter1" result="shadowBlurOuter1"></feGaussianBlur>
            <feColorMatrix values="0 0 0 0 0.739328578   0 0 0 0 0.739328578   0 0 0 0 0.739328578  0 0 0 0.5 0" type="matrix" in="shadowBlurOuter1" result="shadowMatrixOuter1"></feColorMatrix>
            <feMerge>
                <feMergeNode in="shadowMatrixOuter1"></feMergeNode>
                <feMergeNode in="SourceGraphic"></feMergeNode>
            </feMerge>
        </filter>
    </defs>
    <g id="Property-Shares" stroke="none" stroke-width="1" fill="none" fill-rule="evenodd">
        <g transform="translate(-548.000000, -733.000000)" fill="#208389" id="Group-36">
            <g transform="translate(472.000000, 694.000000)">
                <g id="2" transform="translate(7.000000, 0.000000)">
                    <g id="Group-2-Copy-5" filter="url(#filter-1)">
                        <g id="noun_company_2343511" transform="translate(72.000000, 41.000000)">
                            <path d="M18.0282895,15.3590426 C17.4196862,15.3590426 16.9263158,14.8678656 16.9263158,14.2619681 L16.9263158,9.87367021 C16.9263158,9.26777271 17.4196862,8.77659574 18.0282895,8.77659574 L22.4361842,8.77659574 C23.0447875,8.77659574 23.5381579,9.26777271 23.5381579,9.87367021 L23.5381579,14.2619681 C23.5381579,14.8678656 23.0447875,15.3590426 22.4361842,15.3590426 L18.0282895,15.3590426 Z M19.1302632,10.9707447 L19.1302632,13.1648936 L21.3342105,13.1648936 L21.3342105,10.9707447 L19.1302632,10.9707447 Z M26.8440789,15.3590426 C26.2354757,15.3590426 25.7421053,14.8678656 25.7421053,14.2619681 L25.7421053,9.87367021 C25.7421053,9.26777271 26.2354757,8.77659574 26.8440789,8.77659574 L31.2519737,8.77659574 C31.8605769,8.77659574 32.3539474,9.26777271 32.3539474,9.87367021 L32.3539474,14.2619681 C32.3539474,14.8678656 31.8605769,15.3590426 31.2519737,15.3590426 L26.8440789,15.3590426 Z M27.9460526,10.9707447 L27.9460526,13.1648936 L30.15,13.1648936 L30.15,10.9707447 L27.9460526,10.9707447 Z M18.0282895,24.1356383 C17.4196862,24.1356383 16.9263158,23.6444613 16.9263158,23.0385638 L16.9263158,18.650266 C16.9263158,18.0443685 17.4196862,17.5531915 18.0282895,17.5531915 L22.4361842,17.5531915 C23.0447875,17.5531915 23.5381579,18.0443685 23.5381579,18.650266 L23.5381579,23.0385638 C23.5381579,23.6444613 23.0447875,24.1356383 22.4361842,24.1356383 L18.0282895,24.1356383 Z M19.1302632,19.7473404 L19.1302632,21.9414894 L21.3342105,21.9414894 L21.3342105,19.7473404 L19.1302632,19.7473404 Z M26.8440789,24.1356383 C26.2354757,24.1356383 25.7421053,23.6444613 25.7421053,23.0385638 L25.7421053,18.650266 C25.7421053,18.0443685 26.2354757,17.5531915 26.8440789,17.5531915 L31.2519737,17.5531915 C31.8605769,17.5531915 32.3539474,18.0443685 32.3539474,18.650266 L32.3539474,23.0385638 C32.3539474,23.6444613 31.8605769,24.1356383 31.2519737,24.1356383 L26.8440789,24.1356383 Z M27.9460526,19.7473404 L27.9460526,21.9414894 L30.15,21.9414894 L30.15,19.7473404 L27.9460526,19.7473404 Z M18.0282895,32.912234 C17.4196862,32.912234 16.9263158,32.4210571 16.9263158,31.8151596 L16.9263158,27.4268617 C16.9263158,26.8209642 17.4196862,26.3297872 18.0282895,26.3297872 L22.4361842,26.3297872 C23.0447875,26.3297872 23.5381579,26.8209642 23.5381579,27.4268617 L23.5381579,31.8151596 C23.5381579,32.4210571 23.0447875,32.912234 22.4361842,32.912234 L18.0282895,32.912234 Z M19.1302632,28.5239362 L19.1302632,30.7180851 L21.3342105,30.7180851 L21.3342105,28.5239362 L19.1302632,28.5239362 Z M26.8440789,32.912234 C26.2354757,32.912234 25.7421053,32.4210571 25.7421053,31.8151596 L25.7421053,27.4268617 C25.7421053,26.8209642 26.2354757,26.3297872 26.8440789,26.3297872 L31.2519737,26.3297872 C31.8605769,26.3297872 32.3539474,26.8209642 32.3539474,27.4268617 L32.3539474,31.8151596 C32.3539474,32.4210571 31.8605769,32.912234 31.2519737,32.912234 L26.8440789,32.912234 Z M27.9460526,28.5239362 L27.9460526,30.7180851 L30.15,30.7180851 L30.15,28.5239362 L27.9460526,28.5239362 Z M18.0282895,41.6888298 C17.4196862,41.6888298 16.9263158,41.1976528 16.9263158,40.5917553 L16.9263158,36.2034574 C16.9263158,35.5975599 17.4196862,35.106383 18.0282895,35.106383 L22.4361842,35.106383 C23.0447875,35.106383 23.5381579,35.5975599 23.5381579,36.2034574 L23.5381579,40.5917553 C23.5381579,41.1976528 23.0447875,41.6888298 22.4361842,41.6888298 L18.0282895,41.6888298 Z M19.1302632,37.3005319 L19.1302632,39.4946809 L21.3342105,39.4946809 L21.3342105,37.3005319 L19.1302632,37.3005319 Z M26.8440789,41.6888298 C26.2354757,41.6888298 25.7421053,41.1976528 25.7421053,40.5917553 L25.7421053,36.2034574 C25.7421053,35.5975599 26.2354757,35.106383 26.8440789,35.106383 L31.2519737,35.106383 C31.8605769,35.106383 32.3539474,35.5975599 32.3539474,36.2034574 L32.3539474,40.5917553 C32.3539474,41.1976528 31.8605769,41.6888298 31.2519737,41.6888298 L26.8440789,41.6888298 Z M27.9460526,37.3005319 L27.9460526,39.4946809 L30.15,39.4946809 L30.15,37.3005319 L27.9460526,37.3005319 Z M35.6598684,15.3590426 C35.0512652,15.3590426 34.5578947,14.8678656 34.5578947,14.2619681 L34.5578947,9.87367021 C34.5578947,9.26777271 35.0512652,8.77659574 35.6598684,8.77659574 L40.0677632,8.77659574 C40.6763664,8.77659574 41.1697368,9.26777271 41.1697368,9.87367021 L41.1697368,14.2619681 C41.1697368,14.8678656 40.6763664,15.3590426 40.0677632,15.3590426 L35.6598684,15.3590426 Z M36.7618421,10.9707447 L36.7618421,13.1648936 L38.9657895,13.1648936 L38.9657895,10.9707447 L36.7618421,10.9707447 Z M44.4756579,15.3590426 C43.8670546,15.3590426 43.3736842,14.8678656 43.3736842,14.2619681 L43.3736842,9.87367021 C43.3736842,9.26777271 43.8670546,8.77659574 44.4756579,8.77659574 L48.8835526,8.77659574 C49.4921559,8.77659574 49.9855263,9.26777271 49.9855263,9.87367021 L49.9855263,14.2619681 C49.9855263,14.8678656 49.4921559,15.3590426 48.8835526,15.3590426 L44.4756579,15.3590426 Z M45.5776316,10.9707447 L45.5776316,13.1648936 L47.7815789,13.1648936 L47.7815789,10.9707447 L45.5776316,10.9707447 Z M35.6598684,24.1356383 C35.0512652,24.1356383 34.5578947,23.6444613 34.5578947,23.0385638 L34.5578947,18.650266 C34.5578947,18.0443685 35.0512652,17.5531915 35.6598684,17.5531915 L40.0677632,17.5531915 C40.6763664,17.5531915 41.1697368,18.0443685 41.1697368,18.650266 L41.1697368,23.0385638 C41.1697368,23.6444613 40.6763664,24.1356383 40.0677632,24.1356383 L35.6598684,24.1356383 Z M36.7618421,19.7473404 L36.7618421,21.9414894 L38.9657895,21.9414894 L38.9657895,19.7473404 L36.7618421,19.7473404 Z M44.4756579,24.1356383 C43.8670546,24.1356383 43.3736842,23.6444613 43.3736842,23.0385638 L43.3736842,18.650266 C43.3736842,18.0443685 43.8670546,17.5531915 44.4756579,17.5531915 L48.8835526,17.5531915 C49.4921559,17.5531915 49.9855263,18.0443685 49.9855263,18.650266 L49.9855263,23.0385638 C49.9855263,23.6444613 49.4921559,24.1356383 48.8835526,24.1356383 L44.4756579,24.1356383 Z M45.5776316,19.7473404 L45.5776316,21.9414894 L47.7815789,21.9414894 L47.7815789,19.7473404 L45.5776316,19.7473404 Z M35.6598684,32.912234 C35.0512652,32.912234 34.5578947,32.4210571 34.5578947,31.8151596 L34.5578947,27.4268617 C34.5578947,26.8209642 35.0512652,26.3297872 35.6598684,26.3297872 L40.0677632,26.3297872 C40.6763664,26.3297872 41.1697368,26.8209642 41.1697368,27.4268617 L41.1697368,31.8151596 C41.1697368,32.4210571 40.6763664,32.912234 40.0677632,32.912234 L35.6598684,32.912234 Z M36.7618421,28.5239362 L36.7618421,30.7180851 L38.9657895,30.7180851 L38.9657895,28.5239362 L36.7618421,28.5239362 Z M44.4756579,32.912234 C43.8670546,32.912234 43.3736842,32.4210571 43.3736842,31.8151596 L43.3736842,27.4268617 C43.3736842,26.8209642 43.8670546,26.3297872 44.4756579,26.3297872 L48.8835526,26.3297872 C49.4921559,26.3297872 49.9855263,26.8209642 49.9855263,27.4268617 L49.9855263,31.8151596 C49.9855263,32.4210571 49.4921559,32.912234 48.8835526,32.912234 L44.4756579,32.912234 Z M45.5776316,28.5239362 L45.5776316,30.7180851 L47.7815789,30.7180851 L47.7815789,28.5239362 L45.5776316,28.5239362 Z M35.6598684,41.6888298 C35.0512652,41.6888298 34.5578947,41.1976528 34.5578947,40.5917553 L34.5578947,36.2034574 C34.5578947,35.5975599 35.0512652,35.106383 35.6598684,35.106383 L40.0677632,35.106383 C40.6763664,35.106383 41.1697368,35.5975599 41.1697368,36.2034574 L41.1697368,40.5917553 C41.1697368,41.1976528 40.6763664,41.6888298 40.0677632,41.6888298 L35.6598684,41.6888298 Z M36.7618421,37.3005319 L36.7618421,39.4946809 L38.9657895,39.4946809 L38.9657895,37.3005319 L36.7618421,37.3005319 Z M44.4756579,41.6888298 C43.8670546,41.6888298 43.3736842,41.1976528 43.3736842,40.5917553 L43.3736842,36.2034574 C43.3736842,35.5975599 43.8670546,35.106383 44.4756579,35.106383 L48.8835526,35.106383 C49.4921559,35.106383 49.9855263,35.5975599 49.9855263,36.2034574 L49.9855263,40.5917553 C49.9855263,41.1976528 49.4921559,41.6888298 48.8835526,41.6888298 L44.4756579,41.6888298 Z M45.5776316,37.3005319 L45.5776316,39.4946809 L47.7815789,39.4946809 L47.7815789,37.3005319 L45.5776316,37.3005319 Z M18.0282895,50.4654255 C17.4196862,50.4654255 16.9263158,49.9742486 16.9263158,49.3683511 L16.9263158,44.9800532 C16.9263158,44.3741557 17.4196862,43.8829787 18.0282895,43.8829787 L22.4361842,43.8829787 C23.0447875,43.8829787 23.5381579,44.3741557 23.5381579,44.9800532 L23.5381579,49.3683511 C23.5381579,49.9742486 23.0447875,50.4654255 22.4361842,50.4654255 L18.0282895,50.4654255 Z M19.1302632,46.0771277 L19.1302632,48.2712766 L21.3342105,48.2712766 L21.3342105,46.0771277 L19.1302632,46.0771277 Z M26.8440789,50.4654255 C26.2354757,50.4654255 25.7421053,49.9742486 25.7421053,49.3683511 L25.7421053,44.9800532 C25.7421053,44.3741557 26.2354757,43.8829787 26.8440789,43.8829787 L31.2519737,43.8829787 C31.8605769,43.8829787 32.3539474,44.3741557 32.3539474,44.9800532 L32.3539474,49.3683511 C32.3539474,49.9742486 31.8605769,50.4654255 31.2519737,50.4654255 L26.8440789,50.4654255 Z M27.9460526,46.0771277 L27.9460526,48.2712766 L30.15,48.2712766 L30.15,46.0771277 L27.9460526,46.0771277 Z M35.6598684,50.4654255 C35.0512652,50.4654255 34.5578947,49.9742486 34.5578947,49.3683511 L34.5578947,44.9800532 C34.5578947,44.3741557 35.0512652,43.8829787 35.6598684,43.8829787 L40.0677632,43.8829787 C40.6763664,43.8829787 41.1697368,44.3741557 41.1697368,44.9800532 L41.1697368,49.3683511 C41.1697368,49.9742486 40.6763664,50.4654255 40.0677632,50.4654255 L35.6598684,50.4654255 Z M36.7618421,46.0771277 L36.7618421,48.2712766 L38.9657895,48.2712766 L38.9657895,46.0771277 L36.7618421,46.0771277 Z M44.4756579,50.4654255 C43.8670546,50.4654255 43.3736842,49.9742486 43.3736842,49.3683511 L43.3736842,44.9800532 C43.3736842,44.3741557 43.8670546,43.8829787 44.4756579,43.8829787 L48.8835526,43.8829787 C49.4921559,43.8829787 49.9855263,44.3741557 49.9855263,44.9800532 L49.9855263,49.3683511 C49.9855263,49.9742486 49.4921559,50.4654255 48.8835526,50.4654255 L44.4756579,50.4654255 Z M45.5776316,46.0771277 L45.5776316,48.2712766 L47.7815789,48.2712766 L47.7815789,46.0771277 L45.5776316,46.0771277 Z M64.5921875,59.4833777 C64.1787823,59.797769 63.709619,60.031866 63.2092105,60.1734375 L63.2092105,63.6303191 L66.5157903,63.6303191 L66.5157903,65.8244681 L0.396710526,65.8244681 L0.396710526,63.6303191 L3.70263158,63.6303191 L3.70263158,60.1855053 C2.03488436,59.6567277 0.802344568,58.2464548 0.506907895,56.5289561 C0.23434915,55.2249771 0.451143328,53.8667681 1.11629934,52.711137 C1.44695114,52.0121897 1.54054197,51.2252097 1.38297697,50.4687168 C1.35821418,50.2843333 1.34569796,50.0985242 1.34550987,49.9125 C1.32391479,48.6629143 1.89571628,47.4764152 2.88827303,46.7112367 C3.714186,46.097142 4.78556701,45.9140019 5.76993421,46.2186503 C6.9552961,46.6211674 7.84757579,47.6049085 8.12925987,48.8198138 C8.28588333,49.4219147 8.31031415,50.0505502 8.20088816,50.6628989 C8.0649111,51.3841305 8.18160494,52.1299743 8.53148026,52.7758644 C8.9819314,53.5783169 9.21651689,54.4830109 9.2125,55.4022606 C9.23788643,56.985044 8.5283289,58.4909574 7.28955592,59.4833777 C6.87615073,59.797769 6.40698743,60.031866 5.90657895,60.1734375 L5.90657895,63.6303191 L9.2125,63.6303191 L9.2125,60.3390957 C9.2125,59.7331982 9.70587042,59.2420213 10.3144737,59.2420213 L11.4164474,59.2420213 L11.4164474,5.62140957 L10.3475329,1.36366356 C10.2650528,1.03587704 10.3389053,0.688538816 10.5477235,0.422139802 C10.7565417,0.155740788 11.0770232,2.84217094e-14 11.4164474,2.84217094e-14 L55.4953947,2.84217094e-14 C55.8348189,2.84217094e-14 56.1553004,0.155740788 56.3641186,0.422139802 C56.5729368,0.688538816 56.6467893,1.03587704 56.5643092,1.36366356 L55.4953947,5.62140957 L55.4953947,59.2420213 L56.5973684,59.2420213 C57.2059717,59.2420213 57.6993421,59.7331982 57.6993421,60.3390957 L57.6993421,63.6303191 L61.0052632,63.6303191 L61.0052632,60.1855053 C59.3396595,59.6550211 58.1095349,58.2450808 57.8150493,56.5289561 C57.5416145,55.2271775 57.7560164,53.8707832 58.4178289,52.7155253 C58.7484807,52.0165779 58.8420716,51.229598 58.6845066,50.4731051 C58.6597438,50.2887216 58.6472276,50.1029125 58.6470395,49.9168883 C58.6254444,48.6673026 59.1972459,47.4808035 60.1898026,46.715625 C61.0157156,46.1015303 62.0870966,45.9183902 63.0714638,46.2230386 C64.2568257,46.6255557 65.1491054,47.6092967 65.4307895,48.8242021 C65.5871409,49.4248252 65.6119449,50.0518955 65.5035197,50.6628989 C65.3675427,51.3841305 65.4842365,52.1299743 65.8341118,52.7758644 C66.284563,53.5783169 66.5191485,54.4830109 66.5157903,55.4022606 C66.540518,56.985044 65.8309605,58.4909574 64.5921875,59.4833777 Z M2.67118421,56.1021941 C2.81099959,57.007732 3.43853806,57.7639178 4.30541118,58.0714428 C4.87439518,58.2309736 5.48572246,58.108517 5.94845395,57.7423205 C6.64392986,57.1656854 7.03477287,56.3029393 7.00855263,55.4022606 C7.01286364,54.8610913 6.87699082,54.3279511 6.61404605,53.8542886 C6.00844924,52.7644958 5.80310286,51.4987154 6.03330592,50.2745346 C6.08585361,49.9713257 6.07232438,49.6604145 5.99363487,49.3628657 C5.89534108,48.8934181 5.56966094,48.5030245 5.12417763,48.3206449 C5.02067184,48.2886323 4.9129884,48.2719971 4.80460526,48.2712766 C4.58548452,48.2730859 4.37299039,48.3462998 4.19962171,48.4797207 C3.77094011,48.8328029 3.53015593,49.3632505 3.54725329,49.9168883 C3.54734519,50.0071672 3.55360415,50.0973353 3.56598684,50.1867686 C3.79507059,51.4259255 3.60111276,52.7057626 3.015,53.8224734 C2.62518252,54.5152811 2.50291916,55.3259661 2.67118421,56.1021941 Z M54.0837664,2.19414894 L12.8280757,2.19414894 L13.3790625,4.38829787 L53.5327796,4.38829787 L54.0837664,2.19414894 Z M13.6203947,6.58244681 L13.6203947,59.2420213 L16.9263158,59.2420213 L16.9263158,53.7566489 C16.9263158,53.1507514 17.4196862,52.6595745 18.0282895,52.6595745 L22.4361842,52.6595745 C23.0447875,52.6595745 23.5381579,53.1507514 23.5381579,53.7566489 L23.5381579,59.2420213 L25.7421053,59.2420213 L25.7421053,53.7566489 C25.7421053,53.1507514 26.2354757,52.6595745 26.8440789,52.6595745 L40.0677632,52.6595745 C40.6763664,52.6595745 41.1697368,53.1507514 41.1697368,53.7566489 L41.1697368,59.2420213 L43.3736842,59.2420213 L43.3736842,53.7566489 C43.3736842,53.1507514 43.8670546,52.6595745 44.4756579,52.6595745 L48.8835526,52.6595745 C49.4921559,52.6595745 49.9855263,53.1507514 49.9855263,53.7566489 L49.9855263,59.2420213 L53.2914474,59.2420213 L53.2914474,6.58244681 L13.6203947,6.58244681 Z M47.7815789,59.2420213 L47.7815789,54.8537234 L45.5776316,54.8537234 L45.5776316,59.2420213 L47.7815789,59.2420213 Z M27.9460526,59.2420213 L32.3539474,59.2420213 L32.3539474,54.8537234 L27.9460526,54.8537234 L27.9460526,59.2420213 Z M34.5578947,54.8537234 L34.5578947,59.2420213 L38.9657895,59.2420213 L38.9657895,54.8537234 L34.5578947,54.8537234 Z M21.3342105,59.2420213 L21.3342105,54.8537234 L19.1302632,54.8537234 L19.1302632,59.2420213 L21.3342105,59.2420213 Z M11.4164474,61.4361702 L11.4164474,63.6303191 L25.7421053,63.6303191 L25.7421053,61.4361702 L11.4164474,61.4361702 Z M27.9460526,63.6303191 L38.9657895,63.6303191 L38.9657895,61.4361702 L27.9460526,61.4361702 L27.9460526,63.6303191 Z M41.1697368,63.6303191 L55.4953947,63.6303191 L55.4953947,61.4361702 L41.1697368,61.4361702 L41.1697368,63.6303191 Z M59.9738158,56.1021941 C60.1136312,57.007732 60.7411696,57.7639178 61.6080428,58.0714428 C62.1770268,58.2309736 62.788354,58.108517 63.2510855,57.7423205 C63.9465614,57.1656854 64.3374044,56.3029393 64.3111842,55.4022606 C64.3154952,54.8610913 64.1796224,54.3279511 63.9166776,53.8542886 C63.3110808,52.7644958 63.1057344,51.4987154 63.3359375,50.2745346 C63.3884852,49.9713257 63.374956,49.6604145 63.2962664,49.3628657 C63.1979727,48.8934181 62.8722925,48.5030245 62.4268092,48.3206449 C62.3233034,48.2886323 62.21562,48.2719971 62.1072368,48.2712766 C61.8881161,48.2730859 61.675622,48.3462998 61.5022533,48.4797207 C61.0735717,48.8328029 60.8327875,49.3632505 60.8498849,49.9168883 C60.8499768,50.0071672 60.8562357,50.0973353 60.8686184,50.1867686 C61.0977022,51.4259255 60.9037443,52.7057626 60.3176316,53.8224734 C59.9278141,54.5152811 59.8055507,55.3259661 59.9738158,56.1021941 Z" id="Combined-Shape"></path>
                        </g>
                    </g>
                </g>
            </g>
        </g>
    </g>
</svg>