<?xml version="1.0" encoding="UTF-8"?>
<svg width="81px" height="73px" viewBox="0 0 81 73" version="1.1" xmlns="http://www.w3.org/2000/svg" xmlns:xlink="http://www.w3.org/1999/xlink">
    <!-- Generator: Sketch 55.2 (78181) - https://sketchapp.com -->
    <title>Shares-buy-icon</title>
    <desc>Created with Sketch.</desc>
    <defs>
        <filter x="-9.5%" y="-13.3%" width="119.0%" height="126.7%" filterUnits="objectBoundingBox" id="filter-1">
            <feOffset dx="0" dy="1" in="SourceAlpha" result="shadowOffsetOuter1"></feOffset>
            <feGaussianBlur stdDeviation="1.5" in="shadowOffsetOuter1" result="shadowBlurOuter1"></feGaussianBlur>
            <feColorMatrix values="0 0 0 0 0.739328578   0 0 0 0 0.739328578   0 0 0 0 0.739328578  0 0 0 0.5 0" type="matrix" in="shadowBlurOuter1" result="shadowMatrixOuter1"></feColorMatrix>
            <feMerge>
                <feMergeNode in="shadowMatrixOuter1"></feMergeNode>
                <feMergeNode in="SourceGraphic"></feMergeNode>
            </feMerge>
        </filter>
    </defs>
    <g id="Property-Shares" stroke="none" stroke-width="1" fill="none" fill-rule="evenodd">
        <g transform="translate(-821.000000, -732.000000)" id="Group-37">
            <g transform="translate(751.000000, 694.000000)">
                <g id="3">
                    <g id="Group-2-Copy-2" filter="url(#filter-1)">
                        <g id="Shares-buy-icon" transform="translate(73.000000, 40.000000)">
                            <path d="M34,1 L34,3.19414894 L12.8280757,3.19414894 L13.3790625,5.38829787 L34,5.38829787 L34,7.58244681 L13.6203947,7.58244681 L13.6203947,60.2420213 L16.9263158,60.2420213 L16.9263158,54.7566489 C16.9263158,54.1507514 17.4196862,53.6595745 18.0282895,53.6595745 L22.4361842,53.6595745 C23.0447875,53.6595745 23.5381579,54.1507514 23.5381579,54.7566489 L23.5381579,60.2420213 L25.7421053,60.2420213 L25.7421053,54.7566489 C25.7421053,54.1507514 26.2354757,53.6595745 26.8440789,53.6595745 L40.0677632,53.6595745 C40.6763664,53.6595745 41.1697368,54.1507514 41.1697368,54.7566489 L41.1697368,60.2420213 L43.3736842,60.2420213 L43.3736842,54.7566489 C43.3736842,54.1507514 43.8670546,53.6595745 44.4756579,53.6595745 L48.8835526,53.6595745 C49.4921559,53.6595745 49.9855263,54.1507514 49.9855263,54.7566489 L49.9855263,60.2420213 L53.2914474,60.2420213 L53.2914474,44 L55.4953947,44 L55.4953947,60.2420213 L56.5973684,60.2420213 C57.2059717,60.2420213 57.6993421,60.7331982 57.6993421,61.3390957 L57.6993421,64.6303191 L61.0052632,64.6303191 L61.0052632,61.1855053 C59.3396595,60.6550211 58.1095349,59.2450808 57.8150493,57.5289561 C57.5416145,56.2271775 57.7560164,54.8707832 58.4178289,53.7155253 C58.7484807,53.0165779 58.8420716,52.229598 58.6845066,51.4731051 C58.6597438,51.2887216 58.6472276,51.1029125 58.6470395,50.9168883 C58.6254444,49.6673026 59.1972459,48.4808035 60.1898026,47.715625 C61.0157156,47.1015303 62.0870966,46.9183902 63.0714638,47.2230386 C64.2568257,47.6255557 65.1491054,48.6092967 65.4307895,49.8242021 C65.5871409,50.4248252 65.6119449,51.0518955 65.5035197,51.6628989 C65.3675427,52.3841305 65.4842365,53.1299743 65.8341118,53.7758644 C66.284563,54.5783169 66.5191485,55.4830109 66.5157903,56.4022606 C66.540518,57.985044 65.8309605,59.4909574 64.5921875,60.4833777 C64.1787823,60.797769 63.709619,61.031866 63.2092105,61.1734375 L63.2092105,64.6303191 L66.5157903,64.6303191 L66.5157903,66.8244681 L0.396710526,66.8244681 L0.396710526,64.6303191 L3.70263158,64.6303191 L3.70263158,61.1855053 C2.03488436,60.6567277 0.802344568,59.2464548 0.506907895,57.5289561 C0.23434915,56.2249771 0.451143328,54.8667681 1.11629934,53.711137 C1.44695114,53.0121897 1.54054197,52.2252097 1.38297697,51.4687168 C1.35821418,51.2843333 1.34569796,51.0985242 1.34550987,50.9125 C1.32391479,49.6629143 1.89571628,48.4764152 2.88827303,47.7112367 C3.714186,47.097142 4.78556701,46.9140019 5.76993421,47.2186503 C6.9552961,47.6211674 7.84757579,48.6049085 8.12925987,49.8198138 C8.28588333,50.4219147 8.31031415,51.0505502 8.20088816,51.6628989 C8.0649111,52.3841305 8.18160494,53.1299743 8.53148026,53.7758644 C8.9819314,54.5783169 9.21651689,55.4830109 9.2125,56.4022606 C9.23788643,57.985044 8.5283289,59.4909574 7.28955592,60.4833777 C6.87615073,60.797769 6.40698743,61.031866 5.90657895,61.1734375 L5.90657895,64.6303191 L9.2125,64.6303191 L9.2125,61.3390957 C9.2125,60.7331982 9.70587042,60.2420213 10.3144737,60.2420213 L11.4164474,60.2420213 L11.4164474,6.62140957 L10.3475329,2.36366356 C10.2650528,2.03587704 10.3389053,1.68853882 10.5477235,1.4221398 C10.7565417,1.15574079 11.0770232,1 11.4164474,1 L34,1 Z M18.0282895,16.3590426 C17.4196862,16.3590426 16.9263158,15.8678656 16.9263158,15.2619681 L16.9263158,10.8736702 C16.9263158,10.2677727 17.4196862,9.77659574 18.0282895,9.77659574 L22.4361842,9.77659574 C23.0447875,9.77659574 23.5381579,10.2677727 23.5381579,10.8736702 L23.5381579,15.2619681 C23.5381579,15.8678656 23.0447875,16.3590426 22.4361842,16.3590426 L18.0282895,16.3590426 Z M19.1302632,11.9707447 L19.1302632,14.1648936 L21.3342105,14.1648936 L21.3342105,11.9707447 L19.1302632,11.9707447 Z M26.8440789,16.3590426 C26.2354757,16.3590426 25.7421053,15.8678656 25.7421053,15.2619681 L25.7421053,10.8736702 C25.7421053,10.2677727 26.2354757,9.77659574 26.8440789,9.77659574 L31.2519737,9.77659574 C31.8605769,9.77659574 32.3539474,10.2677727 32.3539474,10.8736702 L32.3539474,15.2619681 C32.3539474,15.8678656 31.8605769,16.3590426 31.2519737,16.3590426 L26.8440789,16.3590426 Z M27.9460526,11.9707447 L27.9460526,14.1648936 L30.15,14.1648936 L30.15,11.9707447 L27.9460526,11.9707447 Z M18.0282895,25.1356383 C17.4196862,25.1356383 16.9263158,24.6444613 16.9263158,24.0385638 L16.9263158,19.650266 C16.9263158,19.0443685 17.4196862,18.5531915 18.0282895,18.5531915 L22.4361842,18.5531915 C23.0447875,18.5531915 23.5381579,19.0443685 23.5381579,19.650266 L23.5381579,24.0385638 C23.5381579,24.6444613 23.0447875,25.1356383 22.4361842,25.1356383 L18.0282895,25.1356383 Z M19.1302632,20.7473404 L19.1302632,22.9414894 L21.3342105,22.9414894 L21.3342105,20.7473404 L19.1302632,20.7473404 Z M26.8440789,25.1356383 C26.2354757,25.1356383 25.7421053,24.6444613 25.7421053,24.0385638 L25.7421053,19.650266 C25.7421053,19.0443685 26.2354757,18.5531915 26.8440789,18.5531915 L31.2519737,18.5531915 C31.8605769,18.5531915 32.3539474,19.0443685 32.3539474,19.650266 L32.3539474,24.0385638 C32.3539474,24.6444613 31.8605769,25.1356383 31.2519737,25.1356383 L26.8440789,25.1356383 Z M27.9460526,20.7473404 L27.9460526,22.9414894 L30.15,22.9414894 L30.15,20.7473404 L27.9460526,20.7473404 Z M18.0282895,33.912234 C17.4196862,33.912234 16.9263158,33.4210571 16.9263158,32.8151596 L16.9263158,28.4268617 C16.9263158,27.8209642 17.4196862,27.3297872 18.0282895,27.3297872 L22.4361842,27.3297872 C23.0447875,27.3297872 23.5381579,27.8209642 23.5381579,28.4268617 L23.5381579,32.8151596 C23.5381579,33.4210571 23.0447875,33.912234 22.4361842,33.912234 L18.0282895,33.912234 Z M19.1302632,29.5239362 L19.1302632,31.7180851 L21.3342105,31.7180851 L21.3342105,29.5239362 L19.1302632,29.5239362 Z M26.8440789,33.912234 C26.2354757,33.912234 25.7421053,33.4210571 25.7421053,32.8151596 L25.7421053,28.4268617 C25.7421053,27.8209642 26.2354757,27.3297872 26.8440789,27.3297872 L31.2519737,27.3297872 C31.8605769,27.3297872 32.3539474,27.8209642 32.3539474,28.4268617 L32.3539474,32.8151596 C32.3539474,33.4210571 31.8605769,33.912234 31.2519737,33.912234 L26.8440789,33.912234 Z M27.9460526,29.5239362 L27.9460526,31.7180851 L30.15,31.7180851 L30.15,29.5239362 L27.9460526,29.5239362 Z M18.0282895,42.6888298 C17.4196862,42.6888298 16.9263158,42.1976528 16.9263158,41.5917553 L16.9263158,37.2034574 C16.9263158,36.5975599 17.4196862,36.106383 18.0282895,36.106383 L22.4361842,36.106383 C23.0447875,36.106383 23.5381579,36.5975599 23.5381579,37.2034574 L23.5381579,41.5917553 C23.5381579,42.1976528 23.0447875,42.6888298 22.4361842,42.6888298 L18.0282895,42.6888298 Z M19.1302632,38.3005319 L19.1302632,40.4946809 L21.3342105,40.4946809 L21.3342105,38.3005319 L19.1302632,38.3005319 Z M26.8440789,42.6888298 C26.2354757,42.6888298 25.7421053,42.1976528 25.7421053,41.5917553 L25.7421053,37.2034574 C25.7421053,36.5975599 26.2354757,36.106383 26.8440789,36.106383 L31.2519737,36.106383 C31.8605769,36.106383 32.3539474,36.5975599 32.3539474,37.2034574 L32.3539474,41.5917553 C32.3539474,42.1976528 31.8605769,42.6888298 31.2519737,42.6888298 L26.8440789,42.6888298 Z M27.9460526,38.3005319 L27.9460526,40.4946809 L30.15,40.4946809 L30.15,38.3005319 L27.9460526,38.3005319 Z M18.0282895,51.4654255 C17.4196862,51.4654255 16.9263158,50.9742486 16.9263158,50.3683511 L16.9263158,45.9800532 C16.9263158,45.3741557 17.4196862,44.8829787 18.0282895,44.8829787 L22.4361842,44.8829787 C23.0447875,44.8829787 23.5381579,45.3741557 23.5381579,45.9800532 L23.5381579,50.3683511 C23.5381579,50.9742486 23.0447875,51.4654255 22.4361842,51.4654255 L18.0282895,51.4654255 Z M19.1302632,47.0771277 L19.1302632,49.2712766 L21.3342105,49.2712766 L21.3342105,47.0771277 L19.1302632,47.0771277 Z M26.8440789,51.4654255 C26.2354757,51.4654255 25.7421053,50.9742486 25.7421053,50.3683511 L25.7421053,45.9800532 C25.7421053,45.3741557 26.2354757,44.8829787 26.8440789,44.8829787 L31.2519737,44.8829787 C31.8605769,44.8829787 32.3539474,45.3741557 32.3539474,45.9800532 L32.3539474,50.3683511 C32.3539474,50.9742486 31.8605769,51.4654255 31.2519737,51.4654255 L26.8440789,51.4654255 Z M27.9460526,47.0771277 L27.9460526,49.2712766 L30.15,49.2712766 L30.15,47.0771277 L27.9460526,47.0771277 Z M35.6598684,51.4654255 C35.0512652,51.4654255 34.5578947,50.9742486 34.5578947,50.3683511 L34.5578947,45.9800532 C34.5578947,45.3741557 35.0512652,44.8829787 35.6598684,44.8829787 L40.0677632,44.8829787 C40.6763664,44.8829787 41.1697368,45.3741557 41.1697368,45.9800532 L41.1697368,50.3683511 C41.1697368,50.9742486 40.6763664,51.4654255 40.0677632,51.4654255 L35.6598684,51.4654255 Z M36.7618421,47.0771277 L36.7618421,49.2712766 L38.9657895,49.2712766 L38.9657895,47.0771277 L36.7618421,47.0771277 Z M44.4756579,51.4654255 C43.8670546,51.4654255 43.3736842,50.9742486 43.3736842,50.3683511 L43.3736842,45.9800532 C43.3736842,45.3741557 43.8670546,44.8829787 44.4756579,44.8829787 L48.8835526,44.8829787 C49.4921559,44.8829787 49.9855263,45.3741557 49.9855263,45.9800532 L49.9855263,50.3683511 C49.9855263,50.9742486 49.4921559,51.4654255 48.8835526,51.4654255 L44.4756579,51.4654255 Z M45.5776316,47.0771277 L45.5776316,49.2712766 L47.7815789,49.2712766 L47.7815789,47.0771277 L45.5776316,47.0771277 Z M2.67118421,57.1021941 C2.81099959,58.007732 3.43853806,58.7639178 4.30541118,59.0714428 C4.87439518,59.2309736 5.48572246,59.108517 5.94845395,58.7423205 C6.64392986,58.1656854 7.03477287,57.3029393 7.00855263,56.4022606 C7.01286364,55.8610913 6.87699082,55.3279511 6.61404605,54.8542886 C6.00844924,53.7644958 5.80310286,52.4987154 6.03330592,51.2745346 C6.08585361,50.9713257 6.07232438,50.6604145 5.99363487,50.3628657 C5.89534108,49.8934181 5.56966094,49.5030245 5.12417763,49.3206449 C5.02067184,49.2886323 4.9129884,49.2719971 4.80460526,49.2712766 C4.58548452,49.2730859 4.37299039,49.3462998 4.19962171,49.4797207 C3.77094011,49.8328029 3.53015593,50.3632505 3.54725329,50.9168883 C3.54734519,51.0071672 3.55360415,51.0973353 3.56598684,51.1867686 C3.79507059,52.4259255 3.60111276,53.7057626 3.015,54.8224734 C2.62518252,55.5152811 2.50291916,56.3259661 2.67118421,57.1021941 Z M47.7815789,60.2420213 L47.7815789,55.8537234 L45.5776316,55.8537234 L45.5776316,60.2420213 L47.7815789,60.2420213 Z M27.9460526,60.2420213 L32.3539474,60.2420213 L32.3539474,55.8537234 L27.9460526,55.8537234 L27.9460526,60.2420213 Z M34.5578947,55.8537234 L34.5578947,60.2420213 L38.9657895,60.2420213 L38.9657895,55.8537234 L34.5578947,55.8537234 Z M21.3342105,60.2420213 L21.3342105,55.8537234 L19.1302632,55.8537234 L19.1302632,60.2420213 L21.3342105,60.2420213 Z M11.4164474,62.4361702 L11.4164474,64.6303191 L25.7421053,64.6303191 L25.7421053,62.4361702 L11.4164474,62.4361702 Z M27.9460526,64.6303191 L38.9657895,64.6303191 L38.9657895,62.4361702 L27.9460526,62.4361702 L27.9460526,64.6303191 Z M41.1697368,64.6303191 L55.4953947,64.6303191 L55.4953947,62.4361702 L41.1697368,62.4361702 L41.1697368,64.6303191 Z M59.9738158,57.1021941 C60.1136312,58.007732 60.7411696,58.7639178 61.6080428,59.0714428 C62.1770268,59.2309736 62.788354,59.108517 63.2510855,58.7423205 C63.9465614,58.1656854 64.3374044,57.3029393 64.3111842,56.4022606 C64.3154952,55.8610913 64.1796224,55.3279511 63.9166776,54.8542886 C63.3110808,53.7644958 63.1057344,52.4987154 63.3359375,51.2745346 C63.3884852,50.9713257 63.374956,50.6604145 63.2962664,50.3628657 C63.1979727,49.8934181 62.8722925,49.5030245 62.4268092,49.3206449 C62.3233034,49.2886323 62.21562,49.2719971 62.1072368,49.2712766 C61.8881161,49.2730859 61.675622,49.3462998 61.5022533,49.4797207 C61.0735717,49.8328029 60.8327875,50.3632505 60.8498849,50.9168883 C60.8499768,51.0071672 60.8562357,51.0973353 60.8686184,51.1867686 C61.0977022,52.4259255 60.9037443,53.7057626 60.3176316,54.8224734 C59.9278141,55.5152811 59.8055507,56.3259661 59.9738158,57.1021941 Z" id="Combined-Shape" fill="#208389"></path>
                            <g id="Group-4" transform="translate(39.000000, 0.000000)" stroke="#208389">
                                <rect id="Rectangle" stroke-width="2" x="1" y="1" width="15" height="16" rx="1"></rect>
                                <g id="noun_investor_2033272" transform="translate(3.000000, 4.000000)" fill="#208389" fill-rule="nonzero">
                                    <path d="M8.28178694,4.78723404 C8.52233677,4.78723404 8.71134021,4.96453901 8.71134021,5.19019987 C8.71134021,5.28691167 8.78006873,5.3513862 8.88316151,5.3513862 C8.9862543,5.3513862 9.05498282,5.28691167 9.05498282,5.19019987 C9.05498282,4.85170858 8.79725086,4.56157318 8.45360825,4.48098001 L8.45360825,4.30367505 C8.45360825,4.20696325 8.38487973,4.14248872 8.28178694,4.14248872 C8.17869416,4.14248872 8.10996564,4.20696325 8.10996564,4.30367505 L8.10996564,4.48098001 C7.76632302,4.56157318 7.50859107,4.83558994 7.50859107,5.19019987 C7.50859107,5.5931657 7.85223368,5.91553836 8.28178694,5.91553836 C8.52233677,5.91553836 8.71134021,6.09284333 8.71134021,6.31850419 C8.71134021,6.54416505 8.52233677,6.72147002 8.28178694,6.72147002 C8.28178694,6.72147002 8.28178694,6.72147002 8.28178694,6.72147002 C8.28178694,6.72147002 8.28178694,6.72147002 8.28178694,6.72147002 C8.04123711,6.72147002 7.85223368,6.54416505 7.85223368,6.31850419 C7.85223368,6.22179239 7.78350515,6.15731786 7.68041237,6.15731786 C7.57731959,6.15731786 7.50859107,6.22179239 7.50859107,6.31850419 C7.50859107,6.65699549 7.76632302,6.94713088 8.10996564,7.02772405 L8.10996564,7.20502901 C8.10996564,7.30174081 8.17869416,7.36621534 8.28178694,7.36621534 C8.38487973,7.36621534 8.45360825,7.30174081 8.45360825,7.20502901 L8.45360825,7.02772405 C8.79725086,6.94713088 9.05498282,6.67311412 9.05498282,6.31850419 C9.05498282,5.91553836 8.71134021,5.5931657 8.28178694,5.5931657 C8.04123711,5.5931657 7.85223368,5.41586074 7.85223368,5.19019987 C7.85223368,4.96453901 8.05841924,4.78723404 8.28178694,4.78723404 Z" id="Path"></path>
                                    <path d="M4.53608247,3.96518375 C5.70446735,3.96518375 6.63230241,3.07865893 6.63230241,1.99871051 C6.63230241,0.902643456 5.68728522,0.0322372663 4.53608247,0.0322372663 C3.36769759,0.0322372663 2.43986254,0.918762089 2.43986254,1.99871051 C2.43986254,3.07865893 3.38487973,3.96518375 4.53608247,3.96518375 Z M4.53608247,0.338491296 C5.51546392,0.338491296 6.28865979,1.07994842 6.28865979,1.98259188 C6.28865979,2.90135397 5.49828179,3.62669246 4.53608247,3.62669246 C3.57388316,3.62669246 2.78350515,2.90135397 2.78350515,1.98259188 C2.78350515,1.07994842 3.57388316,0.338491296 4.53608247,0.338491296 Z" id="Shape"></path>
                                    <path d="M10.9965636,5.75435203 C10.9965636,4.35203095 9.7766323,3.20760799 8.28178694,3.20760799 C7.21649485,3.20760799 6.30584192,3.78787879 5.85910653,4.62604771 L1.42611684,4.62604771 C0.635738832,4.62604771 0,5.23855577 0,5.96389426 L0,9.81624758 C0,9.91295938 0.0687285223,9.97743391 0.171821306,9.97743391 L8.90034364,9.97743391 C9.00343643,9.97743391 9.07216495,9.91295938 9.07216495,9.81624758 L9.07216495,8.18826564 C10.1890034,7.86589297 10.9965636,6.89877498 10.9965636,5.75435203 Z M8.72852234,9.65506125 L7.13058419,9.65506125 L7.13058419,8.33333333 C7.13058419,8.23662153 7.06185567,8.172147 6.95876289,8.172147 C6.8556701,8.172147 6.78694158,8.23662153 6.78694158,8.33333333 L6.78694158,9.65506125 L2.28522337,9.65506125 L2.28522337,8.39780787 C2.28522337,8.30109607 2.21649485,8.23662153 2.11340206,8.23662153 C2.01030928,8.23662153 1.94158076,8.30109607 1.94158076,8.39780787 L1.94158076,9.65506125 L0.343642612,9.65506125 L0.343642612,5.96389426 C0.343642612,5.3997421 0.824742268,4.94842037 1.42611684,4.94842037 L5.72164948,4.94842037 C5.63573883,5.2063185 5.58419244,5.46421663 5.58419244,5.75435203 C5.58419244,7.15667311 6.80412371,8.30109607 8.29896907,8.30109607 C8.45360825,8.30109607 8.59106529,8.28497743 8.74570447,8.2688588 L8.74570447,9.65506125 L8.72852234,9.65506125 Z M8.28178694,7.9787234 C6.97594502,7.9787234 5.91065292,6.97936815 5.91065292,5.75435203 C5.91065292,4.52933591 6.97594502,3.52998066 8.28178694,3.52998066 C9.58762887,3.52998066 10.652921,4.52933591 10.652921,5.75435203 C10.652921,6.97936815 9.58762887,7.9787234 8.28178694,7.9787234 Z" id="Shape"></path>
                                </g>
                                <rect id="Rectangle-Copy" stroke-width="2" x="20" y="1" width="15" height="16" rx="1"></rect>
                                <g id="noun_investor_2033272-copy" transform="translate(22.000000, 4.000000)" fill="#208389" fill-rule="nonzero">
                                    <path d="M8.28178694,4.78723404 C8.52233677,4.78723404 8.71134021,4.96453901 8.71134021,5.19019987 C8.71134021,5.28691167 8.78006873,5.3513862 8.88316151,5.3513862 C8.9862543,5.3513862 9.05498282,5.28691167 9.05498282,5.19019987 C9.05498282,4.85170858 8.79725086,4.56157318 8.45360825,4.48098001 L8.45360825,4.30367505 C8.45360825,4.20696325 8.38487973,4.14248872 8.28178694,4.14248872 C8.17869416,4.14248872 8.10996564,4.20696325 8.10996564,4.30367505 L8.10996564,4.48098001 C7.76632302,4.56157318 7.50859107,4.83558994 7.50859107,5.19019987 C7.50859107,5.5931657 7.85223368,5.91553836 8.28178694,5.91553836 C8.52233677,5.91553836 8.71134021,6.09284333 8.71134021,6.31850419 C8.71134021,6.54416505 8.52233677,6.72147002 8.28178694,6.72147002 C8.28178694,6.72147002 8.28178694,6.72147002 8.28178694,6.72147002 C8.28178694,6.72147002 8.28178694,6.72147002 8.28178694,6.72147002 C8.04123711,6.72147002 7.85223368,6.54416505 7.85223368,6.31850419 C7.85223368,6.22179239 7.78350515,6.15731786 7.68041237,6.15731786 C7.57731959,6.15731786 7.50859107,6.22179239 7.50859107,6.31850419 C7.50859107,6.65699549 7.76632302,6.94713088 8.10996564,7.02772405 L8.10996564,7.20502901 C8.10996564,7.30174081 8.17869416,7.36621534 8.28178694,7.36621534 C8.38487973,7.36621534 8.45360825,7.30174081 8.45360825,7.20502901 L8.45360825,7.02772405 C8.79725086,6.94713088 9.05498282,6.67311412 9.05498282,6.31850419 C9.05498282,5.91553836 8.71134021,5.5931657 8.28178694,5.5931657 C8.04123711,5.5931657 7.85223368,5.41586074 7.85223368,5.19019987 C7.85223368,4.96453901 8.05841924,4.78723404 8.28178694,4.78723404 Z" id="Path"></path>
                                    <path d="M4.53608247,3.96518375 C5.70446735,3.96518375 6.63230241,3.07865893 6.63230241,1.99871051 C6.63230241,0.902643456 5.68728522,0.0322372663 4.53608247,0.0322372663 C3.36769759,0.0322372663 2.43986254,0.918762089 2.43986254,1.99871051 C2.43986254,3.07865893 3.38487973,3.96518375 4.53608247,3.96518375 Z M4.53608247,0.338491296 C5.51546392,0.338491296 6.28865979,1.07994842 6.28865979,1.98259188 C6.28865979,2.90135397 5.49828179,3.62669246 4.53608247,3.62669246 C3.57388316,3.62669246 2.78350515,2.90135397 2.78350515,1.98259188 C2.78350515,1.07994842 3.57388316,0.338491296 4.53608247,0.338491296 Z" id="Shape"></path>
                                    <path d="M10.9965636,5.75435203 C10.9965636,4.35203095 9.7766323,3.20760799 8.28178694,3.20760799 C7.21649485,3.20760799 6.30584192,3.78787879 5.85910653,4.62604771 L1.42611684,4.62604771 C0.635738832,4.62604771 0,5.23855577 0,5.96389426 L0,9.81624758 C0,9.91295938 0.0687285223,9.97743391 0.171821306,9.97743391 L8.90034364,9.97743391 C9.00343643,9.97743391 9.07216495,9.91295938 9.07216495,9.81624758 L9.07216495,8.18826564 C10.1890034,7.86589297 10.9965636,6.89877498 10.9965636,5.75435203 Z M8.72852234,9.65506125 L7.13058419,9.65506125 L7.13058419,8.33333333 C7.13058419,8.23662153 7.06185567,8.172147 6.95876289,8.172147 C6.8556701,8.172147 6.78694158,8.23662153 6.78694158,8.33333333 L6.78694158,9.65506125 L2.28522337,9.65506125 L2.28522337,8.39780787 C2.28522337,8.30109607 2.21649485,8.23662153 2.11340206,8.23662153 C2.01030928,8.23662153 1.94158076,8.30109607 1.94158076,8.39780787 L1.94158076,9.65506125 L0.343642612,9.65506125 L0.343642612,5.96389426 C0.343642612,5.3997421 0.824742268,4.94842037 1.42611684,4.94842037 L5.72164948,4.94842037 C5.63573883,5.2063185 5.58419244,5.46421663 5.58419244,5.75435203 C5.58419244,7.15667311 6.80412371,8.30109607 8.29896907,8.30109607 C8.45360825,8.30109607 8.59106529,8.28497743 8.74570447,8.2688588 L8.74570447,9.65506125 L8.72852234,9.65506125 Z M8.28178694,7.9787234 C6.97594502,7.9787234 5.91065292,6.97936815 5.91065292,5.75435203 C5.91065292,4.52933591 6.97594502,3.52998066 8.28178694,3.52998066 C9.58762887,3.52998066 10.652921,4.52933591 10.652921,5.75435203 C10.652921,6.97936815 9.58762887,7.9787234 8.28178694,7.9787234 Z" id="Shape"></path>
                                </g>
                                <rect id="Rectangle-Copy-3" stroke-width="2" x="1" y="21" width="15" height="16" rx="1"></rect>
                                <rect id="Rectangle-Copy-2" stroke-width="2" x="20" y="21" width="15" height="16" rx="1"></rect>
                                <g id="noun_investor_2033272-copy-3" transform="translate(3.000000, 23.000000)" fill="#208389" fill-rule="nonzero">
                                    <path d="M8.28178694,4.78723404 C8.52233677,4.78723404 8.71134021,4.96453901 8.71134021,5.19019987 C8.71134021,5.28691167 8.78006873,5.3513862 8.88316151,5.3513862 C8.9862543,5.3513862 9.05498282,5.28691167 9.05498282,5.19019987 C9.05498282,4.85170858 8.79725086,4.56157318 8.45360825,4.48098001 L8.45360825,4.30367505 C8.45360825,4.20696325 8.38487973,4.14248872 8.28178694,4.14248872 C8.17869416,4.14248872 8.10996564,4.20696325 8.10996564,4.30367505 L8.10996564,4.48098001 C7.76632302,4.56157318 7.50859107,4.83558994 7.50859107,5.19019987 C7.50859107,5.5931657 7.85223368,5.91553836 8.28178694,5.91553836 C8.52233677,5.91553836 8.71134021,6.09284333 8.71134021,6.31850419 C8.71134021,6.54416505 8.52233677,6.72147002 8.28178694,6.72147002 C8.28178694,6.72147002 8.28178694,6.72147002 8.28178694,6.72147002 C8.28178694,6.72147002 8.28178694,6.72147002 8.28178694,6.72147002 C8.04123711,6.72147002 7.85223368,6.54416505 7.85223368,6.31850419 C7.85223368,6.22179239 7.78350515,6.15731786 7.68041237,6.15731786 C7.57731959,6.15731786 7.50859107,6.22179239 7.50859107,6.31850419 C7.50859107,6.65699549 7.76632302,6.94713088 8.10996564,7.02772405 L8.10996564,7.20502901 C8.10996564,7.30174081 8.17869416,7.36621534 8.28178694,7.36621534 C8.38487973,7.36621534 8.45360825,7.30174081 8.45360825,7.20502901 L8.45360825,7.02772405 C8.79725086,6.94713088 9.05498282,6.67311412 9.05498282,6.31850419 C9.05498282,5.91553836 8.71134021,5.5931657 8.28178694,5.5931657 C8.04123711,5.5931657 7.85223368,5.41586074 7.85223368,5.19019987 C7.85223368,4.96453901 8.05841924,4.78723404 8.28178694,4.78723404 Z" id="Path"></path>
                                    <path d="M4.53608247,3.96518375 C5.70446735,3.96518375 6.63230241,3.07865893 6.63230241,1.99871051 C6.63230241,0.902643456 5.68728522,0.0322372663 4.53608247,0.0322372663 C3.36769759,0.0322372663 2.43986254,0.918762089 2.43986254,1.99871051 C2.43986254,3.07865893 3.38487973,3.96518375 4.53608247,3.96518375 Z M4.53608247,0.338491296 C5.51546392,0.338491296 6.28865979,1.07994842 6.28865979,1.98259188 C6.28865979,2.90135397 5.49828179,3.62669246 4.53608247,3.62669246 C3.57388316,3.62669246 2.78350515,2.90135397 2.78350515,1.98259188 C2.78350515,1.07994842 3.57388316,0.338491296 4.53608247,0.338491296 Z" id="Shape"></path>
                                    <path d="M10.9965636,5.75435203 C10.9965636,4.35203095 9.7766323,3.20760799 8.28178694,3.20760799 C7.21649485,3.20760799 6.30584192,3.78787879 5.85910653,4.62604771 L1.42611684,4.62604771 C0.635738832,4.62604771 0,5.23855577 0,5.96389426 L0,9.81624758 C0,9.91295938 0.0687285223,9.97743391 0.171821306,9.97743391 L8.90034364,9.97743391 C9.00343643,9.97743391 9.07216495,9.91295938 9.07216495,9.81624758 L9.07216495,8.18826564 C10.1890034,7.86589297 10.9965636,6.89877498 10.9965636,5.75435203 Z M8.72852234,9.65506125 L7.13058419,9.65506125 L7.13058419,8.33333333 C7.13058419,8.23662153 7.06185567,8.172147 6.95876289,8.172147 C6.8556701,8.172147 6.78694158,8.23662153 6.78694158,8.33333333 L6.78694158,9.65506125 L2.28522337,9.65506125 L2.28522337,8.39780787 C2.28522337,8.30109607 2.21649485,8.23662153 2.11340206,8.23662153 C2.01030928,8.23662153 1.94158076,8.30109607 1.94158076,8.39780787 L1.94158076,9.65506125 L0.343642612,9.65506125 L0.343642612,5.96389426 C0.343642612,5.3997421 0.824742268,4.94842037 1.42611684,4.94842037 L5.72164948,4.94842037 C5.63573883,5.2063185 5.58419244,5.46421663 5.58419244,5.75435203 C5.58419244,7.15667311 6.80412371,8.30109607 8.29896907,8.30109607 C8.45360825,8.30109607 8.59106529,8.28497743 8.74570447,8.2688588 L8.74570447,9.65506125 L8.72852234,9.65506125 Z M8.28178694,7.9787234 C6.97594502,7.9787234 5.91065292,6.97936815 5.91065292,5.75435203 C5.91065292,4.52933591 6.97594502,3.52998066 8.28178694,3.52998066 C9.58762887,3.52998066 10.652921,4.52933591 10.652921,5.75435203 C10.652921,6.97936815 9.58762887,7.9787234 8.28178694,7.9787234 Z" id="Shape"></path>
                                </g>
                                <g id="noun_investor_2033272-copy-2" transform="translate(22.000000, 23.000000)" fill="#208389" fill-rule="nonzero">
                                    <path d="M8.28178694,4.78723404 C8.52233677,4.78723404 8.71134021,4.96453901 8.71134021,5.19019987 C8.71134021,5.28691167 8.78006873,5.3513862 8.88316151,5.3513862 C8.9862543,5.3513862 9.05498282,5.28691167 9.05498282,5.19019987 C9.05498282,4.85170858 8.79725086,4.56157318 8.45360825,4.48098001 L8.45360825,4.30367505 C8.45360825,4.20696325 8.38487973,4.14248872 8.28178694,4.14248872 C8.17869416,4.14248872 8.10996564,4.20696325 8.10996564,4.30367505 L8.10996564,4.48098001 C7.76632302,4.56157318 7.50859107,4.83558994 7.50859107,5.19019987 C7.50859107,5.5931657 7.85223368,5.91553836 8.28178694,5.91553836 C8.52233677,5.91553836 8.71134021,6.09284333 8.71134021,6.31850419 C8.71134021,6.54416505 8.52233677,6.72147002 8.28178694,6.72147002 C8.28178694,6.72147002 8.28178694,6.72147002 8.28178694,6.72147002 C8.28178694,6.72147002 8.28178694,6.72147002 8.28178694,6.72147002 C8.04123711,6.72147002 7.85223368,6.54416505 7.85223368,6.31850419 C7.85223368,6.22179239 7.78350515,6.15731786 7.68041237,6.15731786 C7.57731959,6.15731786 7.50859107,6.22179239 7.50859107,6.31850419 C7.50859107,6.65699549 7.76632302,6.94713088 8.10996564,7.02772405 L8.10996564,7.20502901 C8.10996564,7.30174081 8.17869416,7.36621534 8.28178694,7.36621534 C8.38487973,7.36621534 8.45360825,7.30174081 8.45360825,7.20502901 L8.45360825,7.02772405 C8.79725086,6.94713088 9.05498282,6.67311412 9.05498282,6.31850419 C9.05498282,5.91553836 8.71134021,5.5931657 8.28178694,5.5931657 C8.04123711,5.5931657 7.85223368,5.41586074 7.85223368,5.19019987 C7.85223368,4.96453901 8.05841924,4.78723404 8.28178694,4.78723404 Z" id="Path"></path>
                                    <path d="M4.53608247,3.96518375 C5.70446735,3.96518375 6.63230241,3.07865893 6.63230241,1.99871051 C6.63230241,0.902643456 5.68728522,0.0322372663 4.53608247,0.0322372663 C3.36769759,0.0322372663 2.43986254,0.918762089 2.43986254,1.99871051 C2.43986254,3.07865893 3.38487973,3.96518375 4.53608247,3.96518375 Z M4.53608247,0.338491296 C5.51546392,0.338491296 6.28865979,1.07994842 6.28865979,1.98259188 C6.28865979,2.90135397 5.49828179,3.62669246 4.53608247,3.62669246 C3.57388316,3.62669246 2.78350515,2.90135397 2.78350515,1.98259188 C2.78350515,1.07994842 3.57388316,0.338491296 4.53608247,0.338491296 Z" id="Shape"></path>
                                    <path d="M10.9965636,5.75435203 C10.9965636,4.35203095 9.7766323,3.20760799 8.28178694,3.20760799 C7.21649485,3.20760799 6.30584192,3.78787879 5.85910653,4.62604771 L1.42611684,4.62604771 C0.635738832,4.62604771 0,5.23855577 0,5.96389426 L0,9.81624758 C0,9.91295938 0.0687285223,9.97743391 0.171821306,9.97743391 L8.90034364,9.97743391 C9.00343643,9.97743391 9.07216495,9.91295938 9.07216495,9.81624758 L9.07216495,8.18826564 C10.1890034,7.86589297 10.9965636,6.89877498 10.9965636,5.75435203 Z M8.72852234,9.65506125 L7.13058419,9.65506125 L7.13058419,8.33333333 C7.13058419,8.23662153 7.06185567,8.172147 6.95876289,8.172147 C6.8556701,8.172147 6.78694158,8.23662153 6.78694158,8.33333333 L6.78694158,9.65506125 L2.28522337,9.65506125 L2.28522337,8.39780787 C2.28522337,8.30109607 2.21649485,8.23662153 2.11340206,8.23662153 C2.01030928,8.23662153 1.94158076,8.30109607 1.94158076,8.39780787 L1.94158076,9.65506125 L0.343642612,9.65506125 L0.343642612,5.96389426 C0.343642612,5.3997421 0.824742268,4.94842037 1.42611684,4.94842037 L5.72164948,4.94842037 C5.63573883,5.2063185 5.58419244,5.46421663 5.58419244,5.75435203 C5.58419244,7.15667311 6.80412371,8.30109607 8.29896907,8.30109607 C8.45360825,8.30109607 8.59106529,8.28497743 8.74570447,8.2688588 L8.74570447,9.65506125 L8.72852234,9.65506125 Z M8.28178694,7.9787234 C6.97594502,7.9787234 5.91065292,6.97936815 5.91065292,5.75435203 C5.91065292,4.52933591 6.97594502,3.52998066 8.28178694,3.52998066 C9.58762887,3.52998066 10.652921,4.52933591 10.652921,5.75435203 C10.652921,6.97936815 9.58762887,7.9787234 8.28178694,7.9787234 Z" id="Shape"></path>
                                </g>
                            </g>
                        </g>
                    </g>
                </g>
            </g>
        </g>
    </g>
</svg>