<?xml version="1.0" encoding="UTF-8"?>
<svg width="67px" height="71px" viewBox="0 0 67 71" version="1.1" xmlns="http://www.w3.org/2000/svg" xmlns:xlink="http://www.w3.org/1999/xlink">
    <!-- Generator: Sketch 55.2 (78181) - https://sketchapp.com -->
    <title>Shares-icon</title>
    <desc>Created with Sketch.</desc>
    <g id="Property-Shares" stroke="none" stroke-width="1" fill="none" fill-rule="evenodd">
        <g transform="translate(-1088.000000, -730.000000)" id="Shares-icon" stroke="#208389">
            <g transform="translate(1088.000000, 730.000000)">
                <rect id="Rectangle" stroke-width="2" x="1" y="1" width="29" height="31" rx="1"></rect>
                <g id="noun_investor_2033272" transform="translate(6.000000, 8.000000)" fill="#208389" fill-rule="nonzero">
                    <path d="M15.0577944,8.61702128 C15.4951578,8.61702128 15.8388004,8.93617021 15.8388004,9.34235977 C15.8388004,9.51644101 15.9637613,9.63249516 16.1512027,9.63249516 C16.3386442,9.63249516 16.4636051,9.51644101 16.4636051,9.34235977 C16.4636051,8.73307544 15.9950016,8.21083172 15.3701968,8.06576402 L15.3701968,7.74661509 C15.3701968,7.57253385 15.2452359,7.45647969 15.0577944,7.45647969 C14.870353,7.45647969 14.7453921,7.57253385 14.7453921,7.74661509 L14.7453921,8.06576402 C14.1205873,8.21083172 13.6519838,8.7040619 13.6519838,9.34235977 C13.6519838,10.0676983 14.2767885,10.6479691 15.0577944,10.6479691 C15.4951578,10.6479691 15.8388004,10.967118 15.8388004,11.3733075 C15.8388004,11.7794971 15.4951578,12.098646 15.0577944,12.098646 C15.0577944,12.098646 15.0577944,12.098646 15.0577944,12.098646 C15.0577944,12.098646 15.0577944,12.098646 15.0577944,12.098646 C14.6204311,12.098646 14.2767885,11.7794971 14.2767885,11.3733075 C14.2767885,11.1992263 14.1518276,11.0831721 13.9643861,11.0831721 C13.7769447,11.0831721 13.6519838,11.1992263 13.6519838,11.3733075 C13.6519838,11.9825919 14.1205873,12.5048356 14.7453921,12.6499033 L14.7453921,12.9690522 C14.7453921,13.1431335 14.870353,13.2591876 15.0577944,13.2591876 C15.2452359,13.2591876 15.3701968,13.1431335 15.3701968,12.9690522 L15.3701968,12.6499033 C15.9950016,12.5048356 16.4636051,12.0116054 16.4636051,11.3733075 C16.4636051,10.6479691 15.8388004,10.0676983 15.0577944,10.0676983 C14.6204311,10.0676983 14.2767885,9.74854932 14.2767885,9.34235977 C14.2767885,8.93617021 14.6516714,8.61702128 15.0577944,8.61702128 Z" id="Path"></path>
                    <path d="M8.24742268,7.13733075 C10.3717588,7.13733075 12.0587316,5.54158607 12.0587316,3.59767892 C12.0587316,1.62475822 10.3405186,0.0580270793 8.24742268,0.0580270793 C6.12308654,0.0580270793 4.43611371,1.65377176 4.43611371,3.59767892 C4.43611371,5.54158607 6.15432677,7.13733075 8.24742268,7.13733075 Z M8.24742268,0.609284333 C10.0281162,0.609284333 11.4339269,1.94390716 11.4339269,3.56866538 C11.4339269,5.22243714 9.99687598,6.52804642 8.24742268,6.52804642 C6.49796938,6.52804642 5.06091846,5.22243714 5.06091846,3.56866538 C5.06091846,1.94390716 6.49796938,0.609284333 8.24742268,0.609284333 Z" id="Shape"></path>
                    <path d="M19.993752,10.3578337 C19.993752,7.83365571 17.7756951,5.77369439 15.0577944,5.77369439 C13.1208997,5.77369439 11.4651671,6.81818182 10.652921,8.32688588 L2.59293971,8.32688588 C1.15588878,8.32688588 0,9.42940039 0,10.7350097 L0,17.6692456 C0,17.8433269 0.12496095,17.959381 0.312402374,17.959381 L16.182443,17.959381 C16.3698844,17.959381 16.4948454,17.8433269 16.4948454,17.6692456 L16.4948454,14.7388781 C18.5254608,14.1586074 19.993752,12.417795 19.993752,10.3578337 Z M15.8700406,17.3791103 L12.9646985,17.3791103 L12.9646985,15 C12.9646985,14.8259188 12.8397376,14.7098646 12.6522962,14.7098646 C12.4648547,14.7098646 12.3398938,14.8259188 12.3398938,15 L12.3398938,17.3791103 L4.15495158,17.3791103 L4.15495158,15.1160542 C4.15495158,14.9419729 4.02999063,14.8259188 3.8425492,14.8259188 C3.65510778,14.8259188 3.53014683,14.9419729 3.53014683,15.1160542 L3.53014683,17.3791103 L0.624804749,17.3791103 L0.624804749,10.7350097 C0.624804749,9.71953578 1.4995314,8.90715667 2.59293971,8.90715667 L10.4029991,8.90715667 C10.2467979,9.37137331 10.1530772,9.83558994 10.1530772,10.3578337 C10.1530772,12.8820116 12.371134,14.9419729 15.0890347,14.9419729 C15.3701968,14.9419729 15.6201187,14.9129594 15.9012808,14.8839458 L15.9012808,17.3791103 L15.8700406,17.3791103 Z M15.0577944,14.3617021 C12.6835364,14.3617021 10.7466417,12.5628627 10.7466417,10.3578337 C10.7466417,8.15280464 12.6835364,6.35396518 15.0577944,6.35396518 C17.4320525,6.35396518 19.3689472,8.15280464 19.3689472,10.3578337 C19.3689472,12.5628627 17.4320525,14.3617021 15.0577944,14.3617021 Z" id="Shape"></path>
                </g>
                <rect id="Rectangle-Copy" stroke-width="2" x="37" y="1" width="29" height="31" rx="1"></rect>
                <g id="noun_investor_2033272-copy" transform="translate(41.000000, 8.000000)" fill="#208389" fill-rule="nonzero">
                    <path d="M15.0577944,8.61702128 C15.4951578,8.61702128 15.8388004,8.93617021 15.8388004,9.34235977 C15.8388004,9.51644101 15.9637613,9.63249516 16.1512027,9.63249516 C16.3386442,9.63249516 16.4636051,9.51644101 16.4636051,9.34235977 C16.4636051,8.73307544 15.9950016,8.21083172 15.3701968,8.06576402 L15.3701968,7.74661509 C15.3701968,7.57253385 15.2452359,7.45647969 15.0577944,7.45647969 C14.870353,7.45647969 14.7453921,7.57253385 14.7453921,7.74661509 L14.7453921,8.06576402 C14.1205873,8.21083172 13.6519838,8.7040619 13.6519838,9.34235977 C13.6519838,10.0676983 14.2767885,10.6479691 15.0577944,10.6479691 C15.4951578,10.6479691 15.8388004,10.967118 15.8388004,11.3733075 C15.8388004,11.7794971 15.4951578,12.098646 15.0577944,12.098646 C15.0577944,12.098646 15.0577944,12.098646 15.0577944,12.098646 C15.0577944,12.098646 15.0577944,12.098646 15.0577944,12.098646 C14.6204311,12.098646 14.2767885,11.7794971 14.2767885,11.3733075 C14.2767885,11.1992263 14.1518276,11.0831721 13.9643861,11.0831721 C13.7769447,11.0831721 13.6519838,11.1992263 13.6519838,11.3733075 C13.6519838,11.9825919 14.1205873,12.5048356 14.7453921,12.6499033 L14.7453921,12.9690522 C14.7453921,13.1431335 14.870353,13.2591876 15.0577944,13.2591876 C15.2452359,13.2591876 15.3701968,13.1431335 15.3701968,12.9690522 L15.3701968,12.6499033 C15.9950016,12.5048356 16.4636051,12.0116054 16.4636051,11.3733075 C16.4636051,10.6479691 15.8388004,10.0676983 15.0577944,10.0676983 C14.6204311,10.0676983 14.2767885,9.74854932 14.2767885,9.34235977 C14.2767885,8.93617021 14.6516714,8.61702128 15.0577944,8.61702128 Z" id="Path"></path>
                    <path d="M8.24742268,7.13733075 C10.3717588,7.13733075 12.0587316,5.54158607 12.0587316,3.59767892 C12.0587316,1.62475822 10.3405186,0.0580270793 8.24742268,0.0580270793 C6.12308654,0.0580270793 4.43611371,1.65377176 4.43611371,3.59767892 C4.43611371,5.54158607 6.15432677,7.13733075 8.24742268,7.13733075 Z M8.24742268,0.609284333 C10.0281162,0.609284333 11.4339269,1.94390716 11.4339269,3.56866538 C11.4339269,5.22243714 9.99687598,6.52804642 8.24742268,6.52804642 C6.49796938,6.52804642 5.06091846,5.22243714 5.06091846,3.56866538 C5.06091846,1.94390716 6.49796938,0.609284333 8.24742268,0.609284333 Z" id="Shape"></path>
                    <path d="M19.993752,10.3578337 C19.993752,7.83365571 17.7756951,5.77369439 15.0577944,5.77369439 C13.1208997,5.77369439 11.4651671,6.81818182 10.652921,8.32688588 L2.59293971,8.32688588 C1.15588878,8.32688588 0,9.42940039 0,10.7350097 L0,17.6692456 C0,17.8433269 0.12496095,17.959381 0.312402374,17.959381 L16.182443,17.959381 C16.3698844,17.959381 16.4948454,17.8433269 16.4948454,17.6692456 L16.4948454,14.7388781 C18.5254608,14.1586074 19.993752,12.417795 19.993752,10.3578337 Z M15.8700406,17.3791103 L12.9646985,17.3791103 L12.9646985,15 C12.9646985,14.8259188 12.8397376,14.7098646 12.6522962,14.7098646 C12.4648547,14.7098646 12.3398938,14.8259188 12.3398938,15 L12.3398938,17.3791103 L4.15495158,17.3791103 L4.15495158,15.1160542 C4.15495158,14.9419729 4.02999063,14.8259188 3.8425492,14.8259188 C3.65510778,14.8259188 3.53014683,14.9419729 3.53014683,15.1160542 L3.53014683,17.3791103 L0.624804749,17.3791103 L0.624804749,10.7350097 C0.624804749,9.71953578 1.4995314,8.90715667 2.59293971,8.90715667 L10.4029991,8.90715667 C10.2467979,9.37137331 10.1530772,9.83558994 10.1530772,10.3578337 C10.1530772,12.8820116 12.371134,14.9419729 15.0890347,14.9419729 C15.3701968,14.9419729 15.6201187,14.9129594 15.9012808,14.8839458 L15.9012808,17.3791103 L15.8700406,17.3791103 Z M15.0577944,14.3617021 C12.6835364,14.3617021 10.7466417,12.5628627 10.7466417,10.3578337 C10.7466417,8.15280464 12.6835364,6.35396518 15.0577944,6.35396518 C17.4320525,6.35396518 19.3689472,8.15280464 19.3689472,10.3578337 C19.3689472,12.5628627 17.4320525,14.3617021 15.0577944,14.3617021 Z" id="Shape"></path>
                </g>
                <rect id="Rectangle-Copy-3" stroke-width="2" x="1" y="39" width="29" height="31" rx="1"></rect>
                <rect id="Rectangle-Copy-2" stroke-width="2" x="37" y="39" width="29" height="31" rx="1"></rect>
                <g id="noun_investor_2033272-copy-3" transform="translate(6.000000, 44.000000)" fill="#208389" fill-rule="nonzero">
                    <path d="M15.0577944,8.61702128 C15.4951578,8.61702128 15.8388004,8.93617021 15.8388004,9.34235977 C15.8388004,9.51644101 15.9637613,9.63249516 16.1512027,9.63249516 C16.3386442,9.63249516 16.4636051,9.51644101 16.4636051,9.34235977 C16.4636051,8.73307544 15.9950016,8.21083172 15.3701968,8.06576402 L15.3701968,7.74661509 C15.3701968,7.57253385 15.2452359,7.45647969 15.0577944,7.45647969 C14.870353,7.45647969 14.7453921,7.57253385 14.7453921,7.74661509 L14.7453921,8.06576402 C14.1205873,8.21083172 13.6519838,8.7040619 13.6519838,9.34235977 C13.6519838,10.0676983 14.2767885,10.6479691 15.0577944,10.6479691 C15.4951578,10.6479691 15.8388004,10.967118 15.8388004,11.3733075 C15.8388004,11.7794971 15.4951578,12.098646 15.0577944,12.098646 C15.0577944,12.098646 15.0577944,12.098646 15.0577944,12.098646 C15.0577944,12.098646 15.0577944,12.098646 15.0577944,12.098646 C14.6204311,12.098646 14.2767885,11.7794971 14.2767885,11.3733075 C14.2767885,11.1992263 14.1518276,11.0831721 13.9643861,11.0831721 C13.7769447,11.0831721 13.6519838,11.1992263 13.6519838,11.3733075 C13.6519838,11.9825919 14.1205873,12.5048356 14.7453921,12.6499033 L14.7453921,12.9690522 C14.7453921,13.1431335 14.870353,13.2591876 15.0577944,13.2591876 C15.2452359,13.2591876 15.3701968,13.1431335 15.3701968,12.9690522 L15.3701968,12.6499033 C15.9950016,12.5048356 16.4636051,12.0116054 16.4636051,11.3733075 C16.4636051,10.6479691 15.8388004,10.0676983 15.0577944,10.0676983 C14.6204311,10.0676983 14.2767885,9.74854932 14.2767885,9.34235977 C14.2767885,8.93617021 14.6516714,8.61702128 15.0577944,8.61702128 Z" id="Path"></path>
                    <path d="M8.24742268,7.13733075 C10.3717588,7.13733075 12.0587316,5.54158607 12.0587316,3.59767892 C12.0587316,1.62475822 10.3405186,0.0580270793 8.24742268,0.0580270793 C6.12308654,0.0580270793 4.43611371,1.65377176 4.43611371,3.59767892 C4.43611371,5.54158607 6.15432677,7.13733075 8.24742268,7.13733075 Z M8.24742268,0.609284333 C10.0281162,0.609284333 11.4339269,1.94390716 11.4339269,3.56866538 C11.4339269,5.22243714 9.99687598,6.52804642 8.24742268,6.52804642 C6.49796938,6.52804642 5.06091846,5.22243714 5.06091846,3.56866538 C5.06091846,1.94390716 6.49796938,0.609284333 8.24742268,0.609284333 Z" id="Shape"></path>
                    <path d="M19.993752,10.3578337 C19.993752,7.83365571 17.7756951,5.77369439 15.0577944,5.77369439 C13.1208997,5.77369439 11.4651671,6.81818182 10.652921,8.32688588 L2.59293971,8.32688588 C1.15588878,8.32688588 0,9.42940039 0,10.7350097 L0,17.6692456 C0,17.8433269 0.12496095,17.959381 0.312402374,17.959381 L16.182443,17.959381 C16.3698844,17.959381 16.4948454,17.8433269 16.4948454,17.6692456 L16.4948454,14.7388781 C18.5254608,14.1586074 19.993752,12.417795 19.993752,10.3578337 Z M15.8700406,17.3791103 L12.9646985,17.3791103 L12.9646985,15 C12.9646985,14.8259188 12.8397376,14.7098646 12.6522962,14.7098646 C12.4648547,14.7098646 12.3398938,14.8259188 12.3398938,15 L12.3398938,17.3791103 L4.15495158,17.3791103 L4.15495158,15.1160542 C4.15495158,14.9419729 4.02999063,14.8259188 3.8425492,14.8259188 C3.65510778,14.8259188 3.53014683,14.9419729 3.53014683,15.1160542 L3.53014683,17.3791103 L0.624804749,17.3791103 L0.624804749,10.7350097 C0.624804749,9.71953578 1.4995314,8.90715667 2.59293971,8.90715667 L10.4029991,8.90715667 C10.2467979,9.37137331 10.1530772,9.83558994 10.1530772,10.3578337 C10.1530772,12.8820116 12.371134,14.9419729 15.0890347,14.9419729 C15.3701968,14.9419729 15.6201187,14.9129594 15.9012808,14.8839458 L15.9012808,17.3791103 L15.8700406,17.3791103 Z M15.0577944,14.3617021 C12.6835364,14.3617021 10.7466417,12.5628627 10.7466417,10.3578337 C10.7466417,8.15280464 12.6835364,6.35396518 15.0577944,6.35396518 C17.4320525,6.35396518 19.3689472,8.15280464 19.3689472,10.3578337 C19.3689472,12.5628627 17.4320525,14.3617021 15.0577944,14.3617021 Z" id="Shape"></path>
                </g>
                <g id="noun_investor_2033272-copy-2" transform="translate(41.000000, 44.000000)" fill="#208389" fill-rule="nonzero">
                    <path d="M15.0577944,8.61702128 C15.4951578,8.61702128 15.8388004,8.93617021 15.8388004,9.34235977 C15.8388004,9.51644101 15.9637613,9.63249516 16.1512027,9.63249516 C16.3386442,9.63249516 16.4636051,9.51644101 16.4636051,9.34235977 C16.4636051,8.73307544 15.9950016,8.21083172 15.3701968,8.06576402 L15.3701968,7.74661509 C15.3701968,7.57253385 15.2452359,7.45647969 15.0577944,7.45647969 C14.870353,7.45647969 14.7453921,7.57253385 14.7453921,7.74661509 L14.7453921,8.06576402 C14.1205873,8.21083172 13.6519838,8.7040619 13.6519838,9.34235977 C13.6519838,10.0676983 14.2767885,10.6479691 15.0577944,10.6479691 C15.4951578,10.6479691 15.8388004,10.967118 15.8388004,11.3733075 C15.8388004,11.7794971 15.4951578,12.098646 15.0577944,12.098646 C15.0577944,12.098646 15.0577944,12.098646 15.0577944,12.098646 C15.0577944,12.098646 15.0577944,12.098646 15.0577944,12.098646 C14.6204311,12.098646 14.2767885,11.7794971 14.2767885,11.3733075 C14.2767885,11.1992263 14.1518276,11.0831721 13.9643861,11.0831721 C13.7769447,11.0831721 13.6519838,11.1992263 13.6519838,11.3733075 C13.6519838,11.9825919 14.1205873,12.5048356 14.7453921,12.6499033 L14.7453921,12.9690522 C14.7453921,13.1431335 14.870353,13.2591876 15.0577944,13.2591876 C15.2452359,13.2591876 15.3701968,13.1431335 15.3701968,12.9690522 L15.3701968,12.6499033 C15.9950016,12.5048356 16.4636051,12.0116054 16.4636051,11.3733075 C16.4636051,10.6479691 15.8388004,10.0676983 15.0577944,10.0676983 C14.6204311,10.0676983 14.2767885,9.74854932 14.2767885,9.34235977 C14.2767885,8.93617021 14.6516714,8.61702128 15.0577944,8.61702128 Z" id="Path"></path>
                    <path d="M8.24742268,7.13733075 C10.3717588,7.13733075 12.0587316,5.54158607 12.0587316,3.59767892 C12.0587316,1.62475822 10.3405186,0.0580270793 8.24742268,0.0580270793 C6.12308654,0.0580270793 4.43611371,1.65377176 4.43611371,3.59767892 C4.43611371,5.54158607 6.15432677,7.13733075 8.24742268,7.13733075 Z M8.24742268,0.609284333 C10.0281162,0.609284333 11.4339269,1.94390716 11.4339269,3.56866538 C11.4339269,5.22243714 9.99687598,6.52804642 8.24742268,6.52804642 C6.49796938,6.52804642 5.06091846,5.22243714 5.06091846,3.56866538 C5.06091846,1.94390716 6.49796938,0.609284333 8.24742268,0.609284333 Z" id="Shape"></path>
                    <path d="M19.993752,10.3578337 C19.993752,7.83365571 17.7756951,5.77369439 15.0577944,5.77369439 C13.1208997,5.77369439 11.4651671,6.81818182 10.652921,8.32688588 L2.59293971,8.32688588 C1.15588878,8.32688588 0,9.42940039 0,10.7350097 L0,17.6692456 C0,17.8433269 0.12496095,17.959381 0.312402374,17.959381 L16.182443,17.959381 C16.3698844,17.959381 16.4948454,17.8433269 16.4948454,17.6692456 L16.4948454,14.7388781 C18.5254608,14.1586074 19.993752,12.417795 19.993752,10.3578337 Z M15.8700406,17.3791103 L12.9646985,17.3791103 L12.9646985,15 C12.9646985,14.8259188 12.8397376,14.7098646 12.6522962,14.7098646 C12.4648547,14.7098646 12.3398938,14.8259188 12.3398938,15 L12.3398938,17.3791103 L4.15495158,17.3791103 L4.15495158,15.1160542 C4.15495158,14.9419729 4.02999063,14.8259188 3.8425492,14.8259188 C3.65510778,14.8259188 3.53014683,14.9419729 3.53014683,15.1160542 L3.53014683,17.3791103 L0.624804749,17.3791103 L0.624804749,10.7350097 C0.624804749,9.71953578 1.4995314,8.90715667 2.59293971,8.90715667 L10.4029991,8.90715667 C10.2467979,9.37137331 10.1530772,9.83558994 10.1530772,10.3578337 C10.1530772,12.8820116 12.371134,14.9419729 15.0890347,14.9419729 C15.3701968,14.9419729 15.6201187,14.9129594 15.9012808,14.8839458 L15.9012808,17.3791103 L15.8700406,17.3791103 Z M15.0577944,14.3617021 C12.6835364,14.3617021 10.7466417,12.5628627 10.7466417,10.3578337 C10.7466417,8.15280464 12.6835364,6.35396518 15.0577944,6.35396518 C17.4320525,6.35396518 19.3689472,8.15280464 19.3689472,10.3578337 C19.3689472,12.5628627 17.4320525,14.3617021 15.0577944,14.3617021 Z" id="Shape"></path>
                </g>
            </g>
        </g>
    </g>
</svg>