<?xml version="1.0" encoding="UTF-8"?>
<svg width="14px" height="14px" viewBox="0 0 14 14" version="1.1" xmlns="http://www.w3.org/2000/svg" xmlns:xlink="http://www.w3.org/1999/xlink">
    <!-- Generator: Sketch 52.4 (67378) - http://www.bohemiancoding.com/sketch -->
    <title>Plus</title>
    <desc>Created with Sketch.</desc>
    <g id="Pages" stroke="none" stroke-width="1" fill="none" fill-rule="evenodd">
        <g id="Homepage@2x" transform="translate(-408.000000, -3644.000000)" fill="#D8D8D8">
            <g id="Group-13" transform="translate(245.000000, 3582.000000)">
                <path d="M171.75,67.25 L175.25,67.25 C176.216498,67.25 177,68.0335017 177,69 C177,69.9664983 176.216498,70.75 175.25,70.75 L171.75,70.75 L171.75,74.25 C171.75,75.2164983 170.966498,76 170,76 C169.033502,76 168.25,75.2164983 168.25,74.25 L168.25,70.75 L164.75,70.75 C163.783502,70.75 163,69.9664983 163,69 C163,68.0335017 163.783502,67.25 164.75,67.25 L168.25,67.25 L168.25,63.75 C168.25,62.7835017 169.033502,62 170,62 C170.966498,62 171.75,62.7835017 171.75,63.75 L171.75,67.25 Z" id="Plus"></path>
            </g>
        </g>
    </g>
</svg>