<?xml version="1.0" encoding="UTF-8"?>
<svg width="33px" height="29px" viewBox="0 0 33 29" version="1.1" xmlns="http://www.w3.org/2000/svg" xmlns:xlink="http://www.w3.org/1999/xlink">
    <title>logo</title>
    <defs>
        <polygon id="path-1" points="0.0359016393 0.0259791667 31.2840902 0.0259791667 31.2840902 28.96375 0.0359016393 28.96375"></polygon>
    </defs>
    <g id="Page-1" stroke="none" stroke-width="1" fill="none" fill-rule="evenodd">
        <g id="BlackFin_v16" transform="translate(-423.000000, -27.000000)">
            <g id="logo" transform="translate(423.000000, 27.000000)">
                <g id="Group-3">
                    <mask id="mask-2" fill="white">
                        <use xlink:href="#path-1"></use>
                    </mask>
                    <g id="Clip-2"></g>
                    <path d="M8.28370492,14.5126875 L8.28370492,14.5126875 L11.0618934,9.65397917 L21.7043361,9.65397917 C22.6706885,9.65397917 23.6310574,9.80079167 24.5531311,10.0932083 C25.1221721,10.27325 25.6726639,10.5070625 26.1974262,10.7910208 C25.8384098,11.7903125 25.2442377,12.6844792 24.4705574,13.3973958 C24.2102705,13.2723333 23.9410082,13.1653958 23.6663607,13.0771875 C23.0315,12.872375 22.3703115,12.7690625 21.7043361,12.7690625 L12.8366311,12.7690625 C10.3372787,17.1414167 7.83732787,21.5131667 5.33737705,25.8843125 L21.7043361,25.8843125 C25.2753525,25.8843125 28.1983443,22.9323542 28.1983443,19.3272917 C28.1983443,19.1816875 28.1941557,19.0366875 28.184582,18.8922917 C29.2113689,18.1751458 30.0897623,17.2634583 30.7712951,16.2097917 C31.1099672,17.207875 31.2840902,18.2585208 31.2840902,19.3266875 C31.2840902,24.6475833 26.9740984,29 21.7043361,29 L0,29 L6.64120492,17.3848958 L6.64240164,17.3830833 L6.76805738,17.1625625 L6.89490984,16.9420417 L7.14681967,16.4997917 L7.27367213,16.2792708 L7.39932787,16.0581458 L7.52618033,15.837625 L7.77809016,15.3959792 L7.90494262,15.1754583 L8.15745082,14.7338125 L8.28370492,14.5126875 Z M24.534582,18.9388125 C23.6178934,19.2263958 22.6641066,19.372 21.7043361,19.372 L11.6111885,19.372 L13.3919098,16.2563125 L21.7043361,16.2563125 C22.3703115,16.2563125 23.0320984,16.153 23.6663607,15.9487917 C24.4747459,15.6883958 25.2250902,15.2672917 25.8743115,14.7162917 C27.3438852,13.4674792 28.1983443,11.6410833 28.1983443,9.6986875 C28.1983443,6.09302083 25.2759508,3.14166667 21.7043361,3.14166667 L5.33737705,3.14166667 L9.06097541,9.65397917 L7.2832459,12.763625 L0,0.0259791667 L21.7043361,0.0259791667 C26.9735,0.0259791667 31.2840902,4.379 31.2840902,9.69929167 C31.2840902,10.4575208 31.1961311,11.2078958 31.0238033,11.9365208 L31.0106393,11.9274583 C30.236959,15.2437292 27.7800902,17.9044792 24.5333852,18.9327708 C24.5327869,18.9339792 24.5327869,18.9357917 24.534582,18.9388125 L24.534582,18.9388125 Z" id="Fill-1" fill="#72BCB5" mask="url(#mask-2)"></path>
                </g>
            </g>
        </g>
    </g>
</svg>