<?xml version="1.0" encoding="UTF-8"?>
<svg width="53px" height="54px" viewBox="0 0 53 54" version="1.1" xmlns="http://www.w3.org/2000/svg" xmlns:xlink="http://www.w3.org/1999/xlink">
    <!-- Generator: Sketch 55.2 (78181) - https://sketchapp.com -->
    <title>icn-3</title>
    <desc>Created with Sketch.</desc>
    <g id="Property-Management" stroke="none" stroke-width="1" fill="none" fill-rule="evenodd">
        <g id="Property-management_lg" transform="translate(-825.000000, -578.000000)" fill="#23A79A">
            <g id="Group-23" transform="translate(736.000000, 578.000000)">
                <g id="icn-3" transform="translate(89.000000, 0.000000)">
                    <path d="M9.19953838,23 C12.0631983,23 14.3990768,20.6843923 14.3990768,17.8455832 C14.3990768,17.110859 14.2418391,16.4094974 13.9610868,15.7860723 L21.9569072,8.91718587 C22.8890241,9.77442081 24.1355478,10.2976901 25.5055862,10.2976901 C27.5270577,10.2976901 29.2901219,9.13985221 30.14362,7.45881308 L37.286011,12.9917694 C36.848021,13.7376371 36.6009232,14.617159 36.6009232,15.541119 C36.6009232,18.3799281 38.9368017,20.6843923 41.8004616,20.6843923 C44.6641215,20.6843923 47,18.3799281 47,15.541119 C47,12.6911664 44.6641215,10.3867022 41.8004616,10.3867022 C40.6886935,10.3867022 39.6555441,10.7429547 38.8020461,11.3441607 L30.6938835,5.05419312 C30.6377469,2.24874666 28.3355916,-4.54747351e-13 25.5055862,-4.54747351e-13 C22.6306852,-4.54747351e-13 20.3060479,2.30446418 20.3060479,5.15441681 C20.3060479,5.83349147 20.4408721,6.4792034 20.6766601,7.06919792 L12.6247029,13.9825906 C11.7150681,13.1810053 10.51344,12.6911665 9.19953838,12.6911665 C6.33580996,12.6911665 4,15.0067742 4,17.8455833 C4,20.6843924 6.33580996,23 9.19953838,23 Z" id="Path"></path>
                    <path d="M39.2360898,23 C38.5562555,23 38,23.5122469 38,24.1382955 L38,43 L48,43 L48,24.1382955 C48,23.5122469 47.4561175,23 46.7639102,23 L39.2360898,23 Z" id="Path"></path>
                    <path d="M22.2360898,13 C21.5562555,13 21,13.5185986 21,14.1524101 L21,44 L31,44 L31,14.1524101 C31,13.5185986 30.4437445,13 29.7639102,13 L22.2360898,13 Z" id="Path"></path>
                    <path d="M6.23608983,25 C5.54388249,25 5,25.5225907 5,26.1612812 L5,43 L15,43 L15,26.1612812 C15,25.5225907 14.4437445,25 13.7639102,25 L6.23608983,25 Z" id="Path"></path>
                    <path d="M52.7917194,46.4363452 C52.5724627,46.1662056 52.2147354,46 51.8454573,46 L1.15165502,46 C0.78237709,46 0.42464992,46.1662056 0.20539313,46.4363452 C-0.00231267136,46.7168845 -0.0599969889,47.0700952 0.0669226343,47.3921701 L1.47472945,50.8623224 C2.22483676,52.7324366 4.23272974,54 6.44839881,54 L46.548784,54 C48.7643827,54 50.7722755,52.7324366 51.5338634,50.8623224 L52.93019,47.3921701 C53.0571095,47.0700952 53.0109762,46.7168845 52.7917194,46.4363452 Z" id="Path"></path>
                </g>
            </g>
        </g>
    </g>
</svg>