<?xml version="1.0" encoding="UTF-8"?>
<svg width="60px" height="54px" viewBox="0 0 60 54" version="1.1" xmlns="http://www.w3.org/2000/svg" xmlns:xlink="http://www.w3.org/1999/xlink">
    <!-- Generator: Sketch 55.2 (78181) - https://sketchapp.com -->
    <title>icn-1</title>
    <desc>Created with Sketch.</desc>
    <g id="Property-Management" stroke="none" stroke-width="1" fill="none" fill-rule="evenodd">
        <g id="Property-management_lg" transform="translate(-303.000000, -578.000000)" fill="#23A79A">
            <g id="Group-9" transform="translate(220.000000, 578.000000)">
                <g id="icn-1" transform="translate(83.000000, 0.000000)">
                    <path d="M33.2608696,30.2826087 C34.4347826,31.1304348 35.2173913,32.5652174 35.2173913,34.1304348 C35.2826087,35.6304348 34.6956522,37.1304348 33.5869565,38.2391304 L33.4565217,38.3695652 C32.8043478,38.9565217 31.9565217,39.3478261 31.0434783,39.5434783 L31.0434783,42.1521739 L28.3043478,42.1521739 L28.3043478,39.4782609 C27.5869565,39.2826087 26.8695652,38.8913043 26.2826087,38.4347826 C25.3695652,37.6521739 24.8478261,36.6086957 24.6521739,35.5 L27.4565217,35.1086957 C27.4565217,35.5652174 27.7173913,35.9565217 28.1086957,36.2826087 C29.0869565,37.1304348 30.7173913,37.1304348 31.6304348,36.2826087 C32.1521739,35.7608696 32.4782609,35.0434783 32.4130435,34.326087 C32.3478261,33.673913 32.0217391,33.0217391 31.5,32.6304348 C30.7826087,32.1086957 30.1304348,31.9782609 29.4130435,31.7826087 C28.4347826,31.5217391 27.2608696,31.2608696 26.2173913,30.2173913 C25.173913,29.173913 24.6521739,27.9347826 24.7173913,26.6956522 C24.7826087,25.5217391 25.3043478,24.4130435 26.2173913,23.5652174 L26.2826087,23.5 C26.3478261,23.4347826 26.3478261,23.4347826 26.3478261,23.4347826 C26.9347826,22.9130435 27.6521739,22.5869565 28.3695652,22.3913043 L28.3695652,19.6521739 L31.1086957,19.6521739 L31.1086957,22.326087 C31.9565217,22.5217391 32.7391304,22.9130435 33.3913043,23.5 C34.1086957,24.1521739 34.5652174,24.9347826 34.826087,25.7173913 L31.9565217,26.173913 C31.8913043,25.9782609 31.7608696,25.7826087 31.5652174,25.6521739 C30.6521739,24.8695652 29.0869565,24.8043478 28.173913,25.5869565 C27.9130435,25.8478261 27.5869565,26.173913 27.5869565,26.6956522 C27.5869565,27.1521739 27.8478261,27.673913 28.3043478,28.1304348 C28.7608696,28.6521739 29.2173913,28.7826087 30.1304348,28.9782609 C31.0434783,29.2391304 32.1521739,29.4347826 33.2608696,30.2826087 Z M58.8913043,23.1086957 C60.6521739,24.8043478 59.4130435,27.8043478 56.9347826,27.8043478 L52.5652174,27.8043478 L52.5652174,51.2391304 C52.5652174,52.7391304 51.326087,53.9782609 49.826087,53.9782609 L10.173913,53.9782609 C8.67391304,53.9782609 7.43478261,52.7391304 7.43478261,51.2391304 L7.43478261,27.8043478 L3.06521739,27.8043478 C0.586956522,27.8043478 -0.586956522,24.8043478 1.10869565,23.1086957 L28.0434783,1.17391304 C29.1521739,0.130434783 30.8478261,0.130434783 31.9565217,1.17391304 L58.8913043,23.1086957 Z M43.3043478,37.1304348 C44.2173913,35.2391304 44.7391304,33.1521739 44.7391304,30.8695652 C44.7391304,22.7826087 38.1521739,16.1304348 30,16.1304348 C21.8478261,16.1304348 15.2608696,22.7173913 15.2608696,30.8695652 C15.2608696,35.0434783 17.0217391,38.8913043 19.8913043,41.5652174 C22.5652174,44.0434783 26.0869565,45.6086957 30,45.6086957 C35.8695652,45.6086957 40.9565217,42.1521739 43.3043478,37.1304348 Z" id="Combined-Shape"></path>
                </g>
            </g>
        </g>
    </g>
</svg>