<?xml version="1.0" encoding="UTF-8"?>
<svg width="54px" height="54px" viewBox="0 0 54 54" version="1.1" xmlns="http://www.w3.org/2000/svg" xmlns:xlink="http://www.w3.org/1999/xlink">
    <!-- Generator: Sketch 55.2 (78181) - https://sketchapp.com -->
    <title>icn-4</title>
    <desc>Created with Sketch.</desc>
    <g id="Property-Management" stroke="none" stroke-width="1" fill="none" fill-rule="evenodd">
        <g id="Property-management_lg" transform="translate(-1082.000000, -578.000000)" fill="#23A79A">
            <g id="Group-25" transform="translate(1001.000000, 578.000000)">
                <g id="icn-4" transform="translate(81.000000, 0.000000)">
                    <g id="Group">
                        <path d="M51.8625,21.20625 C52.875,21.20625 53.71875,21.99375 53.71875,23.0625 L53.71875,30.9375 C53.775,31.89375 52.93125,32.7375 51.91875,32.7375 L47.8125,32.7375 C47.475,33.8625 47.08125,34.9875 46.575,36.05625 L39.76875,29.25 C40.5,25.2 39.2625,20.925 36.16875,17.83125 C31.10625,12.76875 22.89375,12.76875 17.83125,17.83125 C12.76875,22.89375 12.76875,31.10625 17.83125,36.16875 C20.925,39.2625 25.25625,40.5 29.25,39.76875 L35.94375,46.51875 C34.875,47.025 33.80625,47.41875 32.68125,47.75625 L32.68125,51.8625 C32.7375,52.81875 31.89375,53.6625 30.88125,53.6625 L23.00625,53.6625 C21.99375,53.6625 21.20625,52.875 21.20625,51.8625 L21.20625,47.75625 C19.575,47.25 17.8875,46.575 16.36875,45.73125 L13.44375,48.65625 C12.7125,49.33125 11.53125,49.33125 10.85625,48.65625 L5.2875,43.0875 C4.6125,42.35625 4.6125,41.175 5.2875,40.5 L8.2125,37.575 C7.3125,36.05625 6.6375,34.425 6.1875,32.7375 L2.08125,32.7375 C1.06875,32.7375 0.28125,31.95 0.28125,30.9375 L0.28125,23.0625 C0.225,22.10625 1.06875,21.2625 2.08125,21.2625 L6.1875,21.2625 C6.6375,19.575 7.3125,17.94375 8.2125,16.36875 L5.2875,13.44375 C4.55625,12.7125 4.55625,11.5875 5.2875,10.85625 L10.85625,5.2875 C11.5875,4.55625 12.7125,4.55625 13.44375,5.2875 L16.36875,8.2125 C17.94375,7.3125 19.575,6.6375 21.2625,6.1875 L21.2625,2.08125 C21.2625,1.06875 22.05,0.28125 23.0625,0.28125 L30.9375,0.28125 C31.95,0.28125 32.7375,1.06875 32.7375,2.08125 L32.7375,6.24375 C34.36875,6.75 36,7.36875 37.575,8.26875 L40.5,5.34375 C41.23125,4.6125 42.35625,4.6125 43.0875,5.34375 L48.65625,10.9125 C49.3875,11.5875 49.3875,12.7125 48.65625,13.44375 L45.73125,16.36875 C46.575,17.8875 47.25,19.51875 47.75625,21.20625 L51.8625,21.20625 Z M34.0875,29.41875 L46.125,41.45625 C47.41875,42.69375 47.41875,44.775 46.125,46.06875 C44.8875,47.3625 42.80625,47.3625 41.5125,46.06875 L29.475,34.03125 C26.83125,34.875 23.79375,34.3125 21.65625,32.175 C19.8,30.375 19.125,27.7875 19.51875,25.425 C19.63125,24.80625 20.41875,24.58125 20.86875,25.03125 L23.5125,27.675 C24.69375,28.85625 26.55,28.85625 27.73125,27.675 C28.9125,26.49375 28.9125,24.6375 27.73125,23.45625 L25.0875,20.8125 C24.6375,20.3625 24.8625,19.575 25.48125,19.4625 C27.84375,19.0125 30.375,19.74375 32.23125,21.6 C34.36875,23.7375 34.9875,26.775 34.0875,29.41875 Z" id="Combined-Shape"></path>
                    </g>
                </g>
            </g>
        </g>
    </g>
</svg>