<?xml version="1.0" encoding="UTF-8"?>
<svg width="54px" height="54px" viewBox="0 0 54 54" version="1.1" xmlns="http://www.w3.org/2000/svg" xmlns:xlink="http://www.w3.org/1999/xlink">
    <!-- Generator: Sketch 55.2 (78181) - https://sketchapp.com -->
    <title>icn-2</title>
    <desc>Created with Sketch.</desc>
    <g id="Property-Management" stroke="none" stroke-width="1" fill="none" fill-rule="evenodd">
        <g id="Property-management_lg" transform="translate(-560.000000, -578.000000)" fill="#23A79A">
            <g id="Group-22" transform="translate(473.000000, 578.000000)">
                <g id="icn-2" transform="translate(87.000000, 0.000000)">
                    <path d="M27,0 C12.1068933,0 0,12.1068647 0,27 C0,41.8989709 12.1072492,54 27,54 C41.8986012,54 54,41.8986028 54,27 C54,12.1072145 41.898951,0 27,0 L27,0 Z M19.8473024,15.3409056 C22.767696,15.3409056 25.3892058,18.1481625 25.3892058,22.6278358 C25.3954652,23.0704343 25.162927,23.4821172 24.7806345,23.7052432 C24.3983421,23.9283691 23.925524,23.9283691 23.5432315,23.7052432 C23.1609391,23.4821172 22.9284009,23.0704343 22.9346603,22.6278358 C22.9346603,19.0185686 21.2295121,17.7954505 19.8473024,17.7954505 C18.4650926,17.7954505 16.7791205,19.0185686 16.7791205,22.6278358 C16.78538,23.0704343 16.5528418,23.4821172 16.1705493,23.7052432 C15.7882569,23.9283691 15.3154388,23.9283691 14.9331463,23.7052432 C14.5508539,23.4821172 14.3183156,23.0704343 14.3245751,22.6278358 C14.3245751,18.1481625 16.9269087,15.3409056 19.8473024,15.3409056 L19.8473024,15.3409056 Z M34.133524,15.3409056 C37.0539299,15.3409056 39.6754274,18.1481625 39.6754274,22.6278358 C39.6816868,23.0704343 39.4491486,23.4821172 39.0668561,23.7052432 C38.6845637,23.9283691 38.2117456,23.9283691 37.8294531,23.7052432 C37.4471607,23.4821172 37.2146225,23.0704343 37.2208819,22.6278358 C37.2208819,19.0185686 35.5157521,17.7954505 34.133524,17.7954505 C32.7512958,17.7954505 31.0653421,19.0185686 31.0653421,22.6278358 C31.0716016,23.0704343 30.8390634,23.4821172 30.4567709,23.7052432 C30.0744785,23.9283691 29.6016604,23.9283691 29.2193679,23.7052432 C28.8370755,23.4821172 28.6045372,23.0704343 28.6107967,22.6278358 C28.6107967,18.1481625 31.213118,15.3409056 34.133524,15.3409056 L34.133524,15.3409056 Z M9.08948986,30.5475599 C9.12782105,30.5457613 9.1662155,30.5457613 9.20454668,30.5475599 C9.75724246,30.5559766 10.2361237,30.9328011 10.374291,31.4680142 C12.3352458,38.8013353 19.0243546,44.2201727 27.0000012,44.2201727 C33.3783033,44.2201727 38.9221949,40.7507962 41.8998592,35.6100587 C42.6320746,34.3516749 43.2099299,32.9873161 43.6065353,31.5447187 C43.6940072,31.0913718 44.0284915,30.7254655 44.4721844,30.5977492 C44.9158774,30.4700329 45.3937072,30.6021159 45.7088132,30.9395815 C46.0239193,31.277047 46.1229864,31.7627968 45.9652001,32.1967072 C45.5137355,33.8389205 44.8692026,35.4110565 44.0284103,36.856538 C40.6256678,42.7293435 34.2663517,46.6747176 27.0000012,46.6747176 C17.9126235,46.6747176 10.2398862,40.4905531 7.99645009,32.1008572 C7.89776569,31.7463576 7.9633396,31.3662844 8.17510639,31.0653468 C8.38687318,30.7644091 8.72248799,30.5743609 9.08948986,30.5475599 L9.08948986,30.5475599 Z" id="Shape"></path>
                </g>
            </g>
        </g>
    </g>
</svg>