<?xml version="1.0" encoding="UTF-8"?>
<svg width="41px" height="42px" viewBox="0 0 41 42" version="1.1" xmlns="http://www.w3.org/2000/svg" xmlns:xlink="http://www.w3.org/1999/xlink">
    <!-- Generator: Sketch 55.2 (78181) - https://sketchapp.com -->
    <title>noun_Security_1879715</title>
    <desc>Created with Sketch.</desc>
    <g id="Our-Team-page" stroke="none" stroke-width="1" fill="none" fill-rule="evenodd">
        <g id="About-Us-(Meet-our-Team)@2x" transform="translate(-697.000000, -943.000000)" fill="#208389">
            <g id="Group-9-Copy-5" transform="translate(560.000000, 893.000000)">
                <g id="Group-13" transform="translate(43.000000, 50.000000)">
                    <g id="noun_Security_1879715" transform="translate(94.000000, 0.000000)">
                        <path d="M0.940058696,0.222430213 C0.654349347,0.251236979 0.437281884,0.493048856 0.438693091,0.780940851 L0.438693091,29.1532813 C0.438693091,29.461728 0.688116787,29.7117672 0.995765217,29.7117919 L6.44118913,29.7117919 L6.44118913,35.2271962 C6.44121374,35.5356429 6.69060592,35.7856821 6.99825435,35.7857068 L12.2484826,35.7857068 L12.2484826,41.2171111 C12.2485072,41.5255578 12.4978994,41.7756217 12.8055478,41.7756217 L40.0041457,41.7756217 C40.3117941,41.7756217 40.5612109,41.5255578 40.5612109,41.2171111 L40.5612109,12.8586217 C40.5612109,12.550175 40.3117941,12.3001357 40.0041457,12.3001111 L34.7539174,12.3001111 L34.7539174,6.86870681 C34.7538928,6.56026012 34.5045006,6.31022084 34.1968522,6.31019617 L28.7514283,6.31019617 L28.7514283,0.780940851 C28.7514037,0.472494163 28.5020115,0.222454886 28.194363,0.222430213 L0.995765217,0.222430213 C0.977207995,0.221731694 0.958615918,0.221731694 0.940058696,0.222430213 L0.940058696,0.222430213 Z M1.55283043,1.33942915 L27.6372978,1.33942915 L27.6372978,6.31019617 L6.99825435,6.31019617 C6.97969713,6.30926481 6.96110505,6.30926481 6.94254783,6.31019617 C6.73655096,6.33185522 6.55954445,6.46630552 6.4829913,6.65926532 C6.48293346,6.66391195 6.48293346,6.66855912 6.4829913,6.67320574 C6.45746032,6.73531743 6.4433146,6.80153741 6.4412337,6.86868447 L6.4412337,28.5947483 L1.55283043,28.5947483 L1.55283043,1.33942915 L1.55283043,1.33942915 Z M7.55531957,7.42721745 L28.2505152,7.42721745 L33.6402326,7.42721745 L33.6402326,12.3001111 L12.8059935,12.3001111 C12.7874363,12.2991797 12.7688442,12.2991797 12.750287,12.3001111 C12.6551843,12.3094008 12.5640632,12.3430588 12.485681,12.3978504 C12.4713504,12.4065252 12.457417,12.4158432 12.4439234,12.425776 C12.4180423,12.4513575 12.3947202,12.4794167 12.3742902,12.5095526 C12.3596426,12.5227579 12.3457038,12.5367328 12.3325326,12.5514185 C12.3146762,12.5870513 12.3006772,12.6244989 12.290775,12.6631206 C12.2808679,12.6766493 12.2715741,12.6906188 12.2629217,12.7049866 C12.2512257,12.7552925 12.2465463,12.8069819 12.2490174,12.858577 L12.2490174,34.668194 L7.55585435,34.668194 L7.55585435,29.1947898 C7.55637953,29.1807947 7.55637953,29.1667848 7.55585435,29.1527898 L7.55585435,7.42672596 L7.55531957,7.42721745 Z M13.362613,13.4171323 L39.4470804,13.4171323 L39.4470804,40.6586004 L13.362613,40.6586004 L13.362613,35.2691962 C13.3631382,35.2552011 13.3631382,35.2411912 13.362613,35.2271962 L13.362613,13.4171323 Z M26.4398304,18.0666217 C23.9973,18.0666217 21.9824174,20.0506749 22.011162,22.5067813 L22.0390152,24.8943919 L19.7550478,24.8943919 C19.7180034,24.8906595 19.6806792,24.8906595 19.6436348,24.8943919 C19.3800842,24.9482898 19.1925772,25.1832817 19.1978687,25.4529026 L19.1978687,33.9981153 C19.1978687,34.306562 19.4473994,34.556626 19.7550478,34.556626 L33.1107978,34.556626 C33.4184463,34.556626 33.667863,34.306562 33.667863,33.9981153 L33.667863,25.4529026 C33.667863,25.1444559 33.4184463,24.8944166 33.1107978,24.8943919 L30.8964413,24.8943919 L30.8546837,22.4927962 C30.8250924,20.0527302 28.8824946,18.0666217 26.4399641,18.0666217 L26.4398304,18.0666217 Z M26.4398304,19.183643 C28.2845185,19.183643 29.7179587,20.6499791 29.7404196,22.5067813 L29.7821772,24.8943919 L23.1531011,24.8943919 L23.1252478,22.4927962 C23.1037228,20.6520345 24.5950978,19.183643 26.4397859,19.183643 L26.4398304,19.183643 Z M20.312113,26.0113238 L32.5537326,26.0113238 L32.5537326,33.4395153 L20.312113,33.4395153 L20.312113,26.0113238 L20.312113,26.0113238 Z" id="Shape"></path>
                    </g>
                </g>
            </g>
        </g>
    </g>
</svg>