<?xml version="1.0" encoding="UTF-8"?>
<svg width="46px" height="46px" viewBox="0 0 46 46" version="1.1" xmlns="http://www.w3.org/2000/svg" xmlns:xlink="http://www.w3.org/1999/xlink">
    <!-- Generator: Sketch 55.2 (78181) - https://sketchapp.com -->
    <title>noun_House Search_671222</title>
    <desc>Created with Sketch.</desc>
    <g id="Our-Team-page" stroke="none" stroke-width="1" fill="none" fill-rule="evenodd">
        <g id="About-Us-(Meet-our-Team)@2x" transform="translate(-1051.000000, -613.000000)" fill="#208389">
            <g id="Group-9-Copy-3" transform="translate(912.000000, 565.000000)">
                <g id="Group-14" transform="translate(43.000000, 48.000000)">
                    <g id="noun_House-Search_671222" transform="translate(96.000000, 0.000000)">
                        <path d="M45.4878906,19.2535156 C45.7125,19.4511719 45.784375,19.7566406 45.6855469,20.0261719 C45.5867187,20.3046875 45.3261719,20.484375 45.0296875,20.484375 L39.4863281,20.484375 L39.4863281,44.3289063 C39.4863281,44.7152344 39.171875,45.0296875 38.7855469,45.0296875 L7.74453125,45.0296875 C7.46601562,45.0296875 7.23242187,44.8589844 7.115625,44.6253906 L6.51367187,45.1105469 C5.97460937,45.5238281 5.34570312,45.7214844 4.71679687,45.7214844 C3.85429687,45.7214844 3.00976562,45.353125 2.44375,44.634375 L0.709765625,42.4871094 C0.224609375,41.8761719 0.01796875,41.1304688 0.1078125,40.3757813 C0.206640625,39.6210938 0.59296875,38.9382813 1.19492187,38.4621094 L7.03476562,33.7003906 L7.03476562,20.484375 L1.49140625,20.484375 C1.20390625,20.484375 0.934375,20.2957031 0.835546875,20.0261719 C0.73671875,19.7566406 0.80859375,19.4421875 1.03320312,19.2535156 L22.8023437,0.260546875 C23.071875,0.026953125 23.4671875,0.026953125 23.7277344,0.260546875 L31.05,6.65742188 L31.05,2.84804688 C31.05,2.46171875 31.3644531,2.14726563 31.7507812,2.14726563 L37.4378906,2.14726563 C37.8242187,2.14726563 38.1386719,2.46171875 38.1386719,2.84804688 L38.1386719,12.8476563 L45.4878906,19.2535156 Z M32.4515625,7.87929688 L35.8117187,10.8082031 L36.7371094,11.6167969 L36.7371094,3.54882813 L32.4515625,3.54882813 L32.4515625,7.87929688 Z M5.6421875,44.0144531 L15.6238281,35.9015625 C15.4082031,35.7308594 15.2105469,35.5421875 15.0128906,35.3535156 C14.9050781,35.2546875 14.7882812,35.1648438 14.6894531,35.0660156 C14.3839844,34.7515625 14.0964844,34.428125 13.8269531,34.0777344 C13.2609375,33.3589844 12.79375,32.5863281 12.434375,31.7957031 C12.3535156,31.6339844 12.290625,31.4722656 12.21875,31.3015625 L2.07539062,39.5761719 C1.74296875,39.8277344 1.5453125,40.1691406 1.50039062,40.5554688 C1.45546875,40.9328125 1.56328125,41.3101563 1.80585937,41.615625 L3.53984375,43.7628906 C4.05195312,44.4097656 4.9953125,44.5175781 5.6421875,44.0144531 Z M17.465625,35.4882813 C17.5464844,35.5421875 17.609375,35.578125 17.6722656,35.6050781 C17.8070312,35.6859375 17.9238281,35.7578125 18.0496094,35.8207031 C21.5894531,37.734375 25.8929687,37.3660156 29.0464844,34.8953125 C33.4128906,31.4722656 34.1765625,25.1292969 30.7535156,20.7628906 C28.7679687,18.2472656 25.8121094,16.9265625 22.8292969,16.9265625 C20.6550781,16.9265625 18.4628906,17.6273438 16.6210937,19.0738281 C13.6832031,21.3828125 12.2726562,25.0933594 12.9554687,28.7679688 C12.9734375,28.9027344 13.0003906,29.0105469 13.0183594,29.1183594 C13.0453125,29.2710938 13.08125,29.396875 13.1082031,29.5136719 L13.2160156,29.9089844 C13.3507812,30.3492188 13.5214844,30.7804688 13.7101562,31.2027344 C14.0246094,31.8945313 14.4378906,32.5683594 14.9320312,33.1972656 C15.4171875,33.8171875 15.9652344,34.3742188 16.5761719,34.859375 C16.7648437,35.003125 16.9445312,35.146875 17.1421875,35.2726563 C17.2679687,35.3625 17.3667969,35.4253906 17.465625,35.4882813 Z M38.7855469,19.0828125 L43.1519531,19.0828125 L36.9796875,13.6921875 L35.434375,12.3445313 L23.2605469,1.725 L3.36914062,19.0828125 L7.74453125,19.0828125 C8.13085937,19.0828125 8.4453125,19.3972656 8.4453125,19.7835938 L8.4453125,32.5683594 L11.7515625,29.8730469 C11.715625,29.7292969 11.6796875,29.5765625 11.6527344,29.4238281 C11.6167969,29.2890625 11.5898438,29.1542969 11.571875,29.0105469 C10.7992187,24.8417969 12.3984375,20.6101563 15.7585937,17.9777344 C20.7359375,14.0695313 27.959375,14.9410156 31.8585938,19.909375 C35.7667969,24.8867188 34.8953125,32.1101563 29.9179687,36.009375 C27.8605469,37.6265625 25.3628906,38.453125 22.8472656,38.453125 C20.9875,38.453125 19.11875,38.0039063 17.4117187,37.0785156 C17.2679687,37.0066406 17.10625,36.9167969 16.9535156,36.8179688 C16.9085937,36.7910156 16.8546875,36.7550781 16.8097656,36.728125 L8.4453125,43.5382813 L8.4453125,43.6191406 L38.0847656,43.6191406 L38.0847656,19.7835938 C38.0847656,19.3972656 38.3992187,19.0828125 38.7855469,19.0828125 Z M27.5191406,32.9457031 C26.1355469,34.0328125 24.4914062,34.5539063 22.8382812,34.5628906 C20.5921875,34.5628906 18.3730469,33.565625 16.8816406,31.6699219 C14.303125,28.390625 14.878125,23.6199219 18.1664062,21.0414063 C21.4546875,18.4628906 26.2164062,19.0378906 28.7949219,22.3171875 C30.04375,23.9074219 30.6007812,25.8929688 30.3582031,27.8964844 C30.115625,29.9089844 29.109375,31.696875 27.5191406,32.9457031 Z M22.1105469,33.1074219 C23.7457031,33.3050781 25.3539062,32.8558594 26.6476562,31.840625 C27.9503906,30.8164063 28.7679687,29.3609375 28.965625,27.7257813 C29.1632812,26.090625 28.7140625,24.4734375 27.6988281,23.1796875 C26.4859375,21.634375 24.6800781,20.8257813 22.8472656,20.8257813 C21.5175781,20.8257813 20.1699219,21.2570313 19.046875,22.1375 C16.3695312,24.2398438 15.8933594,28.1300781 17.9957031,30.7984375 C19.0109375,32.0921875 20.4753906,32.9097656 22.1105469,33.1074219 Z M26.8542969,24.0421875 C27.0878906,24.3476563 27.0339844,24.7878906 26.7464844,25.0214844 C26.6207031,25.1292969 26.4679688,25.1742188 26.3152344,25.1742188 C26.0996094,25.1742188 25.8929688,25.084375 25.7582031,24.9046875 C24.5003906,23.3054688 22.1824219,23.0269531 20.5832031,24.2847656 C20.2777344,24.5273438 19.8375,24.4734375 19.5949219,24.1679688 C19.3523438,23.8625 19.40625,23.4222656 19.7117188,23.1796875 C21.9128906,21.4457031 25.1203125,21.8320313 26.8542969,24.0421875 Z M23.71875,4.19570313 L32.2,11.5988281 C32.4964844,11.8503906 32.5234375,12.290625 32.271875,12.5871094 C32.0203125,12.8835938 31.5800781,12.9105469 31.2835937,12.6589844 L23.2605469,5.65117188 L11.1945312,16.1808594 C11.06875,16.2976563 10.8980469,16.3515625 10.7363281,16.3515625 C10.5386719,16.3515625 10.3410156,16.2707031 10.20625,16.1089844 C9.9546875,15.8214844 9.98164062,15.3722656 10.278125,15.1207031 L22.7933594,4.19570313 C23.0628906,3.96210938 23.4582031,3.96210938 23.71875,4.19570313 Z M34.6257812,13.7101563 L36.2429687,15.1207031 C36.5394531,15.3722656 36.5664062,15.8125 36.3148438,16.1089844 C36.1710938,16.2707031 35.9824219,16.3515625 35.7847656,16.3515625 C35.6230469,16.3515625 35.4613281,16.2976563 35.3265625,16.1808594 L33.709375,14.7703125 C33.4128906,14.51875 33.3859375,14.0785156 33.6375,13.7820313 C33.8890625,13.4855469 34.3382813,13.4585938 34.6257812,13.7101563 Z" id="Combined-Shape"></path>
                    </g>
                </g>
            </g>
        </g>
    </g>
</svg>