<?xml version="1.0" encoding="UTF-8"?>
<svg width="44px" height="44px" viewBox="0 0 44 44" version="1.1" xmlns="http://www.w3.org/2000/svg" xmlns:xlink="http://www.w3.org/1999/xlink">
    <!-- Generator: Sketch 55.2 (78181) - https://sketchapp.com -->
    <title>noun_Home Love_564813</title>
    <desc>Created with Sketch.</desc>
    <g id="Our-Team-page" stroke="none" stroke-width="1" fill="none" fill-rule="evenodd">
        <g id="About-Us-(Meet-our-Team)@2x" transform="translate(-348.000000, -609.000000)" fill="#208389">
            <g id="Group-9" transform="translate(208.000000, 565.000000)">
                <g id="Group-6" transform="translate(43.000000, 44.000000)">
                    <g id="noun_Home-Love_564813" transform="translate(97.000000, 0.000000)">
                        <path d="M38.2204861,42.2554687 L43.8715278,42.2554687 L43.8715278,43.65625 L0.0520833333,43.65625 L0.0520833333,42.2554688 L5.703125,42.2554688 L5.703125,20.5648438 L0.416666667,20.5648438 L7.82986111,13.4921875 L7.82986111,2.371875 L13.4809028,2.371875 L13.4809028,8.0953125 L21.9618056,0 L43.5069444,20.5648438 L38.2204861,20.5648438 L38.2204861,42.2554687 Z M9.23611111,3.77265625 L9.23611111,12.1429688 L12.0659722,9.44453125 L12.0659722,3.77265625 L9.23611111,3.77265625 Z M3.92361111,19.1640625 L40,19.1640625 L21.9618056,1.9421875 L3.92361111,19.1640625 Z M36.8055556,42.2554688 L36.8055556,20.5648438 L7.11805556,20.5648438 L7.11805556,42.2554688 L36.8055556,42.2554688 Z M21.2586806,12.16875 L22.6736111,12.16875 L22.6736111,13.5695312 L21.2586806,13.5695312 L21.2586806,12.16875 Z M24.0798611,12.16875 L25.4947917,12.16875 L25.4947917,13.5695312 L24.0798611,13.5695312 L24.0798611,12.16875 Z M18.4288194,12.16875 L19.84375,12.16875 L19.84375,13.5695312 L18.4288194,13.5695312 L18.4288194,12.16875 Z M21.9618056,40.3304687 C21.9618056,40.3304687 12.7690972,33.653125 12.7864338,27.5601562 C12.7864338,24.8617188 15.1736111,22.6617187 18.1163194,22.6617187 C19.5833333,22.6617187 20.9722222,23.2117188 21.9704861,24.1742188 C22.96875,23.2203125 24.3576389,22.6617187 25.8246528,22.6617187 C28.7586806,22.6617187 31.1545139,24.8617188 31.1545139,27.5601562 C31.1545139,33.7046875 21.9618056,40.3304687 21.9618056,40.3304687 Z M18.1076389,24.0625 C15.9461806,24.0625 14.1840278,25.6351562 14.1753472,27.5601562 C14.1753472,32.0546875 20.2690972,37.228125 21.953125,38.56875 C23.6371528,37.228125 29.7309028,32.0460937 29.7309028,27.5601562 C29.7309028,25.6351562 27.9774306,24.0625 25.8159722,24.0625 C24.4878472,24.0625 23.2638889,24.6554687 22.5347222,25.6523437 L21.9618056,26.434375 L21.3888889,25.6523437 C20.6597222,24.6554687 19.4357639,24.0625 18.1076389,24.0625 Z" id="Combined-Shape"></path>
                    </g>
                </g>
            </g>
        </g>
    </g>
</svg>