<?xml version="1.0" encoding="UTF-8"?>
<svg width="40px" height="40px" viewBox="0 0 40 40" version="1.1" xmlns="http://www.w3.org/2000/svg" xmlns:xlink="http://www.w3.org/1999/xlink">
    <!-- Generator: Sketch 55.2 (78181) - https://sketchapp.com -->
    <title>noun_Order Management_2100516</title>
    <desc>Created with Sketch.</desc>
    <g id="Our-Team-page" stroke="none" stroke-width="1" fill="none" fill-rule="evenodd">
        <g id="About-Us-(Meet-our-Team)@2x" transform="translate(-1058.000000, -939.000000)" fill="#208389">
            <g id="Group-9-Copy-4" transform="translate(912.000000, 893.000000)">
                <g id="Group-14" transform="translate(43.000000, 46.000000)">
                    <g id="noun_Order-Management_2100516" transform="translate(103.000000, 0.000000)">
                        <path d="M31.2238806,34.1492537 C29.6119403,34.1492537 28.358209,32.8358209 28.358209,31.2835821 C28.358209,29.7313433 29.6119403,28.4179104 31.2238806,28.4179104 C32.7761194,28.4179104 34.0895522,29.6716418 34.0895522,31.2835821 C34.0895522,32.8358209 32.8358209,34.1492537 31.2238806,34.1492537 Z M31.2238806,29.5522388 C30.3283582,29.5522388 29.5522388,30.3283582 29.5522388,31.2238806 C29.5522388,32.119403 30.3283582,32.8955224 31.2238806,32.8955224 C32.119403,32.8955224 32.8955224,32.119403 32.8955224,31.2238806 C32.8955224,30.3283582 32.1791045,29.5522388 31.2238806,29.5522388 Z M2.20895522,39.7014925 C1.13432836,39.7014925 0.298507463,38.8656716 0.298507463,37.8507463 L0.298507463,2.20895522 C0.298507463,1.13432836 1.19402985,0.298507463 2.20895522,0.298507463 L19.5820896,0.298507463 C19.7014925,0.298507463 19.880597,0.358208955 20,0.47761194 L28.358209,8.71641791 C28.5373134,8.8358209 28.5970149,9.01492537 28.5970149,9.25373134 L28.5970149,24.7761194 C28.7761194,24.7164179 29.0149254,24.5970149 29.2537313,24.5373134 L29.7313433,23.1641791 C29.7910448,22.9253731 30.0298507,22.7462687 30.2686567,22.7462687 L32.238806,22.7462687 C32.4776119,22.7462687 32.7164179,22.9253731 32.7761194,23.1641791 L33.2537313,24.5373134 C33.6716418,24.7164179 34.0895522,24.8358209 34.5074627,25.0746269 L35.8208955,24.4776119 C36,24.358209 36.2985075,24.4179104 36.4776119,24.5970149 L37.9104478,26.0298507 C38.0895522,26.2089552 38.1492537,26.4477612 38.0298507,26.6865672 L37.3731343,28 C37.6119403,28.4179104 37.7910448,28.8358209 37.9104478,29.2537313 L39.2835821,29.7313433 C39.5223881,29.7910448 39.7014925,30.0298507 39.7014925,30.2686567 L39.7014925,32.238806 C39.7014925,32.4776119 39.5223881,32.7164179 39.2835821,32.7761194 L37.9104478,33.2537313 C37.7910448,33.6716418 37.6119403,34.0895522 37.3731343,34.5074627 L38.0298507,35.8208955 C38.1492537,36 38.0895522,36.2985075 37.9104478,36.4776119 L36.4776119,37.9104478 C36.2985075,38.0895522 36.0597015,38.1492537 35.8208955,38.0298507 L34.5074627,37.3731343 C34.0895522,37.6119403 33.6716418,37.7910448 33.2537313,37.9104478 L32.7761194,39.2835821 C32.7164179,39.5223881 32.4776119,39.7014925 32.238806,39.7014925 L30.2686567,39.7014925 C30.0298507,39.7014925 29.7910448,39.5223881 29.7313433,39.2835821 L29.2537313,37.9104478 C29.0149254,37.8507463 28.8358209,37.7910448 28.5970149,37.6716418 L28.5970149,37.7910448 C28.5970149,38.8656716 27.7014925,39.7014925 26.6865672,39.7014925 L2.20895522,39.7014925 Z M29.7910448,25.6119403 C29.2537313,25.7910448 28.7761194,25.9701493 28.2985075,26.2686567 C28.119403,26.3283582 27.880597,26.3283582 27.7014925,26.2686567 L26.5074627,25.6716418 L25.6716418,26.5074627 L26.2686567,27.7014925 C26.3880597,27.880597 26.3880597,28.119403 26.2686567,28.2985075 C25.9701493,28.7761194 25.7313433,29.3134328 25.6119403,29.8507463 C25.6119403,30.0298507 25.4328358,30.2089552 25.2537313,30.2686567 L24,30.6865672 L24,31.8208955 L25.2537313,32.238806 C25.4328358,32.2985075 25.5522388,32.4776119 25.6119403,32.6567164 C25.7910448,33.2537313 25.9701493,33.7313433 26.2686567,34.2089552 C26.3283582,34.3880597 26.3283582,34.6268657 26.2686567,34.8059701 L25.6716418,36 L26.6268657,36.7761194 L27.8208955,36.1791045 C28,36.0597015 28.1791045,36.0597015 28.358209,36.1791045 C28.8358209,36.4776119 29.3731343,36.7164179 29.9104478,36.8358209 C30.0895522,36.8358209 30.2686567,37.0149254 30.3283582,37.1940299 L30.7462687,38.4477612 L31.880597,38.4477612 L32.2985075,37.1940299 C32.358209,37.0149254 32.5373134,36.8955224 32.7164179,36.8358209 C33.2537313,36.6567164 33.7910448,36.4776119 34.2686567,36.1791045 C34.3880597,36.119403 34.6268657,36.119403 34.8059701,36.1791045 L36,36.7761194 L36.8358209,36 L36.238806,34.8059701 C36.119403,34.5671642 36.119403,34.3880597 36.238806,34.2089552 C36.5373134,33.7313433 36.7761194,33.1940299 36.8955224,32.6567164 C36.8955224,32.4776119 37.0746269,32.2985075 37.2537313,32.238806 L38.4477612,31.8208955 L38.4477612,30.6865672 L37.1940299,30.2686567 C37.0149254,30.2089552 36.8955224,30.0298507 36.8358209,29.8507463 C36.6567164,29.3134328 36.4776119,28.7761194 36.1791045,28.2985075 C36.119403,28.119403 36.119403,27.880597 36.1791045,27.7014925 L36.7761194,26.5074627 L35.9402985,25.6716418 L34.7462687,26.2686567 C34.5671642,26.3880597 34.3283582,26.3880597 34.1492537,26.2686567 C33.6716418,25.9701493 33.1343284,25.7313433 32.5970149,25.6119403 C32.4179104,25.6119403 32.238806,25.4328358 32.1791045,25.2537313 L31.761194,24 L30.6268657,24 L30.2089552,25.2537313 C30.1492537,25.4328358 29.9701493,25.5522388 29.7910448,25.6119403 Z M20.1791045,2.32835821 L20.1791045,8.65671642 L26.5074627,8.65671642 L20.1791045,2.32835821 Z M1.49253731,2.20895522 L1.43283582,2.20895522 L1.43283582,37.7910448 C1.43283582,38.2089552 1.79104478,38.5074627 2.14925373,38.5074627 L26.6268657,38.5074627 C27.0447761,38.5074627 27.3432836,38.1492537 27.3432836,37.7910448 L27.3432836,37.6716418 L26.6268657,38.0298507 C26.4477612,38.1492537 26.1492537,38.0895522 25.9701493,37.9104478 L24.5373134,36.4776119 C24.358209,36.2985075 24.2985075,36.0597015 24.4179104,35.8208955 L25.0746269,34.5074627 C24.8358209,34.0895522 24.6567164,33.6716418 24.5373134,33.2537313 L23.1641791,32.7761194 C22.9253731,32.7164179 22.7462687,32.4776119 22.7462687,32.238806 L22.7462687,30.2089552 C22.7462687,29.9701493 22.9253731,29.7313433 23.1641791,29.6716418 L24.5373134,29.1940299 C24.7164179,28.7761194 24.8358209,28.358209 25.0746269,27.9402985 L24.4179104,26.6268657 C24.2985075,26.4477612 24.358209,26.1492537 24.5373134,25.9701493 L25.9701493,24.5373134 C26.1492537,24.358209 26.3880597,24.2985075 26.6268657,24.4179104 L27.3432836,24.7761194 L27.3432836,9.85074627 L19.5820896,9.85074627 C19.2238806,9.85074627 18.9850746,9.6119403 18.9850746,9.25373134 L18.9850746,1.49253731 L2.20895522,1.49253731 C1.79104478,1.49253731 1.49253731,1.79104478 1.49253731,2.20895522 Z M4.7761194,10.0895522 C4.41791045,10.0895522 4.17910448,9.85074627 4.17910448,9.49253731 C4.17910448,9.13432836 4.41791045,8.89552239 4.7761194,8.89552239 L15.7014925,8.89552239 C16.0597015,8.89552239 16.2985075,9.13432836 16.2985075,9.49253731 C16.2985075,9.85074627 16.0597015,10.0895522 15.7014925,10.0895522 L4.7761194,10.0895522 Z M4.7761194,14.2686567 C4.41791045,14.2686567 4.17910448,14.0298507 4.17910448,13.6716418 C4.17910448,13.3134328 4.41791045,13.0746269 4.7761194,13.0746269 L24.0597015,13.0746269 C24.4179104,13.0746269 24.6567164,13.3134328 24.6567164,13.6716418 C24.6567164,14.0298507 24.4179104,14.2686567 24.0597015,14.2686567 L4.7761194,14.2686567 Z M4.7761194,18.4477612 C4.41791045,18.4477612 4.17910448,18.2089552 4.17910448,17.8507463 C4.17910448,17.4925373 4.41791045,17.2537313 4.7761194,17.2537313 L24.0597015,17.2537313 C24.4179104,17.2537313 24.6567164,17.4925373 24.6567164,17.8507463 C24.6567164,18.2089552 24.4179104,18.4477612 24.0597015,18.4477612 L4.7761194,18.4477612 Z M4.7761194,5.97014925 C4.41791045,5.97014925 4.17910448,5.73134328 4.17910448,5.37313433 C4.17910448,5.01492537 4.41791045,4.7761194 4.7761194,4.7761194 L15.7014925,4.7761194 C16.0597015,4.7761194 16.2985075,5.01492537 16.2985075,5.37313433 C16.2985075,5.73134328 16.0597015,5.97014925 15.7014925,5.97014925 L4.7761194,5.97014925 Z M6.44776119,35.641791 L4,33.1940299 C3.76119403,32.9552239 3.76119403,32.5970149 4,32.358209 C4.23880597,32.119403 4.59701493,32.119403 4.8358209,32.358209 L6.86567164,34.3880597 L10.6865672,30.5671642 C10.9253731,30.3283582 11.2835821,30.3283582 11.5223881,30.5671642 C11.761194,30.8059701 11.761194,31.1641791 11.5223881,31.4029851 L7.28358209,35.641791 C7.1641791,35.761194 6.98507463,35.8208955 6.86567164,35.8208955 C6.74626866,35.8208955 6.56716418,35.761194 6.44776119,35.641791 Z M20.4776119,30.2686567 C20.7761194,30.2686567 21.0746269,30.5074627 21.0746269,30.8656716 C21.0746269,31.2238806 20.8358209,31.4626866 20.4776119,31.4626866 L14.3283582,31.4626866 C13.9701493,31.4626866 13.7313433,31.2238806 13.7313433,30.8656716 C13.7313433,30.5074627 13.9701493,30.2686567 14.3283582,30.2686567 L20.4776119,30.2686567 Z M20.4776119,34.6268657 C20.7761194,34.6268657 21.0746269,34.8656716 21.0746269,35.2238806 C21.0746269,35.5820896 20.8358209,35.8208955 20.4776119,35.8208955 L14.3283582,35.8208955 C13.9701493,35.8208955 13.7313433,35.5820896 13.7313433,35.2238806 C13.7313433,34.8656716 13.9701493,34.6268657 14.3283582,34.6268657 L20.4776119,34.6268657 Z M6.62686567,26.9253731 L4.17910448,24.4776119 C3.94029851,24.238806 3.94029851,23.880597 4.17910448,23.641791 C4.41791045,23.4029851 4.7761194,23.4029851 5.01492537,23.641791 L7.04477612,25.6716418 L10.8656716,21.8507463 C11.1044776,21.6119403 11.4626866,21.6119403 11.7014925,21.8507463 C11.9402985,22.0895522 11.9402985,22.4477612 11.7014925,22.6865672 L7.46268657,26.9253731 C7.34328358,27.0447761 7.1641791,27.1044776 7.04477612,27.1044776 C6.92537313,27.1044776 6.74626866,27.0447761 6.62686567,26.9253731 Z M14.5074627,21.5522388 L24.238806,21.5522388 C24.5970149,21.5522388 24.8358209,21.7910448 24.8358209,22.1492537 C24.8358209,22.5074627 24.5970149,22.7462687 24.238806,22.7462687 L14.5074627,22.7462687 C14.1492537,22.7462687 13.9104478,22.5074627 13.9104478,22.1492537 C13.9104478,21.7910448 14.1492537,21.5522388 14.5074627,21.5522388 Z M20.6567164,25.9104478 C20.9552239,25.9104478 21.2537313,26.1492537 21.2537313,26.5074627 C21.2537313,26.8656716 21.0149254,27.1044776 20.6567164,27.1044776 L14.5074627,27.1044776 C14.1492537,27.1044776 13.9104478,26.8656716 13.9104478,26.5074627 C13.9104478,26.1492537 14.1492537,25.9104478 14.5074627,25.9104478 L20.6567164,25.9104478 Z" id="Combined-Shape"></path>
                    </g>
                </g>
            </g>
        </g>
    </g>
</svg>