<?xml version="1.0" encoding="UTF-8"?>
<svg width="43px" height="49px" viewBox="0 0 43 49" version="1.1" xmlns="http://www.w3.org/2000/svg" xmlns:xlink="http://www.w3.org/1999/xlink">
    <!-- Generator: Sketch 55.2 (78181) - https://sketchapp.com -->
    <title>noun_Idea_2186638 (1)</title>
    <desc>Created with Sketch.</desc>
    <g id="Our-Team-page" stroke="none" stroke-width="1" fill="none" fill-rule="evenodd">
        <g id="About-Us-(Meet-our-Team)@2x" transform="translate(-699.000000, -607.000000)">
            <g id="Group-9-Copy-2" transform="translate(560.000000, 565.000000)">
                <g id="Group-13" transform="translate(43.000000, 39.000000)">
                    <g id="noun_Idea_2186638-(1)" transform="translate(90.000000, 0.000000)">
                        <rect id="Rectangle" x="0" y="0" width="55" height="55"></rect>
                        <path d="M20.6258594,40.3897656 C20.6258594,39.6971094 20.6292969,39.0044531 20.6258594,38.3117969 C20.6241406,38.0153125 20.4591406,37.7265625 20.1996094,37.5753125 C18.4782813,36.5741406 16.9855469,35.2464063 15.8073438,33.6763281 C14.485625,31.91375 13.5686719,29.8495313 13.1527344,27.6839063 C12.6371094,24.9940625 12.8889063,22.1615625 13.8935156,19.5971875 C14.8646094,17.11875 16.5283594,14.9204688 18.6475781,13.3022656 C20.5992188,11.8121094 22.9307031,10.8255469 25.3575781,10.4680469 C26.0545313,10.3657813 26.7609375,10.3142188 27.465625,10.3116406 C27.4810938,10.3116406 27.4974219,10.3116406 27.5128906,10.3116406 C29.5796875,10.3142188 31.6507813,10.7585156 33.5319531,11.6127344 C35.3211719,12.4257031 36.939375,13.6021875 38.2688281,15.0510938 C39.4461719,16.335 40.3932031,17.8303125 41.0463281,19.4416406 C41.9701563,21.7224219 42.2941406,24.2369531 42.0088281,26.6517969 C41.7905469,28.4994531 41.2147656,30.2972656 40.3201562,31.9292188 C39.1342187,34.093125 37.393125,35.9442188 35.3211719,37.2607813 C35.1492969,37.3699219 34.973125,37.4747656 34.7978125,37.5778906 C34.5434375,37.7291406 34.3767187,38.0144531 34.3758594,38.3160938 C34.375,38.94 34.3758594,39.5664844 34.3758594,40.1929688 L34.3758594,40.3897656 C34.3758594,42.3972656 34.3792969,44.4039062 34.3758594,46.4105469 C34.3741406,46.7474219 34.2727344,47.0834375 34.0845312,47.3635938 C33.7725781,47.8276563 33.2277344,48.1215625 32.6622656,48.1241406 C32.0882031,48.125 31.5132812,48.1258594 30.9383594,48.1267188 L30.9383594,48.984375 C30.9375,49.6598438 30.6599219,50.3335938 30.1778125,50.8122656 C29.7240625,51.2634375 29.0992969,51.5358594 28.4564844,51.5599219 C28.4272656,51.5607812 28.3980469,51.5620226 28.3679687,51.5620226 C27.7921875,51.5625 27.2164062,51.5620226 26.640625,51.5620226 C25.9685937,51.5607813 25.3017187,51.2866406 24.8239062,50.8122656 C24.3435156,50.3344531 24.0642187,49.6589844 24.0633594,48.984375 L24.0633594,48.1267188 C23.4884375,48.1258594 22.914375,48.125 22.3394531,48.1241406 C21.9303906,48.1224219 21.5239062,47.9703125 21.2153906,47.7013281 C20.8475781,47.3807813 20.6284375,46.90125 20.6258594,46.4105469 L20.6258594,46.40625 L20.6258594,40.3897656 L20.6258594,40.3897656 Z M25.7821094,48.1275781 C25.7821094,48.4146094 25.78125,48.7016406 25.7821094,48.9886719 C25.7846875,49.2619531 25.9221875,49.5249219 26.1404688,49.6821875 C26.2839844,49.7853125 26.4601563,49.8420313 26.6363281,49.8428906 C27.2129688,49.8454688 27.78875,49.8454688 28.3653906,49.8428906 C28.661875,49.8403125 28.950625,49.6761719 29.101875,49.4183594 C29.1783594,49.286875 29.2196094,49.1364844 29.2196094,48.9826563 L29.2196094,48.1275781 C28.0740625,48.1284375 26.9276563,48.1284375 25.7821094,48.1275781 L25.7821094,48.1275781 Z M32.6571094,44.6866406 L22.34375,44.6866406 C22.34375,45.2598438 22.34375,45.8321875 22.3446094,46.4053906 L22.3446094,46.4053906 C23.14125,46.4165625 23.93875,46.4234375 24.7353906,46.4260156 C24.7697656,46.4182813 24.8041406,46.413125 24.8385156,46.4096875 C24.866875,46.4071094 24.894375,46.4071094 24.9227344,46.4053906 L30.0789844,46.4053906 C30.1073438,46.4071094 30.1348438,46.4079688 30.1632031,46.4096875 C30.174375,46.4114063 30.1846875,46.413125 30.1958594,46.4139844 C31.0165625,46.4105469 31.8364063,46.4071094 32.6571094,46.4053906 C32.6571094,46.4053906 32.6571094,46.4053906 32.6571094,46.4045313 L32.6571094,44.6866406 L32.6571094,44.6866406 Z M22.34375,42.9678906 L32.6571094,42.9678906 L32.6571094,41.2491406 L22.3446094,41.2491406 C22.3446094,41.8223438 22.3446094,42.3955469 22.34375,42.9678906 L22.34375,42.9678906 Z M15.4317969,36.2192188 C15.4592969,36.2235156 15.4876563,36.2260938 15.5151563,36.2321094 C15.8460156,36.2974219 16.1235938,36.5707031 16.190625,36.9067188 C16.2396094,37.1550781 16.1734375,37.4232031 16.011875,37.62 C15.9938281,37.6414844 15.9740625,37.66125 15.9551563,37.681875 L13.5248438,40.1130469 C13.5033594,40.1319531 13.4835938,40.1517188 13.4621094,40.1697656 C13.2876563,40.3124219 13.0564844,40.3828906 12.8321875,40.3605469 C12.60875,40.3382031 12.395625,40.2247656 12.2521094,40.0503125 C12.0742188,39.8328906 12.0132031,39.5252344 12.0948438,39.2553906 C12.1189063,39.1754688 12.155,39.098125 12.2022656,39.0276563 C12.244375,38.9657813 12.2589844,38.9528906 12.3088281,38.8978906 L14.74,36.4667188 C14.795,36.416875 14.8078906,36.4014063 14.8697656,36.3601563 C14.9634375,36.2974219 15.0691406,36.2535938 15.18,36.2321094 C15.2539063,36.2175 15.2728125,36.2192188 15.3475781,36.2149219 C15.3759375,36.2166406 15.4034375,36.2183594 15.4317969,36.2192188 L15.4317969,36.2192188 Z M39.7383594,36.2192188 C39.8122656,36.2303906 39.8320313,36.2303906 39.9033594,36.251875 C40.0116406,36.2845313 40.1121875,36.3386719 40.1998438,36.41 C40.2213281,36.4280469 40.2410938,36.4478125 40.2617188,36.4667187 L42.6928906,38.8978906 C42.7427344,38.9528906 42.7582031,38.9657813 42.7994531,39.0276563 C42.9249219,39.215 42.9721875,39.4521875 42.9275,39.6730469 C42.8733594,39.9489063 42.6739844,40.19125 42.4135938,40.2995313 C42.13,40.4172656 41.7828125,40.3691406 41.5396094,40.1697656 C41.518125,40.1517188 41.4983594,40.1319531 41.4777344,40.1130469 L39.0465625,37.681875 C39.0276563,37.66125 39.0078906,37.6414844 38.9898438,37.62 C38.7758594,37.3596094 38.7346094,36.9720312 38.8961719,36.6695312 C39.0285156,36.4220312 39.2889063,36.2467187 39.5699219,36.2192187 C39.6257813,36.2140625 39.6825,36.2166406 39.7383594,36.2192187 L39.7383594,36.2192188 Z M28.3602344,39.5303906 L32.6571094,39.5303906 C32.6571094,39.1247656 32.6571094,38.7182813 32.6571094,38.3126563 C32.6588281,37.6440625 32.9303906,36.9857813 33.3944531,36.5122656 C33.5439844,36.3601563 33.7132813,36.2260938 33.8954688,36.1152344 C33.9152344,36.1032031 33.9341406,36.0920312 33.9539063,36.0808594 C36.19,34.7840625 37.9895312,32.8384375 39.1067188,30.5344531 C40.0434375,28.6025781 40.4825781,26.448125 40.3760156,24.2782031 C40.2720312,22.165 39.6360938,20.0741406 38.5352344,18.2565625 C37.4197656,16.4157812 35.8299219,14.8525781 33.9650781,13.7680469 C32.0314844,12.6439844 29.7971094,12.0407031 27.5532812,12.0303906 C27.5360937,12.0303906 27.5180469,12.0303906 27.5008594,12.0303906 C25.6764062,12.03125 23.8467969,12.4214063 22.1804687,13.1776562 C20.0775781,14.1332812 18.2410938,15.6646875 16.9167969,17.5647656 C15.8073438,19.1580469 15.0622656,21.0082812 14.7632031,22.928125 C14.4899219,24.6907031 14.5810156,26.503125 15.0407813,28.235625 C15.6010938,30.3428125 16.7122656,32.3004688 18.2247656,33.8688281 C19.0454688,34.71875 19.9804688,35.4560938 21.003125,36.0542188 C21.1019531,36.1117969 21.1999219,36.1719531 21.2927344,36.2398437 C21.9183594,36.6996094 22.3153906,37.4515625 22.3428906,38.2267187 C22.34375,38.2550781 22.3446094,38.2834375 22.3446094,38.3126563 L22.3446094,38.3169531 L22.3446094,39.5303906 L26.6414844,39.5303906 L26.6414844,35.5892969 L24.4629688,33.4107812 C24.4440625,33.3901562 24.4234375,33.3695313 24.40625,33.3480469 C24.2094531,33.1091406 24.1570313,32.7628125 24.2764844,32.4740625 C24.3942188,32.18875 24.674375,31.9782031 24.9863281,31.948125 C25.0421875,31.9421094 25.0980469,31.9446875 25.1547656,31.948125 C25.1822656,31.9515625 25.210625,31.955 25.238125,31.9601562 C25.348125,31.9825 25.4538281,32.0263281 25.5475,32.0882031 C25.6102344,32.1303125 25.6222656,32.1449219 25.678125,32.195625 L27.5008594,34.0183594 L29.3235938,32.195625 C29.3794531,32.1449219 29.3914844,32.1303125 29.4542188,32.0882031 C29.5478906,32.0263281 29.6535938,31.9825 29.7635938,31.9601562 C29.8375,31.9455469 29.8572656,31.9472656 29.9320313,31.9438281 C29.9595313,31.9446875 29.9878906,31.9464063 30.01625,31.948125 C30.04375,31.9515625 30.0721094,31.955 30.0996094,31.9601563 C30.4021094,32.0203125 30.6633594,32.2540625 30.7535938,32.5539844 C30.8352344,32.8221094 30.7750781,33.1297656 30.5963281,33.3480469 C30.5782813,33.3695313 30.5585156,33.3901563 30.5396094,33.4107813 L28.3602344,35.5892969 L28.3602344,39.5303906 L28.3602344,39.5303906 Z M48.1258594,25.7803906 L44.6883594,25.7803906 C44.66,25.7795312 44.6325,25.7795312 44.6041406,25.7760938 C44.3523438,25.7511719 44.1151563,25.609375 43.9742188,25.3988281 C43.786875,25.1195313 43.7834375,24.729375 43.9742188,24.4440625 C44.0988281,24.2567188 44.2999219,24.1226563 44.5207813,24.0779688 C44.5946875,24.0633594 44.6135938,24.0650781 44.6883594,24.0616406 L48.1258594,24.0616406 C48.1542188,24.0633594 48.1817188,24.0642188 48.2100781,24.0659375 C48.2839844,24.0771094 48.30375,24.0771094 48.3750781,24.0985938 C48.6174219,24.1725 48.8228125,24.358125 48.9199219,24.5927344 C49.0488281,24.9029688 48.9766406,25.28625 48.7334375,25.5285937 C48.5942188,25.6678125 48.406875,25.7571875 48.2100781,25.7760938 C48.1825781,25.7795313 48.1542188,25.7795313 48.1258594,25.7803906 L48.1258594,25.7803906 Z M10.3133594,25.7803906 L6.87585938,25.7803906 C6.80109375,25.7769531 6.7821875,25.7786719 6.70828125,25.7640625 C6.37828125,25.69875 6.09984375,25.4254688 6.0328125,25.0885938 C5.9778125,24.8127344 6.06976563,24.5128125 6.26828125,24.3134375 C6.4075,24.1742188 6.59484375,24.0857031 6.79164063,24.0659375 C6.82,24.0633594 6.8475,24.0633594 6.87585938,24.0616406 L10.3133594,24.0616406 C10.3417188,24.0633594 10.3692188,24.0642188 10.3975781,24.0659375 C10.4250781,24.0702344 10.4534375,24.0728125 10.4809375,24.0779688 C10.8117969,24.1441406 11.089375,24.4165625 11.1564063,24.7534375 C11.2114063,25.0301563 11.1203125,25.3300781 10.9209375,25.5285938 C10.8014844,25.6480469 10.6467969,25.7314063 10.4809375,25.7640625 C10.4070313,25.7786719 10.388125,25.7769531 10.3133594,25.7803906 Z M13.0014844,9.48148438 C13.0753906,9.49265625 13.0942969,9.49265625 13.1664844,9.515 C13.2739063,9.54765625 13.3753125,9.60179688 13.4621094,9.673125 C13.4835938,9.6903125 13.5033594,9.7109375 13.5248438,9.72984375 L15.9551563,12.1601563 C16.0058594,12.2160156 16.0204688,12.2280469 16.0617188,12.2907812 C16.2335938,12.546875 16.2525,12.8975 16.1055469,13.1725 C15.9465625,13.4689844 15.6045313,13.6563281 15.2633594,13.6228125 C15.0949219,13.6064844 14.9333594,13.5394531 14.8027344,13.4320313 C14.7803906,13.4139844 14.760625,13.3942188 14.74,13.3753125 L12.3088281,10.945 C12.2899219,10.924375 12.2701563,10.90375 12.2521094,10.8822656 C12.0389844,10.6227344 11.996875,10.2342969 12.1592969,9.93179688 C12.2916406,9.68429688 12.5511719,9.50984375 12.8321875,9.48148438 C12.8889063,9.47632813 12.9447656,9.47890625 13.0014844,9.48148438 L13.0014844,9.48148438 Z M42.1695313,9.48148438 C42.1970313,9.48578125 42.2253906,9.48835938 42.2528906,9.494375 C42.5553906,9.55453125 42.8166406,9.78828125 42.9077344,10.0873438 C42.9885156,10.3563281 42.9283594,10.6639844 42.7496094,10.8822656 C42.7315625,10.90375 42.7117969,10.924375 42.6928906,10.945 L40.2617188,13.3753125 C40.2067188,13.4260156 40.1938281,13.440625 40.1319531,13.4827344 C39.9214063,13.6228125 39.6472656,13.6640625 39.4049219,13.5901563 C39.1634375,13.5171094 38.9580469,13.3323438 38.8600781,13.096875 C38.7423438,12.8124219 38.7904688,12.4660938 38.9898438,12.2228906 C39.0078906,12.2005469 39.0276563,12.1807813 39.0465625,12.1601563 L41.4777344,9.72984375 C41.5327344,9.67914063 41.5447656,9.66453125 41.6075,9.62242188 C41.7011719,9.5596875 41.806875,9.51585938 41.9177344,9.494375 C41.9907813,9.47976563 42.0105469,9.48148438 42.0853125,9.47804688 C42.1128125,9.47890625 42.1411719,9.480625 42.1695313,9.48148438 L42.1695313,9.48148438 Z M27.5850781,3.4409375 C27.6125781,3.44523438 27.6409375,3.4478125 27.6684375,3.45296875 C27.9709375,3.513125 28.2321875,3.74773438 28.3232813,4.04679688 C28.3396094,4.1009375 28.3507813,4.1559375 28.3559375,4.21179688 C28.3585156,4.24015625 28.3585156,4.26851563 28.3602344,4.29601563 L28.3602344,7.73351563 C28.3567969,7.80828125 28.3585156,7.82804688 28.3439063,7.90109375 C28.2889063,8.17695313 28.09125,8.41929688 27.83,8.52757813 C27.59625,8.6246875 27.3203906,8.61179688 27.0960938,8.49148438 C26.8477344,8.35914063 26.6732813,8.09960938 26.6457813,7.81773438 C26.6432031,7.79023438 26.6432031,7.761875 26.6414844,7.73351563 L26.6414844,4.29601563 C26.6432031,4.26851563 26.6432031,4.24015625 26.6457813,4.21179688 C26.6758594,3.905 26.8829688,3.62226563 27.1717188,3.50195313 C27.2499219,3.47015625 27.3324219,3.44953125 27.4166406,3.4409375 C27.4725,3.43578125 27.5292188,3.43835938 27.5850781,3.4409375 Z" id="Shape" fill="#208389"></path>
                    </g>
                </g>
            </g>
        </g>
    </g>
</svg>