<?xml version="1.0" encoding="UTF-8"?>
<svg width="38px" height="37px" viewBox="0 0 38 37" version="1.1" xmlns="http://www.w3.org/2000/svg" xmlns:xlink="http://www.w3.org/1999/xlink">
    <!-- Generator: Sketch 55.2 (78181) - https://sketchapp.com -->
    <title>noun_find document_2039248</title>
    <desc>Created with Sketch.</desc>
    <g id="Our-Team-page" stroke="none" stroke-width="1" fill="none" fill-rule="evenodd">
        <g id="About-Us-(Meet-our-Team)@2x" transform="translate(-346.000000, -949.000000)" fill="#208389">
            <g id="Group-9-Copy" transform="translate(208.000000, 893.000000)">
                <g id="Group-6" transform="translate(43.000000, 56.000000)">
                    <g id="noun_find-document_2039248" transform="translate(95.000000, 0.000000)">
                        <path d="M11.337645,2.50415 C11.3391191,1.2126357 12.3857307,0.166024136 13.677245,0.16455 L35.36035,0.16455 C36.6518643,0.166024136 37.6984759,1.2126357 37.69995,2.50415 L37.69995,34.49585 C37.6984759,35.7873643 36.6518643,36.8339759 35.36035,36.83545 L13.677245,36.83545 C12.3857307,36.8339759 11.3391191,35.7873643 11.337645,34.49585 L11.337645,31.343 C11.337645,31.0668576 11.5615026,30.843 11.837645,30.843 C12.1137874,30.843 12.337645,31.0668576 12.337645,31.343 L12.337645,34.49585 C12.3384167,35.2353708 12.9377242,35.8346783 13.677245,35.83545 L35.36035,35.83545 C36.0998708,35.8346783 36.6991783,35.2353708 36.69995,34.49585 L36.69995,2.50415 C36.6991783,1.76462922 36.0998708,1.16532166 35.36035,1.16455 L13.677245,1.16455 C12.9377242,1.16532166 12.3384167,1.76462922 12.337645,2.50415 L12.337645,14.767335 C12.337645,15.0434774 12.1137874,15.267335 11.837645,15.267335 C11.5615026,15.267335 11.337645,15.0434774 11.337645,14.767335 L11.337645,2.50415 Z M13.526855,29.09961 C12.0818034,29.1003343 10.685448,28.5773561 9.596405,27.627535 L1.148435,35.839355 C1.02040695,35.9643741 0.835328392,36.0114428 0.663129152,35.9627768 C0.490929911,35.9141108 0.357866342,35.7771304 0.314214995,35.6035921 C0.270563647,35.4300539 0.322980331,35.2464183 0.45166,35.12207 L8.899045,26.91083 C7.1191746,24.7440169 7.07995114,21.6326418 8.80463286,19.4216486 C10.5293146,17.2106555 13.5566553,16.491349 16.0915406,17.6902544 C18.6264259,18.8891597 19.9909301,21.6856436 19.3759465,24.4214822 C18.760963,27.1573208 16.330962,29.1008457 13.526855,29.09961 Z M10.046385,19.53076 C9.09285912,20.4513538 8.54608078,21.7143668 8.52733461,23.0396416 C8.50858844,24.3649163 9.01942423,25.6428894 9.94653,26.590085 C11.8683344,28.5670371 15.0289009,28.6117433 17.0058533,26.6899391 C18.9828056,24.7681349 19.0275121,21.6075684 17.1057082,19.6306159 C15.1839043,17.6536633 12.0233378,17.6089563 10.046385,19.53076 Z M17.09717,7.663085 C16.8210276,7.663085 16.59717,7.43922737 16.59717,7.163085 C16.59717,6.88694263 16.8210276,6.663085 17.09717,6.663085 L31.94043,6.663085 C32.2165724,6.663085 32.44043,6.88694263 32.44043,7.163085 C32.44043,7.43922737 32.2165724,7.663085 31.94043,7.663085 L17.09717,7.663085 Z M17.09717,13.004395 C16.8210276,13.004395 16.59717,12.7805374 16.59717,12.504395 C16.59717,12.2282526 16.8210276,12.004395 17.09717,12.004395 L31.94043,12.004395 C32.2165724,12.004395 32.44043,12.2282526 32.44043,12.504395 C32.44043,12.7805374 32.2165724,13.004395 31.94043,13.004395 L17.09717,13.004395 Z M21.30786,18.34546 C21.0317176,18.34546 20.80786,18.1216024 20.80786,17.84546 C20.80786,17.5693176 21.0317176,17.34546 21.30786,17.34546 L31.94043,17.34546 C32.2165724,17.34546 32.44043,17.5693176 32.44043,17.84546 C32.44043,18.1216024 32.2165724,18.34546 31.94043,18.34546 L21.30786,18.34546 Z M31.94043,22.68677 C32.2165724,22.68677 32.44043,22.9106276 32.44043,23.18677 C32.44043,23.4629124 32.2165724,23.68677 31.94043,23.68677 L23.4165,23.68677 C23.1403576,23.68677 22.9165,23.4629124 22.9165,23.18677 C22.9165,22.9106276 23.1403576,22.68677 23.4165,22.68677 L31.94043,22.68677 Z M31.94043,28.02783 C32.2165724,28.02783 32.44043,28.2516876 32.44043,28.52783 C32.44043,28.8039724 32.2165724,29.02783 31.94043,29.02783 L21.378175,29.02783 C21.1020326,29.02783 20.878175,28.8039724 20.878175,28.52783 C20.878175,28.2516876 21.1020326,28.02783 21.378175,28.02783 L31.94043,28.02783 Z" id="Combined-Shape"></path>
                    </g>
                </g>
            </g>
        </g>
    </g>
</svg>