<?xml version="1.0" encoding="UTF-8"?>
<svg width="185px" height="38px" viewBox="0 0 185 38" version="1.1" xmlns="http://www.w3.org/2000/svg" xmlns:xlink="http://www.w3.org/1999/xlink">
    <!-- Generator: Sketch 55.2 (78181) - https://sketchapp.com -->
    <title>Logo whole</title>
    <desc>Created with Sketch.</desc>
    <g id="Fees-Cost" stroke="none" stroke-width="1" fill="none" fill-rule="evenodd">
        <g id="Our-Fees" transform="translate(-211.000000, -1963.000000)">
            <g id="footer_lg-2" transform="translate(0.000000, 1419.000000)">
                <g id="footer_lg">
                    <g id="Logo-whole" transform="translate(211.000000, 543.000000)">
                        <g id="Group" transform="translate(19.886378, 20.094267) rotate(45.000000) translate(-19.886378, -20.094267) translate(5.886378, 6.094267)">
                            <path d="M1.8711,0.063078864 L10.6543674,0.063078864 C11.6877474,0.063078864 12.5254674,0.900798869 12.5254674,1.93417886 L12.5254674,10.8077517 C12.5254674,11.8411317 11.6877474,12.6788517 10.6543674,12.6788517 L1.8711,12.6788517 C0.837720005,12.6788517 1.48846757e-15,11.8411317 0,10.8077517 L0,1.93417886 C-1.2655255e-16,0.900798869 0.837720005,0.063078864 1.8711,0.063078864 Z M4.7219421,7.0268252 C5.9325264,7.0268252 6.91389889,6.03837727 6.91389889,4.81906496 C6.91389889,3.59975265 5.9325264,2.61130472 4.7219421,2.61130472 C3.51135779,2.61130472 2.52998531,3.59975265 2.52998531,4.81906496 C2.52998531,6.03837727 3.51135779,7.0268252 4.7219421,7.0268252 Z M11.2729206,4.59883205 C8.07032722,5.551665 5.55294969,8.11308335 4.64303048,11.3541955 L6.74846301,11.3541955 C7.51886031,9.2293111 9.17809611,7.53530402 11.2729206,6.72869191 L11.2729206,4.59883205 Z" id="Combined-Shape" fill="#208389"></path>
                            <path d="M1.8711,15.3532352 L10.6543674,15.3532352 C11.6877474,15.3532352 12.5254674,16.1909552 12.5254674,17.2243352 L12.5254674,26.097908 C12.5254674,27.131288 11.6877474,27.969008 10.6543674,27.969008 L1.8711,27.969008 C0.837720005,27.969008 1.48846757e-15,27.131288 0,26.097908 L0,17.2243352 C-1.2655255e-16,16.1909552 0.837720005,15.3532352 1.8711,15.3532352 Z M4.7219421,25.3827746 C5.9325264,25.3827746 6.91389889,24.3943267 6.91389889,23.1750144 C6.91389889,21.9557021 5.9325264,20.9672541 4.7219421,20.9672541 C3.51135779,20.9672541 2.52998531,21.9557021 2.52998531,23.1750144 C2.52998531,24.3943267 3.51135779,25.3827746 4.7219421,25.3827746 Z M11.2729206,21.3459314 C9.13532597,20.5228507 7.45128847,18.775769 6.70239069,16.5897412 L4.60731188,16.5897412 C5.48559163,19.8925893 8.02740265,22.5101874 11.2729206,23.4757913 L11.2729206,21.3459314 Z" id="Combined-Shape" fill="#14A1A8"></path>
                            <path d="M17.0853692,0.0338038613 L25.8686366,0.0338038613 C26.9020166,0.0338038613 27.7397366,0.871523866 27.7397366,1.90490386 L27.7397366,10.7784767 C27.7397366,11.8118566 26.9020166,12.6495767 25.8686366,12.6495767 L17.0853692,12.6495767 C16.0519892,12.6495767 15.2142692,11.8118566 15.2142692,10.7784767 L15.2142692,1.90490386 C15.2142692,0.871523866 16.0519892,0.0338038613 17.0853692,0.0338038613 Z M24.2952331,6.9975502 C25.5058174,6.9975502 26.4871899,6.00910227 26.4871899,4.78978996 C26.4871899,3.57047765 25.5058174,2.58202972 24.2952331,2.58202972 C23.0846488,2.58202972 22.1032763,3.57047765 22.1032763,4.78978996 C22.1032763,6.00910227 23.0846488,6.9975502 24.2952331,6.9975502 Z M16.4709896,6.60466411 C18.7288102,7.35173591 20.5297154,9.11337696 21.3421458,11.3541955 L23.4475783,11.3541955 C22.5050702,7.99700242 19.8378991,5.36906168 16.4709896,4.50268727 L16.4709896,6.60466411 Z" id="Combined-Shape" fill="#93D3DD"></path>
                            <path d="M17.0853692,15.2608814 L25.8686366,15.2608814 C26.9020166,15.2608814 27.7397366,16.0986014 27.7397366,17.1319814 L27.7397366,26.0055542 C27.7397366,27.0389342 26.9020166,27.8766542 25.8686366,27.8766542 L17.0853692,27.8766542 C16.0519892,27.8766542 15.2142692,27.0389342 15.2142692,26.0055542 L15.2142692,17.1319814 C15.2142692,16.0986014 16.0519892,15.2608814 17.0853692,15.2608814 Z M24.2952331,25.2904207 C25.5058174,25.2904207 26.4871899,24.3019728 26.4871899,23.0826605 C26.4871899,21.8633482 25.5058174,20.8749003 24.2952331,20.8749003 C23.0846488,20.8749003 22.1032763,21.8633482 22.1032763,23.0826605 C22.1032763,24.3019728 23.0846488,25.2904207 24.2952331,25.2904207 Z M16.4709896,23.5719361 C19.8814657,22.6943511 22.5739774,20.0093168 23.4832969,16.5897412 L21.3882181,16.5897412 C20.5992778,18.8926528 18.7725233,20.7084236 16.4709896,21.4699592 L16.4709896,23.5719361 Z" id="Combined-Shape" fill="#37B9C4"></path>
                        </g>
                        <path d="M47.2978363,13.4520441 L48.3280817,13.4520441 L48.3280817,16.4494896 L49.9501702,16.4494896 L49.9501702,17.33982 L48.3280817,17.33982 L48.3280817,24.5218184 L47.2978363,24.5218184 L47.2978363,17.33982 L45.9022556,17.33982 L45.9022556,16.4494896 L47.2978363,16.4494896 L47.2978363,13.4520441 Z M51.4772716,13.3333333 L52.5002103,13.3333333 L52.5002103,17.8962765 C52.914259,17.3422904 53.3697057,16.9280436 53.8665642,16.6535237 C54.3634226,16.3790038 54.9016778,16.2417459 55.481346,16.2417459 C56.0756276,16.2417459 56.6029229,16.395079 57.0632476,16.7017499 C57.5235723,17.0084208 57.8633307,17.4201945 58.082533,17.9370833 C58.3017352,18.4539722 58.4113347,19.2639174 58.4113347,20.3669433 L58.4113347,24.5218184 L57.388396,24.5218184 L57.388396,20.6711395 C57.388396,19.7412343 57.3518628,19.1204823 57.2787954,18.8088651 C57.1521452,18.2746643 56.9219863,17.872783 56.5883118,17.6032094 C56.2546373,17.3336358 55.8174571,17.198851 55.2767582,17.198851 C54.6581208,17.198851 54.1040345,17.4065927 53.6144828,17.8220823 C53.1249312,18.2375719 52.8022216,18.7519799 52.6463444,19.3653216 C52.5489212,19.761026 52.5002103,20.4930681 52.5002103,21.5614699 L52.5002103,24.5218184 L51.4772716,24.5218184 L51.4772716,13.3333333 Z M67.2962881,21.8434078 L68.1584793,22.3034119 C67.8759519,22.8672906 67.549589,23.3223438 67.1793808,23.6685851 C66.8091726,24.0148264 66.3926945,24.2782132 65.9299342,24.4587533 C65.4671739,24.6392934 64.943532,24.7295621 64.3589926,24.7295621 C63.0632638,24.7295621 62.0500775,24.2980035 61.3194033,23.4348734 C60.5887292,22.5717432 60.2233976,21.5960993 60.2233976,20.5079123 C60.2233976,19.4840272 60.5327117,18.5714477 61.1513491,17.7701464 C61.935606,16.7512076 62.9853255,16.2417459 64.300539,16.2417459 C65.6547218,16.2417459 66.7361033,16.7635732 67.544716,17.8072435 C68.1195131,18.5442429 68.4117783,19.4642417 68.4215207,20.5672676 L61.2755631,20.5672676 C61.2950477,21.5070655 61.5897486,22.2774409 62.1596744,22.8784169 C62.7296003,23.4793929 63.4334725,23.7798764 64.2713122,23.7798764 C64.6756185,23.7798764 65.0689589,23.7081561 65.451345,23.5647132 C65.8337312,23.4212704 66.1588763,23.2308405 66.4267902,22.9934179 C66.694704,22.7559953 66.9845338,22.3726624 67.2962881,21.8434078 Z M67.2962881,19.6695178 C67.1598956,19.1155317 66.9613987,18.6728441 66.7007916,18.3414417 C66.4401845,18.0100393 66.095555,17.7429428 65.6668928,17.5401444 C65.2382307,17.3373459 64.787655,17.2359481 64.3151524,17.2359481 C63.5357666,17.2359481 62.865992,17.490679 62.3058085,18.0001484 C61.896631,18.3711212 61.5873169,18.9275722 61.377857,19.6695178 L67.2962881,19.6695178 Z M74.4860859,16.4494896 L75.5017179,16.4494896 L75.5017179,17.9333736 C75.9060242,17.3694949 76.3712131,16.9465922 76.8972985,16.6646528 C77.4233839,16.3827135 78.01035,16.2417459 78.6582145,16.2417459 C79.7883238,16.2417459 80.7552348,16.6547561 81.5589764,17.480789 C82.3627179,18.3068219 82.7645827,19.3010142 82.7645827,20.4633958 C82.7645827,21.6505089 82.3663713,22.6583033 81.5699364,23.4868093 C80.7735016,24.3153154 79.8126795,24.7295621 78.6874413,24.7295621 C78.0541903,24.7295621 77.4720953,24.5960139 76.9411388,24.3289135 C76.4101822,24.061813 75.93038,23.6636415 75.5017179,23.1343869 L75.5017179,27.4747475 L74.4860859,27.4747475 L74.4860859,16.4494896 Z M78.5778407,17.2433676 C77.6912894,17.2433676 76.9447951,17.5574532 76.3383356,18.1856339 C75.731876,18.8138146 75.4286508,19.595319 75.4286508,20.5301705 C75.4286508,21.1435123 75.5638235,21.695017 75.8341729,22.1847012 C76.1045224,22.6743853 76.4917739,23.0626644 76.9959391,23.3495501 C77.5001042,23.6364357 78.0322706,23.7798764 78.5924541,23.7798764 C79.1428953,23.7798764 79.6604484,23.6351992 80.1451289,23.3458404 C80.6298095,23.0564815 81.0158432,22.6521272 81.3032417,22.1327652 C81.5906402,21.6134032 81.7343373,21.0693179 81.7343373,20.5004929 C81.7343373,19.9267215 81.591858,19.3826362 81.306895,18.8682205 C81.0219321,18.3538048 80.6383339,17.9543967 80.156089,17.6699842 C79.673844,17.3855717 79.1477665,17.2433676 78.5778407,17.2433676 Z M84.2916841,16.4494896 L85.3365429,16.4494896 L85.3365429,17.6291774 C85.6482972,17.1642248 85.9770956,16.8167521 86.3229481,16.5867489 C86.6688005,16.3567458 87.029261,16.2417459 87.4043404,16.2417459 C87.6868678,16.2417459 87.9888752,16.3332512 88.3103718,16.5162644 L87.7769824,17.391756 C87.5626513,17.2977762 87.382421,17.250787 87.2362862,17.250787 C86.8953049,17.250787 86.5665065,17.3929911 86.249881,17.6774036 C85.9332555,17.9618161 85.6921367,18.4032672 85.5265172,19.0017701 C85.399867,19.4617764 85.3365429,20.3916677 85.3365429,21.7914719 L85.3365429,24.5218184 L84.2916841,24.5218184 L84.2916841,16.4494896 Z M92.9428229,16.2417459 C94.1654843,16.2417459 95.1786706,16.6918529 95.9824122,17.5920803 C96.7130863,18.4131669 97.0784179,19.3851011 97.0784179,20.5079123 C97.0784179,21.6356697 96.6923842,22.6212061 95.9203052,23.4645511 C95.1482261,24.307896 94.155742,24.7295621 92.9428229,24.7295621 C91.7250326,24.7295621 90.7301129,24.307896 89.9580338,23.4645511 C89.1859548,22.6212061 88.7999211,21.6356697 88.7999211,20.5079123 C88.7999211,19.3900474 89.1652527,18.4205863 89.8959268,17.5994997 C90.6996684,16.694326 91.7152903,16.2417459 92.9428229,16.2417459 Z M92.9428229,17.2582064 C92.0952408,17.2582064 91.3670132,17.5772383 90.758118,18.2153116 C90.1492229,18.8533849 89.8447799,19.6249968 89.8447799,20.5301705 C89.8447799,21.1138345 89.9836059,21.6579198 90.2612621,22.1624429 C90.5389183,22.666966 90.9139921,23.0564816 91.3864947,23.3310015 C91.8589973,23.6055214 92.3777682,23.7427793 92.9428229,23.7427793 C93.5078775,23.7427793 94.0266484,23.6055214 94.499151,23.3310015 C94.9716537,23.0564816 95.3467274,22.666966 95.6243836,22.1624429 C95.9020398,21.6579198 96.0408658,21.1138345 96.0408658,20.5301705 C96.0408658,19.6249968 95.735205,18.8533849 95.1238743,18.2153116 C94.5125436,17.5772383 93.7855337,17.2582064 92.9428229,17.2582064 Z M98.9927747,16.4494896 L100.008407,16.4494896 L100.008407,17.9333736 C100.412713,17.3694949 100.877902,16.9465922 101.403987,16.6646528 C101.930073,16.3827135 102.517039,16.2417459 103.164903,16.2417459 C104.295013,16.2417459 105.261924,16.6547561 106.065665,17.480789 C106.869407,18.3068219 107.271271,19.3010142 107.271271,20.4633958 C107.271271,21.6505089 106.87306,22.6583033 106.076625,23.4868093 C105.28019,24.3153154 104.319368,24.7295621 103.19413,24.7295621 C102.560879,24.7295621 101.978784,24.5960139 101.447828,24.3289135 C100.916871,24.061813 100.437069,23.6636415 100.008407,23.1343869 L100.008407,27.4747475 L98.9927747,27.4747475 L98.9927747,16.4494896 Z M103.084529,17.2433676 C102.197978,17.2433676 101.451484,17.5574532 100.845024,18.1856339 C100.238565,18.8138146 99.9353396,19.595319 99.9353396,20.5301705 C99.9353396,21.1435123 100.070512,21.695017 100.340862,22.1847012 C100.611211,22.6743853 100.998463,23.0626644 101.502628,23.3495501 C102.006793,23.6364357 102.538959,23.7798764 103.099143,23.7798764 C103.649584,23.7798764 104.167137,23.6351992 104.651818,23.3458404 C105.136498,23.0564815 105.522532,22.6521272 105.80993,22.1327652 C106.097329,21.6134032 106.241026,21.0693179 106.241026,20.5004929 C106.241026,19.9267215 106.098547,19.3826362 105.813584,18.8682205 C105.528621,18.3538048 105.145023,17.9543967 104.662778,17.6699842 C104.180533,17.3855717 103.654455,17.2433676 103.084529,17.2433676 Z M115.87857,21.8434078 L116.740761,22.3034119 C116.458234,22.8672906 116.131871,23.3223438 115.761663,23.6685851 C115.391455,24.0148264 114.974977,24.2782132 114.512216,24.4587533 C114.049456,24.6392934 113.525814,24.7295621 112.941275,24.7295621 C111.645546,24.7295621 110.632359,24.2980035 109.901685,23.4348734 C109.171011,22.5717432 108.80568,21.5960993 108.80568,20.5079123 C108.80568,19.4840272 109.114994,18.5714477 109.733631,17.7701464 C110.517888,16.7512076 111.567608,16.2417459 112.882821,16.2417459 C114.237004,16.2417459 115.318385,16.7635732 116.126998,17.8072435 C116.701795,18.5442429 116.99406,19.4642417 117.003803,20.5672676 L109.857845,20.5672676 C109.87733,21.5070655 110.172031,22.2774409 110.741956,22.8784169 C111.311882,23.4793929 112.015754,23.7798764 112.853594,23.7798764 C113.257901,23.7798764 113.651241,23.7081561 114.033627,23.5647132 C114.416013,23.4212704 114.741158,23.2308405 115.009072,22.9934179 C115.276986,22.7559953 115.566816,22.3726624 115.87857,21.8434078 Z M115.87857,19.6695178 C115.742178,19.1155317 115.543681,18.6728441 115.283074,18.3414417 C115.022466,18.0100393 114.677837,17.7429428 114.249175,17.5401444 C113.820513,17.3373459 113.369937,17.2359481 112.897434,17.2359481 C112.118049,17.2359481 111.448274,17.490679 110.888091,18.0001484 C110.478913,18.3711212 110.169599,18.9275722 109.960139,19.6695178 L115.87857,19.6695178 Z M118.523597,16.4494896 L119.568456,16.4494896 L119.568456,17.6291774 C119.88021,17.1642248 120.209009,16.8167521 120.554861,16.5867489 C120.900714,16.3567458 121.261174,16.2417459 121.636254,16.2417459 C121.918781,16.2417459 122.220788,16.3332512 122.542285,16.5162644 L122.008896,17.391756 C121.794565,17.2977762 121.614334,17.250787 121.468199,17.250787 C121.127218,17.250787 120.79842,17.3929911 120.481794,17.6774036 C120.165169,17.9618161 119.92405,18.4032672 119.75843,19.0017701 C119.63178,19.4617764 119.568456,20.3916677 119.568456,21.7914719 L119.568456,24.5218184 L118.523597,24.5218184 L118.523597,16.4494896 Z M124.303201,13.4520441 L125.333446,13.4520441 L125.333446,16.4494896 L126.955535,16.4494896 L126.955535,17.33982 L125.333446,17.33982 L125.333446,24.5218184 L124.303201,24.5218184 L124.303201,17.33982 L122.90762,17.33982 L122.90762,16.4494896 L124.303201,16.4494896 L124.303201,13.4520441 Z M127.627752,16.4494896 L128.709144,16.4494896 L131.441852,22.6669634 L134.094186,16.4494896 L135.182885,16.4494896 L130.440833,27.4747475 L129.359441,27.4747475 L130.893849,23.913426 L127.627752,16.4494896 Z M148.364181,18.1262785 L147.553137,18.6382185 C146.851689,17.6934743 145.894521,17.2211093 144.681601,17.2211093 C143.71224,17.2211093 142.907293,17.5376681 142.266735,18.170795 C141.626178,18.803922 141.305904,19.5730609 141.305904,20.4782346 C141.305904,21.0668448 141.453254,21.6208227 141.747959,22.1401846 C142.042665,22.6595466 142.446965,23.0626644 142.960872,23.3495501 C143.47478,23.6364357 144.050786,23.7798764 144.688908,23.7798764 C145.857987,23.7798764 146.81272,23.3075114 147.553137,22.3627672 L148.364181,22.9043849 C147.98423,23.4831025 147.473984,23.9319729 146.833426,24.2510096 C146.192868,24.5700462 145.463423,24.7295621 144.645068,24.7295621 C143.388308,24.7295621 142.345896,24.3239713 141.517798,23.5127773 C140.689701,22.7015833 140.275658,21.7148104 140.275658,20.5524288 C140.275658,19.7709127 140.469284,19.0450534 140.856541,18.3748291 C141.243799,17.7046048 141.775965,17.1815409 142.453056,16.8056218 C143.130148,16.4297027 143.887602,16.2417459 144.725442,16.2417459 C145.251527,16.2417459 145.759338,16.3233587 146.24889,16.4865867 C146.738441,16.6498148 147.153702,16.8625027 147.494683,17.1246569 C147.835664,17.386811 148.125494,17.7206815 148.364181,18.1262785 Z M149.942429,16.4494896 L150.987288,16.4494896 L150.987288,17.6291774 C151.299042,17.1642248 151.627841,16.8167521 151.973693,16.5867489 C152.319546,16.3567458 152.680006,16.2417459 153.055085,16.2417459 C153.337613,16.2417459 153.63962,16.3332512 153.961117,16.5162644 L153.427727,17.391756 C153.213396,17.2977762 153.033166,17.250787 152.887031,17.250787 C152.54605,17.250787 152.217252,17.3929911 151.900626,17.6774036 C151.584001,17.9618161 151.342882,18.4032672 151.177262,19.0017701 C151.050612,19.4617764 150.987288,20.3916677 150.987288,21.7914719 L150.987288,24.5218184 L149.942429,24.5218184 L149.942429,16.4494896 Z M158.593568,16.2417459 C159.816229,16.2417459 160.829416,16.6918529 161.633157,17.5920803 C162.363831,18.4131669 162.729163,19.3851011 162.729163,20.5079123 C162.729163,21.6356697 162.343129,22.6212061 161.57105,23.4645511 C160.798971,24.307896 159.806487,24.7295621 158.593568,24.7295621 C157.375778,24.7295621 156.380858,24.307896 155.608779,23.4645511 C154.8367,22.6212061 154.450666,21.6356697 154.450666,20.5079123 C154.450666,19.3900474 154.815998,18.4205863 155.546672,17.5994997 C156.350413,16.694326 157.366035,16.2417459 158.593568,16.2417459 Z M158.593568,17.2582064 C157.745986,17.2582064 157.017758,17.5772383 156.408863,18.2153116 C155.799968,18.8533849 155.495525,19.6249968 155.495525,20.5301705 C155.495525,21.1138345 155.634351,21.6579198 155.912007,22.1624429 C156.189663,22.666966 156.564737,23.0564816 157.03724,23.3310015 C157.509742,23.6055214 158.028513,23.7427793 158.593568,23.7427793 C159.158623,23.7427793 159.677393,23.6055214 160.149896,23.3310015 C160.622399,23.0564816 160.997472,22.666966 161.275129,22.1624429 C161.552785,21.6579198 161.691611,21.1138345 161.691611,20.5301705 C161.691611,19.6249968 161.38595,18.8533849 160.774619,18.2153116 C160.163289,17.5772383 159.436279,17.2582064 158.593568,17.2582064 Z M163.554821,16.4494896 L164.606986,16.4494896 L167.040119,22.3108313 L169.590159,16.4494896 L169.772827,16.4494896 L172.31556,22.3108313 L174.792533,16.4494896 L175.859312,16.4494896 L172.410547,24.5218184 L172.213266,24.5218184 L169.685146,18.7420904 L167.135106,24.5218184 L166.945132,24.5218184 L163.554821,16.4494896 Z M185,13.3333333 L185,24.5218184 L183.991675,24.5218184 L183.991675,23.1343869 C183.563013,23.6636415 183.081993,24.061813 182.5486,24.3289135 C182.015208,24.5960139 181.431896,24.7295621 180.798645,24.7295621 C179.673406,24.7295621 178.712584,24.3153154 177.916149,23.4868093 C177.119715,22.6583033 176.721503,21.6505089 176.721503,20.4633958 C176.721503,19.3010142 177.123368,18.3068219 177.927109,17.480789 C178.730851,16.6547561 179.697762,16.2417459 180.827871,16.2417459 C181.480607,16.2417459 182.071226,16.3827135 182.599747,16.6646528 C183.128268,16.9465922 183.592239,17.3694949 183.991675,17.9333736 L183.991675,13.3333333 L185,13.3333333 Z M180.908245,17.2433676 C180.338319,17.2433676 179.812242,17.3855717 179.329997,17.6699842 C178.847752,17.9543967 178.464154,18.3538048 178.179191,18.8682205 C177.894228,19.3826362 177.751749,19.9267215 177.751749,20.5004929 C177.751749,21.0693179 177.895446,21.6134032 178.182844,22.1327652 C178.470243,22.6521272 178.856276,23.0564815 179.340957,23.3458404 C179.825637,23.6351992 180.345626,23.7798764 180.900938,23.7798764 C181.461122,23.7798764 181.992071,23.6364357 182.4938,23.3495501 C182.99553,23.0626644 183.381563,22.6743853 183.651913,22.1847012 C183.922262,21.695017 184.057435,21.1435123 184.057435,20.5301705 C184.057435,19.595319 183.75421,18.8138146 183.14775,18.1856339 C182.541291,17.5574532 181.794796,17.2433676 180.908245,17.2433676 Z" id="thepropertycrowd" fill="#FFFFFF" fill-rule="nonzero"></path>
                    </g>
                </g>
            </g>
        </g>
    </g>
</svg>