<?xml version="1.0" encoding="UTF-8"?>
<svg width="46px" height="46px" viewBox="0 0 46 46" version="1.1" xmlns="http://www.w3.org/2000/svg" xmlns:xlink="http://www.w3.org/1999/xlink">
    <!-- Generator: Sketch 55.2 (78181) - https://sketchapp.com -->
    <title>noun_service_1235555</title>
    <desc>Created with Sketch.</desc>
    <g id="Fees-Cost" stroke="none" stroke-width="1" fill="none" fill-rule="evenodd">
        <g id="Our-Fees" transform="translate(-1050.000000, -1021.000000)" fill="#208389">
            <g id="Group-9-Copy-3" transform="translate(912.000000, 984.000000)">
                <g id="Group-14" transform="translate(43.000000, 37.000000)">
                    <g id="noun_service_1235555" transform="translate(95.000000, 0.000000)">
                        <path d="M44.9317778,28.195 L40.526,24.825 C40.6757691,23.6127442 40.6757691,22.3872558 40.526,21.175 L44.9368889,17.8 C45.6641131,17.2275581 45.8590208,16.2233597 45.3968889,15.43 L40.8888889,7.835 C40.4301636,7.03967934 39.4502205,6.68627342 38.5735556,7 L33.3755556,9.055 C32.3723953,8.33521522 31.2928222,7.72334536 30.1555556,7.23 L29.3633333,1.83 C29.2374256,0.920672435 28.4408936,0.244210095 27.5028889,0.249917098 L18.5073333,0.249917098 C17.5718911,0.24133085 16.7753475,0.913521576 16.6468889,1.82 L15.8444444,7.23 C14.7107239,7.72905986 13.6332716,8.34237426 12.6295556,9.06 L7.43155556,7 C6.55732181,6.664907 5.56461534,7.01571019 5.11111111,7.82 L0.623555556,15.425 C0.147438328,16.2183291 0.341478443,17.2335561 1.07844444,17.805 L5.48422222,21.175 C5.33445313,22.3872558 5.33445313,23.6127442 5.48422222,24.825 L1.07333333,28.2 C0.346109083,28.7724419 0.151201382,29.7766403 0.613333333,30.57 L5.11111111,38.165 C5.56915208,38.9669439 6.55706269,39.3216571 7.43666667,39 L12.6346667,36.96 C13.6353267,37.6739192 14.7114135,38.2807267 15.8444444,38.77 L16.6366667,44.17 C16.7625744,45.0793276 17.5591064,45.7557899 18.4971111,45.7500898 L27.4926667,45.7500898 C28.4264157,45.7590045 29.2223226,45.08949 29.3531111,44.185 L30.1555556,38.77 C31.2891573,38.2707142 32.3665862,37.6574131 33.3704444,36.94 L38.5786667,39 C39.4500138,39.3292507 40.4360956,38.9792467 40.8888889,38.18 L45.3968889,30.55 C45.8512633,29.7593338 45.6545242,28.7631835 44.9317778,28.195 Z M44.068,29.82 L39.56,37.445 C39.4807448,37.5903982 39.3015795,37.6531493 39.146,37.59 L33.5237778,35.39 C33.2751668,35.2918538 32.9922083,35.3278766 32.7775556,35.485 C31.6629995,36.320719 30.4434064,37.0130416 29.1486667,37.545 C28.8971101,37.6448104 28.7182623,37.8673137 28.6784444,38.13 L27.8453333,44 C27.8148803,44.1596147 27.6686789,44.2727524 27.5028889,44.2653753 L18.5073333,44.2653753 C18.3365533,44.2717363 18.1884158,44.1506115 18.1648889,43.985 L17.3113333,38.14 C17.278142,37.8810434 17.1097281,37.6575857 16.8666667,37.55 C15.5620821,37.0291926 14.3347166,36.3397244 13.2173333,35.5 C13.0838778,35.3998146 12.9204435,35.3453495 12.7522222,35.345 C12.6540708,35.3449942 12.5568564,35.3636748 12.466,35.4 L6.88977778,37.585 C6.72274295,37.6453876 6.5354742,37.5801102 6.44511111,37.43 L1.95244444,29.835 C1.86289712,29.6804624 1.90196404,29.4851278 2.04444444,29.375 L6.78755556,25.745 C6.99948762,25.5818127 7.10817835,25.3216891 7.07377778,25.06 C6.97864752,24.3754733 6.92743616,23.6857899 6.92044444,22.995 C6.92743616,22.3042101 6.97864752,21.6145267 7.07377778,20.93 C7.10817835,20.6683109 6.99948762,20.4081873 6.78755556,20.245 L2.04444444,16.625 C1.90570997,16.5184544 1.87055285,16.3271443 1.96266667,16.18 L6.47066667,8.55 C6.54992182,8.40460183 6.72908714,8.34185069 6.88466667,8.405 L12.5068889,10.605 C12.7453383,10.6856698 13.0090956,10.6464054 13.2122222,10.5 C14.3351019,9.66564899 15.5634042,8.97661957 16.8666667,8.45 C17.1182232,8.35018964 17.2970711,8.1276863 17.3368889,7.865 L18.1648889,2 C18.1953419,1.84038529 18.3415433,1.72724762 18.5073333,1.73462465 L27.5028889,1.73462465 C27.6736689,1.72826368 27.8218064,1.84938847 27.8453333,2.015 L28.6988889,7.845 C28.7387067,8.1076863 28.9175546,8.33018964 29.1691111,8.43 C30.4658086,8.9591898 31.6844963,9.65533722 32.7928889,10.5 C33.0073626,10.6616028 33.2934106,10.6996748 33.5442222,10.6 L39.1204444,8.41 C39.2874793,8.34961244 39.474748,8.41488977 39.5651111,8.565 L44.0577778,16.165 C44.1520313,16.3148385 44.1217707,16.5093712 43.9862222,16.625 L39.2431111,20.255 C39.031179,20.4181873 38.9224883,20.6783109 38.9568889,20.94 C39.0519792,21.6245308 39.1031904,22.3142117 39.1102222,23.005 C39.1031904,23.6957883 39.0519792,24.3854692 38.9568889,25.07 C38.9224883,25.3316891 39.031179,25.5918127 39.2431111,25.755 L43.9862222,29.38 C44.1163597,29.4893248 44.1504711,29.6728595 44.068,29.82 Z" id="Shape"></path>
                        <path d="M23,10.7599234 C17.0368057,10.7667544 11.9085883,14.892647 10.7506564,20.6151744 C9.59272451,26.3377017 12.7274556,32.0636665 18.2383261,34.292307 C23.7491966,36.5209475 30.1019362,34.6317925 33.4125834,29.7798406 C36.7232305,24.9278886 36.0700746,18.4639619 31.8524444,14.34 C29.5090258,12.0376525 26.3212174,10.7484771 23,10.7599234 Z M16.6417778,31.76 C15.6248598,31.0679906 14.7436163,30.2025172 14.0402222,29.205 C14.0913219,29.1805127 14.1393463,29.1503109 14.1833333,29.115 L18.7833333,24.615 C18.9999683,24.4044673 19.0682325,24.0882437 18.9571111,23.81 C18.2301138,21.9022526 18.6399058,19.7576922 20.022277,18.2356779 C21.4046481,16.7136637 23.5334182,16.0632239 25.5555556,16.545 L22.1873333,19.92 C21.8917682,20.2122341 21.8917682,20.6827659 22.1873333,20.975 L25.1108889,23.835 C25.4102135,24.1274534 25.8951198,24.1274534 26.1944444,23.835 L29.5166667,20.585 C29.9580994,22.4336625 29.3984003,24.3745679 28.0344444,25.725 C26.5031978,27.2571331 24.1902255,27.7575547 22.1413333,27 C21.8570234,26.8899231 21.532982,26.9568666 21.3184444,27.17 L16.7184444,31.67 C16.6925685,31.694867 16.6686487,31.7216097 16.6468889,31.75 L16.6417778,31.76 Z M30.774,30.6 C27.3964512,33.889556 22.2375081,34.6768556 17.9962222,32.55 L22.0851111,28.55 C24.5874005,29.2815701 27.2981287,28.6027556 29.1333333,26.785 C31.2391552,24.6984509 31.8049536,21.5546597 30.5542222,18.89 C30.4498655,18.6672382 30.2408503,18.5083947 29.9944049,18.4645606 C29.7479595,18.4207264 29.4951659,18.4974299 29.3173333,18.67 L25.6731111,22.235 L23.8177778,20.435 L27.4773333,16.775 C27.6485568,16.6038053 27.7259024,16.3629062 27.6854886,16.1266832 C27.6450748,15.8904603 27.4917626,15.6873258 27.2728889,15.58 C24.7304533,14.4223568 21.7311027,14.8242944 19.6005667,16.6081542 C17.4700307,18.392014 16.601073,21.2289418 17.3777778,23.865 L13.2377778,27.91 C10.6685267,23.0167548 12.2940926,17.0154777 17.0031616,14.0089262 C21.7122305,11.0023747 27.9822118,11.9626618 31.5266492,16.2332898 C35.0710866,20.5039177 34.7439514,26.7040576 30.7688889,30.595 L30.774,30.6 Z" id="Shape"></path>
                    </g>
                </g>
            </g>
        </g>
    </g>
</svg>