<?xml version="1.0" encoding="UTF-8"?>
<svg width="56px" height="49px" viewBox="0 0 56 49" version="1.1" xmlns="http://www.w3.org/2000/svg" xmlns:xlink="http://www.w3.org/1999/xlink">
    <!-- Generator: Sketch 55.2 (78181) - https://sketchapp.com -->
    <title>noun_management_1133711</title>
    <desc>Created with Sketch.</desc>
    <g id="Fees-Cost" stroke="none" stroke-width="1" fill="none" fill-rule="evenodd">
        <g id="Our-Fees" transform="translate(-697.000000, -1024.000000)" fill="#208389">
            <g id="Group-9-Copy-2" transform="translate(560.000000, 984.000000)">
                <g id="Group-13" transform="translate(43.000000, 40.000000)">
                    <g id="noun_management_1133711" transform="translate(94.000000, 0.000000)">
                        <path d="M28.2996521,32.0447145 C31.0410591,33.1786171 33.4780195,35.0198949 35.2905679,37.3526254 C37.569312,40.2856354 38.7738505,43.7896159 38.7738505,47.485775 L38.7738505,48.0724976 C38.7738505,48.5848499 38.3501739,49 37.8275806,49 L5.54791731,49 C5.02532398,49 4.60164741,48.5848499 4.60164741,48.0724976 L4.60164741,47.485775 C4.60164741,43.822264 5.78662966,40.3431406 8.02878463,37.4241049 C9.80827671,35.1072038 12.2049891,33.2654313 14.904634,32.1140916 C11.7978407,29.7184147 9.87047818,25.7301542 9.87047818,21.46253 C9.87047818,21.2942192 9.8745156,21.1271451 9.88044556,20.9605657 C4.36142103,20.5436843 -7.10542736e-15,16.012031 -7.10542736e-15,10.4974726 C-7.10542736e-15,4.70911536 4.80452768,4.97379915e-14 10.7100088,4.97379915e-14 C15.9228204,4.97379915e-14 20.2751573,3.6696943 21.2253384,8.51125701 C21.3344749,8.50779433 21.444116,8.50593933 21.5540095,8.50593933 C27.9964673,8.50593933 33.2377931,14.3181643 33.2377931,21.46253 C33.2377931,23.9272131 32.611741,26.3246214 31.4273896,28.3955489 C30.6047656,29.8339196 29.5414106,31.0710842 28.2996521,32.0447145 Z M1.89253979,10.4975962 C1.89253979,15.2632274 5.84807412,19.1403112 10.7100088,19.1403112 C15.5719435,19.1403112 19.527604,15.2632274 19.527604,10.4975962 C19.527604,5.73221238 15.5719435,1.85512854 10.7100088,1.85512854 C5.84807412,1.85512854 1.89253979,5.73221238 1.89253979,10.4975962 Z M6.4941872,47.1449951 L36.8815631,47.1449951 L36.8815631,47.485775 C36.8815631,40.9104011 32.3866549,35.032138 25.9508841,33.1907365 C25.5838575,33.0857432 25.3173879,32.7747207 25.2753736,32.4022357 C25.2334853,32.0297507 25.4242533,31.6692615 25.7588544,31.488213 C29.1525567,29.6534895 31.3453795,25.7181585 31.3453795,21.4624063 C31.3453795,15.3410139 26.953047,10.3608205 21.5541357,10.3608205 C21.50821,10.3608205 21.4624106,10.3623045 21.4167373,10.3630465 C21.4172419,10.4079377 21.4201438,10.4523341 21.4201438,10.4973489 C21.4201438,15.9335025 17.1823687,20.4172966 11.7750041,20.9428813 C11.7678124,21.1151494 11.763018,21.2881595 11.763018,21.4624063 C11.763018,25.762184 13.9894018,29.7147047 17.4353382,31.5319911 C17.7718318,31.7094532 17.9663849,32.0679638 17.9285341,32.4406962 C17.8906833,32.8134285 17.6277464,33.1271716 17.2622339,33.2362459 C10.8215425,35.1560523 6.4941872,40.8824523 6.4941872,47.485775 L6.4941872,47.1449951 Z M11.6562787,10.5820608 L15.6500424,8.20307887 L16.6329014,9.78824236 L11.2015645,13.0236182 C11.050666,13.1135241 10.8804636,13.1585389 10.7100088,13.1585389 C10.5501523,13.1585389 10.3904219,13.1189654 10.2460842,13.0394476 C9.94819848,12.8752178 9.76373894,12.566174 9.76373894,12.2310364 L9.76373894,4.34652374 L11.6562787,4.34652374 L11.6562787,10.5820608 Z M41.769741,12.1666059 L56,12.1666059 L56,14.0216108 L41.769741,14.0216108 L41.769741,12.1666059 Z M41.769741,19.1395692 L56,19.1395692 L56,20.9945741 L41.769741,20.9945741 L41.769741,19.1395692 Z M41.769741,26.1138929 L56,26.1138929 L56,27.9688978 L41.769741,27.9688978 L41.769741,26.1138929 Z M36.337521,12.1666059 L38.7916404,12.1666059 L38.7916404,14.0216108 L36.337521,14.0216108 L36.337521,12.1666059 Z M36.337521,19.1395692 L38.7916404,19.1395692 L38.7916404,20.9945741 L36.337521,20.9945741 L36.337521,19.1395692 Z M36.337521,26.1138929 L38.7916404,26.1138929 L38.7916404,27.9688978 L36.337521,27.9688978 L36.337521,26.1138929 Z" id="Combined-Shape"></path>
                    </g>
                </g>
            </g>
        </g>
    </g>
</svg>