<?xml version="1.0" encoding="UTF-8"?>
<svg width="45px" height="46px" viewBox="0 0 45 46" version="1.1" xmlns="http://www.w3.org/2000/svg" xmlns:xlink="http://www.w3.org/1999/xlink">
    <!-- Generator: Sketch 55.2 (78181) - https://sketchapp.com -->
    <title>noun_management_939453</title>
    <desc>Created with Sketch.</desc>
    <g id="Fees-Cost" stroke="none" stroke-width="1" fill="none" fill-rule="evenodd">
        <g id="Our-Fees" transform="translate(-347.000000, -1023.000000)" fill="#208389">
            <g id="Group-9" transform="translate(208.000000, 984.000000)">
                <g id="Group-6" transform="translate(43.000000, 38.000000)">
                    <g id="noun_management_939453" transform="translate(96.000000, 0.000000)">
                        <g id="Group" transform="translate(0.000000, 1.066667)">
                            <path d="M5.90651163,29.0496 C6.66366279,31.184 6.01587209,33.5914667 4.29488372,35.04 L3.70517442,35.5365333 L4.14680233,36.1728 C5.22,37.7210667 6.47895349,39.1285333 7.88860465,40.3552 L8.47098837,40.8618667 L9.00994186,40.3077333 C10.5812791,38.6922667 12.9934884,38.2544 15.0106395,39.2176 C17.0272674,40.1813333 18.2396512,42.3509333 18.026686,44.6165333 L17.9534302,45.3930667 L18.7079651,45.5253333 C19.9559302,45.7434667 21.2211628,45.8528 22.4874419,45.8528 C23.0771512,45.8528 23.6668605,45.8288 24.2555233,45.7813333 L25.017907,45.7194667 L25.0152907,44.9402667 C25.0063953,42.6650667 26.4076744,40.6181333 28.5017442,39.8458667 C30.5963372,39.072 32.9577907,39.7338667 34.3789535,41.488 L34.8661047,42.0896 L35.4908721,41.6394667 C37.0093605,40.5461333 38.3902326,39.2629333 39.5942442,37.8256 L40.0913372,37.2325333 L39.5476744,36.6832 C37.9622093,35.0805333 37.532093,32.6229333 38.4776163,30.5669333 L38.4776163,30.5669333 C39.4231395,28.5109333 41.555407,27.2805333 43.7745349,27.4922667 L44.5369186,27.5669333 L44.6661628,26.7984 C44.979593,24.9354667 45.0643605,23.0325333 44.9178488,21.1434667 L44.8571512,20.3658667 L44.0921512,20.3690667 C44.0848256,20.3690667 44.0780233,20.3690667 44.0701744,20.3690667 C41.8468605,20.3690667 39.8490698,18.9434667 39.0940116,16.8154667 C38.3368605,14.6810667 38.9846512,12.2736 40.7056395,10.8250667 L41.2953488,10.3285333 L40.8537209,9.69226667 C39.7815698,8.1456 38.5226163,6.73813333 37.1119186,5.50986667 L36.5300581,5.0032 L35.9911047,5.55733333 C34.4187209,7.1728 32.0075581,7.61173333 29.990407,6.648 C27.9737791,5.68373333 26.7613953,3.51413333 26.9743605,1.24906667 L27.0476163,0.472533333 L26.2930814,0.340266667 C24.4643023,0.0202666667 22.5983721,-0.0645333333 20.745,0.0842666667 L19.9826163,0.146133333 L19.9852326,0.925333333 C19.9941279,3.20053333 18.5928488,5.24746667 16.4987791,6.01973333 C14.4036628,6.79146667 12.0422093,6.1312 10.6215698,4.3776 L10.1344186,3.776 L9.50965116,4.22613333 C7.99116279,5.31946667 6.6102907,6.60266667 5.40627907,8.04 L4.90918605,8.63306667 L5.45284884,9.1824 C7.03831395,10.7845333 7.46843023,13.2426667 6.52238372,15.2986667 C5.57686047,17.3546667 3.44563953,18.5861333 1.22546512,18.3733333 L0.463081395,18.2986667 L0.333837209,19.0672 C0.0198837209,20.9301333 -0.0643604651,22.8325333 0.0821511628,24.7216 L0.142848837,25.4992 L0.907325581,25.496 C0.914651163,25.496 0.920930233,25.496 0.928255814,25.496 C3.15209302,25.496 5.15093023,26.9221333 5.90651163,29.0496 Z M1.85075581,20.0773333 C4.47331395,20.0309333 6.88709302,18.4672 8.01627907,16.0122667 C9.14598837,13.5568 8.78075581,10.6656 7.13825581,8.58133333 C7.9744186,7.6512 8.89325581,6.7968 9.88116279,6.03253333 C11.7675,7.888 14.5590698,8.52266667 17.0602326,7.60053333 C19.5608721,6.6784 21.3085465,4.37066667 21.5942442,1.71466667 C22.8338372,1.65813333 24.075,1.71573333 25.3020349,1.88586667 C25.3480814,4.5584 26.8817442,7.01866667 29.2902907,8.1696 C31.6993605,9.3216 34.535407,8.94933333 36.580814,7.27413333 C37.4938953,8.12746667 38.3316279,9.06346667 39.0814535,10.0698667 C37.2605233,11.9925333 36.6388953,14.8373333 37.5430814,17.3872 C38.4477907,19.9365333 40.7113953,21.7178667 43.3177326,22.0085333 C43.3726744,23.2714667 43.316686,24.5376 43.1497674,25.7882667 C40.5277326,25.8352 38.1134302,27.3989333 36.9842442,29.8533333 C35.8550581,32.3082667 36.2202907,35.1994667 37.8622674,37.2842667 C37.0255814,38.2144 36.1072674,39.0688 35.1193605,39.8330667 C33.2325,37.9765333 30.4414535,37.3429333 27.9402907,38.2650667 C25.4391279,39.1872 23.6914535,41.4949333 23.4062791,44.1509333 C22.1677326,44.2074667 20.9255233,44.1498667 19.6984884,43.9797333 C19.6524419,41.3066667 18.1187791,38.8464 15.7102326,37.696 C13.3011628,36.5445333 10.4651163,36.9168 8.4197093,38.5909333 C7.50715116,37.7386667 6.6694186,36.8021333 5.91906977,35.7952 C7.74,33.8725333 8.36162791,31.0277333 7.45744186,28.4778667 C6.55273256,25.9290667 4.28912791,24.1477333 1.6827907,23.8570667 C1.62784884,22.5941333 1.68383721,21.328 1.85075581,20.0773333 Z" id="Shape"></path>
                            <path d="M22.5,24.448 C25.989593,24.448 28.8293023,21.5541333 28.8293023,17.9968 C28.8293023,14.4394667 25.989593,11.5461333 22.5,11.5461333 C19.010407,11.5461333 16.1706977,14.44 16.1706977,17.9973333 C16.1706977,21.5546667 19.010407,24.448 22.5,24.448 Z M22.5,13.2272 C25.0806977,13.2272 27.1794767,15.3669333 27.1794767,17.9968 C27.1794767,20.6266667 25.0806977,22.7669333 22.5,22.7669333 C19.9193023,22.7669333 17.8205233,20.6272 17.8205233,17.9973333 C17.8205233,15.3674667 19.9193023,13.2272 22.5,13.2272 Z" id="Shape"></path>
                            <path d="M14.5826163,33.4789333 C14.5826163,30.3616 17.0706977,27.8256 20.1291279,27.8256 L24.8713953,27.8256 C27.9298256,27.8256 30.417907,30.3616 30.417907,33.4789333 L31.2425581,33.4789333 L32.0672093,33.4789333 C32.0672093,29.4346667 28.8392442,26.1445333 24.8713953,26.1445333 L20.1291279,26.1445333 C16.1612791,26.1445333 12.933314,29.4346667 12.933314,33.4789333 L13.7579651,33.4789333 L14.5826163,33.4789333 Z" id="Path"></path>
                        </g>
                    </g>
                </g>
            </g>
        </g>
    </g>
</svg>