<?xml version="1.0" encoding="UTF-8"?>
<svg width="28px" height="42px" viewBox="0 0 28 42" version="1.1" xmlns="http://www.w3.org/2000/svg" xmlns:xlink="http://www.w3.org/1999/xlink">
    <!-- Generator: Sketch 55.2 (78181) - https://sketchapp.com -->
    <title>2</title>
    <desc>Created with Sketch.</desc>
    <g id="How-do-I-sell" stroke="none" stroke-width="1" fill="none" fill-rule="evenodd" opacity="0.200000003">
        <g id="How-do-I-sell-my-PropertyShares?" transform="translate(-1165.000000, -843.000000)" fill="#14A1A8">
            <g id="Group-9-Copy" transform="translate(753.000000, 812.000000)">
                <g id="Clip-26">
                    <path d="M440,63.4438202 L440,73 L418.970213,73 C414.680851,73 412,71.2303371 412,66.6292135 C412,60.7303371 429.276596,48.6966292 429.276596,44.0955056 C429.276596,41.3820225 427.965957,40.3202247 425.642553,40.3202247 C423.73617,40.3202247 422.068085,41.6179775 422.068085,43.9775281 C422.068085,45.5702247 422.782979,46.9269663 423.974468,47.8707865 L417.242553,54.4775281 C414.323404,52.2359551 412.53617,49.0505618 412.53617,44.9213483 C412.53617,36.8988764 417.719149,31 425.761702,31 C433.804255,31 439.285106,36.1910112 439.285106,44.6853933 C439.285106,50.5842697 436.12766,52.8258427 425.821277,63.4438202 L440,63.4438202 Z" id="2"></path>
                </g>
            </g>
        </g>
    </g>
</svg>