<?xml version="1.0" encoding="UTF-8"?>
<svg width="28px" height="42px" viewBox="0 0 28 42" version="1.1" xmlns="http://www.w3.org/2000/svg" xmlns:xlink="http://www.w3.org/1999/xlink">
    <!-- Generator: Sketch 55.2 (78181) - https://sketchapp.com -->
    <title>3</title>
    <desc>Created with Sketch.</desc>
    <g id="How-do-I-sell" stroke="none" stroke-width="1" fill="none" fill-rule="evenodd" opacity="0.200000003">
        <g id="How-do-I-sell-my-PropertyShares?" transform="translate(-624.000000, -1245.000000)" fill="#14A1A8">
            <g id="Group-9-Copy-2" transform="translate(207.000000, 1222.000000)">
                <g id="Clip-26">
                    <path d="M417,64.6744186 L417,55.0297674 L429.858369,55.0297674 C433.703863,55.0297674 434.905579,53.8390698 434.905579,50.9218605 C434.905579,48.8381395 433.643777,47.052093 431.420601,47.052093 L422.407725,47.052093 L422.407725,40.9795349 L432.021459,32.4065116 L418.141631,32.4065116 L418.141631,23 L434.124464,23 C439.652361,23 442.957082,24.7860465 442.957082,29.7869767 C442.957082,33.5376744 437.7897,37.5860465 435.686695,39.7888372 C441.334764,40.92 445,45.504186 445,51.16 C445,60.6260465 438.690987,64.6744186 429.55794,64.6744186 L417,64.6744186 Z" id="3"></path>
                </g>
            </g>
        </g>
    </g>
</svg>