<?xml version="1.0" encoding="UTF-8"?>
<svg width="28px" height="39px" viewBox="0 0 28 39" version="1.1" xmlns="http://www.w3.org/2000/svg" xmlns:xlink="http://www.w3.org/1999/xlink">
    <!-- Generator: Sketch 55.2 (78181) - https://sketchapp.com -->
    <title>4</title>
    <desc>Created with Sketch.</desc>
    <g id="How-do-I-sell" stroke="none" stroke-width="1" fill="none" fill-rule="evenodd" opacity="0.200000003">
        <g id="How-do-I-sell-my-PropertyShares?" transform="translate(-1180.000000, -1247.000000)" fill="#14A1A8">
            <g id="Group-9-Copy-3" transform="translate(759.000000, 1221.000000)">
                <g id="Clip-26">
                    <path d="M449,48.3403871 L449,57.1247141 L444.824092,57.1247141 L444.824092,64.6076593 L436.57935,64.6076593 L436.57935,57.1247141 L426.728489,57.1247141 C423.730402,57.1247141 421,54.847296 421,51.1600476 C421,49.8586658 421.535373,47.9065932 422.606119,46.062969 L433.260038,26.9760363 L442.040153,26.9760363 L430.047801,48.3403871 L436.57935,48.3403871 L436.57935,40.206751 L444.07457,27.0844848 C444.449331,26.4880182 444.717017,26 444.770554,26 C444.824092,26 444.824092,26.6506909 444.824092,27.3013818 L444.824092,48.3403871 L449,48.3403871 Z" id="4"></path>
                </g>
            </g>
        </g>
    </g>
</svg>