<?xml version="1.0" encoding="UTF-8"?>
<svg width="50px" height="50px" viewBox="0 0 50 50" version="1.1" xmlns="http://www.w3.org/2000/svg" xmlns:xlink="http://www.w3.org/1999/xlink">
    <!-- Generator: Sketch 55.2 (78181) - https://sketchapp.com -->
    <title>bank-icon</title>
    <desc>Created with Sketch.</desc>
    <g id="How-do-I-sell" stroke="none" stroke-width="1" fill="none" fill-rule="evenodd">
        <g id="How-do-I-sell-my-PropertyShares?" transform="translate(-985.000000, -1276.000000)" fill="#208389">
            <g id="Group-9-Copy-3" transform="translate(759.000000, 1221.000000)">
                <g id="Group-3" transform="translate(40.000000, 55.000000)">
                    <g id="Group-34">
                        <g id="bank-icon" transform="translate(186.000000, 0.000000)">
                            <path d="M48.2084615,38.0515385 C48.9053846,39.2084615 49.2469231,40.4723077 49.2307692,41.7607692 L49.1946154,44.6815385 C49.1576923,47.6146154 46.7423077,50 43.81,50 L30,50 C27.0315385,50 24.6153846,47.5846154 24.6153846,44.6153846 L24.6153846,41.69 C24.6153846,40.4469231 24.95,39.2246154 25.5823077,38.1553846 L31.8038462,29.3238462 C31.6361538,29.0776923 31.5384615,28.7807692 31.5384615,28.4615385 L31.5384615,26.9230769 C31.5384615,26.4523077 31.7515385,26.03 32.0861538,25.7476923 L30.8246154,22.5938462 C30.7569231,22.4246154 30.7515385,22.2376923 30.8092308,22.0646154 L31.5784615,19.7569231 C31.6830769,19.4423077 31.9761538,19.2307692 32.3076923,19.2307692 L41.5384615,19.2307692 C41.87,19.2307692 42.1630769,19.4423077 42.2684615,19.7569231 L43.0376923,22.0646154 C43.0953846,22.2376923 43.09,22.4246154 43.0223077,22.5938462 L41.7607692,25.7476923 C42.0946154,26.03 42.3076923,26.4523077 42.3076923,26.9230769 L42.3076923,28.4615385 C42.3076923,28.8076923 42.1930769,29.1269231 41.9992308,29.3846154 L48.2084615,38.0515385 Z M32.8623077,20.7692308 L32.3576923,22.2838462 L33.5976923,25.3846154 L40.2484615,25.3846154 L41.4892308,22.2838462 L40.9846154,20.7692308 L32.8623077,20.7692308 Z M47.6923077,41.7415385 C47.7053846,40.7384615 47.4392308,39.7546154 46.9238462,38.8953846 L40.5484615,30 L38.4615385,30 L38.4615385,28.4615385 L40.7692308,28.4615385 L40.7692308,26.9230769 L33.0769231,26.9230769 L33.0769231,28.4615385 L36.9230769,28.4615385 L36.9230769,30 L33.2092308,30 L26.8730769,38.99 C26.4138462,39.77 26.1538462,40.7215385 26.1538462,41.6892308 L26.1538462,44.6146154 C26.1538462,46.7353846 27.8792308,48.4607692 30,48.4607692 L43.81,48.4607692 C45.9046154,48.4607692 47.63,46.7569231 47.6561538,44.6623077 L47.6923077,41.7415385 Z M38.4615385,38.4615385 C39.7338462,38.4615385 40.7692308,39.4969231 40.7692308,40.7692308 L40.7692308,42.3076923 C40.7692308,43.58 39.7338462,44.6153846 38.4615385,44.6153846 L37.6923077,44.6153846 L37.6923077,45.3846154 L36.1538462,45.3846154 L36.1538462,44.6153846 L33.8461538,44.6153846 L33.8461538,43.0769231 L38.4615385,43.0769231 C38.8861538,43.0769231 39.2307692,42.7315385 39.2307692,42.3076923 L39.2307692,40.7692308 C39.2307692,40.3453846 38.8861538,40 38.4615385,40 L35.3846154,40 C34.1123077,40 33.0769231,38.9646154 33.0769231,37.6923077 L33.0769231,36.1538462 C33.0769231,34.8815385 34.1123077,33.8461538 35.3846154,33.8461538 L36.1538462,33.8461538 L36.1538462,33.0769231 L37.6923077,33.0769231 L37.6923077,33.8461538 L40,33.8461538 L40,35.3846154 L35.3846154,35.3846154 C34.96,35.3846154 34.6153846,35.73 34.6153846,36.1538462 L34.6153846,37.6923077 C34.6153846,38.1161538 34.96,38.4615385 35.3846154,38.4615385 L38.4615385,38.4615385 Z M2.13923077,46.9230769 L1.75461538,48.4615385 L25.3846154,48.4615385 L25.3846154,50 L0.769230769,50 C0.532307692,50 0.309230769,49.8907692 0.163076923,49.7038462 C0.0169230769,49.5169231 -0.0346153846,49.2738462 0.0230769231,49.0438462 L0.792307692,45.9669231 C0.878461538,45.6246154 1.18538462,45.3846154 1.53846154,45.3846154 L2.47153846,45.3846154 L3.07230769,42.8961538 C3.15615385,42.5507692 3.46461538,42.3076923 3.82,42.3076923 L4.01538462,42.3076923 L4.63846154,39.8130769 C4.72461538,39.4707692 5.03153846,39.2307692 5.38461538,39.2307692 L5.38461538,20.7692308 C5.03153846,20.7692308 4.72461538,20.5292308 4.63923077,20.1869231 L4.01538462,17.6923077 L3.07692308,17.6923077 C2.72384615,17.6923077 2.41692308,17.4523077 2.33076923,17.11 L1.56153846,14.0330769 C1.50384615,13.8030769 1.55615385,13.56 1.70153846,13.3730769 C1.84692308,13.1861538 2.07076923,13.0769231 2.30769231,13.0769231 L3.07692308,13.0769231 L3.07692308,11.0784615 C3.07692308,10.7784615 3.25153846,10.5053846 3.52384615,10.38 L24.2938462,0.800769231 C24.4984615,0.706923077 24.7338462,0.706923077 24.9384615,0.800769231 L45.7069231,10.38 C45.9792308,10.5053846 46.1538462,10.7784615 46.1538462,11.0784615 L46.1538462,13.0769231 L46.9230769,13.0769231 C47.16,13.0769231 47.3830769,13.1861538 47.5292308,13.3730769 C47.6753846,13.56 47.7269231,13.8030769 47.6692308,14.0330769 L46.9,17.11 C46.8138462,17.4523077 46.5069231,17.6923077 46.1538462,17.6923077 L29.8307692,17.6923077 L29.2076923,20.1869231 C29.1215385,20.5292308 28.8146154,20.7692308 28.4615385,20.7692308 L28.4615385,32.3076923 L26.9230769,32.3076923 L26.9230769,20.7692308 L25.3846154,20.7692308 L25.3846154,36.1538462 L23.8461538,36.1538462 L23.8461538,20.7692308 L22.3076923,20.7692308 L22.3076923,39.2307692 L23.0769231,39.2307692 L23.0769231,40.7692308 L21.37,40.7692308 L20.9853846,42.3076923 L23.0769231,42.3076923 L23.0769231,43.8461538 L4.61538462,43.8461538 L4.42538462,43.8461538 L4.05461538,45.3846154 L23.0769231,45.3846154 L23.0769231,46.9230769 L2.13923077,46.9230769 Z M10,20.7692308 L10,39.2307692 L11.5384615,39.2307692 L11.5384615,20.7692308 L10,20.7692308 Z M20.7692308,39.2307692 L20.7692308,20.7692308 C20.4161538,20.7692308 20.1092308,20.5292308 20.0230769,20.1869231 L19.3992308,17.6923077 L14.4461538,17.6923077 L13.8230769,20.1869231 C13.7369231,20.5292308 13.43,20.7692308 13.0769231,20.7692308 L13.0769231,39.2307692 C13.43,39.2307692 13.7369231,39.4707692 13.8223077,39.8130769 L14.4461538,42.3076923 L19.4,42.3076923 L20.0230769,39.8130769 C20.1092308,39.4707692 20.4161538,39.2307692 20.7692308,39.2307692 Z M27.8607692,19.2307692 L28.2453846,17.6923077 L20.9846154,17.6923077 L21.37,19.2307692 L21.5384615,19.2307692 L27.6923077,19.2307692 L27.8607692,19.2307692 Z M4.61538462,11.5707692 L4.61538462,13.0769231 L44.6153846,13.0769231 L44.6153846,11.5707692 L24.6161538,2.34615385 L4.61538462,11.5707692 Z M3.29307692,14.6153846 L3.67769231,16.1538462 L4.61538462,16.1538462 L45.5530769,16.1538462 L45.9376923,14.6153846 L3.29307692,14.6153846 Z M12.8607692,17.6923077 L5.60076923,17.6923077 L5.98538462,19.2307692 L6.15384615,19.2307692 L12.3076923,19.2307692 L12.4761538,19.2307692 L12.8607692,17.6923077 Z M6.92307692,20.7692308 L6.92307692,39.2307692 L8.46153846,39.2307692 L8.46153846,20.7692308 L6.92307692,20.7692308 Z M5.98538462,40.7692308 L5.60076923,42.3076923 L12.8607692,42.3076923 L12.4761538,40.7692308 L12.3076923,40.7692308 L6.15384615,40.7692308 L5.98538462,40.7692308 Z M24.6153846,4.61538462 C26.7361538,4.61538462 28.4615385,6.34076923 28.4615385,8.46153846 C28.4615385,10.5823077 26.7361538,12.3076923 24.6153846,12.3076923 C22.4946154,12.3076923 20.7692308,10.5823077 20.7692308,8.46153846 C20.7692308,6.34076923 22.4946154,4.61538462 24.6153846,4.61538462 Z M24.6153846,10.7692308 C25.8876923,10.7692308 26.9230769,9.73384615 26.9230769,8.46153846 C26.9230769,7.18923077 25.8876923,6.15384615 24.6153846,6.15384615 C23.3430769,6.15384615 22.3076923,7.18923077 22.3076923,8.46153846 C22.3076923,9.73384615 23.3430769,10.7692308 24.6153846,10.7692308 Z" id="Combined-Shape"></path>
                        </g>
                    </g>
                </g>
            </g>
        </g>
    </g>
</svg>