<?xml version="1.0" encoding="UTF-8"?>
<svg width="50px" height="38px" viewBox="0 0 50 38" version="1.1" xmlns="http://www.w3.org/2000/svg" xmlns:xlink="http://www.w3.org/1999/xlink">
    <!-- Generator: Sketch 55.2 (78181) - https://sketchapp.com -->
    <title>Marketplace-icon</title>
    <desc>Created with Sketch.</desc>
    <g id="How-do-I-sell" stroke="none" stroke-width="1" fill="none" fill-rule="evenodd">
        <g id="How-do-I-sell-my-PropertyShares?" transform="translate(-432.000000, -875.000000)" fill="#208389">
            <g id="Group-9" transform="translate(207.000000, 817.000000)">
                <g id="Group-3" transform="translate(45.000000, 28.000000)">
                    <g id="Group-34">
                        <g id="Marketplace-icon" transform="translate(180.000000, 30.000000)">
                            <path d="M25,19.4094488 C25.8858268,19.4094488 26.6141732,18.6811024 26.6141732,17.7952756 C26.6141732,16.8996063 25.8858268,16.1811024 25,16.1811024 C23.2185039,16.1811024 21.7716535,14.734252 21.7716535,12.9527559 C21.7716535,11.4566929 22.8051181,10.2066929 24.1929134,9.84251969 L24.1929134,8.91732283 L25.8070866,8.91732283 L25.8070866,9.84251969 C27.1948819,10.2066929 28.2283465,11.4566929 28.2283465,12.9527559 L26.6141732,12.9527559 C26.6141732,12.0570866 25.8858268,11.3385827 25,11.3385827 C24.1141732,11.3385827 23.3858268,12.0669291 23.3858268,12.9527559 C23.3858268,13.8484252 24.1141732,14.5669291 25,14.5669291 C26.7814961,14.5669291 28.2283465,16.0137795 28.2283465,17.7952756 C28.2283465,19.2913386 27.1948819,20.5413386 25.8070866,20.9055118 L25.8070866,21.8307087 L24.1929134,21.8307087 L24.1929134,20.9055118 C22.8051181,20.5413386 21.7716535,19.2913386 21.7716535,17.7952756 L23.3858268,17.7952756 C23.3858268,18.6909449 24.1141732,19.4094488 25,19.4094488 Z M41.9389764,4.89173228 L41.9291339,4.89173228 L41.9291339,25.8562992 L8.06102362,25.8562992 L8.06102362,4.89173228 L41.9389764,4.89173228 Z M40.3248031,24.2519685 L40.3248031,6.50590551 L9.67519685,6.50590551 L9.67519685,24.2519685 L40.3248031,24.2519685 Z M46.7716535,29.0846457 L50,29.0846457 L50,33.1200787 C50,35.3444882 48.1889764,37.1555118 45.9645669,37.1555118 L4.03543307,37.1555118 C1.81102362,37.1555118 0,35.3444882 0,33.1200787 L0,29.0846457 L3.22834646,29.0846457 L3.22834646,0.0492125984 L46.7716535,0.0492125984 L46.7716535,29.0846457 Z M4.84251969,1.66338583 L4.84251969,29.0846457 L19.3503937,29.0846457 L19.3503937,31.5059055 L30.6496063,31.5059055 L30.6496063,29.0846457 L45.1673228,29.0846457 L45.1673228,1.66338583 L4.84251969,1.66338583 Z M48.3858268,33.1200787 L48.3956693,33.1200787 L48.3956693,30.6988189 L32.2637795,30.6988189 L32.2637795,33.1200787 L17.746063,33.1200787 L17.746063,30.6988189 L1.61417323,30.6988189 L1.61417323,33.1200787 C1.61417323,34.4586614 2.69685039,35.5413386 4.03543307,35.5413386 L45.9645669,35.5413386 C47.3031496,35.5413386 48.3858268,34.4586614 48.3858268,33.1200787 Z M35.4822835,32.3129921 L45.1574803,32.3129921 L45.1574803,33.9271654 L35.4822835,33.9271654 L35.4822835,32.3129921 Z" id="Combined-Shape"></path>
                        </g>
                    </g>
                </g>
            </g>
        </g>
    </g>
</svg>