<?xml version="1.0" encoding="UTF-8"?>
<svg width="47px" height="47px" viewBox="0 0 47 47" version="1.1" xmlns="http://www.w3.org/2000/svg" xmlns:xlink="http://www.w3.org/1999/xlink">
    <!-- Generator: Sketch 55.2 (78181) - https://sketchapp.com -->
    <title>noun_website_1636942</title>
    <desc>Created with Sketch.</desc>
    <g id="How-do-I-sell" stroke="none" stroke-width="1" fill="none" fill-rule="evenodd">
        <g id="How-do-I-sell-my-PropertyShares?" transform="translate(-978.000000, -869.000000)" fill="#208389">
            <g id="Group-9-Copy" transform="translate(753.000000, 812.000000)">
                <g id="Group-3" transform="translate(31.000000, 57.000000)">
                    <g id="Group-34">
                        <g id="noun_website_1636942" transform="translate(194.000000, 0.000000)">
                            <circle id="Oval" cx="3.90625" cy="3.90625" r="1"></circle>
                            <circle id="Oval" cx="7.03125" cy="3.90625" r="1"></circle>
                            <circle id="Oval" cx="10.15625" cy="3.90625" r="1"></circle>
                            <path d="M3.125,39.0625 L14.6875,39.0625 C14.453125,38.59375 14.296875,38.046875 14.21875,37.5 L3.125,37.5 L3.125,39.0625 Z" id="Path"></path>
                            <path d="M3.125,34.375 L3.125,35.9375 L14.0625,35.9375 C14.140625,35.546875 14.140625,35.15625 14.296875,34.84375 C14.140625,34.6875 14.0625,34.53125 13.90625,34.375 L3.125,34.375 Z" id="Path"></path>
                            <path d="M14.21875,23.4375 C14.296875,22.890625 14.53125,22.34375 14.765625,21.875 L3.125,21.875 L3.125,32.8125 L12.96875,32.8125 C12.734375,32.34375 12.65625,31.796875 12.578125,31.25 L4.6875,31.25 L4.6875,23.4375 L14.21875,23.4375 Z" id="Path"></path>
                            <path d="M18.125,42.1875 L1.5625,42.1875 L1.5625,7.8125 L39.0625,7.8125 L39.0625,14.6875 C39.21875,14.765625 39.296875,14.84375 39.453125,14.84375 C39.921875,15.078125 40.234375,15.390625 40.625,15.703125 L40.625,0 L0,0 L0,43.75 L19.21875,43.75 C18.984375,43.28125 18.75,42.8125 18.59375,42.34375 C18.4375,42.265625 18.28125,42.265625 18.125,42.1875 Z M1.5625,1.5625 L39.0625,1.5625 L39.0625,6.25 L1.5625,6.25 L1.5625,1.5625 Z" id="Shape"></path>
                            <path d="M46.875,30.46875 C46.875,28.90625 46.09375,27.5 44.84375,26.640625 C45.546875,25.234375 45.46875,23.59375 44.6875,22.265625 C43.90625,20.9375 42.5,20.078125 41.015625,19.921875 C40.859375,18.4375 40,17.03125 38.671875,16.25 C37.265625,15.46875 35.703125,15.46875 34.296875,16.09375 C33.4375,14.84375 32.03125,14.0625 30.46875,14.0625 C28.90625,14.0625 27.5,14.84375 26.640625,16.09375 C25.234375,15.390625 23.59375,15.46875 22.265625,16.25 C20.9375,17.03125 20.078125,18.4375 19.921875,19.921875 C18.4375,20.078125 17.03125,20.859375 16.25,22.265625 C15.46875,23.671875 15.46875,25.234375 16.09375,26.640625 C14.84375,27.5 14.0625,28.90625 14.0625,30.46875 C14.0625,32.03125 14.84375,33.4375 16.09375,34.296875 C15.390625,35.703125 15.46875,37.34375 16.25,38.671875 C17.03125,40 18.4375,40.859375 19.921875,41.015625 C20.078125,42.5 20.9375,43.90625 22.265625,44.6875 C23.671875,45.46875 25.234375,45.46875 26.640625,44.84375 C27.5,46.09375 28.90625,46.875 30.46875,46.875 C32.03125,46.875 33.4375,46.09375 34.296875,44.84375 C35.703125,45.546875 37.34375,45.46875 38.671875,44.6875 C40,43.90625 40.859375,42.5 41.015625,41.015625 C42.5,40.859375 43.90625,40 44.6875,38.671875 C45.46875,37.265625 45.46875,35.703125 44.84375,34.296875 C46.09375,33.4375 46.875,32.03125 46.875,30.46875 Z M43.4375,33.28125 L42.578125,33.671875 L43.125,34.453125 C43.828125,35.390625 43.90625,36.71875 43.28125,37.8125 C42.65625,38.90625 41.484375,39.53125 40.234375,39.375 L39.296875,39.296875 L39.375,40.234375 C39.453125,41.484375 38.90625,42.65625 37.8125,43.28125 C36.796875,43.90625 35.46875,43.828125 34.453125,43.125 L33.671875,42.578125 L33.28125,43.4375 C32.8125,44.609375 31.71875,45.3125 30.46875,45.3125 C29.21875,45.3125 28.125,44.609375 27.578125,43.4375 L27.1875,42.578125 L26.484375,43.125 C25.546875,43.828125 24.21875,43.90625 23.125,43.28125 C22.03125,42.65625 21.40625,41.484375 21.5625,40.234375 L21.640625,39.296875 L20.703125,39.375 C19.453125,39.453125 18.28125,38.90625 17.65625,37.8125 C17.03125,36.796875 17.109375,35.46875 17.8125,34.453125 L18.359375,33.671875 L17.5,33.28125 C16.328125,32.8125 15.625,31.71875 15.625,30.46875 C15.625,29.21875 16.328125,28.125 17.5,27.65625 L18.359375,27.265625 L17.8125,26.484375 C17.109375,25.546875 17.03125,24.21875 17.65625,23.125 C18.28125,22.03125 19.453125,21.40625 20.703125,21.5625 L21.640625,21.640625 L21.5625,20.703125 C21.484375,19.453125 22.03125,18.28125 23.125,17.65625 C24.140625,17.03125 25.46875,17.109375 26.484375,17.8125 L27.265625,18.359375 L27.65625,17.5 C28.125,16.328125 29.21875,15.625 30.46875,15.625 C31.71875,15.625 32.8125,16.328125 33.28125,17.5 L33.671875,18.359375 L34.453125,17.8125 C35.390625,17.109375 36.71875,17.03125 37.8125,17.65625 C38.90625,18.28125 39.53125,19.453125 39.375,20.703125 L39.296875,21.640625 L40.234375,21.5625 C41.484375,21.484375 42.65625,22.03125 43.28125,23.125 C43.90625,24.140625 43.828125,25.46875 43.125,26.484375 L42.578125,27.265625 L43.4375,27.65625 C44.609375,28.125 45.3125,29.21875 45.3125,30.46875 C45.3125,31.71875 44.609375,32.8125 43.4375,33.28125 Z" id="Shape"></path>
                            <path d="M39.296875,21.640625 C37.03125,19.375 33.90625,17.96875 30.46875,17.96875 C27.03125,17.96875 23.90625,19.375 21.640625,21.640625 C19.375,23.90625 17.96875,27.03125 17.96875,30.46875 C17.96875,33.90625 19.375,37.03125 21.640625,39.296875 C23.90625,41.5625 27.03125,42.96875 30.46875,42.96875 C33.90625,42.96875 37.03125,41.5625 39.296875,39.296875 C41.5625,37.03125 42.96875,33.90625 42.96875,30.46875 C42.96875,27.03125 41.5625,23.90625 39.296875,21.640625 Z M30.46875,41.40625 C24.453125,41.40625 19.53125,36.484375 19.53125,30.46875 C19.53125,24.453125 24.453125,19.53125 30.46875,19.53125 C36.484375,19.53125 41.40625,24.453125 41.40625,30.46875 C41.40625,36.484375 36.484375,41.40625 30.46875,41.40625 Z" id="Shape"></path>
                            <path d="M36.328125,14.0625 C36.71875,14.0625 37.109375,14.140625 37.5,14.21875 L37.5,9.375 L3.125,9.375 L3.125,20.3125 L15.78125,20.3125 C16.484375,19.609375 17.265625,19.0625 18.203125,18.75 L4.6875,18.75 L4.6875,10.9375 L35.9375,10.9375 L35.9375,14.0625 C36.09375,14.0625 36.171875,14.0625 36.328125,14.0625 Z" id="Path"></path>
                            <path d="M33.59375,27.34375 L35.15625,27.34375 C35.15625,25.15625 33.4375,23.4375 31.25,23.4375 L31.25,21.09375 L29.6875,21.09375 L29.6875,23.4375 C27.5,23.4375 25.78125,25.15625 25.78125,27.34375 C25.78125,29.53125 27.5,31.25 29.6875,31.25 L29.6875,35.9375 C28.359375,35.9375 27.34375,34.921875 27.34375,33.59375 L25.78125,33.59375 C25.78125,35.78125 27.5,37.5 29.6875,37.5 L29.6875,39.84375 L31.25,39.84375 L31.25,37.5 C33.4375,37.5 35.15625,35.78125 35.15625,33.59375 C35.15625,31.40625 33.4375,29.6875 31.25,29.6875 L31.25,25 C32.578125,25 33.59375,26.015625 33.59375,27.34375 Z M33.59375,33.59375 C33.59375,34.921875 32.578125,35.9375 31.25,35.9375 L31.25,31.25 C32.578125,31.25 33.59375,32.265625 33.59375,33.59375 Z M29.6875,29.6875 C28.359375,29.6875 27.34375,28.671875 27.34375,27.34375 C27.34375,26.015625 28.359375,25 29.6875,25 L29.6875,29.6875 Z" id="Shape"></path>
                        </g>
                    </g>
                </g>
            </g>
        </g>
    </g>
</svg>