<?xml version="1.0" encoding="UTF-8"?>
<svg width="146px" height="29px" viewBox="0 0 146 29" version="1.1" xmlns="http://www.w3.org/2000/svg" xmlns:xlink="http://www.w3.org/1999/xlink">
    <title>logo</title>
    <defs>
        <polygon id="path-1" points="0.0359016393 0.0259791667 31.2840902 0.0259791667 31.2840902 28.96375 0.0359016393 28.96375"></polygon>
    </defs>
    <g id="Page-1" stroke="none" stroke-width="1" fill="none" fill-rule="evenodd">
        <g id="BlackFin_v16" transform="translate(-423.000000, -27.000000)">
            <g id="logo" transform="translate(423.000000, 27.000000)">
                <g id="Group-3">
                    <mask id="mask-2" fill="white">
                        <use xlink:href="#path-1"></use>
                    </mask>
                    <g id="Clip-2"></g>
                    <path d="M8.28370492,14.5126875 L8.28370492,14.5126875 L11.0618934,9.65397917 L21.7043361,9.65397917 C22.6706885,9.65397917 23.6310574,9.80079167 24.5531311,10.0932083 C25.1221721,10.27325 25.6726639,10.5070625 26.1974262,10.7910208 C25.8384098,11.7903125 25.2442377,12.6844792 24.4705574,13.3973958 C24.2102705,13.2723333 23.9410082,13.1653958 23.6663607,13.0771875 C23.0315,12.872375 22.3703115,12.7690625 21.7043361,12.7690625 L12.8366311,12.7690625 C10.3372787,17.1414167 7.83732787,21.5131667 5.33737705,25.8843125 L21.7043361,25.8843125 C25.2753525,25.8843125 28.1983443,22.9323542 28.1983443,19.3272917 C28.1983443,19.1816875 28.1941557,19.0366875 28.184582,18.8922917 C29.2113689,18.1751458 30.0897623,17.2634583 30.7712951,16.2097917 C31.1099672,17.207875 31.2840902,18.2585208 31.2840902,19.3266875 C31.2840902,24.6475833 26.9740984,29 21.7043361,29 L0,29 L6.64120492,17.3848958 L6.64240164,17.3830833 L6.76805738,17.1625625 L6.89490984,16.9420417 L7.14681967,16.4997917 L7.27367213,16.2792708 L7.39932787,16.0581458 L7.52618033,15.837625 L7.77809016,15.3959792 L7.90494262,15.1754583 L8.15745082,14.7338125 L8.28370492,14.5126875 Z M24.534582,18.9388125 C23.6178934,19.2263958 22.6641066,19.372 21.7043361,19.372 L11.6111885,19.372 L13.3919098,16.2563125 L21.7043361,16.2563125 C22.3703115,16.2563125 23.0320984,16.153 23.6663607,15.9487917 C24.4747459,15.6883958 25.2250902,15.2672917 25.8743115,14.7162917 C27.3438852,13.4674792 28.1983443,11.6410833 28.1983443,9.6986875 C28.1983443,6.09302083 25.2759508,3.14166667 21.7043361,3.14166667 L5.33737705,3.14166667 L9.06097541,9.65397917 L7.2832459,12.763625 L0,0.0259791667 L21.7043361,0.0259791667 C26.9735,0.0259791667 31.2840902,4.379 31.2840902,9.69929167 C31.2840902,10.4575208 31.1961311,11.2078958 31.0238033,11.9365208 L31.0106393,11.9274583 C30.236959,15.2437292 27.7800902,17.9044792 24.5333852,18.9327708 C24.5327869,18.9339792 24.5327869,18.9357917 24.534582,18.9388125 L24.534582,18.9388125 Z" id="Fill-1" fill="#72BCB5" mask="url(#mask-2)"></path>
                </g>
                <path d="M40.2265902,9.42258333 C41.747623,9.42258333 43.2261721,9.42258333 44.7466066,9.42258333 C46.1180492,9.42258333 47.8957787,10.1578542 47.8957787,11.7800417 C47.8957787,13.4457292 46.0534262,13.8783125 44.7256639,13.8783125 L40.2265902,13.8783125 L40.2265902,9.42258333 Z M40.2265902,3.14952083 L44.7256639,3.14952083 C46.5249344,3.14952083 47.4464098,4.27810417 47.4464098,5.3450625 C47.4464098,6.54191667 46.545877,7.25966667 44.7466066,7.25966667 L40.2265902,7.25966667 L40.2265902,3.14952083 Z M37.8493033,0.964854167 L37.8493033,16.127625 C40.1841066,16.127625 42.3902623,16.127625 44.7256639,16.127625 C47.6815656,16.127625 50.2952049,15.1114167 50.2952049,11.8017917 C50.2952049,10.6550833 49.545459,8.86010417 47.7461885,8.319375 C49.1601148,7.73514583 49.8236967,6.58541667 49.8236967,5.30216667 C49.8236967,2.28495833 47.574459,0.964854167 44.7256639,0.964854167 L37.8493033,0.964854167 L37.8493033,0.964854167 Z" id="Fill-4" fill="#FFFFFF"></path>
                <polyline id="Fill-5" fill="#FFFFFF" points="53.6885082 0.964854167 53.6885082 16.127625 63.9922787 16.127625 63.9922787 13.8783125 56.0873361 13.8783125 56.0873361 0.964854167 53.6885082 0.964854167"></polyline>
                <path d="M79.4461393,16.127625 L81.9957541,16.127625 L75.2689836,0.964854167 L72.6553443,0.964854167 L65.9291721,16.127625 L68.4781885,16.127625 L69.8921148,12.9478958 L78.0112705,12.9478958 L79.4461393,16.127625 Z M77.132877,10.7420833 L70.7920492,10.7420833 L73.9621639,3.52470833 L77.132877,10.7420833 L77.132877,10.7420833 Z" id="Fill-6" fill="#FFFFFF"></path>
                <path d="M94.1071721,12.5159167 C93.0576475,13.5750208 91.5150738,14.15925 90.1226885,14.15925 C86.2453115,14.15925 84.6177705,11.4127083 84.5962295,8.6438125 C84.5746885,5.85377083 86.3093361,3.02022917 90.1226885,3.02022917 C91.5150738,3.02022917 92.9295984,3.51745833 94.0000656,4.57716667 L95.6066639,3.02022917 C94.0862295,1.4844375 92.1367705,0.727416667 90.1226885,0.727416667 C84.7673607,0.727416667 82.1968033,4.6853125 82.21821,8.6655625 C82.2398852,12.6458125 84.6817951,16.4303125 90.1226885,16.4303125 C92.2223361,16.4303125 94.214877,15.7167917 95.7568525,14.181 L94.1071721,12.5159167" id="Fill-7" fill="#FFFFFF"></path>
                <polyline id="Fill-8" fill="#FFFFFF" points="110.182131 0.964854167 107.204689 0.964854167 101.099615 7.50797917 101.099615 0.964854167 98.7001885 0.964854167 98.7001885 16.127625 101.099615 16.127625 101.099615 9.21716667 107.783303 16.127625 110.782287 16.127625 110.782287 15.9759792 103.30577 8.28675 110.182131 1.05185417 110.182131 0.964854167"></polyline>
                <polyline id="Fill-9" fill="#72BCB5" points="113.19009 0.986604167 113.19009 16.149375 115.053385 16.149375 115.053385 9.81166667 123.236566 9.81166667 123.236566 8.05958333 115.053385 8.05958333 115.053385 2.7821875 123.600967 2.7821875 123.600967 0.986604167 113.19009 0.986604167"></polyline>
                <polygon id="Fill-10" fill="#72BCB5" points="127.329951 16.127625 129.193246 16.127625 129.193246 0.986604167 127.329951 0.986604167"></polygon>
                <polyline id="Fill-11" fill="#72BCB5" points="133.479303 0.986604167 133.479303 16.127625 135.321057 16.127625 135.321057 4.57716667 144.53282 16.127625 145.818098 16.127625 145.818098 0.986604167 143.975746 0.986604167 143.975746 12.5805625 134.785525 0.986604167 133.479303 0.986604167"></polyline>
                <path d="M40.3319016,28.1795417 L40.8614508,28.1795417 L40.8614508,21.7197917 L43.3440492,21.7197917 L43.3440492,21.2437083 L37.8493033,21.2437083 L37.8493033,21.7197917 L40.3319016,21.7197917 L40.3319016,28.1795417 Z M49.4221967,21.7493958 L53.6418361,21.7493958 L53.6418361,21.2437083 L48.9022213,21.2437083 L48.9022213,28.1795417 L53.7597131,28.1795417 L53.7597131,27.6641875 L49.4221967,27.6641875 L49.4221967,24.9297292 L53.4461721,24.9297292 L53.4461721,24.4439792 L49.4221967,24.4439792 L49.4221967,21.7493958 Z M64.8622951,26.8817917 C64.2735082,27.466625 63.488459,27.763875 62.713582,27.763875 C60.7312131,27.763875 59.7104098,26.3567708 59.6906639,24.7315625 C59.6810902,23.0670833 60.7114672,21.6406458 62.713582,21.6406458 C63.488459,21.6406458 64.2633361,21.927625 64.852123,22.522125 L65.2153279,22.2049375 C64.5284098,21.5113542 63.6159098,21.1645625 62.713582,21.1645625 C60.3578361,21.1645625 59.1611148,22.8985208 59.1808607,24.7515 C59.1904344,26.6244167 60.3973279,28.2586875 62.713582,28.2586875 C63.6159098,28.2586875 64.5284098,27.9125 65.2153279,27.2189167 L64.8622951,26.8817917 Z M76.5045984,28.1795417 L76.5045984,21.2437083 L75.9744508,21.2437083 L75.9744508,24.5436667 L71.598041,24.5436667 L71.598041,21.2437083 L71.0678934,21.2437083 L71.0678934,28.1795417 L71.598041,28.1795417 L71.598041,25.0294167 L75.9744508,25.0294167 L75.9744508,28.1795417 L76.5045984,28.1795417 Z M82.8867131,21.2437083 L82.8867131,28.1795417 L83.4168607,28.1795417 L83.4168607,22.4526458 L88.0481721,28.1795417 L88.2540082,28.1795417 L88.2540082,21.2437083 L87.7346311,21.2437083 L87.7346311,26.980875 L83.1122951,21.2437083 L82.8867131,21.2437083 Z M97.659041,21.1349583 C95.3433852,21.1349583 94.1951311,22.8393125 94.1951311,24.7019583 C94.1951311,26.535 95.352959,28.2985625 97.659041,28.2985625 C99.965123,28.2985625 101.113377,26.5452708 101.123017,24.7218958 C101.133123,22.8489792 99.9746967,21.1349583 97.659041,21.1349583 Z M97.659041,21.630375 C99.6318361,21.630375 100.612549,23.1069583 100.612549,24.7122292 C100.612549,26.2770208 99.6216639,27.8031458 97.659041,27.8031458 C95.7065902,27.8031458 94.7252787,26.2770208 94.7151066,24.7122292 C94.7055328,23.07675 95.6868443,21.630375 97.659041,21.630375 Z M107.064074,21.2437083 L107.064074,28.1795417 L111.46023,28.1795417 L111.46023,27.6744583 L107.593623,27.6744583 L107.593623,21.2437083 L107.064074,21.2437083 Z M119.677516,21.1349583 C117.361262,21.1349583 116.213607,22.8393125 116.213607,24.7019583 C116.213607,26.535 117.371434,28.2985625 119.677516,28.2985625 C121.983598,28.2985625 123.131852,26.5452708 123.141493,24.7218958 C123.151598,22.8489792 121.993172,21.1349583 119.677516,21.1349583 Z M119.677516,21.630375 C121.649713,21.630375 122.631025,23.1069583 122.631025,24.7122292 C122.631025,26.2770208 121.640139,27.8031458 119.677516,27.8031458 C117.724467,27.8031458 116.743156,26.2770208 116.733582,24.7122292 C116.724008,23.07675 117.70532,21.630375 119.677516,21.630375 Z M134.704746,22.1856042 C134.008254,21.4920208 133.095754,21.1452292 132.192828,21.1452292 C130.102754,21.1452292 128.640361,22.562 128.65048,24.7315625 C128.65048,26.6244167 129.857426,28.2689583 132.192828,28.2689583 C133.213631,28.2689583 134.066893,27.872625 134.78373,27.1488333 L134.78373,24.5533333 L131.888861,24.5533333 L131.888861,25.0191458 L134.282902,25.0191458 L134.282902,26.9609375 C133.694115,27.5058958 132.928811,27.763875 132.192828,27.763875 C130.190713,27.763875 129.160336,26.3567708 129.160336,24.7218958 C129.150762,23.116625 130.181139,21.630375 132.192828,21.630375 C132.968303,21.630375 133.802418,21.927625 134.400779,22.522125 L134.704746,22.1856042 Z M142.59832,28.1795417 L143.128467,28.1795417 L143.128467,25.4052083 L145.816902,21.2539792 L145.816902,21.2437083 L145.198795,21.2437083 L142.863393,24.8904583 L140.537566,21.2437083 L139.919459,21.2437083 L139.919459,21.2539792 L142.59832,25.4052083 L142.59832,28.1795417 L142.59832,28.1795417 Z" id="Fill-12" fill="#FFFFFF"></path>
            </g>
        </g>
    </g>
</svg>